<?xml version="1.0" encoding="UTF-8" standalone="no"?><svg xmlns="http://www.w3.org/2000/svg" xmlns:xlink="http://www.w3.org/1999/xlink" clip-rule="evenodd" stroke-miterlimit="10" viewBox="0 0 640 1146"><desc>SVG generated by Keynote</desc><defs><pattern id="patternP1" patternUnits="userSpaceOnUse" width="600" height="600" viewBox="0 0 600 600"><image xlink:href="../../0099E750-43F4-4A1E-80C1-2076B752852F/assets/241136225324F10284C73D0DC5A23E4D.png" width="600.00" height="600.00"></image></pattern></defs><g transform="matrix(1.00, 0.00, -0.00, -1.00, 0.0, 1146.0)"><path d="M 0.0 1146.0 L 640.0 1146.0 L 640.0 0.0 L 0.0 0.0 Z M 0.0 1146.0 " fill="#FEFFFF"></path><g><clipPath id="clip0x610002aa3360"><path d="M -1.0 1146.0 L 641.0 1146.0 L 641.0 1092.0 L -1.0 1092.0 Z M -0.9 1146.2 "></path></clipPath><g clip-path="url(#clip0x610002aa3360)"><path d="M 0.0 1092.0 L 640.0 1092.0 L 640.0 1146.0 L 0.0 1146.0 Z M 0.0 1092.0 " fill="url(#patternP1)"></path></g></g><g><clipPath id="clip0x6180026a0c60"><path d="M 19.5 1124.5 L 40.4 1124.5 L 40.4 1129.5 L 19.5 1129.5 Z M 19.5 1124.5 "></path></clipPath><g clip-path="url(#clip0x6180026a0c60)"><path d="M 0.5 0.5 L 18.5 0.5 " fill="none" stroke="#FEFFFE" stroke-width="3.00" transform="matrix(1.00, 0.00, 0.00, -1.00, 20.5, 1127.0)"></path></g></g><g><clipPath id="clip0x6180026a0ea0"><path d="M 19.5 1115.5 L 40.4 1115.5 L 40.4 1120.5 L 19.5 1120.5 Z M 19.5 1115.5 "></path></clipPath><g clip-path="url(#clip0x6180026a0ea0)"><path d="M 0.5 -0.5 L 18.5 -0.5 " fill="none" stroke="#FEFFFE" stroke-width="3.00" transform="matrix(1.00, 0.00, 0.00, -1.00, 20.5, 1118.0)"></path></g></g><g><clipPath id="clip0x6180026a10e0"><path d="M 19.5 1107.7 L 40.4 1107.7 L 40.4 1112.7 L 19.5 1112.7 Z M 19.5 1107.7 "></path></clipPath><g clip-path="url(#clip0x6180026a10e0)"><path d="M 0.5 -0.3 L 18.5 -0.3 " fill="none" stroke="#FEFFFE" stroke-width="3.00" transform="matrix(1.00, 0.00, 0.00, -1.00, 20.5, 1110.2)"></path></g></g><path d="M -1.0 1092.0 L 641.0 1092.0 L 641.0 944.0 L -1.0 944.0 Z M -0.8 1092.4 " fill="#DCDDE0" fill-opacity="0.50"></path><g><clipPath id="clip0x6180026a13e0"><path d="M 14.6 1025.5 L 340.7 1025.5 L 340.7 1056.5 L 14.6 1056.5 Z M 14.6 1025.5 "></path></clipPath><g clip-path="url(#clip0x6180026a13e0)"><text xml:space="preserve" font-family="Helvetica-Light,Helvetica" font-size="18.0" fill="#52575F" transform="matrix(1.00, 0.00, -0.00, -1.00, 19.6, 1034.1)">E</text><text xml:space="preserve" font-family="Helvetica-Light,Helvetica" font-size="18.0" fill="#52575F" transform="matrix(1.00, 0.00, -0.00, -1.00, 30.6, 1034.1)">n</text><text xml:space="preserve" font-family="Helvetica-Light,Helvetica" font-size="18.0" fill="#52575F" transform="matrix(1.00, 0.00, -0.00, -1.00, 40.6, 1034.1)">g</text><text xml:space="preserve" font-family="Helvetica-Light,Helvetica" font-size="18.0" fill="#52575F" transform="matrix(1.00, 0.00, -0.00, -1.00, 51.6, 1034.1)">l</text><text xml:space="preserve" font-family="Helvetica-Light,Helvetica" font-size="18.0" fill="#52575F" transform="matrix(1.00, 0.00, -0.00, -1.00, 55.6, 1034.1)">i</text><text xml:space="preserve" font-family="Helvetica-Light,Helvetica" font-size="18.0" fill="#52575F" transform="matrix(1.00, 0.00, -0.00, -1.00, 59.6, 1034.1)">s</text><text xml:space="preserve" font-family="Helvetica-Light,Helvetica" font-size="18.0" fill="#52575F" transform="matrix(1.00, 0.00, -0.00, -1.00, 68.6, 1034.1)">h</text><text xml:space="preserve" font-family="Helvetica-Light,Helvetica" font-size="18.0" fill="#52575F" transform="matrix(1.00, 0.00, -0.00, -1.00, 78.6, 1034.1)"> </text><text xml:space="preserve" font-family="Helvetica-Light,Helvetica" font-size="18.0" fill="#52575F" transform="matrix(1.00, 0.00, -0.00, -1.00, 83.6, 1034.1)">F</text><text xml:space="preserve" font-family="Helvetica-Light,Helvetica" font-size="18.0" fill="#52575F" transform="matrix(1.00, 0.00, -0.00, -1.00, 93.6, 1034.1)">o</text><text xml:space="preserve" font-family="Helvetica-Light,Helvetica" font-size="18.0" fill="#52575F" transform="matrix(1.00, 0.00, -0.00, -1.00, 103.6, 1034.1)">o</text><text xml:space="preserve" font-family="Helvetica-Light,Helvetica" font-size="18.0" fill="#52575F" transform="matrix(1.00, 0.00, -0.00, -1.00, 113.6, 1034.1)">t</text><text xml:space="preserve" font-family="Helvetica-Light,Helvetica" font-size="18.0" fill="#52575F" transform="matrix(1.00, 0.00, -0.00, -1.00, 118.6, 1034.1)">b</text><text xml:space="preserve" font-family="Helvetica-Light,Helvetica" font-size="18.0" fill="#52575F" transform="matrix(1.00, 0.00, -0.00, -1.00, 129.6, 1034.1)">a</text><text xml:space="preserve" font-family="Helvetica-Light,Helvetica" font-size="18.0" fill="#52575F" transform="matrix(1.00, 0.00, -0.00, -1.00, 139.6, 1034.1)">l</text><text xml:space="preserve" font-family="Helvetica-Light,Helvetica" font-size="18.0" fill="#52575F" transform="matrix(1.00, 0.00, -0.00, -1.00, 143.6, 1034.1)">l</text><text xml:space="preserve" font-family="Helvetica-Light,Helvetica" font-size="18.0" fill="#52575F" transform="matrix(1.00, 0.00, -0.00, -1.00, 147.6, 1034.1)"> </text><text xml:space="preserve" font-family="Helvetica-Light,Helvetica" font-size="18.0" fill="#52575F" transform="matrix(1.00, 0.00, -0.00, -1.00, 152.6, 1034.1)">L</text><text xml:space="preserve" font-family="Helvetica-Light,Helvetica" font-size="18.0" fill="#52575F" transform="matrix(1.00, 0.00, -0.00, -1.00, 162.6, 1034.1)">e</text><text xml:space="preserve" font-family="Helvetica-Light,Helvetica" font-size="18.0" fill="#52575F" transform="matrix(1.00, 0.00, -0.00, -1.00, 172.6, 1034.1)">a</text><text xml:space="preserve" font-family="Helvetica-Light,Helvetica" font-size="18.0" fill="#52575F" transform="matrix(1.00, 0.00, -0.00, -1.00, 182.6, 1034.1)">g</text><text xml:space="preserve" font-family="Helvetica-Light,Helvetica" font-size="18.0" fill="#52575F" transform="matrix(1.00, 0.00, -0.00, -1.00, 193.6, 1034.1)">u</text><text xml:space="preserve" font-family="Helvetica-Light,Helvetica" font-size="18.0" fill="#52575F" transform="matrix(1.00, 0.00, -0.00, -1.00, 203.6, 1034.1)">e</text><text xml:space="preserve" font-family="Helvetica-Light,Helvetica" font-size="18.0" fill="#52575F" transform="matrix(1.00, 0.00, -0.00, -1.00, 213.6, 1034.1)"> </text><text xml:space="preserve" font-family="Helvetica-Light,Helvetica" font-size="18.0" fill="#52575F" transform="matrix(1.00, 0.00, -0.00, -1.00, 218.6, 1034.1)">C</text><text xml:space="preserve" font-family="Helvetica-Light,Helvetica" font-size="18.0" fill="#52575F" transform="matrix(1.00, 0.00, -0.00, -1.00, 231.6, 1034.1)">h</text><text xml:space="preserve" font-family="Helvetica-Light,Helvetica" font-size="18.0" fill="#52575F" transform="matrix(1.00, 0.00, -0.00, -1.00, 241.7, 1034.1)">a</text><text xml:space="preserve" font-family="Helvetica-Light,Helvetica" font-size="18.0" fill="#52575F" transform="matrix(1.00, 0.00, -0.00, -1.00, 251.7, 1034.1)">m</text><text xml:space="preserve" font-family="Helvetica-Light,Helvetica" font-size="18.0" fill="#52575F" transform="matrix(1.00, 0.00, -0.00, -1.00, 266.7, 1034.1)">p</text><text xml:space="preserve" font-family="Helvetica-Light,Helvetica" font-size="18.0" fill="#52575F" transform="matrix(1.00, 0.00, -0.00, -1.00, 277.7, 1034.1)">i</text><text xml:space="preserve" font-family="Helvetica-Light,Helvetica" font-size="18.0" fill="#52575F" transform="matrix(1.00, 0.00, -0.00, -1.00, 281.6, 1034.1)">o</text><text xml:space="preserve" font-family="Helvetica-Light,Helvetica" font-size="18.0" fill="#52575F" transform="matrix(1.00, 0.00, -0.00, -1.00, 291.7, 1034.1)">n</text><text xml:space="preserve" font-family="Helvetica-Light,Helvetica" font-size="18.0" fill="#52575F" transform="matrix(1.00, 0.00, -0.00, -1.00, 301.7, 1034.1)">s</text><text xml:space="preserve" font-family="Helvetica-Light,Helvetica" font-size="18.0" fill="#52575F" transform="matrix(1.00, 0.00, -0.00, -1.00, 310.7, 1034.1)">h</text><text xml:space="preserve" font-family="Helvetica-Light,Helvetica" font-size="18.0" fill="#52575F" transform="matrix(1.00, 0.00, -0.00, -1.00, 320.7, 1034.1)">i</text><text xml:space="preserve" font-family="Helvetica-Light,Helvetica" font-size="18.0" fill="#52575F" transform="matrix(1.00, 0.00, -0.00, -1.00, 324.7, 1034.1)">p</text></g></g><g><clipPath id="clip0x6180026a2340"><path d="M 342.3 1033.8 L 355.8 1033.8 L 355.8 1043.1 L 342.3 1043.1 Z M 342.3 1033.8 "></path></clipPath><g clip-path="url(#clip0x6180026a2340)"><path d="M 349.6 1035.0 C 349.4 1034.9 349.2 1034.8 349.1 1034.8 C 348.9 1034.8 348.7 1034.9 348.5 1035.0 L 343.5 1040.1 C 343.3 1040.3 343.3 1040.4 343.3 1040.6 C 343.3 1040.8 342.9 1041.0 343.0 1041.1 L 344.0 1041.9 C 344.1 1042.0 344.5 1042.1 344.7 1042.1 C 344.9 1042.1 345.1 1042.0 345.2 1041.9 L 349.1 1038.0 L 352.9 1041.9 C 353.0 1042.0 353.2 1042.1 353.4 1042.1 C 353.6 1042.1 353.9 1042.0 354.0 1041.9 L 355.0 1041.1 C 355.1 1041.0 354.8 1040.8 354.8 1040.6 C 354.9 1040.4 354.8 1040.3 354.6 1040.1 L 349.6 1035.0 Z M 349.6 1035.0 " fill="#424242"></path></g></g><g><clipPath id="clip0x6180026a2580"><path d="M 338.7 1030.3 L 338.7 1049.1 L 341.2 1049.1 L 341.2 1030.3 Z M 338.7 1030.3 "></path></clipPath><g clip-path="url(#clip0x6180026a2580)"><path d="M -0.3 -0.4 L 16.7 -0.4 " fill="none" stroke="#A6AAA8" stroke-width="0.50" transform="matrix(0.00, 1.00, 1.00, 0.00, 339.9, 1031.3)"></path></g></g><g><clipPath id="clip0x6180026a27c0"><path d="M 357.1 1020.4 L 378.1 1020.4 L 378.1 1061.4 L 357.1 1061.4 Z M 357.1 1020.4 "></path></clipPath><g clip-path="url(#clip0x6180026a27c0)"><text xml:space="preserve" font-family="Helvetica-Light,Helvetica" font-size="24.0" fill="#52575F" transform="matrix(1.00, 0.00, -0.00, -1.00, 363.6, 1032.0)">-</text></g></g><g><clipPath id="clip0x6180026a2a00"><path d="M 16.0 1055.6 L 142.5 1055.6 L 142.5 1077.6 L 16.0 1077.6 Z M 16.0 1055.6 "></path></clipPath><g clip-path="url(#clip0x6180026a2a00)"><text xml:space="preserve" font-family="Helvetica-Bold,Helvetica" font-weight="bold" font-size="12.0" fill="#52575F" transform="matrix(1.00, 0.00, -0.00, -1.00, 20.0, 1062.3)">S</text><text xml:space="preserve" font-family="Helvetica-Bold,Helvetica" font-weight="bold" font-size="12.0" fill="#52575F" transform="matrix(1.00, 0.00, -0.00, -1.00, 28.0, 1062.3)">O</text><text xml:space="preserve" font-family="Helvetica-Bold,Helvetica" font-weight="bold" font-size="12.0" fill="#52575F" transform="matrix(1.00, 0.00, -0.00, -1.00, 37.3, 1062.3)">C</text><text xml:space="preserve" font-family="Helvetica-Bold,Helvetica" font-weight="bold" font-size="12.0" fill="#52575F" transform="matrix(1.00, 0.00, -0.00, -1.00, 46.0, 1062.3)">C</text><text xml:space="preserve" font-family="Helvetica-Bold,Helvetica" font-weight="bold" font-size="12.0" fill="#52575F" transform="matrix(1.00, 0.00, -0.00, -1.00, 54.6, 1062.3)">E</text><text xml:space="preserve" font-family="Helvetica-Bold,Helvetica" font-weight="bold" font-size="12.0" fill="#52575F" transform="matrix(1.00, 0.00, -0.00, -1.00, 62.6, 1062.3)">R</text><text xml:space="preserve" font-family="Helvetica-Bold,Helvetica" font-weight="bold" font-size="12.0" fill="#52575F" transform="matrix(1.00, 0.00, -0.00, -1.00, 71.3, 1062.3)"> </text><text xml:space="preserve" font-family="Helvetica-Light,Helvetica" font-size="12.0" fill="#52575F" transform="matrix(1.00, 0.00, -0.00, -1.00, 74.6, 1062.3)">T</text><text xml:space="preserve" font-family="Helvetica-Light,Helvetica" font-size="12.0" fill="#52575F" transform="matrix(1.00, 0.00, -0.00, -1.00, 80.0, 1062.3)">o</text><text xml:space="preserve" font-family="Helvetica-Light,Helvetica" font-size="12.0" fill="#52575F" transform="matrix(1.00, 0.00, -0.00, -1.00, 86.6, 1062.3)">u</text><text xml:space="preserve" font-family="Helvetica-Light,Helvetica" font-size="12.0" fill="#52575F" transform="matrix(1.00, 0.00, -0.00, -1.00, 93.3, 1062.3)">r</text><text xml:space="preserve" font-family="Helvetica-Light,Helvetica" font-size="12.0" fill="#52575F" transform="matrix(1.00, 0.00, -0.00, -1.00, 97.5, 1062.3)">n</text><text xml:space="preserve" font-family="Helvetica-Light,Helvetica" font-size="12.0" fill="#52575F" transform="matrix(1.00, 0.00, -0.00, -1.00, 104.2, 1062.3)">a</text><text xml:space="preserve" font-family="Helvetica-Light,Helvetica" font-size="12.0" fill="#52575F" transform="matrix(1.00, 0.00, -0.00, -1.00, 110.9, 1062.3)">m</text><text xml:space="preserve" font-family="Helvetica-Light,Helvetica" font-size="12.0" fill="#52575F" transform="matrix(1.00, 0.00, -0.00, -1.00, 120.9, 1062.3)">e</text><text xml:space="preserve" font-family="Helvetica-Light,Helvetica" font-size="12.0" fill="#52575F" transform="matrix(1.00, 0.00, -0.00, -1.00, 127.5, 1062.3)">n</text><text xml:space="preserve" font-family="Helvetica-Light,Helvetica" font-size="12.0" fill="#52575F" transform="matrix(1.00, 0.00, -0.00, -1.00, 134.2, 1062.3)">t</text></g></g><g><clipPath id="clip0x6180026a3240"><path d="M 15.1 966.9 L 537.3 966.9 L 537.3 1014.4 L 15.1 1014.4 Z M 15.1 966.9 "></path></clipPath><g clip-path="url(#clip0x6180026a3240)"><text xml:space="preserve" font-family="Helvetica-Bold,Helvetica" font-weight="bold" font-size="18.0" fill="#52575F" transform="matrix(1.00, 0.00, -0.00, -1.00, 19.6, 992.1)">F</text><text xml:space="preserve" font-family="Helvetica-Bold,Helvetica" font-weight="bold" font-size="18.0" fill="#52575F" transform="matrix(1.00, 0.00, -0.00, -1.00, 30.5, 992.1)">u</text><text xml:space="preserve" font-family="Helvetica-Bold,Helvetica" font-weight="bold" font-size="18.0" fill="#52575F" transform="matrix(1.00, 0.00, -0.00, -1.00, 41.5, 992.1)">l</text><text xml:space="preserve" font-family="Helvetica-Bold,Helvetica" font-weight="bold" font-size="18.0" fill="#52575F" transform="matrix(1.00, 0.00, -0.00, -1.00, 46.5, 992.1)">h</text><text xml:space="preserve" font-family="Helvetica-Bold,Helvetica" font-weight="bold" font-size="18.0" fill="#52575F" transform="matrix(1.00, 0.00, -0.00, -1.00, 57.5, 992.1)">a</text><text xml:space="preserve" font-family="Helvetica-Bold,Helvetica" font-weight="bold" font-size="18.0" fill="#52575F" transform="matrix(1.00, 0.00, -0.00, -1.00, 67.5, 992.1)">m</text><text xml:space="preserve" font-family="Helvetica-Bold,Helvetica" font-weight="bold" font-size="18.0" fill="#52575F" transform="matrix(1.00, 0.00, -0.00, -1.00, 83.5, 992.1)"> </text><text xml:space="preserve" font-family="Helvetica-Bold,Helvetica" font-weight="bold" font-size="18.0" fill="#52575F" transform="matrix(1.00, 0.00, -0.00, -1.00, 88.5, 992.1)">v</text><text xml:space="preserve" font-family="Helvetica-Bold,Helvetica" font-weight="bold" font-size="18.0" fill="#52575F" transform="matrix(1.00, 0.00, -0.00, -1.00, 98.6, 992.1)"> </text><text xml:space="preserve" font-family="Helvetica-Bold,Helvetica" font-weight="bold" font-size="18.0" fill="#52575F" transform="matrix(1.00, 0.00, -0.00, -1.00, 103.6, 992.1)">W</text><text xml:space="preserve" font-family="Helvetica-Bold,Helvetica" font-weight="bold" font-size="18.0" fill="#52575F" transform="matrix(1.00, 0.00, -0.00, -1.00, 120.2, 992.1)">o</text><text xml:space="preserve" font-family="Helvetica-Bold,Helvetica" font-weight="bold" font-size="18.0" fill="#52575F" transform="matrix(1.00, 0.00, -0.00, -1.00, 131.2, 992.1)">l</text><text xml:space="preserve" font-family="Helvetica-Bold,Helvetica" font-weight="bold" font-size="18.0" fill="#52575F" transform="matrix(1.00, 0.00, -0.00, -1.00, 136.2, 992.1)">v</text><text xml:space="preserve" font-family="Helvetica-Bold,Helvetica" font-weight="bold" font-size="18.0" fill="#52575F" transform="matrix(1.00, 0.00, -0.00, -1.00, 146.2, 992.1)">e</text><text xml:space="preserve" font-family="Helvetica-Bold,Helvetica" font-weight="bold" font-size="18.0" fill="#52575F" transform="matrix(1.00, 0.00, -0.00, -1.00, 156.2, 992.1)">r</text><text xml:space="preserve" font-family="Helvetica-Bold,Helvetica" font-weight="bold" font-size="18.0" fill="#52575F" transform="matrix(1.00, 0.00, -0.00, -1.00, 163.3, 992.1)">h</text><text xml:space="preserve" font-family="Helvetica-Bold,Helvetica" font-weight="bold" font-size="18.0" fill="#52575F" transform="matrix(1.00, 0.00, -0.00, -1.00, 174.2, 992.1)">a</text><text xml:space="preserve" font-family="Helvetica-Bold,Helvetica" font-weight="bold" font-size="18.0" fill="#52575F" transform="matrix(1.00, 0.00, -0.00, -1.00, 184.3, 992.1)">m</text><text xml:space="preserve" font-family="Helvetica-Bold,Helvetica" font-weight="bold" font-size="18.0" fill="#52575F" transform="matrix(1.00, 0.00, -0.00, -1.00, 200.3, 992.1)">p</text><text xml:space="preserve" font-family="Helvetica-Bold,Helvetica" font-weight="bold" font-size="18.0" fill="#52575F" transform="matrix(1.00, 0.00, -0.00, -1.00, 211.3, 992.1)">t</text><text xml:space="preserve" font-family="Helvetica-Bold,Helvetica" font-weight="bold" font-size="18.0" fill="#52575F" transform="matrix(1.00, 0.00, -0.00, -1.00, 217.3, 992.1)">o</text><text xml:space="preserve" font-family="Helvetica-Bold,Helvetica" font-weight="bold" font-size="18.0" fill="#52575F" transform="matrix(1.00, 0.00, -0.00, -1.00, 228.2, 992.1)">n</text><text xml:space="preserve" font-family="Helvetica-Bold,Helvetica" font-weight="bold" font-size="18.0" fill="#52575F" transform="matrix(1.00, 0.00, -0.00, -1.00, 239.2, 992.1)"> </text><text xml:space="preserve" font-family="Helvetica-Bold,Helvetica" font-weight="bold" font-size="18.0" fill="#52575F" transform="matrix(1.00, 0.00, -0.00, -1.00, 244.2, 992.1)">W</text><text xml:space="preserve" font-family="Helvetica-Bold,Helvetica" font-weight="bold" font-size="18.0" fill="#52575F" transform="matrix(1.00, 0.00, -0.00, -1.00, 260.6, 992.1)">a</text><text xml:space="preserve" font-family="Helvetica-Light,Helvetica" font-size="14.0" fill="#52575F" transform="matrix(1.00, 0.00, -0.00, -1.00, 19.6, 974.2)">W</text><text xml:space="preserve" font-family="Helvetica-Light,Helvetica" font-size="14.0" fill="#52575F" transform="matrix(1.00, 0.00, -0.00, -1.00, 31.7, 974.2)">e</text><text xml:space="preserve" font-family="Helvetica-Light,Helvetica" font-size="14.0" fill="#52575F" transform="matrix(1.00, 0.00, -0.00, -1.00, 39.5, 974.2)">d</text><text xml:space="preserve" font-family="Helvetica-Light,Helvetica" font-size="14.0" fill="#52575F" transform="matrix(1.00, 0.00, -0.00, -1.00, 48.1, 974.2)"> </text><text xml:space="preserve" font-family="Helvetica-Light,Helvetica" font-size="14.0" fill="#52575F" transform="matrix(1.00, 0.00, -0.00, -1.00, 52.0, 974.2)">2</text><text xml:space="preserve" font-family="Helvetica-Light,Helvetica" font-size="14.0" fill="#52575F" transform="matrix(1.00, 0.00, -0.00, -1.00, 59.8, 974.2)">0</text><text xml:space="preserve" font-family="Helvetica-Light,Helvetica" font-size="14.0" fill="#52575F" transform="matrix(1.00, 0.00, -0.00, -1.00, 67.5, 974.2)"> </text><text xml:space="preserve" font-family="Helvetica-Light,Helvetica" font-size="14.0" fill="#52575F" transform="matrix(1.00, 0.00, -0.00, -1.00, 71.4, 974.2)">A</text><text xml:space="preserve" font-family="Helvetica-Light,Helvetica" font-size="14.0" fill="#52575F" transform="matrix(1.00, 0.00, -0.00, -1.00, 80.8, 974.2)">u</text><text xml:space="preserve" font-family="Helvetica-Light,Helvetica" font-size="14.0" fill="#52575F" transform="matrix(1.00, 0.00, -0.00, -1.00, 88.6, 974.2)">g</text><text xml:space="preserve" font-family="Helvetica-Light,Helvetica" font-size="14.0" fill="#52575F" transform="matrix(1.00, 0.00, -0.00, -1.00, 97.1, 974.2)">,</text><text xml:space="preserve" font-family="Helvetica-Light,Helvetica" font-size="14.0" fill="#52575F" transform="matrix(1.00, 0.00, -0.00, -1.00, 101.0, 974.2)"> </text><text xml:space="preserve" font-family="Helvetica-Light,Helvetica" font-size="14.0" fill="#52575F" transform="matrix(1.00, 0.00, -0.00, -1.00, 104.9, 974.2)">2</text><text xml:space="preserve" font-family="Helvetica-Light,Helvetica" font-size="14.0" fill="#52575F" transform="matrix(1.00, 0.00, -0.00, -1.00, 112.7, 974.2)">:</text><text xml:space="preserve" font-family="Helvetica-Light,Helvetica" font-size="14.0" fill="#52575F" transform="matrix(1.00, 0.00, -0.00, -1.00, 116.6, 974.2)">0</text><text xml:space="preserve" font-family="Helvetica-Light,Helvetica" font-size="14.0" fill="#52575F" transform="matrix(1.00, 0.00, -0.00, -1.00, 124.4, 974.2)">0</text><text xml:space="preserve" font-family="Helvetica-Light,Helvetica" font-size="14.0" fill="#52575F" transform="matrix(1.00, 0.00, -0.00, -1.00, 132.1, 974.2)">,</text><text xml:space="preserve" font-family="Helvetica-Light,Helvetica" font-size="14.0" fill="#52575F" transform="matrix(1.00, 0.00, -0.00, -1.00, 136.0, 974.2)"> </text><text xml:space="preserve" font-family="Helvetica-Light,Helvetica" font-size="14.0" fill="#52575F" transform="matrix(1.00, 0.00, -0.00, -1.00, 139.9, 974.2)">5</text><text xml:space="preserve" font-family="Helvetica-Light,Helvetica" font-size="14.0" fill="#52575F" transform="matrix(1.00, 0.00, -0.00, -1.00, 147.7, 974.2)">4</text><text xml:space="preserve" font-family="Helvetica-Light,Helvetica" font-size="14.0" fill="#52575F" transform="matrix(1.00, 0.00, -0.00, -1.00, 155.5, 974.2)"> </text><text xml:space="preserve" font-family="Helvetica-Light,Helvetica" font-size="14.0" fill="#52575F" transform="matrix(1.00, 0.00, -0.00, -1.00, 159.4, 974.2)">M</text><text xml:space="preserve" font-family="Helvetica-Light,Helvetica" font-size="14.0" fill="#52575F" transform="matrix(1.00, 0.00, -0.00, -1.00, 171.0, 974.2)">a</text><text xml:space="preserve" font-family="Helvetica-Light,Helvetica" font-size="14.0" fill="#52575F" transform="matrix(1.00, 0.00, -0.00, -1.00, 178.8, 974.2)">r</text><text xml:space="preserve" font-family="Helvetica-Light,Helvetica" font-size="14.0" fill="#52575F" transform="matrix(1.00, 0.00, -0.00, -1.00, 183.5, 974.2)">k</text><text xml:space="preserve" font-family="Helvetica-Light,Helvetica" font-size="14.0" fill="#52575F" transform="matrix(1.00, 0.00, -0.00, -1.00, 190.5, 974.2)">e</text><text xml:space="preserve" font-family="Helvetica-Light,Helvetica" font-size="14.0" fill="#52575F" transform="matrix(1.00, 0.00, -0.00, -1.00, 198.3, 974.2)">t</text><text xml:space="preserve" font-family="Helvetica-Light,Helvetica" font-size="14.0" fill="#52575F" transform="matrix(1.00, 0.00, -0.00, -1.00, 202.2, 974.2)">s</text><text xml:space="preserve" font-family="Helvetica-Light,Helvetica" font-size="14.0" fill="#52575F" transform="matrix(1.00, 0.00, -0.00, -1.00, 209.2, 974.2)">,</text><text xml:space="preserve" font-family="Helvetica-Light,Helvetica" font-size="14.0" fill="#52575F" transform="matrix(1.00, 0.00, -0.00, -1.00, 213.1, 974.2)"> </text><text xml:space="preserve" font-family="Helvetica-Light,Helvetica" font-size="14.0" fill="#52575F" transform="matrix(1.00, 0.00, -0.00, -1.00, 217.0, 974.2)">B</text><text xml:space="preserve" font-family="Helvetica-Light,Helvetica" font-size="14.0" fill="#52575F" transform="matrix(1.00, 0.00, -0.00, -1.00, 226.3, 974.2)">e</text><text xml:space="preserve" font-family="Helvetica-Light,Helvetica" font-size="14.0" fill="#52575F" transform="matrix(1.00, 0.00, -0.00, -1.00, 234.1, 974.2)">t</text><text xml:space="preserve" font-family="Helvetica-Light,Helvetica" font-size="14.0" fill="#52575F" transform="matrix(1.00, 0.00, -0.00, -1.00, 238.0, 974.2)"> </text><text xml:space="preserve" font-family="Helvetica-Light,Helvetica" font-size="14.0" fill="#52575F" transform="matrix(1.00, 0.00, -0.00, -1.00, 241.9, 974.2)">L</text><text xml:space="preserve" font-family="Helvetica-Light,Helvetica" font-size="14.0" fill="#52575F" transform="matrix(1.00, 0.00, -0.00, -1.00, 249.6, 974.2)">i</text><text xml:space="preserve" font-family="Helvetica-Light,Helvetica" font-size="14.0" fill="#52575F" transform="matrix(1.00, 0.00, -0.00, -1.00, 252.7, 974.2)">v</text><text xml:space="preserve" font-family="Helvetica-Light,Helvetica" font-size="14.0" fill="#52575F" transform="matrix(1.00, 0.00, -0.00, -1.00, 259.7, 974.2)">e</text></g></g><g><clipPath id="clip0x6180026a4bc0"><path d="M 278.3 992.0 L 291.8 992.0 L 291.8 1001.3 L 278.3 1001.3 Z M 278.3 992.0 "></path></clipPath><g clip-path="url(#clip0x6180026a4bc0)"><path d="M 285.6 993.3 C 285.4 993.1 285.2 993.0 285.1 993.0 C 284.9 993.1 284.7 993.1 284.5 993.3 L 279.5 998.3 C 279.3 998.5 279.3 998.7 279.3 998.8 C 279.3 999.0 278.9 999.2 279.0 999.4 L 280.0 1000.1 C 280.1 1000.3 280.5 1000.3 280.7 1000.3 C 280.9 1000.3 281.1 1000.3 281.2 1000.1 L 285.1 996.3 L 288.9 1000.1 C 289.0 1000.3 289.2 1000.3 289.4 1000.3 C 289.6 1000.3 289.9 1000.3 290.0 1000.1 L 291.0 999.4 C 291.1 999.2 290.8 999.0 290.8 998.8 C 290.9 998.7 290.8 998.5 290.6 998.3 L 285.6 993.3 Z M 285.6 993.3 " fill="#424242"></path></g></g><g><clipPath id="clip0x6180026a4e00"><path d="M 273.8 987.3 L 273.8 1006.1 L 276.3 1006.1 L 276.3 987.3 Z M 273.8 987.3 "></path></clipPath><g clip-path="url(#clip0x6180026a4e00)"><path d="M -0.3 0.4 L 16.7 0.4 " fill="none" stroke="#A6AAA8" stroke-width="0.50" transform="matrix(0.00, 1.00, 1.00, 0.00, 275.1, 988.3)"></path></g></g><path d="M -1.0 63.0 L 641.0 63.0 L 641.0 0.0 L -1.0 0.0 Z M -0.8 63.0 " fill="#DCDDE0"></path><text xml:space="preserve" font-family="Helvetica-Light,Helvetica" font-size="18.0" fill="#52575F" transform="matrix(1.00, 0.00, -0.00, -1.00, 22.3, 24.7)">S</text><text xml:space="preserve" font-family="Helvetica-Light,Helvetica" font-size="18.0" fill="#52575F" transform="matrix(1.00, 0.00, -0.00, -1.00, 33.3, 24.7)">h</text><text xml:space="preserve" font-family="Helvetica-Light,Helvetica" font-size="18.0" fill="#52575F" transform="matrix(1.00, 0.00, -0.00, -1.00, 43.3, 24.7)">o</text><text xml:space="preserve" font-family="Helvetica-Light,Helvetica" font-size="18.0" fill="#52575F" transform="matrix(1.00, 0.00, -0.00, -1.00, 53.3, 24.7)">w</text><text xml:space="preserve" font-family="Helvetica-Light,Helvetica" font-size="18.0" fill="#52575F" transform="matrix(1.00, 0.00, -0.00, -1.00, 66.3, 24.7)"> </text><text xml:space="preserve" font-family="Helvetica-Light,Helvetica" font-size="18.0" fill="#52575F" transform="matrix(1.00, 0.00, -0.00, -1.00, 71.3, 24.7)">m</text><text xml:space="preserve" font-family="Helvetica-Light,Helvetica" font-size="18.0" fill="#52575F" transform="matrix(1.00, 0.00, -0.00, -1.00, 86.3, 24.7)">e</text><text xml:space="preserve" font-family="Helvetica-Light,Helvetica" font-size="18.0" fill="#52575F" transform="matrix(1.00, 0.00, -0.00, -1.00, 96.3, 24.7)">:</text><text xml:space="preserve" font-family="Helvetica-Light,Helvetica" font-size="18.0" fill="#52575F" transform="matrix(1.00, 0.00, -0.00, -1.00, 101.3, 24.7)"> </text><text xml:space="preserve" font-family="Helvetica-Bold,Helvetica" font-weight="bold" font-size="18.0" fill="#52575F" transform="matrix(1.00, 0.00, -0.00, -1.00, 106.3, 24.7)">A</text><text xml:space="preserve" font-family="Helvetica-Bold,Helvetica" font-weight="bold" font-size="18.0" fill="#52575F" transform="matrix(1.00, 0.00, -0.00, -1.00, 119.3, 24.7)">l</text><text xml:space="preserve" font-family="Helvetica-Bold,Helvetica" font-weight="bold" font-size="18.0" fill="#52575F" transform="matrix(1.00, 0.00, -0.00, -1.00, 124.3, 24.7)">l</text><text xml:space="preserve" font-family="Helvetica-Bold,Helvetica" font-weight="bold" font-size="18.0" fill="#52575F" transform="matrix(1.00, 0.00, -0.00, -1.00, 129.3, 24.7)"> </text><text xml:space="preserve" font-family="Helvetica-Bold,Helvetica" font-weight="bold" font-size="18.0" fill="#52575F" transform="matrix(1.00, 0.00, -0.00, -1.00, 134.3, 24.7)">M</text><text xml:space="preserve" font-family="Helvetica-Bold,Helvetica" font-weight="bold" font-size="18.0" fill="#52575F" transform="matrix(1.00, 0.00, -0.00, -1.00, 149.3, 24.7)">a</text><text xml:space="preserve" font-family="Helvetica-Bold,Helvetica" font-weight="bold" font-size="18.0" fill="#52575F" transform="matrix(1.00, 0.00, -0.00, -1.00, 159.3, 24.7)">r</text><text xml:space="preserve" font-family="Helvetica-Bold,Helvetica" font-weight="bold" font-size="18.0" fill="#52575F" transform="matrix(1.00, 0.00, -0.00, -1.00, 166.3, 24.7)">k</text><text xml:space="preserve" font-family="Helvetica-Bold,Helvetica" font-weight="bold" font-size="18.0" fill="#52575F" transform="matrix(1.00, 0.00, -0.00, -1.00, 176.3, 24.7)">e</text><text xml:space="preserve" font-family="Helvetica-Bold,Helvetica" font-weight="bold" font-size="18.0" fill="#52575F" transform="matrix(1.00, 0.00, -0.00, -1.00, 186.4, 24.7)">t</text><text xml:space="preserve" font-family="Helvetica-Bold,Helvetica" font-weight="bold" font-size="18.0" fill="#52575F" transform="matrix(1.00, 0.00, -0.00, -1.00, 192.3, 24.7)">s</text><text xml:space="preserve" font-family="Helvetica-Bold,Helvetica" font-weight="bold" font-size="18.0" fill="#52575F" transform="matrix(1.00, 0.00, -0.00, -1.00, 202.4, 24.7)"> </text><text xml:space="preserve" font-family="Helvetica-Bold,Helvetica" font-weight="bold" font-size="18.0" fill="#52575F" transform="matrix(1.00, 0.00, -0.00, -1.00, 207.4, 24.7)">(</text><text xml:space="preserve" font-family="Helvetica-Bold,Helvetica" font-weight="bold" font-size="18.0" fill="#52575F" transform="matrix(1.00, 0.00, -0.00, -1.00, 213.4, 24.7)">A</text><text xml:space="preserve" font-family="Helvetica-Bold,Helvetica" font-weight="bold" font-size="18.0" fill="#52575F" transform="matrix(1.00, 0.00, -0.00, -1.00, 225.7, 24.7)"> </text><text xml:space="preserve" font-family="Helvetica-Bold,Helvetica" font-weight="bold" font-size="18.0" fill="#52575F" transform="matrix(1.00, 0.00, -0.00, -1.00, 230.7, 24.7)">-</text><text xml:space="preserve" font-family="Helvetica-Bold,Helvetica" font-weight="bold" font-size="18.0" fill="#52575F" transform="matrix(1.00, 0.00, -0.00, -1.00, 236.7, 24.7)"> </text><text xml:space="preserve" font-family="Helvetica-Bold,Helvetica" font-weight="bold" font-size="18.0" fill="#52575F" transform="matrix(1.00, 0.00, -0.00, -1.00, 241.7, 24.7)">Z</text><text xml:space="preserve" font-family="Helvetica-Bold,Helvetica" font-weight="bold" font-size="18.0" fill="#52575F" transform="matrix(1.00, 0.00, -0.00, -1.00, 252.7, 24.7)">)</text><g><clipPath id="clip0x6180026a5be0"><path d="M 265.1 24.4 L 278.7 24.4 L 278.7 33.7 L 265.1 33.7 Z M 265.1 24.4 "></path></clipPath><g clip-path="url(#clip0x6180026a5be0)"><path d="M 272.4 25.6 C 272.3 25.4 272.1 25.4 271.9 25.4 C 271.7 25.4 271.5 25.4 271.4 25.6 L 266.3 30.7 C 266.2 30.8 266.1 31.0 266.1 31.2 C 266.1 31.4 265.9 31.5 266.0 31.7 L 267.0 32.4 C 267.1 32.6 267.4 32.7 267.6 32.7 C 267.8 32.7 268.0 32.6 268.1 32.4 L 271.9 28.6 L 275.7 32.4 C 275.9 32.6 276.0 32.7 276.2 32.7 C 276.4 32.7 276.9 32.6 277.0 32.4 L 277.0 31.7 C 277.1 31.5 277.7 31.4 277.7 31.2 C 277.7 31.0 277.6 30.8 277.5 30.7 L 272.4 25.6 Z M 272.4 25.6 " fill="#424242"></path></g></g><g><clipPath id="clip0x6180026a5e20"><path d="M 261.5 20.9 L 261.5 39.6 L 264.0 39.6 L 264.0 20.9 Z M 261.5 20.9 "></path></clipPath><g clip-path="url(#clip0x6180026a5e20)"><path d="M 0.1 -0.3 L 17.1 -0.3 " fill="none" stroke="#A6AAA8" stroke-width="0.50" transform="matrix(0.00, 1.00, 1.00, 0.00, 262.8, 21.9)"></path></g></g><text xml:space="preserve" font-family="Helvetica-Light,Helvetica" font-size="18.0" fill="#52575F" transform="matrix(1.00, 0.00, -0.00, -1.00, 512.1, 24.7)">B</text><text xml:space="preserve" font-family="Helvetica-Light,Helvetica" font-size="18.0" fill="#52575F" transform="matrix(1.00, 0.00, -0.00, -1.00, 524.1, 24.7)">a</text><text xml:space="preserve" font-family="Helvetica-Light,Helvetica" font-size="18.0" fill="#52575F" transform="matrix(1.00, 0.00, -0.00, -1.00, 534.1, 24.7)">c</text><text xml:space="preserve" font-family="Helvetica-Light,Helvetica" font-size="18.0" fill="#52575F" transform="matrix(1.00, 0.00, -0.00, -1.00, 544.1, 24.7)">k</text><text xml:space="preserve" font-family="Helvetica-Light,Helvetica" font-size="18.0" fill="#52575F" transform="matrix(1.00, 0.00, -0.00, -1.00, 553.1, 24.7)"> </text><text xml:space="preserve" font-family="Helvetica-Light,Helvetica" font-size="18.0" fill="#52575F" transform="matrix(1.00, 0.00, -0.00, -1.00, 558.1, 24.7)">t</text><text xml:space="preserve" font-family="Helvetica-Light,Helvetica" font-size="18.0" fill="#52575F" transform="matrix(1.00, 0.00, -0.00, -1.00, 563.2, 24.7)">o</text><text xml:space="preserve" font-family="Helvetica-Light,Helvetica" font-size="18.0" fill="#52575F" transform="matrix(1.00, 0.00, -0.00, -1.00, 573.2, 24.7)"> </text><text xml:space="preserve" font-family="Helvetica-Light,Helvetica" font-size="18.0" fill="#52575F" transform="matrix(1.00, 0.00, -0.00, -1.00, 578.2, 24.7)">t</text><text xml:space="preserve" font-family="Helvetica-Light,Helvetica" font-size="18.0" fill="#52575F" transform="matrix(1.00, 0.00, -0.00, -1.00, 583.2, 24.7)">o</text><text xml:space="preserve" font-family="Helvetica-Light,Helvetica" font-size="18.0" fill="#52575F" transform="matrix(1.00, 0.00, -0.00, -1.00, 593.2, 24.7)">p</text><path d="M 0.1 -0.3 L 17.1 -0.3 " fill="none" stroke="#A6AAA8" stroke-width="0.50" transform="matrix(0.00, 1.00, 1.00, 0.00, 607.8, 21.9)"></path><path d="M 616.4 34.8 C 616.5 34.9 616.7 35.0 616.9 35.0 C 617.1 35.0 617.3 34.9 617.4 34.8 L 622.7 29.5 C 622.8 29.4 622.9 29.2 622.9 29.0 C 622.9 28.8 622.8 28.6 622.7 28.5 L 622.7 28.5 C 621.7 27.5 621.6 27.5 621.4 27.5 C 621.2 27.5 621.0 27.5 620.9 27.7 L 618.0 30.3 L 618.0 23.7 C 618.0 23.5 618.1 23.4 618.0 23.2 C 617.9 23.1 617.7 23.0 617.5 23.0 L 616.4 23.0 C 616.1 23.0 616.0 23.1 615.8 23.2 C 615.7 23.4 616.0 23.5 616.0 23.7 L 616.0 30.3 L 613.0 27.7 C 612.8 27.5 612.7 27.5 612.5 27.5 C 612.3 27.5 612.1 27.5 611.9 27.7 L 611.9 27.7 C 611.0 28.6 610.9 28.8 610.9 29.0 C 610.9 29.2 611.0 29.4 611.1 29.5 L 616.4 34.8 Z M 616.4 34.8 " fill="#424242"></path></g></svg>