<?xml version="1.0" encoding="UTF-8" standalone="no"?><svg xmlns="http://www.w3.org/2000/svg" xmlns:xlink="http://www.w3.org/1999/xlink" clip-rule="evenodd" stroke-miterlimit="10" viewBox="0 0 640 1146"><desc>SVG generated by Keynote</desc><defs><pattern id="patternP1" patternUnits="userSpaceOnUse" width="600" height="600" viewBox="0 0 600 600"><image xlink:href="../../0099E750-43F4-4A1E-80C1-2076B752852F/assets/241136225324F10284C73D0DC5A23E4D.png" width="600.00" height="600.00"></image></pattern></defs><g transform="matrix(1.00, 0.00, -0.00, -1.00, 0.0, 1146.0)"><path d="M 0.0 1146.0 L 640.0 1146.0 L 640.0 0.0 L 0.0 0.0 Z M 0.0 1146.0 " fill="#FEFFFF"></path><g><clipPath id="clip0x6080028bbd80"><path d="M -1.0 1146.0 L 641.0 1146.0 L 641.0 1092.0 L -1.0 1092.0 Z M -0.9 1146.2 "></path></clipPath><g clip-path="url(#clip0x6080028bbd80)"><path d="M 0.0 1092.0 L 640.0 1092.0 L 640.0 1146.0 L 0.0 1146.0 Z M 0.0 1092.0 " fill="url(#patternP1)"></path></g></g><g><clipPath id="clip0x610002aaac20"><path d="M 19.5 1124.5 L 40.4 1124.5 L 40.4 1129.5 L 19.5 1129.5 Z M 19.5 1124.5 "></path></clipPath><g clip-path="url(#clip0x610002aaac20)"><path d="M 0.5 0.5 L 18.5 0.5 " fill="none" stroke="#FEFFFE" stroke-width="3.00" transform="matrix(1.00, 0.00, 0.00, -1.00, 20.5, 1127.0)"></path></g></g><g><clipPath id="clip0x610002aaafe0"><path d="M 19.5 1115.5 L 40.4 1115.5 L 40.4 1120.5 L 19.5 1120.5 Z M 19.5 1115.5 "></path></clipPath><g clip-path="url(#clip0x610002aaafe0)"><path d="M 0.5 -0.5 L 18.5 -0.5 " fill="none" stroke="#FEFFFE" stroke-width="3.00" transform="matrix(1.00, 0.00, 0.00, -1.00, 20.5, 1118.0)"></path></g></g><g><clipPath id="clip0x610002aab1c0"><path d="M 19.5 1107.7 L 40.4 1107.7 L 40.4 1112.7 L 19.5 1112.7 Z M 19.5 1107.7 "></path></clipPath><g clip-path="url(#clip0x610002aab1c0)"><path d="M 0.5 -0.3 L 18.5 -0.3 " fill="none" stroke="#FEFFFE" stroke-width="3.00" transform="matrix(1.00, 0.00, 0.00, -1.00, 20.5, 1110.2)"></path></g></g><path d="M -1.0 1092.0 L 641.0 1092.0 L 641.0 994.0 L -1.0 994.0 Z M -0.8 1092.4 " fill="#DCDDE0" fill-opacity="0.50"></path><text xml:space="preserve" font-family="Helvetica-Light,Helvetica" font-size="18.0" fill="#52575F" transform="matrix(1.00, 0.00, -0.00, -1.00, 20.1, 1034.1)">A</text><text xml:space="preserve" font-family="Helvetica-Light,Helvetica" font-size="18.0" fill="#52575F" transform="matrix(1.00, 0.00, -0.00, -1.00, 32.1, 1034.1)"> </text><text xml:space="preserve" font-family="Helvetica-Light,Helvetica" font-size="18.0" fill="#52575F" transform="matrix(1.00, 0.00, -0.00, -1.00, 37.1, 1034.1)">L</text><text xml:space="preserve" font-family="Helvetica-Light,Helvetica" font-size="18.0" fill="#52575F" transform="matrix(1.00, 0.00, -0.00, -1.00, 47.1, 1034.1)">e</text><text xml:space="preserve" font-family="Helvetica-Light,Helvetica" font-size="18.0" fill="#52575F" transform="matrix(1.00, 0.00, -0.00, -1.00, 57.1, 1034.1)">a</text><text xml:space="preserve" font-family="Helvetica-Light,Helvetica" font-size="18.0" fill="#52575F" transform="matrix(1.00, 0.00, -0.00, -1.00, 67.1, 1034.1)">g</text><text xml:space="preserve" font-family="Helvetica-Light,Helvetica" font-size="18.0" fill="#52575F" transform="matrix(1.00, 0.00, -0.00, -1.00, 78.1, 1034.1)">u</text><text xml:space="preserve" font-family="Helvetica-Light,Helvetica" font-size="18.0" fill="#52575F" transform="matrix(1.00, 0.00, -0.00, -1.00, 88.1, 1034.1)">e</text><g><clipPath id="clip0x610002aab7c0"><path d="M 104.3 1033.8 L 117.8 1033.8 L 117.8 1043.1 L 104.3 1043.1 Z M 104.3 1033.8 "></path></clipPath><g clip-path="url(#clip0x610002aab7c0)"><path d="M 111.6 1035.0 C 111.4 1034.9 111.2 1034.8 111.0 1034.8 C 110.9 1034.8 110.7 1034.9 110.5 1035.0 L 105.5 1040.1 C 105.3 1040.3 105.3 1040.4 105.3 1040.6 C 105.3 1040.8 104.9 1041.0 105.0 1041.1 L 106.0 1041.9 C 106.1 1042.0 106.5 1042.1 106.7 1042.1 C 106.9 1042.1 107.1 1042.0 107.2 1041.9 L 111.1 1038.0 L 114.9 1041.9 C 115.0 1042.0 115.2 1042.1 115.4 1042.1 C 115.6 1042.1 115.9 1042.0 116.0 1041.9 L 117.0 1041.1 C 117.1 1041.0 116.8 1040.8 116.8 1040.6 C 116.9 1040.4 116.8 1040.3 116.6 1040.1 L 111.6 1035.0 Z M 111.6 1035.0 " fill="#424242"></path></g></g><g><clipPath id="clip0x610002aaba00"><path d="M 100.7 1030.3 L 100.7 1049.1 L 103.2 1049.1 L 103.2 1030.3 Z M 100.7 1030.3 "></path></clipPath><g clip-path="url(#clip0x610002aaba00)"><path d="M -0.3 -0.4 L 16.7 -0.4 " fill="none" stroke="#A6AAA8" stroke-width="0.50" transform="matrix(0.00, 1.00, 1.00, 0.00, 101.9, 1031.3)"></path></g></g><g><clipPath id="clip0x610002aabc40"><path d="M 119.1 1020.5 L 140.1 1020.5 L 140.1 1061.5 L 119.1 1061.5 Z M 119.1 1020.5 "></path></clipPath><g clip-path="url(#clip0x610002aabc40)"><text xml:space="preserve" font-family="Helvetica-Light,Helvetica" font-size="24.0" fill="#52575F" transform="matrix(1.00, 0.00, -0.00, -1.00, 125.6, 1032.0)">-</text></g></g><text xml:space="preserve" font-family="Helvetica-Bold,Helvetica" font-weight="bold" font-size="12.0" fill="#52575F" transform="matrix(1.00, 0.00, -0.00, -1.00, 20.0, 1062.3)">S</text><text xml:space="preserve" font-family="Helvetica-Bold,Helvetica" font-weight="bold" font-size="12.0" fill="#52575F" transform="matrix(1.00, 0.00, -0.00, -1.00, 28.0, 1062.3)">O</text><text xml:space="preserve" font-family="Helvetica-Bold,Helvetica" font-weight="bold" font-size="12.0" fill="#52575F" transform="matrix(1.00, 0.00, -0.00, -1.00, 37.3, 1062.3)">C</text><text xml:space="preserve" font-family="Helvetica-Bold,Helvetica" font-weight="bold" font-size="12.0" fill="#52575F" transform="matrix(1.00, 0.00, -0.00, -1.00, 46.0, 1062.3)">C</text><text xml:space="preserve" font-family="Helvetica-Bold,Helvetica" font-weight="bold" font-size="12.0" fill="#52575F" transform="matrix(1.00, 0.00, -0.00, -1.00, 54.6, 1062.3)">E</text><text xml:space="preserve" font-family="Helvetica-Bold,Helvetica" font-weight="bold" font-size="12.0" fill="#52575F" transform="matrix(1.00, 0.00, -0.00, -1.00, 62.6, 1062.3)">R</text><text xml:space="preserve" font-family="Helvetica-Bold,Helvetica" font-weight="bold" font-size="12.0" fill="#52575F" transform="matrix(1.00, 0.00, -0.00, -1.00, 71.3, 1062.3)"> </text><text xml:space="preserve" font-family="Helvetica-Light,Helvetica" font-size="12.0" fill="#52575F" transform="matrix(1.00, 0.00, -0.00, -1.00, 74.6, 1062.3)">T</text><text xml:space="preserve" font-family="Helvetica-Light,Helvetica" font-size="12.0" fill="#52575F" transform="matrix(1.00, 0.00, -0.00, -1.00, 80.0, 1062.3)">o</text><text xml:space="preserve" font-family="Helvetica-Light,Helvetica" font-size="12.0" fill="#52575F" transform="matrix(1.00, 0.00, -0.00, -1.00, 86.6, 1062.3)">u</text><text xml:space="preserve" font-family="Helvetica-Light,Helvetica" font-size="12.0" fill="#52575F" transform="matrix(1.00, 0.00, -0.00, -1.00, 93.3, 1062.3)">r</text><text xml:space="preserve" font-family="Helvetica-Light,Helvetica" font-size="12.0" fill="#52575F" transform="matrix(1.00, 0.00, -0.00, -1.00, 97.5, 1062.3)">n</text><text xml:space="preserve" font-family="Helvetica-Light,Helvetica" font-size="12.0" fill="#52575F" transform="matrix(1.00, 0.00, -0.00, -1.00, 104.2, 1062.3)">a</text><text xml:space="preserve" font-family="Helvetica-Light,Helvetica" font-size="12.0" fill="#52575F" transform="matrix(1.00, 0.00, -0.00, -1.00, 110.9, 1062.3)">m</text><text xml:space="preserve" font-family="Helvetica-Light,Helvetica" font-size="12.0" fill="#52575F" transform="matrix(1.00, 0.00, -0.00, -1.00, 120.9, 1062.3)">e</text><text xml:space="preserve" font-family="Helvetica-Light,Helvetica" font-size="12.0" fill="#52575F" transform="matrix(1.00, 0.00, -0.00, -1.00, 127.5, 1062.3)">n</text><text xml:space="preserve" font-family="Helvetica-Light,Helvetica" font-size="12.0" fill="#52575F" transform="matrix(1.00, 0.00, -0.00, -1.00, 134.2, 1062.3)">t</text><g><clipPath id="clip0x610002aac540"><path d="M 135.1 1008.7 L 474.7 1008.7 L 474.7 1056.2 L 135.1 1056.2 Z M 135.1 1008.7 "></path></clipPath><g clip-path="url(#clip0x610002aac540)"><text xml:space="preserve" font-family="Helvetica-Bold,Helvetica" font-weight="bold" font-size="18.0" fill="#52575F" transform="matrix(1.00, 0.00, -0.00, -1.00, 139.6, 1033.8)"> </text><text xml:space="preserve" font-family="Helvetica-Bold,Helvetica" font-weight="bold" font-size="18.0" fill="#52575F" transform="matrix(1.00, 0.00, -0.00, -1.00, 143.9, 1033.8)">A</text><text xml:space="preserve" font-family="Helvetica-Bold,Helvetica" font-weight="bold" font-size="18.0" fill="#52575F" transform="matrix(1.00, 0.00, -0.00, -1.00, 156.2, 1033.8)"> </text><text xml:space="preserve" font-family="Helvetica-Bold,Helvetica" font-weight="bold" font-size="18.0" fill="#52575F" transform="matrix(1.00, 0.00, -0.00, -1.00, 161.2, 1033.8)">L</text><text xml:space="preserve" font-family="Helvetica-Bold,Helvetica" font-weight="bold" font-size="18.0" fill="#52575F" transform="matrix(1.00, 0.00, -0.00, -1.00, 172.2, 1033.8)">e</text><text xml:space="preserve" font-family="Helvetica-Bold,Helvetica" font-weight="bold" font-size="18.0" fill="#52575F" transform="matrix(1.00, 0.00, -0.00, -1.00, 182.2, 1033.8)">a</text><text xml:space="preserve" font-family="Helvetica-Bold,Helvetica" font-weight="bold" font-size="18.0" fill="#52575F" transform="matrix(1.00, 0.00, -0.00, -1.00, 192.2, 1033.8)">g</text><text xml:space="preserve" font-family="Helvetica-Bold,Helvetica" font-weight="bold" font-size="18.0" fill="#52575F" transform="matrix(1.00, 0.00, -0.00, -1.00, 203.2, 1033.8)">u</text><text xml:space="preserve" font-family="Helvetica-Bold,Helvetica" font-weight="bold" font-size="18.0" fill="#52575F" transform="matrix(1.00, 0.00, -0.00, -1.00, 214.2, 1033.8)">e</text><text xml:space="preserve" font-family="Helvetica-Bold,Helvetica" font-weight="bold" font-size="18.0" fill="#52575F" transform="matrix(1.00, 0.00, -0.00, -1.00, 224.2, 1033.8)"> </text><text xml:space="preserve" font-family="Helvetica-Bold,Helvetica" font-weight="bold" font-size="18.0" fill="#52575F" transform="matrix(1.00, 0.00, -0.00, -1.00, 229.2, 1033.8)">F</text><text xml:space="preserve" font-family="Helvetica-Bold,Helvetica" font-weight="bold" font-size="18.0" fill="#52575F" transform="matrix(1.00, 0.00, -0.00, -1.00, 240.2, 1033.8)">i</text><text xml:space="preserve" font-family="Helvetica-Bold,Helvetica" font-weight="bold" font-size="18.0" fill="#52575F" transform="matrix(1.00, 0.00, -0.00, -1.00, 245.2, 1033.8)">x</text><text xml:space="preserve" font-family="Helvetica-Bold,Helvetica" font-weight="bold" font-size="18.0" fill="#52575F" transform="matrix(1.00, 0.00, -0.00, -1.00, 255.2, 1033.8)">t</text><text xml:space="preserve" font-family="Helvetica-Bold,Helvetica" font-weight="bold" font-size="18.0" fill="#52575F" transform="matrix(1.00, 0.00, -0.00, -1.00, 261.2, 1033.8)">u</text><text xml:space="preserve" font-family="Helvetica-Bold,Helvetica" font-weight="bold" font-size="18.0" fill="#52575F" transform="matrix(1.00, 0.00, -0.00, -1.00, 272.2, 1033.8)">r</text><text xml:space="preserve" font-family="Helvetica-Bold,Helvetica" font-weight="bold" font-size="18.0" fill="#52575F" transform="matrix(1.00, 0.00, -0.00, -1.00, 279.2, 1033.8)">e</text><text xml:space="preserve" font-family="Helvetica-Bold,Helvetica" font-weight="bold" font-size="18.0" fill="#52575F" transform="matrix(1.00, 0.00, -0.00, -1.00, 289.3, 1033.8)">s</text></g></g><g><clipPath id="clip0x610002aacde0"><path d="M 308.3 1033.8 L 321.8 1033.8 L 321.8 1043.1 L 308.3 1043.1 Z M 308.3 1033.8 "></path></clipPath><g clip-path="url(#clip0x610002aacde0)"><path d="M 315.6 1035.0 C 315.4 1034.9 315.2 1034.8 315.1 1034.8 C 314.9 1034.8 314.7 1034.9 314.5 1035.0 L 309.5 1040.1 C 309.3 1040.3 309.3 1040.4 309.3 1040.6 C 309.3 1040.8 308.9 1041.0 309.0 1041.1 L 310.0 1041.9 C 310.1 1042.0 310.5 1042.1 310.7 1042.1 C 310.9 1042.1 311.1 1042.0 311.2 1041.9 L 315.1 1038.0 L 318.9 1041.9 C 319.0 1042.0 319.2 1042.1 319.4 1042.1 C 319.6 1042.1 319.9 1042.0 320.0 1041.9 L 321.0 1041.1 C 321.1 1041.0 320.8 1040.8 320.8 1040.6 C 320.9 1040.4 320.8 1040.3 320.6 1040.1 L 315.6 1035.0 Z M 315.6 1035.0 " fill="#424242"></path></g></g><g><clipPath id="clip0x610002aad020"><path d="M 303.8 1029.1 L 303.8 1047.8 L 306.3 1047.8 L 306.3 1029.1 Z M 303.8 1029.1 "></path></clipPath><g clip-path="url(#clip0x610002aad020)"><path d="M -0.1 0.4 L 16.9 0.4 " fill="none" stroke="#A6AAA8" stroke-width="0.50" transform="matrix(0.00, 1.00, 1.00, 0.00, 305.1, 1030.1)"></path></g></g></g></svg>