<?xml version="1.0" encoding="UTF-8" standalone="no"?><svg xmlns="http://www.w3.org/2000/svg" xmlns:xlink="http://www.w3.org/1999/xlink" clip-rule="evenodd" stroke-miterlimit="10" viewBox="0 0 640 1146"><desc>SVG generated by Keynote</desc><defs><pattern id="patternP1" patternUnits="userSpaceOnUse" width="600" height="600" viewBox="0 0 600 600"><image xlink:href="../../0099E750-43F4-4A1E-80C1-2076B752852F/assets/241136225324F10284C73D0DC5A23E4D.png" width="600.00" height="600.00"></image></pattern></defs><g transform="matrix(1.00, 0.00, -0.00, -1.00, 0.0, 1146.0)"><path d="M 0.0 1146.0 L 640.0 1146.0 L 640.0 0.0 L 0.0 0.0 Z M 0.0 1146.0 " fill="#FEFFFF"></path><g><clipPath id="clip0x6080028bae80"><path d="M -1.0 1146.0 L 641.0 1146.0 L 641.0 1092.0 L -1.0 1092.0 Z M -0.9 1146.2 "></path></clipPath><g clip-path="url(#clip0x6080028bae80)"><path d="M 0.0 1092.0 L 640.0 1092.0 L 640.0 1146.0 L 0.0 1146.0 Z M 0.0 1092.0 " fill="url(#patternP1)"></path></g></g><g><clipPath id="clip0x6000012b7400"><path d="M 19.5 1124.5 L 40.4 1124.5 L 40.4 1129.5 L 19.5 1129.5 Z M 19.5 1124.5 "></path></clipPath><g clip-path="url(#clip0x6000012b7400)"><path d="M 0.5 0.5 L 18.5 0.5 " fill="none" stroke="#FEFFFE" stroke-width="3.00" transform="matrix(1.00, 0.00, 0.00, -1.00, 20.5, 1127.0)"></path></g></g><g><clipPath id="clip0x6000016bd340"><path d="M 19.5 1115.5 L 40.4 1115.5 L 40.4 1120.5 L 19.5 1120.5 Z M 19.5 1115.5 "></path></clipPath><g clip-path="url(#clip0x6000016bd340)"><path d="M 0.5 -0.5 L 18.5 -0.5 " fill="none" stroke="#FEFFFE" stroke-width="3.00" transform="matrix(1.00, 0.00, 0.00, -1.00, 20.5, 1118.0)"></path></g></g><g><clipPath id="clip0x600000ab03e0"><path d="M 19.5 1107.7 L 40.4 1107.7 L 40.4 1112.7 L 19.5 1112.7 Z M 19.5 1107.7 "></path></clipPath><g clip-path="url(#clip0x600000ab03e0)"><path d="M 0.5 -0.3 L 18.5 -0.3 " fill="none" stroke="#FEFFFE" stroke-width="3.00" transform="matrix(1.00, 0.00, 0.00, -1.00, 20.5, 1110.2)"></path></g></g><path d="M -1.0 1092.0 L 641.0 1092.0 L 641.0 994.0 L -1.0 994.0 Z M -0.8 1092.4 " fill="#DCDDE0" fill-opacity="0.50"></path><text xml:space="preserve" font-family="Helvetica-Light,Helvetica" font-size="18.0" fill="#52575F" transform="matrix(1.00, 0.00, -0.00, -1.00, 28.8, 1034.1)">E</text><text xml:space="preserve" font-family="Helvetica-Light,Helvetica" font-size="18.0" fill="#52575F" transform="matrix(1.00, 0.00, -0.00, -1.00, 39.8, 1034.1)">n</text><text xml:space="preserve" font-family="Helvetica-Light,Helvetica" font-size="18.0" fill="#52575F" transform="matrix(1.00, 0.00, -0.00, -1.00, 49.8, 1034.1)">g</text><text xml:space="preserve" font-family="Helvetica-Light,Helvetica" font-size="18.0" fill="#52575F" transform="matrix(1.00, 0.00, -0.00, -1.00, 60.8, 1034.1)">l</text><text xml:space="preserve" font-family="Helvetica-Light,Helvetica" font-size="18.0" fill="#52575F" transform="matrix(1.00, 0.00, -0.00, -1.00, 64.8, 1034.1)">i</text><text xml:space="preserve" font-family="Helvetica-Light,Helvetica" font-size="18.0" fill="#52575F" transform="matrix(1.00, 0.00, -0.00, -1.00, 68.8, 1034.1)">s</text><text xml:space="preserve" font-family="Helvetica-Light,Helvetica" font-size="18.0" fill="#52575F" transform="matrix(1.00, 0.00, -0.00, -1.00, 77.8, 1034.1)">h</text><text xml:space="preserve" font-family="Helvetica-Light,Helvetica" font-size="18.0" fill="#52575F" transform="matrix(1.00, 0.00, -0.00, -1.00, 87.8, 1034.1)"> </text><text xml:space="preserve" font-family="Helvetica-Light,Helvetica" font-size="18.0" fill="#52575F" transform="matrix(1.00, 0.00, -0.00, -1.00, 92.8, 1034.1)">P</text><text xml:space="preserve" font-family="Helvetica-Light,Helvetica" font-size="18.0" fill="#52575F" transform="matrix(1.00, 0.00, -0.00, -1.00, 103.8, 1034.1)">r</text><text xml:space="preserve" font-family="Helvetica-Light,Helvetica" font-size="18.0" fill="#52575F" transform="matrix(1.00, 0.00, -0.00, -1.00, 109.4, 1034.1)">e</text><text xml:space="preserve" font-family="Helvetica-Light,Helvetica" font-size="18.0" fill="#52575F" transform="matrix(1.00, 0.00, -0.00, -1.00, 119.4, 1034.1)">m</text><text xml:space="preserve" font-family="Helvetica-Light,Helvetica" font-size="18.0" fill="#52575F" transform="matrix(1.00, 0.00, -0.00, -1.00, 134.4, 1034.1)">i</text><text xml:space="preserve" font-family="Helvetica-Light,Helvetica" font-size="18.0" fill="#52575F" transform="matrix(1.00, 0.00, -0.00, -1.00, 138.4, 1034.1)">e</text><text xml:space="preserve" font-family="Helvetica-Light,Helvetica" font-size="18.0" fill="#52575F" transform="matrix(1.00, 0.00, -0.00, -1.00, 148.4, 1034.1)">r</text><text xml:space="preserve" font-family="Helvetica-Light,Helvetica" font-size="18.0" fill="#52575F" transform="matrix(1.00, 0.00, -0.00, -1.00, 154.4, 1034.1)"> </text><text xml:space="preserve" font-family="Helvetica-Light,Helvetica" font-size="18.0" fill="#52575F" transform="matrix(1.00, 0.00, -0.00, -1.00, 159.4, 1034.1)">L</text><text xml:space="preserve" font-family="Helvetica-Light,Helvetica" font-size="18.0" fill="#52575F" transform="matrix(1.00, 0.00, -0.00, -1.00, 169.4, 1034.1)">e</text><text xml:space="preserve" font-family="Helvetica-Light,Helvetica" font-size="18.0" fill="#52575F" transform="matrix(1.00, 0.00, -0.00, -1.00, 179.5, 1034.1)">a</text><text xml:space="preserve" font-family="Helvetica-Light,Helvetica" font-size="18.0" fill="#52575F" transform="matrix(1.00, 0.00, -0.00, -1.00, 189.5, 1034.1)">g</text><text xml:space="preserve" font-family="Helvetica-Light,Helvetica" font-size="18.0" fill="#52575F" transform="matrix(1.00, 0.00, -0.00, -1.00, 200.5, 1034.1)">u</text><text xml:space="preserve" font-family="Helvetica-Light,Helvetica" font-size="18.0" fill="#52575F" transform="matrix(1.00, 0.00, -0.00, -1.00, 210.5, 1034.1)">e</text><g><clipPath id="clip0x6000016b4b20"><path d="M 228.3 1033.8 L 241.8 1033.8 L 241.8 1043.1 L 228.3 1043.1 Z M 228.3 1033.8 "></path></clipPath><g clip-path="url(#clip0x6000016b4b20)"><path d="M 235.6 1035.0 C 235.4 1034.9 235.2 1034.8 235.1 1034.8 C 234.9 1034.8 234.7 1034.9 234.5 1035.0 L 229.5 1040.1 C 229.3 1040.3 229.3 1040.4 229.3 1040.6 C 229.3 1040.8 228.9 1041.0 229.0 1041.1 L 230.0 1041.9 C 230.1 1042.0 230.5 1042.1 230.7 1042.1 C 230.9 1042.1 231.1 1042.0 231.2 1041.9 L 235.1 1038.0 L 238.9 1041.9 C 239.0 1042.0 239.2 1042.1 239.4 1042.1 C 239.6 1042.1 239.9 1042.0 240.0 1041.9 L 241.0 1041.1 C 241.1 1041.0 240.8 1040.8 240.8 1040.6 C 240.9 1040.4 240.8 1040.3 240.6 1040.1 L 235.6 1035.0 Z M 235.6 1035.0 " fill="#424242"></path></g></g><g><clipPath id="clip0x600001ea9060"><path d="M 224.7 1030.3 L 224.7 1049.1 L 227.2 1049.1 L 227.2 1030.3 Z M 224.7 1030.3 "></path></clipPath><g clip-path="url(#clip0x600001ea9060)"><path d="M -0.3 -0.4 L 16.7 -0.4 " fill="none" stroke="#A6AAA8" stroke-width="0.50" transform="matrix(0.00, 1.00, 1.00, 0.00, 225.9, 1031.3)"></path></g></g><text xml:space="preserve" font-family="Helvetica-Light,Helvetica" font-size="24.0" fill="#52575F" transform="matrix(1.00, 0.00, -0.00, -1.00, 255.6, 1032.0)">-</text><text xml:space="preserve" font-family="Helvetica-Bold,Helvetica" font-weight="bold" font-size="12.0" fill="#52575F" transform="matrix(1.00, 0.00, -0.00, -1.00, 29.0, 1062.3)">S</text><text xml:space="preserve" font-family="Helvetica-Bold,Helvetica" font-weight="bold" font-size="12.0" fill="#52575F" transform="matrix(1.00, 0.00, -0.00, -1.00, 37.0, 1062.3)">O</text><text xml:space="preserve" font-family="Helvetica-Bold,Helvetica" font-weight="bold" font-size="12.0" fill="#52575F" transform="matrix(1.00, 0.00, -0.00, -1.00, 46.3, 1062.3)">C</text><text xml:space="preserve" font-family="Helvetica-Bold,Helvetica" font-weight="bold" font-size="12.0" fill="#52575F" transform="matrix(1.00, 0.00, -0.00, -1.00, 55.0, 1062.3)">C</text><text xml:space="preserve" font-family="Helvetica-Bold,Helvetica" font-weight="bold" font-size="12.0" fill="#52575F" transform="matrix(1.00, 0.00, -0.00, -1.00, 63.6, 1062.3)">E</text><text xml:space="preserve" font-family="Helvetica-Bold,Helvetica" font-weight="bold" font-size="12.0" fill="#52575F" transform="matrix(1.00, 0.00, -0.00, -1.00, 71.6, 1062.3)">R</text><text xml:space="preserve" font-family="Helvetica-Bold,Helvetica" font-weight="bold" font-size="12.0" fill="#52575F" transform="matrix(1.00, 0.00, -0.00, -1.00, 80.3, 1062.3)"> </text><text xml:space="preserve" font-family="Helvetica-Light,Helvetica" font-size="12.0" fill="#52575F" transform="matrix(1.00, 0.00, -0.00, -1.00, 83.6, 1062.3)">T</text><text xml:space="preserve" font-family="Helvetica-Light,Helvetica" font-size="12.0" fill="#52575F" transform="matrix(1.00, 0.00, -0.00, -1.00, 89.0, 1062.3)">o</text><text xml:space="preserve" font-family="Helvetica-Light,Helvetica" font-size="12.0" fill="#52575F" transform="matrix(1.00, 0.00, -0.00, -1.00, 95.6, 1062.3)">u</text><text xml:space="preserve" font-family="Helvetica-Light,Helvetica" font-size="12.0" fill="#52575F" transform="matrix(1.00, 0.00, -0.00, -1.00, 102.3, 1062.3)">r</text><text xml:space="preserve" font-family="Helvetica-Light,Helvetica" font-size="12.0" fill="#52575F" transform="matrix(1.00, 0.00, -0.00, -1.00, 106.5, 1062.3)">n</text><text xml:space="preserve" font-family="Helvetica-Light,Helvetica" font-size="12.0" fill="#52575F" transform="matrix(1.00, 0.00, -0.00, -1.00, 113.2, 1062.3)">a</text><text xml:space="preserve" font-family="Helvetica-Light,Helvetica" font-size="12.0" fill="#52575F" transform="matrix(1.00, 0.00, -0.00, -1.00, 119.9, 1062.3)">m</text><text xml:space="preserve" font-family="Helvetica-Light,Helvetica" font-size="12.0" fill="#52575F" transform="matrix(1.00, 0.00, -0.00, -1.00, 129.9, 1062.3)">e</text><text xml:space="preserve" font-family="Helvetica-Light,Helvetica" font-size="12.0" fill="#52575F" transform="matrix(1.00, 0.00, -0.00, -1.00, 136.5, 1062.3)">n</text><text xml:space="preserve" font-family="Helvetica-Light,Helvetica" font-size="12.0" fill="#52575F" transform="matrix(1.00, 0.00, -0.00, -1.00, 143.2, 1062.3)">t</text><g><clipPath id="clip0x600001cab7c0"><path d="M 273.8 1025.2 L 563.8 1025.2 L 563.8 1056.2 L 273.8 1056.2 Z M 273.8 1025.2 "></path></clipPath><g clip-path="url(#clip0x600001cab7c0)"><text xml:space="preserve" font-family="Helvetica-Bold,Helvetica" font-weight="bold" font-size="18.0" fill="#52575F" transform="matrix(1.00, 0.00, -0.00, -1.00, 279.3, 1033.8)">E</text><text xml:space="preserve" font-family="Helvetica-Bold,Helvetica" font-weight="bold" font-size="18.0" fill="#52575F" transform="matrix(1.00, 0.00, -0.00, -1.00, 291.3, 1033.8)">n</text><text xml:space="preserve" font-family="Helvetica-Bold,Helvetica" font-weight="bold" font-size="18.0" fill="#52575F" transform="matrix(1.00, 0.00, -0.00, -1.00, 302.3, 1033.8)">g</text><text xml:space="preserve" font-family="Helvetica-Bold,Helvetica" font-weight="bold" font-size="18.0" fill="#52575F" transform="matrix(1.00, 0.00, -0.00, -1.00, 313.2, 1033.8)">l</text><text xml:space="preserve" font-family="Helvetica-Bold,Helvetica" font-weight="bold" font-size="18.0" fill="#52575F" transform="matrix(1.00, 0.00, -0.00, -1.00, 318.2, 1033.8)">i</text><text xml:space="preserve" font-family="Helvetica-Bold,Helvetica" font-weight="bold" font-size="18.0" fill="#52575F" transform="matrix(1.00, 0.00, -0.00, -1.00, 323.2, 1033.8)">s</text><text xml:space="preserve" font-family="Helvetica-Bold,Helvetica" font-weight="bold" font-size="18.0" fill="#52575F" transform="matrix(1.00, 0.00, -0.00, -1.00, 333.3, 1033.8)">h</text><text xml:space="preserve" font-family="Helvetica-Bold,Helvetica" font-weight="bold" font-size="18.0" fill="#52575F" transform="matrix(1.00, 0.00, -0.00, -1.00, 344.2, 1033.8)"> </text><text xml:space="preserve" font-family="Helvetica-Bold,Helvetica" font-weight="bold" font-size="18.0" fill="#52575F" transform="matrix(1.00, 0.00, -0.00, -1.00, 349.2, 1033.8)">P</text><text xml:space="preserve" font-family="Helvetica-Bold,Helvetica" font-weight="bold" font-size="18.0" fill="#52575F" transform="matrix(1.00, 0.00, -0.00, -1.00, 361.2, 1033.8)">r</text><text xml:space="preserve" font-family="Helvetica-Bold,Helvetica" font-weight="bold" font-size="18.0" fill="#52575F" transform="matrix(1.00, 0.00, -0.00, -1.00, 368.3, 1033.8)">e</text><text xml:space="preserve" font-family="Helvetica-Bold,Helvetica" font-weight="bold" font-size="18.0" fill="#52575F" transform="matrix(1.00, 0.00, -0.00, -1.00, 378.3, 1033.8)">m</text><text xml:space="preserve" font-family="Helvetica-Bold,Helvetica" font-weight="bold" font-size="18.0" fill="#52575F" transform="matrix(1.00, 0.00, -0.00, -1.00, 394.3, 1033.8)">i</text><text xml:space="preserve" font-family="Helvetica-Bold,Helvetica" font-weight="bold" font-size="18.0" fill="#52575F" transform="matrix(1.00, 0.00, -0.00, -1.00, 399.3, 1033.8)">e</text><text xml:space="preserve" font-family="Helvetica-Bold,Helvetica" font-weight="bold" font-size="18.0" fill="#52575F" transform="matrix(1.00, 0.00, -0.00, -1.00, 409.3, 1033.8)">r</text><text xml:space="preserve" font-family="Helvetica-Bold,Helvetica" font-weight="bold" font-size="18.0" fill="#52575F" transform="matrix(1.00, 0.00, -0.00, -1.00, 416.3, 1033.8)"> </text><text xml:space="preserve" font-family="Helvetica-Bold,Helvetica" font-weight="bold" font-size="18.0" fill="#52575F" transform="matrix(1.00, 0.00, -0.00, -1.00, 421.3, 1033.8)">L</text><text xml:space="preserve" font-family="Helvetica-Bold,Helvetica" font-weight="bold" font-size="18.0" fill="#52575F" transform="matrix(1.00, 0.00, -0.00, -1.00, 432.3, 1033.8)">e</text><text xml:space="preserve" font-family="Helvetica-Bold,Helvetica" font-weight="bold" font-size="18.0" fill="#52575F" transform="matrix(1.00, 0.00, -0.00, -1.00, 442.3, 1033.8)">a</text><text xml:space="preserve" font-family="Helvetica-Bold,Helvetica" font-weight="bold" font-size="18.0" fill="#52575F" transform="matrix(1.00, 0.00, -0.00, -1.00, 452.3, 1033.8)">g</text><text xml:space="preserve" font-family="Helvetica-Bold,Helvetica" font-weight="bold" font-size="18.0" fill="#52575F" transform="matrix(1.00, 0.00, -0.00, -1.00, 463.3, 1033.8)">u</text><text xml:space="preserve" font-family="Helvetica-Bold,Helvetica" font-weight="bold" font-size="18.0" fill="#52575F" transform="matrix(1.00, 0.00, -0.00, -1.00, 474.3, 1033.8)">e</text><text xml:space="preserve" font-family="Helvetica-Bold,Helvetica" font-weight="bold" font-size="18.0" fill="#52575F" transform="matrix(1.00, 0.00, -0.00, -1.00, 484.3, 1033.8)"> </text><text xml:space="preserve" font-family="Helvetica-Bold,Helvetica" font-weight="bold" font-size="18.0" fill="#52575F" transform="matrix(1.00, 0.00, -0.00, -1.00, 489.3, 1033.8)">F</text><text xml:space="preserve" font-family="Helvetica-Bold,Helvetica" font-weight="bold" font-size="18.0" fill="#52575F" transform="matrix(1.00, 0.00, -0.00, -1.00, 500.3, 1033.8)">i</text><text xml:space="preserve" font-family="Helvetica-Bold,Helvetica" font-weight="bold" font-size="18.0" fill="#52575F" transform="matrix(1.00, 0.00, -0.00, -1.00, 505.3, 1033.8)">x</text><text xml:space="preserve" font-family="Helvetica-Bold,Helvetica" font-weight="bold" font-size="18.0" fill="#52575F" transform="matrix(1.00, 0.00, -0.00, -1.00, 515.3, 1033.8)">t</text><text xml:space="preserve" font-family="Helvetica-Bold,Helvetica" font-weight="bold" font-size="18.0" fill="#52575F" transform="matrix(1.00, 0.00, -0.00, -1.00, 521.3, 1033.8)">u</text><text xml:space="preserve" font-family="Helvetica-Bold,Helvetica" font-weight="bold" font-size="18.0" fill="#52575F" transform="matrix(1.00, 0.00, -0.00, -1.00, 532.3, 1033.8)">r</text><text xml:space="preserve" font-family="Helvetica-Bold,Helvetica" font-weight="bold" font-size="18.0" fill="#52575F" transform="matrix(1.00, 0.00, -0.00, -1.00, 539.3, 1033.8)">e</text><text xml:space="preserve" font-family="Helvetica-Bold,Helvetica" font-weight="bold" font-size="18.0" fill="#52575F" transform="matrix(1.00, 0.00, -0.00, -1.00, 549.3, 1033.8)">s</text></g></g><g><clipPath id="clip0x600002aad3e0"><path d="M 566.3 1033.8 L 579.8 1033.8 L 579.8 1043.1 L 566.3 1043.1 Z M 566.3 1033.8 "></path></clipPath><g clip-path="url(#clip0x600002aad3e0)"><path d="M 573.6 1035.0 C 573.4 1034.9 573.2 1034.8 573.1 1034.8 C 572.9 1034.8 572.7 1034.9 572.5 1035.0 L 567.5 1040.1 C 567.3 1040.3 567.3 1040.4 567.3 1040.6 C 567.3 1040.8 566.9 1041.0 567.0 1041.1 L 568.0 1041.9 C 568.1 1042.0 568.5 1042.1 568.7 1042.1 C 568.9 1042.1 569.1 1042.0 569.2 1041.9 L 573.1 1038.0 L 576.9 1041.9 C 577.0 1042.0 577.2 1042.1 577.4 1042.1 C 577.6 1042.1 577.9 1042.0 578.0 1041.9 L 579.0 1041.1 C 579.1 1041.0 578.8 1040.8 578.8 1040.6 C 578.9 1040.4 578.8 1040.3 578.6 1040.1 L 573.6 1035.0 Z M 573.6 1035.0 " fill="#424242"></path></g></g><g><clipPath id="clip0x6000010bc1a0"><path d="M 561.8 1029.1 L 561.8 1047.8 L 564.3 1047.8 L 564.3 1029.1 Z M 561.8 1029.1 "></path></clipPath><g clip-path="url(#clip0x6000010bc1a0)"><path d="M -0.1 0.4 L 16.9 0.4 " fill="none" stroke="#A6AAA8" stroke-width="0.50" transform="matrix(0.00, 1.00, 1.00, 0.00, 563.1, 1030.1)"></path></g></g></g></svg>