<?xml version="1.0" encoding="UTF-8" standalone="no"?><svg xmlns="http://www.w3.org/2000/svg" xmlns:xlink="http://www.w3.org/1999/xlink" clip-rule="evenodd" stroke-miterlimit="10" viewBox="0 0 640 1136"><desc>SVG generated by Keynote</desc><defs></defs><g transform="matrix(1.00, 0.00, -0.00, -1.00, 0.0, 1136.0)"><path d="M 0.0 1136.0 L 640.0 1136.0 L 640.0 0.0 L 0.0 0.0 Z M 0.0 1136.0 " fill="#FEFFFF"></path><g><clipPath id="clip0x610000cb1d60"><path d="M -1.6 -0.5 L 641.0 -0.5 L 641.0 1060.3 L -1.6 1060.3 Z M -1.6 -0.5 "></path></clipPath><g clip-path="url(#clip0x610000cb1d60)"><path d="M -1.6 1060.3 L 641.6 1060.3 L 641.6 -0.5 L -1.6 -0.5 Z M -1.6 1060.3 " fill="#EDEEED"></path></g></g><g><clipPath id="clip0x6100012a5c40"><path d="M 0.0 -31.0 L 20.0 -31.0 L 20.0 995.0 L 0.0 995.0 Z M 0.0 -31.0 "></path></clipPath><g clip-path="url(#clip0x6100012a5c40)"><path d="M 0.0 995.0 L 20.0 995.0 L 20.0 -31.0 L 0.0 -31.0 Z M 0.0 995.0 " fill="#248F52"></path></g></g><g><clipPath id="clip0x610000ab3c20"><path d="M 0.0 37.0 L 640.0 37.0 L 640.0 1139.0 L 0.0 1139.0 Z M 0.0 37.0 "></path></clipPath><g clip-path="url(#clip0x610000ab3c20)"><path d="M 0.0 1063.0 L 20.0 1063.0 L 20.0 37.0 L 0.0 37.0 Z M 0.0 1063.0 " fill="#248F52"></path><path d="M 19.5 641.5 L 29.5 641.5 C 32.3 641.5 34.5 639.3 34.5 636.5 L 34.5 562.0 C 34.5 559.2 32.3 557.0 29.5 557.0 L 19.5 557.0 C 16.7 557.0 14.5 559.2 14.5 562.0 L 14.5 636.5 C 14.5 639.3 16.7 641.5 19.5 641.5 Z M 19.5 641.5 " fill="#248F52"></path><path d="M 28.0 619.8 C 30.0 617.8 30.0 614.7 28.0 612.7 C 26.1 610.8 22.9 610.8 21.0 612.7 C 19.0 614.7 19.0 617.8 21.0 619.8 C 22.9 621.7 26.1 621.7 28.0 619.8 " fill="#FEFFFF"></path><path d="M 28.0 585.8 C 30.0 583.8 30.0 580.7 28.0 578.7 C 26.1 576.8 22.9 576.8 21.0 578.7 C 19.0 580.7 19.0 583.8 21.0 585.8 C 22.9 587.7 26.1 587.7 28.0 585.8 " fill="#FEFFFF"></path><path d="M 28.0 602.8 C 30.0 600.8 30.0 597.7 28.0 595.7 C 26.1 593.8 22.9 593.8 21.0 595.7 C 19.0 597.7 19.0 600.8 21.0 602.8 C 22.9 604.7 26.1 604.7 28.0 602.8 " fill="#FEFFFF"></path><path d="M 0.0 1139.0 L 640.0 1139.0 L 640.0 1059.0 L 0.0 1059.0 Z M 0.0 1139.0 " fill="#248F52"></path></g></g><g><clipPath id="clip0x610001aa4c20"><path d="M 61.2 1125.5 L 114.2 1125.5 L 114.2 1072.5 L 61.2 1072.5 Z M 61.2 1125.5 "></path></clipPath><g clip-path="url(#clip0x610001aa4c20)"><g><clipPath id="clip0x610000aadd40"><path d="M 61.2 1072.5 L 114.2 1072.5 L 114.2 1125.5 L 61.2 1125.5 Z M 61.2 1072.5 "></path></clipPath><g clip-path="url(#clip0x610000aadd40)"><g><g><clipPath id="clip0x610000abff80"><path d="M 61.2 1072.5 L 114.2 1072.5 L 114.2 1125.5 L 61.2 1125.5 Z M 61.2 1072.5 "></path></clipPath><g clip-path="url(#clip0x610000abff80)"><g><g><clipPath id="clip0x610000abe480"><path d="M 61.2 1125.5 L 114.1 1125.5 L 114.1 1072.5 L 61.2 1072.5 Z M 61.2 1125.5 "></path></clipPath><g clip-path="url(#clip0x610000abe480)"><g><clipPath id="clip0x610000ea8a00"><path d="M 61.2 1072.5 L 114.2 1072.5 L 114.2 1125.5 L 61.2 1125.5 Z M 61.2 1072.5 "></path></clipPath><g clip-path="url(#clip0x610000ea8a00)"><path d="M 114.1 1090.1 C 114.1 1088.2 112.6 1086.3 110.7 1085.8 L 108.7 1085.2 L 61.2 1072.5 L 61.2 1104.4 C 61.2 1108.2 64.2 1112.1 68.0 1113.1 L 70.0 1113.6 L 114.1 1125.5 L 114.1 1090.1 " fill="#FFFEFE"></path></g></g></g></g><g><clipPath id="clip0x610000ab8000"><path d="M 61.2 1072.5 L 114.2 1072.5 L 114.2 1125.5 L 61.2 1125.5 Z M 61.2 1072.5 "></path></clipPath><g clip-path="url(#clip0x610000ab8000)"><path d="M 104.9 1094.4 C 104.9 1093.3 104.3 1092.9 102.7 1092.9 L 100.3 1092.9 L 100.3 1097.0 L 103.3 1097.0 C 104.4 1097.0 104.9 1096.6 104.9 1095.6 L 104.9 1094.4 Z M 100.3 1104.1 L 102.8 1104.1 C 104.2 1104.1 104.3 1103.5 104.3 1103.0 L 104.3 1101.2 C 104.3 1100.5 103.8 1100.1 102.8 1100.1 L 100.3 1100.1 L 100.3 1104.1 Z M 106.8 1098.9 C 107.8 1099.5 108.3 1100.4 108.3 1101.6 L 108.3 1103.3 C 108.3 1106.0 106.6 1107.3 103.2 1107.3 L 96.2 1107.3 L 96.2 1089.7 L 103.7 1089.7 C 107.0 1089.7 108.9 1091.3 108.9 1094.1 L 108.9 1095.7 C 108.9 1097.1 108.1 1098.4 106.8 1098.9 " fill="#0F7C3F"></path><path d="M 79.1 1103.4 C 79.6 1103.4 80.0 1103.8 80.0 1104.3 L 80.0 1104.5 L 80.0 1107.3 L 68.4 1107.3 C 67.3 1107.3 66.5 1106.4 66.5 1105.4 L 66.5 1103.4 L 71.0 1103.4 L 71.0 1089.7 L 73.5 1089.7 C 74.5 1089.7 75.4 1090.6 75.4 1091.7 L 75.4 1103.4 L 79.1 1103.4 " fill="#0F7C3F"></path><path d="M 85.1 1096.5 L 86.8 1102.9 L 88.6 1096.5 L 85.1 1096.5 Z M 90.4 1104.7 C 89.9 1106.2 88.5 1107.3 86.8 1107.3 L 84.1 1107.3 L 78.7 1089.7 L 82.0 1089.7 C 82.1 1089.7 82.1 1089.7 82.2 1089.7 C 82.4 1089.7 82.5 1089.7 82.5 1089.7 C 83.0 1089.7 83.3 1090.0 83.5 1090.4 L 83.5 1090.6 L 84.2 1093.1 L 89.5 1093.1 L 90.4 1089.7 L 95.0 1089.7 L 90.4 1104.7 L 90.4 1104.7 " fill="#0F7C3F"></path></g></g></g></g></g></g></g></g></g></g><g><clipPath id="clip0x610000aa0720"><path d="M 0.0 37.0 L 640.0 37.0 L 640.0 1139.0 L 0.0 1139.0 Z M 0.0 37.0 "></path></clipPath><g clip-path="url(#clip0x610000aa0720)"><text xml:space="preserve" font-family="CharcoalCY,Charcoal CY" font-weight="bold" font-size="50.0" fill="#FFFFFF" transform="matrix(0.00, 1.00, 1.00, -0.00, 59.0, 1076.0)">⌃</text></g></g><text xml:space="preserve" font-family="HelveticaNeue-Bold,Helvetica Neue" font-weight="bold" font-size="24.0" fill="#FEFFFE" transform="matrix(1.00, 0.00, -0.00, -1.00, 128.5, 1092.1)">M</text><text xml:space="preserve" font-family="HelveticaNeue-Bold,Helvetica Neue" font-weight="bold" font-size="24.0" fill="#FEFFFE" transform="matrix(1.00, 0.00, -0.00, -1.00, 149.7, 1092.1)">y</text><text xml:space="preserve" font-family="HelveticaNeue-Bold,Helvetica Neue" font-weight="bold" font-size="24.0" fill="#FEFFFE" transform="matrix(1.00, 0.00, -0.00, -1.00, 161.5, 1092.1)"> </text><text xml:space="preserve" font-family="HelveticaNeue-Bold,Helvetica Neue" font-weight="bold" font-size="24.0" fill="#FEFFFE" transform="matrix(1.00, 0.00, -0.00, -1.00, 167.6, 1092.1)">B</text><text xml:space="preserve" font-family="HelveticaNeue-Bold,Helvetica Neue" font-weight="bold" font-size="24.0" fill="#FEFFFE" transform="matrix(1.00, 0.00, -0.00, -1.00, 183.9, 1092.1)">e</text><text xml:space="preserve" font-family="HelveticaNeue-Bold,Helvetica Neue" font-weight="bold" font-size="24.0" fill="#FEFFFE" transform="matrix(1.00, 0.00, -0.00, -1.00, 197.1, 1092.1)">t</text><text xml:space="preserve" font-family="HelveticaNeue-Bold,Helvetica Neue" font-weight="bold" font-size="24.0" fill="#FEFFFE" transform="matrix(1.00, 0.00, -0.00, -1.00, 204.9, 1092.1)"> </text><text xml:space="preserve" font-family="HelveticaNeue-Bold,Helvetica Neue" font-weight="bold" font-size="24.0" fill="#FEFFFE" transform="matrix(1.00, 0.00, -0.00, -1.00, 211.0, 1092.1)">B</text><text xml:space="preserve" font-family="HelveticaNeue-Bold,Helvetica Neue" font-weight="bold" font-size="24.0" fill="#FEFFFE" transform="matrix(1.00, 0.00, -0.00, -1.00, 227.3, 1092.1)">u</text><text xml:space="preserve" font-family="HelveticaNeue-Bold,Helvetica Neue" font-weight="bold" font-size="24.0" fill="#FEFFFE" transform="matrix(1.00, 0.00, -0.00, -1.00, 240.9, 1092.1)">i</text><text xml:space="preserve" font-family="HelveticaNeue-Bold,Helvetica Neue" font-weight="bold" font-size="24.0" fill="#FEFFFE" transform="matrix(1.00, 0.00, -0.00, -1.00, 246.5, 1092.1)">l</text><text xml:space="preserve" font-family="HelveticaNeue-Bold,Helvetica Neue" font-weight="bold" font-size="24.0" fill="#FEFFFE" transform="matrix(1.00, 0.00, -0.00, -1.00, 252.1, 1092.1)">d</text><text xml:space="preserve" font-family="HelveticaNeue-Bold,Helvetica Neue" font-weight="bold" font-size="24.0" fill="#FEFFFE" transform="matrix(1.00, 0.00, -0.00, -1.00, 266.2, 1092.1)">e</text><text xml:space="preserve" font-family="HelveticaNeue-Bold,Helvetica Neue" font-weight="bold" font-size="24.0" fill="#FEFFFE" transform="matrix(1.00, 0.00, -0.00, -1.00, 279.3, 1092.1)">r</text><text xml:space="preserve" font-family="HelveticaNeue-Bold,Helvetica Neue" font-weight="bold" font-size="24.0" fill="#FEFFFE" transform="matrix(1.00, 0.00, -0.00, -1.00, 288.1, 1092.1)"> </text><text xml:space="preserve" font-family="Helvetica-Light,Helvetica" font-size="19.2" fill="#52575F" transform="matrix(1.00, 0.00, -0.00, -1.00, 35.0, 1035.6)">R</text><text xml:space="preserve" font-family="Helvetica-Light,Helvetica" font-size="19.2" fill="#52575F" transform="matrix(1.00, 0.00, -0.00, -1.00, 47.8, 1035.6)">a</text><text xml:space="preserve" font-family="Helvetica-Light,Helvetica" font-size="19.2" fill="#52575F" transform="matrix(1.00, 0.00, -0.00, -1.00, 58.5, 1035.6)">c</text><text xml:space="preserve" font-family="Helvetica-Light,Helvetica" font-size="19.2" fill="#52575F" transform="matrix(1.00, 0.00, -0.00, -1.00, 69.2, 1035.6)">i</text><text xml:space="preserve" font-family="Helvetica-Light,Helvetica" font-size="19.2" fill="#52575F" transform="matrix(1.00, 0.00, -0.00, -1.00, 73.5, 1035.6)">n</text><text xml:space="preserve" font-family="Helvetica-Light,Helvetica" font-size="19.2" fill="#52575F" transform="matrix(1.00, 0.00, -0.00, -1.00, 84.1, 1035.6)">g</text><text xml:space="preserve" font-family="Helvetica-Light,Helvetica" font-size="19.2" fill="#52575F" transform="matrix(1.00, 0.00, -0.00, -1.00, 95.9, 1035.6)"> </text><text xml:space="preserve" font-family="Helvetica-Light,Helvetica" font-size="19.2" fill="#52575F" transform="matrix(1.00, 0.00, -0.00, -1.00, 101.2, 1035.6)">B</text><text xml:space="preserve" font-family="Helvetica-Light,Helvetica" font-size="19.2" fill="#52575F" transform="matrix(1.00, 0.00, -0.00, -1.00, 114.0, 1035.6)">e</text><text xml:space="preserve" font-family="Helvetica-Light,Helvetica" font-size="19.2" fill="#52575F" transform="matrix(1.00, 0.00, -0.00, -1.00, 124.7, 1035.6)">t</text><text xml:space="preserve" font-family="Helvetica-Light,Helvetica" font-size="19.2" fill="#52575F" transform="matrix(1.00, 0.00, -0.00, -1.00, 130.0, 1035.6)">s</text><g><clipPath id="clip0x610001cbb480"><path d="M 20.2 -0.1 L 639.2 -0.1 L 639.2 138.9 L 20.2 138.9 Z M 20.2 -0.1 "></path></clipPath><g clip-path="url(#clip0x610001cbb480)"><path d="M 20.2 -0.1 L 639.8 -0.1 L 639.8 139.3 L 20.2 139.3 Z M 20.2 -0.1 " fill="#EEFEEB"></path><path d="M 20.7 3.2 L 637.8 3.2 L 637.8 139.3 L 20.7 139.3 Z M 20.7 3.2 " fill="#EEFEEB"></path><path d="M 389.4 120.3 L 620.4 120.3 C 621.5 120.3 622.4 119.4 622.4 118.3 L 622.4 23.3 C 622.4 22.2 621.5 21.3 620.4 21.3 L 389.4 21.3 C 388.3 21.3 387.4 22.2 387.4 23.3 L 387.4 118.3 C 387.4 119.4 388.3 120.3 389.4 120.3 Z M 389.4 120.3 " fill="#248F52"></path><text xml:space="preserve" font-family="Helvetica-Bold,Helvetica" font-weight="bold" font-size="33.2" fill="#FFFFFF" transform="matrix(1.00, 0.00, -0.00, -1.00, 440.4, 58.3)">B</text><text xml:space="preserve" font-family="Helvetica-Bold,Helvetica" font-weight="bold" font-size="33.2" fill="#FFFFFF" transform="matrix(1.00, 0.00, -0.00, -1.00, 464.4, 58.3)">e</text><text xml:space="preserve" font-family="Helvetica-Bold,Helvetica" font-weight="bold" font-size="33.2" fill="#FFFFFF" transform="matrix(1.00, 0.00, -0.00, -1.00, 482.8, 58.3)">t</text><text xml:space="preserve" font-family="Helvetica-Bold,Helvetica" font-weight="bold" font-size="33.2" fill="#FFFFFF" transform="matrix(1.00, 0.00, -0.00, -1.00, 493.9, 58.3)"> </text><text xml:space="preserve" font-family="Helvetica-Bold,Helvetica" font-weight="bold" font-size="33.2" fill="#FFFFFF" transform="matrix(1.00, 0.00, -0.00, -1.00, 503.1, 58.3)">n</text><text xml:space="preserve" font-family="Helvetica-Bold,Helvetica" font-weight="bold" font-size="33.2" fill="#FFFFFF" transform="matrix(1.00, 0.00, -0.00, -1.00, 523.4, 58.3)">o</text><text xml:space="preserve" font-family="Helvetica-Bold,Helvetica" font-weight="bold" font-size="33.2" fill="#FFFFFF" transform="matrix(1.00, 0.00, -0.00, -1.00, 543.6, 58.3)">w</text><text xml:space="preserve" font-family="HelveticaNeue,Helvetica Neue" font-size="19.2" fill="#3B3B3B" transform="matrix(1.00, 0.00, -0.00, -1.00, 37.0, 104.6)">N</text><text xml:space="preserve" font-family="HelveticaNeue,Helvetica Neue" font-size="19.2" fill="#3B3B3B" transform="matrix(1.00, 0.00, -0.00, -1.00, 50.8, 104.6)">u</text><text xml:space="preserve" font-family="HelveticaNeue,Helvetica Neue" font-size="19.2" fill="#3B3B3B" transform="matrix(1.00, 0.00, -0.00, -1.00, 61.5, 104.6)">m</text><text xml:space="preserve" font-family="HelveticaNeue,Helvetica Neue" font-size="19.2" fill="#3B3B3B" transform="matrix(1.00, 0.00, -0.00, -1.00, 77.9, 104.6)">b</text><text xml:space="preserve" font-family="HelveticaNeue,Helvetica Neue" font-size="19.2" fill="#3B3B3B" transform="matrix(1.00, 0.00, -0.00, -1.00, 89.3, 104.6)">e</text><text xml:space="preserve" font-family="HelveticaNeue,Helvetica Neue" font-size="19.2" fill="#3B3B3B" transform="matrix(1.00, 0.00, -0.00, -1.00, 99.6, 104.6)">r</text><text xml:space="preserve" font-family="HelveticaNeue,Helvetica Neue" font-size="19.2" fill="#3B3B3B" transform="matrix(1.00, 0.00, -0.00, -1.00, 106.0, 104.6)"> </text><text xml:space="preserve" font-family="HelveticaNeue,Helvetica Neue" font-size="19.2" fill="#3B3B3B" transform="matrix(1.00, 0.00, -0.00, -1.00, 111.3, 104.6)">o</text><text xml:space="preserve" font-family="HelveticaNeue,Helvetica Neue" font-size="19.2" fill="#3B3B3B" transform="matrix(1.00, 0.00, -0.00, -1.00, 122.3, 104.6)">f</text><text xml:space="preserve" font-family="HelveticaNeue,Helvetica Neue" font-size="19.2" fill="#3B3B3B" transform="matrix(1.00, 0.00, -0.00, -1.00, 128.0, 104.6)"> </text><text xml:space="preserve" font-family="HelveticaNeue,Helvetica Neue" font-size="19.2" fill="#3B3B3B" transform="matrix(1.00, 0.00, -0.00, -1.00, 133.4, 104.6)">b</text><text xml:space="preserve" font-family="HelveticaNeue,Helvetica Neue" font-size="19.2" fill="#3B3B3B" transform="matrix(1.00, 0.00, -0.00, -1.00, 144.7, 104.6)">e</text><text xml:space="preserve" font-family="HelveticaNeue,Helvetica Neue" font-size="19.2" fill="#3B3B3B" transform="matrix(1.00, 0.00, -0.00, -1.00, 155.1, 104.6)">t</text><text xml:space="preserve" font-family="HelveticaNeue,Helvetica Neue" font-size="19.2" fill="#3B3B3B" transform="matrix(1.00, 0.00, -0.00, -1.00, 161.1, 104.6)">s</text><text xml:space="preserve" font-family="HelveticaNeue-Bold,Helvetica Neue" font-weight="bold" font-size="23.0" fill="#000000" transform="matrix(1.00, 0.00, -0.00, -1.00, 214.0, 103.1)">0</text><text xml:space="preserve" font-family="HelveticaNeue,Helvetica Neue" font-size="19.2" fill="#3B3B3B" transform="matrix(1.00, 0.00, -0.00, -1.00, 37.0, 65.2)">T</text><text xml:space="preserve" font-family="HelveticaNeue,Helvetica Neue" font-size="19.2" fill="#3B3B3B" transform="matrix(1.00, 0.00, -0.00, -1.00, 45.9, 65.2)">o</text><text xml:space="preserve" font-family="HelveticaNeue,Helvetica Neue" font-size="19.2" fill="#3B3B3B" transform="matrix(1.00, 0.00, -0.00, -1.00, 56.9, 65.2)">t</text><text xml:space="preserve" font-family="HelveticaNeue,Helvetica Neue" font-size="19.2" fill="#3B3B3B" transform="matrix(1.00, 0.00, -0.00, -1.00, 62.9, 65.2)">a</text><text xml:space="preserve" font-family="HelveticaNeue,Helvetica Neue" font-size="19.2" fill="#3B3B3B" transform="matrix(1.00, 0.00, -0.00, -1.00, 73.2, 65.2)">l</text><text xml:space="preserve" font-family="HelveticaNeue,Helvetica Neue" font-size="19.2" fill="#3B3B3B" transform="matrix(1.00, 0.00, -0.00, -1.00, 77.5, 65.2)"> </text><text xml:space="preserve" font-family="HelveticaNeue,Helvetica Neue" font-size="19.2" fill="#3B3B3B" transform="matrix(1.00, 0.00, -0.00, -1.00, 82.8, 65.2)">b</text><text xml:space="preserve" font-family="HelveticaNeue,Helvetica Neue" font-size="19.2" fill="#3B3B3B" transform="matrix(1.00, 0.00, -0.00, -1.00, 94.2, 65.2)">e</text><text xml:space="preserve" font-family="HelveticaNeue,Helvetica Neue" font-size="19.2" fill="#3B3B3B" transform="matrix(1.00, 0.00, -0.00, -1.00, 104.5, 65.2)">t</text><text xml:space="preserve" font-family="HelveticaNeue,Helvetica Neue" font-size="19.2" fill="#3B3B3B" transform="matrix(1.00, 0.00, -0.00, -1.00, 110.6, 65.2)"> </text><text xml:space="preserve" font-family="HelveticaNeue,Helvetica Neue" font-size="19.2" fill="#3B3B3B" transform="matrix(1.00, 0.00, -0.00, -1.00, 115.9, 65.2)">c</text><text xml:space="preserve" font-family="HelveticaNeue,Helvetica Neue" font-size="19.2" fill="#3B3B3B" transform="matrix(1.00, 0.00, -0.00, -1.00, 126.2, 65.2)">o</text><text xml:space="preserve" font-family="HelveticaNeue,Helvetica Neue" font-size="19.2" fill="#3B3B3B" transform="matrix(1.00, 0.00, -0.00, -1.00, 137.3, 65.2)">s</text><text xml:space="preserve" font-family="HelveticaNeue,Helvetica Neue" font-size="19.2" fill="#3B3B3B" transform="matrix(1.00, 0.00, -0.00, -1.00, 146.9, 65.2)">t</text><text xml:space="preserve" font-family="HelveticaNeue-Bold,Helvetica Neue" font-weight="bold" font-size="23.0" fill="#000000" transform="matrix(1.00, 0.00, -0.00, -1.00, 215.2, 63.7)">$</text><text xml:space="preserve" font-family="HelveticaNeue-Bold,Helvetica Neue" font-weight="bold" font-size="23.0" fill="#000000" transform="matrix(1.00, 0.00, -0.00, -1.00, 228.0, 63.7)"> </text><text xml:space="preserve" font-family="HelveticaNeue-Bold,Helvetica Neue" font-weight="bold" font-size="23.0" fill="#000000" transform="matrix(1.00, 0.00, -0.00, -1.00, 234.4, 63.7)">0</text><text xml:space="preserve" font-family="HelveticaNeue-Bold,Helvetica Neue" font-weight="bold" font-size="23.0" fill="#000000" transform="matrix(1.00, 0.00, -0.00, -1.00, 247.2, 63.7)">.</text><text xml:space="preserve" font-family="HelveticaNeue-Bold,Helvetica Neue" font-weight="bold" font-size="23.0" fill="#000000" transform="matrix(1.00, 0.00, -0.00, -1.00, 253.6, 63.7)">0</text><text xml:space="preserve" font-family="HelveticaNeue-Bold,Helvetica Neue" font-weight="bold" font-size="23.0" fill="#000000" transform="matrix(1.00, 0.00, -0.00, -1.00, 266.5, 63.7)">0</text></g></g><g><clipPath id="clip0x610000abd7c0"><path d="M 26.0 721.1 L 659.0 721.1 L 659.0 1027.1 L 26.0 1027.1 Z M 26.0 721.1 "></path></clipPath><g clip-path="url(#clip0x610000abd7c0)"><image xlink:href="../../DBA5AF75-4A24-48DE-9B80-54A2BD0652A4/assets/BE1D7DA390578F99852B9C1C638432A0.png" width="610.00" height="306.00" transform="matrix(1.00, 0.00, -0.00, 1.00, 26.0, 721.1)"></image><path d="M 33.5 1021.6 L 627.5 1021.6 C 628.6 1021.6 629.5 1020.7 629.5 1019.6 L 629.5 729.6 C 629.5 728.5 628.6 727.6 627.5 727.6 L 33.5 727.6 C 32.4 727.6 31.5 728.5 31.5 729.6 L 31.5 1019.6 C 31.5 1020.7 32.4 1021.6 33.5 1021.6 Z M 33.5 1021.6 " fill="#FEFFFF"></path><path d="M 545.9 1007.5 L 629.4 1007.5 L 629.4 981.5 L 545.9 981.5 Z M 545.9 1007.5 " fill="#277CCE"></path><text xml:space="preserve" font-family="HelveticaNeue-Bold,Helvetica Neue" font-weight="bold" font-size="11.0" fill="#FFFFFF" transform="matrix(1.00, 0.00, -0.00, -1.00, 573.1, 990.0)">T</text><text xml:space="preserve" font-family="HelveticaNeue-Bold,Helvetica Neue" font-weight="bold" font-size="11.0" fill="#FFFFFF" transform="matrix(1.00, 0.00, -0.00, -1.00, 579.8, 990.0)">O</text><text xml:space="preserve" font-family="HelveticaNeue-Bold,Helvetica Neue" font-weight="bold" font-size="11.0" fill="#FFFFFF" transform="matrix(1.00, 0.00, -0.00, -1.00, 588.4, 990.0)">T</text><text xml:space="preserve" font-family="HelveticaNeue-Bold,Helvetica Neue" font-weight="bold" font-size="11.0" fill="#FFFFFF" transform="matrix(1.00, 0.00, -0.00, -1.00, 595.1, 990.0)">E</text><text xml:space="preserve" font-family="HelveticaNeue-Bold,Helvetica Neue" font-weight="bold" font-size="19.2" fill="#000000" transform="matrix(1.00, 0.00, -0.00, -1.00, 78.8, 989.0)">C</text><text xml:space="preserve" font-family="HelveticaNeue-Bold,Helvetica Neue" font-weight="bold" font-size="19.2" fill="#000000" transform="matrix(1.00, 0.00, -0.00, -1.00, 93.0, 989.0)">e</text><text xml:space="preserve" font-family="HelveticaNeue-Bold,Helvetica Neue" font-weight="bold" font-size="19.2" fill="#000000" transform="matrix(1.00, 0.00, -0.00, -1.00, 104.0, 989.0)">s</text><text xml:space="preserve" font-family="HelveticaNeue-Bold,Helvetica Neue" font-weight="bold" font-size="19.2" fill="#000000" transform="matrix(1.00, 0.00, -0.00, -1.00, 114.3, 989.0)">s</text><text xml:space="preserve" font-family="HelveticaNeue-Bold,Helvetica Neue" font-weight="bold" font-size="19.2" fill="#000000" transform="matrix(1.00, 0.00, -0.00, -1.00, 124.6, 989.0)">n</text><text xml:space="preserve" font-family="HelveticaNeue-Bold,Helvetica Neue" font-weight="bold" font-size="19.2" fill="#000000" transform="matrix(1.00, 0.00, -0.00, -1.00, 136.0, 989.0)">o</text><text xml:space="preserve" font-family="HelveticaNeue-Bold,Helvetica Neue" font-weight="bold" font-size="19.2" fill="#000000" transform="matrix(1.00, 0.00, -0.00, -1.00, 147.7, 989.0)">c</text><text xml:space="preserve" font-family="HelveticaNeue-Bold,Helvetica Neue" font-weight="bold" font-size="19.2" fill="#000000" transform="matrix(1.00, 0.00, -0.00, -1.00, 158.8, 989.0)">k</text><text xml:space="preserve" font-family="HelveticaNeue-Bold,Helvetica Neue" font-weight="bold" font-size="19.2" fill="#000000" transform="matrix(1.00, 0.00, -0.00, -1.00, 169.8, 989.0)"> </text><text xml:space="preserve" font-family="HelveticaNeue-Bold,Helvetica Neue" font-weight="bold" font-size="19.2" fill="#000000" transform="matrix(1.00, 0.00, -0.00, -1.00, 175.1, 989.0)">-</text><text xml:space="preserve" font-family="HelveticaNeue-Bold,Helvetica Neue" font-weight="bold" font-size="19.2" fill="#000000" transform="matrix(1.00, 0.00, -0.00, -1.00, 182.9, 989.0)"> </text><text xml:space="preserve" font-family="HelveticaNeue-Bold,Helvetica Neue" font-weight="bold" font-size="19.2" fill="#000000" transform="matrix(1.00, 0.00, -0.00, -1.00, 188.3, 989.0)">N</text><text xml:space="preserve" font-family="HelveticaNeue-Bold,Helvetica Neue" font-weight="bold" font-size="19.2" fill="#000000" transform="matrix(1.00, 0.00, -0.00, -1.00, 202.5, 989.0)">S</text><text xml:space="preserve" font-family="HelveticaNeue-Bold,Helvetica Neue" font-weight="bold" font-size="19.2" fill="#000000" transform="matrix(1.00, 0.00, -0.00, -1.00, 215.0, 989.0)">W</text><text xml:space="preserve" font-family="HelveticaNeue-Bold,Helvetica Neue" font-weight="bold" font-size="19.2" fill="#000000" transform="matrix(1.00, 0.00, -0.00, -1.00, 233.1, 989.0)"> </text><text xml:space="preserve" font-family="HelveticaNeue-Bold,Helvetica Neue" font-weight="bold" font-size="19.2" fill="#000000" transform="matrix(1.00, 0.00, -0.00, -1.00, 238.4, 989.0)"> </text><text xml:space="preserve" font-family="HelveticaNeue-Bold,Helvetica Neue" font-weight="bold" font-size="19.2" fill="#000000" transform="matrix(1.00, 0.00, -0.00, -1.00, 243.8, 989.0)"> </text><text xml:space="preserve" font-family="HelveticaNeue-Bold,Helvetica Neue" font-weight="bold" font-size="19.2" fill="#000000" transform="matrix(1.00, 0.00, -0.00, -1.00, 249.1, 989.0)"> </text><text xml:space="preserve" font-family="HelveticaNeue-Bold,Helvetica Neue" font-weight="bold" font-size="19.2" fill="#000000" transform="matrix(1.00, 0.00, -0.00, -1.00, 254.4, 989.0)"> </text><text xml:space="preserve" font-family="HelveticaNeue-Bold,Helvetica Neue" font-weight="bold" font-size="19.2" fill="#000000" transform="matrix(1.00, 0.00, -0.00, -1.00, 259.8, 989.0)">R</text><text xml:space="preserve" font-family="HelveticaNeue-Bold,Helvetica Neue" font-weight="bold" font-size="19.2" fill="#000000" transform="matrix(1.00, 0.00, -0.00, -1.00, 273.6, 989.0)">a</text><text xml:space="preserve" font-family="HelveticaNeue-Bold,Helvetica Neue" font-weight="bold" font-size="19.2" fill="#000000" transform="matrix(1.00, 0.00, -0.00, -1.00, 284.7, 989.0)">c</text><text xml:space="preserve" font-family="HelveticaNeue-Bold,Helvetica Neue" font-weight="bold" font-size="19.2" fill="#000000" transform="matrix(1.00, 0.00, -0.00, -1.00, 295.7, 989.0)">e</text><text xml:space="preserve" font-family="HelveticaNeue-Bold,Helvetica Neue" font-weight="bold" font-size="19.2" fill="#000000" transform="matrix(1.00, 0.00, -0.00, -1.00, 306.7, 989.0)"> </text><text xml:space="preserve" font-family="HelveticaNeue-Bold,Helvetica Neue" font-weight="bold" font-size="19.2" fill="#000000" transform="matrix(1.00, 0.00, -0.00, -1.00, 312.0, 989.0)"> </text><text xml:space="preserve" font-family="HelveticaNeue-Bold,Helvetica Neue" font-weight="bold" font-size="19.2" fill="#000000" transform="matrix(1.00, 0.00, -0.00, -1.00, 317.4, 989.0)">5</text><text xml:space="preserve" font-family="HelveticaNeue-Bold,Helvetica Neue" font-weight="bold" font-size="19.2" fill="#000000" transform="matrix(1.00, 0.00, -0.00, -1.00, 328.1, 989.0)"> </text><text xml:space="preserve" font-family="HelveticaNeue-Bold,Helvetica Neue" font-weight="bold" font-size="19.2" fill="#000000" transform="matrix(1.00, 0.00, -0.00, -1.00, 333.4, 989.0)"> </text><text xml:space="preserve" font-family="HelveticaNeue-Bold,Helvetica Neue" font-weight="bold" font-size="19.2" fill="#000000" transform="matrix(1.00, 0.00, -0.00, -1.00, 338.7, 989.0)"> </text><text xml:space="preserve" font-family="HelveticaNeue-Bold,Helvetica Neue" font-weight="bold" font-size="19.2" fill="#000000" transform="matrix(1.00, 0.00, -0.00, -1.00, 344.1, 989.0)"> </text><text xml:space="preserve" font-family="HelveticaNeue-Bold,Helvetica Neue" font-weight="bold" font-size="19.2" fill="#000000" transform="matrix(1.00, 0.00, -0.00, -1.00, 349.4, 989.0)">T</text><text xml:space="preserve" font-family="HelveticaNeue-Bold,Helvetica Neue" font-weight="bold" font-size="19.2" fill="#000000" transform="matrix(1.00, 0.00, -0.00, -1.00, 359.4, 989.0)">r</text><text xml:space="preserve" font-family="HelveticaNeue-Bold,Helvetica Neue" font-weight="bold" font-size="19.2" fill="#000000" transform="matrix(1.00, 0.00, -0.00, -1.00, 366.8, 989.0)">i</text><text xml:space="preserve" font-family="HelveticaNeue-Bold,Helvetica Neue" font-weight="bold" font-size="19.2" fill="#000000" transform="matrix(1.00, 0.00, -0.00, -1.00, 371.8, 989.0)">f</text><text xml:space="preserve" font-family="HelveticaNeue-Bold,Helvetica Neue" font-weight="bold" font-size="19.2" fill="#000000" transform="matrix(1.00, 0.00, -0.00, -1.00, 378.2, 989.0)">e</text><text xml:space="preserve" font-family="HelveticaNeue-Bold,Helvetica Neue" font-weight="bold" font-size="19.2" fill="#000000" transform="matrix(1.00, 0.00, -0.00, -1.00, 389.2, 989.0)">c</text><text xml:space="preserve" font-family="HelveticaNeue-Bold,Helvetica Neue" font-weight="bold" font-size="19.2" fill="#000000" transform="matrix(1.00, 0.00, -0.00, -1.00, 400.2, 989.0)">t</text><text xml:space="preserve" font-family="HelveticaNeue-Bold,Helvetica Neue" font-weight="bold" font-size="19.2" fill="#000000" transform="matrix(1.00, 0.00, -0.00, -1.00, 407.0, 989.0)">a</text><text xml:space="preserve" font-family="HelveticaNeue-Bold,Helvetica Neue" font-weight="bold" font-size="20.0" fill="#267DCF" transform="matrix(1.00, 0.00, -0.00, -1.00, 47.5, 988.0)">1</text><text xml:space="preserve" font-family="HelveticaNeue-Bold,Helvetica Neue" font-weight="bold" font-size="20.0" fill="#267DCF" transform="matrix(1.00, 0.00, -0.00, -1.00, 58.6, 988.0)">.</text></g></g><g><clipPath id="clip0x610000cbe0c0"><path d="M 522.2 754.6 L 540.2 754.6 L 540.2 736.6 L 522.2 736.6 Z M 522.2 754.6 "></path></clipPath><g clip-path="url(#clip0x610000cbe0c0)"><g><clipPath id="clip0x6100004b09e0"><path d="M 540.4 754.7 L 522.4 754.7 L 522.4 736.7 L 540.4 736.7 Z M 540.4 754.7 "></path></clipPath><g clip-path="url(#clip0x6100004b09e0)"><g><clipPath id="clip0x610000ca0de0"><path d="M 522.4 736.7 L 540.4 736.7 L 540.4 754.7 L 522.4 754.7 Z M 522.4 736.7 "></path></clipPath><g clip-path="url(#clip0x610000ca0de0)"><g opacity="0.27"><g><clipPath id="clip0x610000cb1640"><path d="M 522.4 736.7 L 540.4 736.7 L 540.4 754.7 L 522.4 754.7 Z M 522.4 736.7 "></path></clipPath><g clip-path="url(#clip0x610000cb1640)"><path d="M 526.0 754.7 L 531.4 749.3 L 536.8 754.7 L 540.4 751.1 L 535.0 745.7 L 540.4 740.3 L 536.8 736.7 L 531.4 742.1 L 526.0 736.7 L 522.4 740.3 L 527.8 745.7 L 522.4 751.1 Z M 526.0 754.7 " fill="#221F1F"></path></g></g></g></g></g></g></g></g></g><g><clipPath id="clip0x610000eadce0"><path d="M 26.0 721.1 L 659.0 721.1 L 659.0 1027.1 L 26.0 1027.1 Z M 26.0 721.1 "></path></clipPath><g clip-path="url(#clip0x610000eadce0)"><text xml:space="preserve" font-family="Helvetica-Bold,Helvetica" font-weight="bold" font-size="16.0" fill="#3B3B3B" transform="matrix(1.00, 0.00, -0.00, -1.00, 549.7, 740.5)">R</text><text xml:space="preserve" font-family="Helvetica-Bold,Helvetica" font-weight="bold" font-size="16.0" fill="#3B3B3B" transform="matrix(1.00, 0.00, -0.00, -1.00, 561.3, 740.5)">e</text><text xml:space="preserve" font-family="Helvetica-Bold,Helvetica" font-weight="bold" font-size="16.0" fill="#3B3B3B" transform="matrix(1.00, 0.00, -0.00, -1.00, 570.2, 740.5)">m</text><text xml:space="preserve" font-family="Helvetica-Bold,Helvetica" font-weight="bold" font-size="16.0" fill="#3B3B3B" transform="matrix(1.00, 0.00, -0.00, -1.00, 584.4, 740.5)">o</text><text xml:space="preserve" font-family="Helvetica-Bold,Helvetica" font-weight="bold" font-size="16.0" fill="#3B3B3B" transform="matrix(1.00, 0.00, -0.00, -1.00, 594.2, 740.5)">v</text><text xml:space="preserve" font-family="Helvetica-Bold,Helvetica" font-weight="bold" font-size="16.0" fill="#3B3B3B" transform="matrix(1.00, 0.00, -0.00, -1.00, 603.1, 740.5)">e</text><path d="M 4314.1 10290.1 L 4912.1 10290.1 " fill="none" stroke="#EFEFEF" stroke-width="1.00" stroke-linecap="round" stroke-linejoin="round" transform="matrix(1.00, 0.00, 0.00, -1.00, -4282.6, 11057.7)"></path><path d="M 4788.1 10290.8 L 4788.1 10332.8 " fill="none" stroke="#EFEFEF" stroke-width="1.00" stroke-linecap="round" stroke-linejoin="round" transform="matrix(1.00, 0.00, 0.00, -1.00, -4282.6, 11057.7)"></path><text xml:space="preserve" font-family="HelveticaNeue,Helvetica Neue" font-size="19.2" fill="#3B3B3B" transform="matrix(1.00, 0.00, -0.00, -1.00, 78.8, 887.6)">3</text><text xml:space="preserve" font-family="HelveticaNeue,Helvetica Neue" font-size="19.2" fill="#3B3B3B" transform="matrix(1.00, 0.00, -0.00, -1.00, 89.4, 887.6)">r</text><text xml:space="preserve" font-family="HelveticaNeue,Helvetica Neue" font-size="19.2" fill="#3B3B3B" transform="matrix(1.00, 0.00, -0.00, -1.00, 95.5, 887.6)">d</text><text xml:space="preserve" font-family="HelveticaNeue,Helvetica Neue" font-size="19.2" fill="#3B3B3B" transform="matrix(1.00, 0.00, -0.00, -1.00, 147.3, 916.9)">S</text><text xml:space="preserve" font-family="HelveticaNeue,Helvetica Neue" font-size="19.2" fill="#3B3B3B" transform="matrix(1.00, 0.00, -0.00, -1.00, 159.7, 916.9)">e</text><text xml:space="preserve" font-family="HelveticaNeue,Helvetica Neue" font-size="19.2" fill="#3B3B3B" transform="matrix(1.00, 0.00, -0.00, -1.00, 170.0, 916.9)">l</text><text xml:space="preserve" font-family="HelveticaNeue,Helvetica Neue" font-size="19.2" fill="#3B3B3B" transform="matrix(1.00, 0.00, -0.00, -1.00, 174.3, 916.9)">e</text><text xml:space="preserve" font-family="HelveticaNeue,Helvetica Neue" font-size="19.2" fill="#3B3B3B" transform="matrix(1.00, 0.00, -0.00, -1.00, 184.6, 916.9)">c</text><text xml:space="preserve" font-family="HelveticaNeue,Helvetica Neue" font-size="19.2" fill="#3B3B3B" transform="matrix(1.00, 0.00, -0.00, -1.00, 194.9, 916.9)">t</text><text xml:space="preserve" font-family="HelveticaNeue,Helvetica Neue" font-size="19.2" fill="#3B3B3B" transform="matrix(1.00, 0.00, -0.00, -1.00, 200.9, 916.9)">i</text><text xml:space="preserve" font-family="HelveticaNeue,Helvetica Neue" font-size="19.2" fill="#3B3B3B" transform="matrix(1.00, 0.00, -0.00, -1.00, 205.2, 916.9)">o</text><text xml:space="preserve" font-family="HelveticaNeue,Helvetica Neue" font-size="19.2" fill="#3B3B3B" transform="matrix(1.00, 0.00, -0.00, -1.00, 216.2, 916.9)">n</text><text xml:space="preserve" font-family="HelveticaNeue,Helvetica Neue" font-size="19.2" fill="#3B3B3B" transform="matrix(1.00, 0.00, -0.00, -1.00, 226.9, 916.9)">s</text><text xml:space="preserve" font-family="HelveticaNeue,Helvetica Neue" font-size="19.2" fill="#3B3B3B" transform="matrix(1.00, 0.00, -0.00, -1.00, 236.5, 916.9)">:</text><text xml:space="preserve" font-family="HelveticaNeue,Helvetica Neue" font-size="19.2" fill="#3B3B3B" transform="matrix(1.00, 0.00, -0.00, -1.00, 241.8, 916.9)"> </text><text xml:space="preserve" font-family="HelveticaNeue-Bold,Helvetica Neue" font-weight="bold" font-size="19.2" fill="#3B3B3B" transform="matrix(1.00, 0.00, -0.00, -1.00, 247.2, 916.9)">5</text><text xml:space="preserve" font-family="HelveticaNeue,Helvetica Neue" font-size="19.2" fill="#3B3B3B" transform="matrix(1.00, 0.00, -0.00, -1.00, 78.8, 917.9)">2</text><text xml:space="preserve" font-family="HelveticaNeue,Helvetica Neue" font-size="19.2" fill="#3B3B3B" transform="matrix(1.00, 0.00, -0.00, -1.00, 89.4, 917.9)">n</text><text xml:space="preserve" font-family="HelveticaNeue,Helvetica Neue" font-size="19.2" fill="#3B3B3B" transform="matrix(1.00, 0.00, -0.00, -1.00, 100.1, 917.9)">d</text><text xml:space="preserve" font-family="HelveticaNeue,Helvetica Neue" font-size="19.2" fill="#3B3B3B" transform="matrix(1.00, 0.00, -0.00, -1.00, 147.3, 887.6)">S</text><text xml:space="preserve" font-family="HelveticaNeue,Helvetica Neue" font-size="19.2" fill="#3B3B3B" transform="matrix(1.00, 0.00, -0.00, -1.00, 159.7, 887.6)">e</text><text xml:space="preserve" font-family="HelveticaNeue,Helvetica Neue" font-size="19.2" fill="#3B3B3B" transform="matrix(1.00, 0.00, -0.00, -1.00, 170.0, 887.6)">l</text><text xml:space="preserve" font-family="HelveticaNeue,Helvetica Neue" font-size="19.2" fill="#3B3B3B" transform="matrix(1.00, 0.00, -0.00, -1.00, 174.3, 887.6)">e</text><text xml:space="preserve" font-family="HelveticaNeue,Helvetica Neue" font-size="19.2" fill="#3B3B3B" transform="matrix(1.00, 0.00, -0.00, -1.00, 184.6, 887.6)">c</text><text xml:space="preserve" font-family="HelveticaNeue,Helvetica Neue" font-size="19.2" fill="#3B3B3B" transform="matrix(1.00, 0.00, -0.00, -1.00, 194.9, 887.6)">t</text><text xml:space="preserve" font-family="HelveticaNeue,Helvetica Neue" font-size="19.2" fill="#3B3B3B" transform="matrix(1.00, 0.00, -0.00, -1.00, 200.9, 887.6)">i</text><text xml:space="preserve" font-family="HelveticaNeue,Helvetica Neue" font-size="19.2" fill="#3B3B3B" transform="matrix(1.00, 0.00, -0.00, -1.00, 205.2, 887.6)">o</text><text xml:space="preserve" font-family="HelveticaNeue,Helvetica Neue" font-size="19.2" fill="#3B3B3B" transform="matrix(1.00, 0.00, -0.00, -1.00, 216.2, 887.6)">n</text><text xml:space="preserve" font-family="HelveticaNeue,Helvetica Neue" font-size="19.2" fill="#3B3B3B" transform="matrix(1.00, 0.00, -0.00, -1.00, 226.9, 887.6)">s</text><text xml:space="preserve" font-family="HelveticaNeue,Helvetica Neue" font-size="19.2" fill="#3B3B3B" transform="matrix(1.00, 0.00, -0.00, -1.00, 236.5, 887.6)">:</text><text xml:space="preserve" font-family="HelveticaNeue,Helvetica Neue" font-size="19.2" fill="#3B3B3B" transform="matrix(1.00, 0.00, -0.00, -1.00, 147.3, 947.2)">S</text><text xml:space="preserve" font-family="HelveticaNeue,Helvetica Neue" font-size="19.2" fill="#3B3B3B" transform="matrix(1.00, 0.00, -0.00, -1.00, 159.7, 947.2)">e</text><text xml:space="preserve" font-family="HelveticaNeue,Helvetica Neue" font-size="19.2" fill="#3B3B3B" transform="matrix(1.00, 0.00, -0.00, -1.00, 170.0, 947.2)">l</text><text xml:space="preserve" font-family="HelveticaNeue,Helvetica Neue" font-size="19.2" fill="#3B3B3B" transform="matrix(1.00, 0.00, -0.00, -1.00, 174.3, 947.2)">e</text><text xml:space="preserve" font-family="HelveticaNeue,Helvetica Neue" font-size="19.2" fill="#3B3B3B" transform="matrix(1.00, 0.00, -0.00, -1.00, 184.6, 947.2)">c</text><text xml:space="preserve" font-family="HelveticaNeue,Helvetica Neue" font-size="19.2" fill="#3B3B3B" transform="matrix(1.00, 0.00, -0.00, -1.00, 194.9, 947.2)">t</text><text xml:space="preserve" font-family="HelveticaNeue,Helvetica Neue" font-size="19.2" fill="#3B3B3B" transform="matrix(1.00, 0.00, -0.00, -1.00, 200.9, 947.2)">i</text><text xml:space="preserve" font-family="HelveticaNeue,Helvetica Neue" font-size="19.2" fill="#3B3B3B" transform="matrix(1.00, 0.00, -0.00, -1.00, 205.2, 947.2)">o</text><text xml:space="preserve" font-family="HelveticaNeue,Helvetica Neue" font-size="19.2" fill="#3B3B3B" transform="matrix(1.00, 0.00, -0.00, -1.00, 216.2, 947.2)">n</text><text xml:space="preserve" font-family="HelveticaNeue,Helvetica Neue" font-size="19.2" fill="#3B3B3B" transform="matrix(1.00, 0.00, -0.00, -1.00, 226.9, 947.2)">s</text><text xml:space="preserve" font-family="HelveticaNeue,Helvetica Neue" font-size="19.2" fill="#3B3B3B" transform="matrix(1.00, 0.00, -0.00, -1.00, 236.5, 947.2)">:</text><text xml:space="preserve" font-family="HelveticaNeue,Helvetica Neue" font-size="19.2" fill="#3B3B3B" transform="matrix(1.00, 0.00, -0.00, -1.00, 241.8, 947.2)"> </text><text xml:space="preserve" font-family="HelveticaNeue-Bold,Helvetica Neue" font-weight="bold" font-size="19.2" fill="#3B3B3B" transform="matrix(1.00, 0.00, -0.00, -1.00, 247.2, 947.2)">7</text><text xml:space="preserve" font-family="HelveticaNeue,Helvetica Neue" font-size="19.2" fill="#3B3B3B" transform="matrix(1.00, 0.00, -0.00, -1.00, 78.8, 948.2)">1</text><text xml:space="preserve" font-family="HelveticaNeue,Helvetica Neue" font-size="19.2" fill="#3B3B3B" transform="matrix(1.00, 0.00, -0.00, -1.00, 89.4, 948.2)">s</text><text xml:space="preserve" font-family="HelveticaNeue,Helvetica Neue" font-size="19.2" fill="#3B3B3B" transform="matrix(1.00, 0.00, -0.00, -1.00, 99.0, 948.2)">t</text><text xml:space="preserve" font-family="HelveticaNeue,Helvetica Neue" font-size="19.2" fill="#3B3B3B" transform="matrix(1.00, 0.00, -0.00, -1.00, 78.8, 837.7)">C</text><text xml:space="preserve" font-family="HelveticaNeue,Helvetica Neue" font-size="19.2" fill="#3B3B3B" transform="matrix(1.00, 0.00, -0.00, -1.00, 92.6, 837.7)">o</text><text xml:space="preserve" font-family="HelveticaNeue,Helvetica Neue" font-size="19.2" fill="#3B3B3B" transform="matrix(1.00, 0.00, -0.00, -1.00, 103.6, 837.7)">m</text><text xml:space="preserve" font-family="HelveticaNeue,Helvetica Neue" font-size="19.2" fill="#3B3B3B" transform="matrix(1.00, 0.00, -0.00, -1.00, 120.0, 837.7)">b</text><text xml:space="preserve" font-family="HelveticaNeue,Helvetica Neue" font-size="19.2" fill="#3B3B3B" transform="matrix(1.00, 0.00, -0.00, -1.00, 131.4, 837.7)">i</text><text xml:space="preserve" font-family="HelveticaNeue,Helvetica Neue" font-size="19.2" fill="#3B3B3B" transform="matrix(1.00, 0.00, -0.00, -1.00, 135.7, 837.7)">n</text><text xml:space="preserve" font-family="HelveticaNeue,Helvetica Neue" font-size="19.2" fill="#3B3B3B" transform="matrix(1.00, 0.00, -0.00, -1.00, 146.3, 837.7)">a</text><text xml:space="preserve" font-family="HelveticaNeue,Helvetica Neue" font-size="19.2" fill="#3B3B3B" transform="matrix(1.00, 0.00, -0.00, -1.00, 156.7, 837.7)">t</text><text xml:space="preserve" font-family="HelveticaNeue,Helvetica Neue" font-size="19.2" fill="#3B3B3B" transform="matrix(1.00, 0.00, -0.00, -1.00, 162.7, 837.7)">i</text><text xml:space="preserve" font-family="HelveticaNeue,Helvetica Neue" font-size="19.2" fill="#3B3B3B" transform="matrix(1.00, 0.00, -0.00, -1.00, 167.0, 837.7)">o</text><text xml:space="preserve" font-family="HelveticaNeue,Helvetica Neue" font-size="19.2" fill="#3B3B3B" transform="matrix(1.00, 0.00, -0.00, -1.00, 178.0, 837.7)">n</text><text xml:space="preserve" font-family="HelveticaNeue,Helvetica Neue" font-size="19.2" fill="#3B3B3B" transform="matrix(1.00, 0.00, -0.00, -1.00, 188.7, 837.7)">s</text><text xml:space="preserve" font-family="HelveticaNeue-Bold,Helvetica Neue" font-weight="bold" font-size="19.2" fill="#000000" transform="matrix(1.00, 0.00, -0.00, -1.00, 224.8, 837.2)">0</text><path d="M 4361.4 10189.1 L 4891.4 10189.1 " fill="none" stroke="#AECAD5" stroke-width="0.50" stroke-linecap="round" stroke-linejoin="round" transform="matrix(1.00, 0.00, 0.00, -1.00, -4282.6, 11057.7)"></path><path d="M 225.0 819.7 L 374.6 819.7 C 376.3 819.7 377.6 818.4 377.6 816.7 L 377.6 791.1 C 377.6 789.5 376.3 788.1 374.6 788.1 L 225.0 788.1 C 223.3 788.1 222.0 789.5 222.0 791.1 L 222.0 816.7 C 222.0 818.4 223.3 819.7 225.0 819.7 Z M 225.0 819.7 " fill="#FEFFFF"></path><path d="M 4508.1 10238.1 L 4657.3 10238.1 C 4658.9 10238.0 4660.3 10239.4 4660.1 10241.0 L 4660.1 10266.6 C 4660.3 10268.3 4658.9 10269.6 4657.3 10270.1 L 4507.6 10270.1 C 4506.0 10269.6 4504.6 10268.3 4505.1 10266.6 L 4505.1 10241.0 C 4504.6 10239.4 4506.0 10238.0 4508.1 10238.1 Z M 4508.1 10238.1 " fill="none" stroke="#A6AAA8" stroke-width="1.00" stroke-linecap="square" transform="matrix(1.00, 0.00, 0.00, -1.00, -4282.6, 11057.7)"></path><text xml:space="preserve" font-family="Helvetica-Bold,Helvetica" font-weight="bold" font-size="19.2" fill="#000000" transform="matrix(1.00, 0.00, -0.00, -1.00, 227.0, 796.4)">$</text><text xml:space="preserve" font-family="Helvetica,Helvetica" font-size="19.2" fill="#3B3B3B" transform="matrix(1.00, 0.00, -0.00, -1.00, 79.4, 798.2)">B</text><text xml:space="preserve" font-family="Helvetica,Helvetica" font-size="19.2" fill="#3B3B3B" transform="matrix(1.00, 0.00, -0.00, -1.00, 92.2, 798.2)">e</text><text xml:space="preserve" font-family="Helvetica,Helvetica" font-size="19.2" fill="#3B3B3B" transform="matrix(1.00, 0.00, -0.00, -1.00, 102.9, 798.2)">t</text><text xml:space="preserve" font-family="Helvetica,Helvetica" font-size="19.2" fill="#3B3B3B" transform="matrix(1.00, 0.00, -0.00, -1.00, 108.2, 798.2)"> </text><text xml:space="preserve" font-family="Helvetica,Helvetica" font-size="19.2" fill="#3B3B3B" transform="matrix(1.00, 0.00, -0.00, -1.00, 113.6, 798.2)">a</text><text xml:space="preserve" font-family="Helvetica,Helvetica" font-size="19.2" fill="#3B3B3B" transform="matrix(1.00, 0.00, -0.00, -1.00, 124.2, 798.2)">m</text><text xml:space="preserve" font-family="Helvetica,Helvetica" font-size="19.2" fill="#3B3B3B" transform="matrix(1.00, 0.00, -0.00, -1.00, 140.2, 798.2)">o</text><text xml:space="preserve" font-family="Helvetica,Helvetica" font-size="19.2" fill="#3B3B3B" transform="matrix(1.00, 0.00, -0.00, -1.00, 150.9, 798.2)">u</text><text xml:space="preserve" font-family="Helvetica,Helvetica" font-size="19.2" fill="#3B3B3B" transform="matrix(1.00, 0.00, -0.00, -1.00, 161.6, 798.2)">n</text><text xml:space="preserve" font-family="Helvetica,Helvetica" font-size="19.2" fill="#3B3B3B" transform="matrix(1.00, 0.00, -0.00, -1.00, 172.3, 798.2)">t</text><text xml:space="preserve" font-family="Helvetica,Helvetica" font-size="19.2" fill="#3B3B3B" transform="matrix(1.00, 0.00, -0.00, -1.00, 177.6, 798.2)"> </text><text xml:space="preserve" font-family="Helvetica,Helvetica" font-size="19.2" fill="#666666" transform="matrix(1.00, 0.00, -0.00, -1.00, 486.2, 798.6)">F</text><text xml:space="preserve" font-family="Helvetica,Helvetica" font-size="19.2" fill="#666666" transform="matrix(1.00, 0.00, -0.00, -1.00, 497.9, 798.6)">l</text><text xml:space="preserve" font-family="Helvetica,Helvetica" font-size="19.2" fill="#666666" transform="matrix(1.00, 0.00, -0.00, -1.00, 502.2, 798.6)">e</text><text xml:space="preserve" font-family="Helvetica,Helvetica" font-size="19.2" fill="#666666" transform="matrix(1.00, 0.00, -0.00, -1.00, 512.8, 798.6)">x</text><text xml:space="preserve" font-family="Helvetica,Helvetica" font-size="19.2" fill="#666666" transform="matrix(1.00, 0.00, -0.00, -1.00, 522.4, 798.6)">i</text><text xml:space="preserve" font-family="HelveticaNeue-Bold,Helvetica Neue" font-weight="bold" font-size="19.2" fill="#000000" transform="matrix(1.00, 0.00, -0.00, -1.00, 544.3, 797.0)"> </text><text xml:space="preserve" font-family="HelveticaNeue-Bold,Helvetica Neue" font-weight="bold" font-size="19.2" fill="#000000" transform="matrix(1.00, 0.00, -0.00, -1.00, 549.6, 797.0)"> </text><path d="M 450.4 818.0 L 472.4 818.0 C 473.5 818.0 474.4 817.1 474.4 816.0 L 474.4 794.0 C 474.4 792.9 473.5 792.0 472.4 792.0 L 450.4 792.0 C 449.3 792.0 448.4 792.9 448.4 794.0 L 448.4 816.0 C 448.4 817.1 449.3 818.0 450.4 818.0 Z M 450.4 818.0 " fill="#14A83C"></path></g></g><g><clipPath id="clip0x6100002bdb20"><path d="M 450.4 818.0 L 472.4 818.0 C 473.5 818.0 474.4 817.1 474.4 816.0 L 474.4 794.0 C 474.4 792.9 473.5 792.0 472.4 792.0 L 450.4 792.0 C 449.3 792.0 448.4 792.9 448.4 794.0 L 448.4 816.0 C 448.4 817.1 449.3 818.0 450.4 818.0 Z M 450.4 818.0 "></path></clipPath><g clip-path="url(#clip0x6100002bdb20)"><g><clipPath id="clip0x610000ca9540"><path d="M 448.4 791.7 L 474.4 791.7 L 474.4 817.7 L 448.4 817.7 Z M 448.4 791.7 "></path></clipPath><g clip-path="url(#clip0x610000ca9540)"><g><g><clipPath id="clip0x610001ea6900"><path d="M 448.4 792.0 L 474.4 792.0 L 474.4 817.7 L 448.4 817.7 Z M 448.4 792.0 "></path></clipPath><g clip-path="url(#clip0x610001ea6900)"><image xlink:href="../../DBA5AF75-4A24-48DE-9B80-54A2BD0652A4/assets/ACFACB4DBDF6D323CD8AE4756EA407E9.png" width="26.00" height="26.00" transform="matrix(1.00, 0.00, -0.00, -1.00, 448.4, 817.7)"></image></g></g></g></g></g></g></g><g><clipPath id="clip0x610001ea6c60"><path d="M 26.0 721.1 L 659.0 721.1 L 659.0 1027.1 L 26.0 1027.1 Z M 26.0 721.1 "></path></clipPath><g clip-path="url(#clip0x610001ea6c60)"><text xml:space="preserve" font-family="CharcoalCY,Charcoal CY" font-weight="bold" font-size="24.0" fill="#FFFFFF" transform="matrix(1.00, 0.00, -0.00, -1.00, 451.4, 797.0)">✓</text><text xml:space="preserve" font-family="Helvetica,Helvetica" font-size="13.3" fill="#3B3B3B" transform="matrix(1.00, 0.00, -0.00, -1.00, 80.8, 780.0)">f</text><text xml:space="preserve" font-family="Helvetica,Helvetica" font-size="13.3" fill="#3B3B3B" transform="matrix(1.00, 0.00, -0.00, -1.00, 84.4, 780.0)">o</text><text xml:space="preserve" font-family="Helvetica,Helvetica" font-size="13.3" fill="#3B3B3B" transform="matrix(1.00, 0.00, -0.00, -1.00, 91.8, 780.0)">r</text><text xml:space="preserve" font-family="Helvetica,Helvetica" font-size="13.3" fill="#3B3B3B" transform="matrix(1.00, 0.00, -0.00, -1.00, 96.3, 780.0)"> </text><text xml:space="preserve" font-family="Helvetica,Helvetica" font-size="13.3" fill="#3B3B3B" transform="matrix(1.00, 0.00, -0.00, -1.00, 99.9, 780.0)">a</text><text xml:space="preserve" font-family="Helvetica,Helvetica" font-size="13.3" fill="#3B3B3B" transform="matrix(1.00, 0.00, -0.00, -1.00, 107.3, 780.0)">l</text><text xml:space="preserve" font-family="Helvetica,Helvetica" font-size="13.3" fill="#3B3B3B" transform="matrix(1.00, 0.00, -0.00, -1.00, 110.3, 780.0)">l</text><text xml:space="preserve" font-family="Helvetica,Helvetica" font-size="13.3" fill="#3B3B3B" transform="matrix(1.00, 0.00, -0.00, -1.00, 113.2, 780.0)"> </text><text xml:space="preserve" font-family="Helvetica,Helvetica" font-size="13.3" fill="#3B3B3B" transform="matrix(1.00, 0.00, -0.00, -1.00, 116.9, 780.0)">c</text><text xml:space="preserve" font-family="Helvetica,Helvetica" font-size="13.3" fill="#3B3B3B" transform="matrix(1.00, 0.00, -0.00, -1.00, 123.6, 780.0)">o</text><text xml:space="preserve" font-family="Helvetica,Helvetica" font-size="13.3" fill="#3B3B3B" transform="matrix(1.00, 0.00, -0.00, -1.00, 131.0, 780.0)">m</text><text xml:space="preserve" font-family="Helvetica,Helvetica" font-size="13.3" fill="#3B3B3B" transform="matrix(1.00, 0.00, -0.00, -1.00, 142.0, 780.0)">b</text><text xml:space="preserve" font-family="Helvetica,Helvetica" font-size="13.3" fill="#3B3B3B" transform="matrix(1.00, 0.00, -0.00, -1.00, 149.4, 780.0)">i</text><text xml:space="preserve" font-family="Helvetica,Helvetica" font-size="13.3" fill="#3B3B3B" transform="matrix(1.00, 0.00, -0.00, -1.00, 152.4, 780.0)">n</text><text xml:space="preserve" font-family="Helvetica,Helvetica" font-size="13.3" fill="#3B3B3B" transform="matrix(1.00, 0.00, -0.00, -1.00, 159.7, 780.0)">a</text><text xml:space="preserve" font-family="Helvetica,Helvetica" font-size="13.3" fill="#3B3B3B" transform="matrix(1.00, 0.00, -0.00, -1.00, 167.1, 780.0)">t</text><text xml:space="preserve" font-family="Helvetica,Helvetica" font-size="13.3" fill="#3B3B3B" transform="matrix(1.00, 0.00, -0.00, -1.00, 170.8, 780.0)">i</text><text xml:space="preserve" font-family="Helvetica,Helvetica" font-size="13.3" fill="#3B3B3B" transform="matrix(1.00, 0.00, -0.00, -1.00, 173.8, 780.0)">o</text><text xml:space="preserve" font-family="Helvetica,Helvetica" font-size="13.3" fill="#3B3B3B" transform="matrix(1.00, 0.00, -0.00, -1.00, 181.2, 780.0)">n</text><text xml:space="preserve" font-family="Helvetica,Helvetica" font-size="13.3" fill="#3B3B3B" transform="matrix(1.00, 0.00, -0.00, -1.00, 188.6, 780.0)">s</text></g></g><path d="M 3.0 1134.0 L 121.0 1134.0 L 121.0 1062.0 L 3.0 1062.0 Z M 2.7 1134.1 " fill="#FEFFFE" fill-opacity="0.01"></path><path d="M 221.0 819.0 L 549.0 819.0 L 549.0 786.0 L 221.0 786.0 Z M 221.5 819.0 " fill="#FEFFFE" fill-opacity="0.01"></path><path d="M 220.0 823.0 L 378.0 823.0 L 378.0 789.0 L 220.0 789.0 Z M 219.9 822.5 " fill="#FEFFFE" fill-opacity="0.01"></path></g></svg>