<?xml version="1.0" encoding="UTF-8" standalone="no"?><svg xmlns="http://www.w3.org/2000/svg" xmlns:xlink="http://www.w3.org/1999/xlink" clip-rule="evenodd" stroke-miterlimit="10" viewBox="0 0 640 1136"><desc>SVG generated by Keynote</desc><defs></defs><g transform="matrix(1.00, 0.00, -0.00, -1.00, 0.0, 1136.0)"><path d="M 0.0 1136.0 L 640.0 1136.0 L 640.0 0.0 L 0.0 0.0 Z M 0.0 1136.0 " fill="#FEFFFF"></path><g><clipPath id="clip0x608002ebcbc0"><path d="M 0.0 1056.0 L 640.0 1056.0 L 640.0 1136.0 L 0.0 1136.0 Z M 0.0 1056.0 "></path></clipPath><g clip-path="url(#clip0x608002ebcbc0)"><path d="M 0.0 1136.0 L 640.0 1136.0 L 640.0 1056.0 L 0.0 1056.0 Z M 0.0 1136.0 " fill="#248F52"></path><path d="M 20.0 1118.0 L 65.0 1118.0 L 65.0 1110.0 L 20.0 1110.0 Z M 20.0 1118.0 " fill="#FEFFFF"></path><path d="M 20.0 1100.0 L 65.0 1100.0 L 65.0 1092.0 L 20.0 1092.0 Z M 20.0 1100.0 " fill="#FEFFFF"></path><path d="M 20.0 1082.0 L 65.0 1082.0 L 65.0 1074.0 L 20.0 1074.0 Z M 20.0 1082.0 " fill="#FEFFFF"></path></g></g><g><clipPath id="clip0x608002ebd2e0"><path d="M 291.8 1128.2 L 356.2 1128.2 L 356.2 1063.8 L 291.8 1063.8 Z M 291.8 1128.2 "></path></clipPath><g clip-path="url(#clip0x608002ebd2e0)"><g><clipPath id="clip0x608002ebce00"><path d="M 291.8 1063.8 L 356.2 1063.8 L 356.2 1128.2 L 291.8 1128.2 Z M 291.8 1063.8 "></path></clipPath><g clip-path="url(#clip0x608002ebce00)"><g><g><clipPath id="clip0x608002ebc980"><path d="M 291.8 1063.8 L 356.2 1063.8 L 356.2 1128.2 L 291.8 1128.2 Z M 291.8 1063.8 "></path></clipPath><g clip-path="url(#clip0x608002ebc980)"><g><g><clipPath id="clip0x608002ebd580"><path d="M 291.8 1128.2 L 356.2 1128.2 L 356.2 1063.8 L 291.8 1063.8 Z M 291.8 1128.2 "></path></clipPath><g clip-path="url(#clip0x608002ebd580)"><g><clipPath id="clip0x608002ebd700"><path d="M 291.8 1063.8 L 356.2 1063.8 L 356.2 1128.2 L 291.8 1128.2 Z M 291.8 1063.8 "></path></clipPath><g clip-path="url(#clip0x608002ebd700)"><path d="M 356.2 1085.2 C 356.2 1082.9 354.3 1080.5 352.0 1079.9 L 349.6 1079.3 L 291.8 1063.8 L 291.8 1102.6 C 291.8 1107.2 295.5 1111.9 300.1 1113.2 L 302.5 1113.8 L 356.2 1128.2 L 356.2 1085.2 " fill="#FFFEFE"></path></g></g></g></g><g><clipPath id="clip0x608002ebd8e0"><path d="M 291.8 1063.8 L 356.2 1063.8 L 356.2 1128.2 L 291.8 1128.2 Z M 291.8 1063.8 "></path></clipPath><g clip-path="url(#clip0x608002ebd8e0)"><path d="M 345.0 1090.4 C 345.0 1089.1 344.3 1088.6 342.3 1088.6 L 339.4 1088.6 L 339.4 1093.6 L 343.1 1093.6 C 344.4 1093.6 345.0 1093.0 345.0 1091.9 L 345.0 1090.4 Z M 339.4 1102.2 L 342.4 1102.2 C 344.1 1102.2 344.3 1101.5 344.3 1100.9 L 344.3 1098.7 C 344.3 1097.9 343.6 1097.4 342.4 1097.4 L 339.4 1097.4 L 339.4 1102.2 Z M 347.4 1095.9 C 348.6 1096.7 349.1 1097.7 349.1 1099.1 L 349.1 1101.2 C 349.1 1104.5 347.1 1106.1 342.9 1106.1 L 334.4 1106.1 L 334.4 1084.7 L 343.6 1084.7 C 347.6 1084.7 349.9 1086.7 349.9 1090.0 L 349.9 1092.0 C 349.9 1093.7 348.9 1095.2 347.4 1095.9 " fill="#0F7C3F"></path><path d="M 313.6 1101.3 C 314.2 1101.4 314.7 1101.9 314.7 1102.5 L 314.7 1102.7 L 314.7 1106.1 L 300.6 1106.1 C 299.3 1106.1 298.2 1105.0 298.2 1103.7 L 298.2 1101.3 L 303.8 1101.3 L 303.8 1084.7 L 306.7 1084.7 C 308.0 1084.7 309.1 1085.8 309.1 1087.1 L 309.1 1101.3 L 313.6 1101.3 " fill="#0F7C3F"></path><path d="M 320.8 1093.0 L 323.0 1100.8 L 325.1 1093.0 L 320.8 1093.0 Z M 327.3 1103.0 C 326.8 1104.8 325.0 1106.1 323.0 1106.1 L 319.6 1106.1 L 313.1 1084.7 L 317.2 1084.7 C 317.2 1084.7 317.3 1084.7 317.4 1084.7 C 317.6 1084.7 317.8 1084.7 317.8 1084.7 C 318.3 1084.7 318.7 1085.1 318.9 1085.5 L 319.0 1085.7 L 319.8 1088.8 L 326.2 1088.8 L 327.4 1084.7 L 332.9 1084.7 L 327.3 1102.9 L 327.3 1103.0 " fill="#0F7C3F"></path></g></g></g></g></g></g></g></g></g></g><image xlink:href="../../C3973CD3-C593-4B6C-B28A-93820E7F420B/assets/345A239FFB65B77B4811BBA30D076337.png" width="642.00" height="1061.00" transform="matrix(1.00, 0.00, -0.00, -1.00, -1.0, 1055.2)" opacity="0.50"></image><path d="M 0.0 1055.0 L 640.0 1055.0 L 640.0 -4.0 L 0.0 -4.0 Z M 0.0 1055.2 " fill="#D3FCB7" fill-opacity="0.92"></path><image xlink:href="../../C3973CD3-C593-4B6C-B28A-93820E7F420B/assets/774E3763EFA823074E43E4A6595BB7E5.png" width="543.00" height="247.00" transform="matrix(1.00, 0.00, -0.00, -1.00, 43.2, 358.1)"></image><path d="M 83.0 287.0 L 546.0 287.0 L 546.0 183.0 L 83.0 183.0 Z M 83.2 287.5 " fill="#51A7F9"></path><g><clipPath id="clip0x608002ebde80"><path d="M 77.2 183.3 L 551.6 183.3 L 551.6 287.5 L 77.2 287.5 Z M 77.2 183.3 "></path></clipPath><g clip-path="url(#clip0x608002ebde80)"><text xml:space="preserve" font-family="Helvetica-Bold,Helvetica" font-weight="bold" font-size="34.0" fill="#FEFFFE" transform="matrix(1.00, 0.00, -0.00, -1.00, 170.8, 222.8)">C</text><text xml:space="preserve" font-family="Helvetica-Bold,Helvetica" font-weight="bold" font-size="34.0" fill="#FEFFFE" transform="matrix(1.00, 0.00, -0.00, -1.00, 195.3, 222.8)">l</text><text xml:space="preserve" font-family="Helvetica-Bold,Helvetica" font-weight="bold" font-size="34.0" fill="#FEFFFE" transform="matrix(1.00, 0.00, -0.00, -1.00, 204.8, 222.8)">i</text><text xml:space="preserve" font-family="Helvetica-Bold,Helvetica" font-weight="bold" font-size="34.0" fill="#FEFFFE" transform="matrix(1.00, 0.00, -0.00, -1.00, 214.2, 222.8)">c</text><text xml:space="preserve" font-family="Helvetica-Bold,Helvetica" font-weight="bold" font-size="34.0" fill="#FEFFFE" transform="matrix(1.00, 0.00, -0.00, -1.00, 233.1, 222.8)">k</text><text xml:space="preserve" font-family="Helvetica-Bold,Helvetica" font-weight="bold" font-size="34.0" fill="#FEFFFE" transform="matrix(1.00, 0.00, -0.00, -1.00, 252.0, 222.8)"> </text><text xml:space="preserve" font-family="Helvetica-Bold,Helvetica" font-weight="bold" font-size="34.0" fill="#FEFFFE" transform="matrix(1.00, 0.00, -0.00, -1.00, 261.5, 222.8)">h</text><text xml:space="preserve" font-family="Helvetica-Bold,Helvetica" font-weight="bold" font-size="34.0" fill="#FEFFFE" transform="matrix(1.00, 0.00, -0.00, -1.00, 282.2, 222.8)">e</text><text xml:space="preserve" font-family="Helvetica-Bold,Helvetica" font-weight="bold" font-size="34.0" fill="#FEFFFE" transform="matrix(1.00, 0.00, -0.00, -1.00, 301.2, 222.8)">r</text><text xml:space="preserve" font-family="Helvetica-Bold,Helvetica" font-weight="bold" font-size="34.0" fill="#FEFFFE" transform="matrix(1.00, 0.00, -0.00, -1.00, 314.4, 222.8)">e</text><text xml:space="preserve" font-family="Helvetica-Bold,Helvetica" font-weight="bold" font-size="34.0" fill="#FEFFFE" transform="matrix(1.00, 0.00, -0.00, -1.00, 333.3, 222.8)"> </text><text xml:space="preserve" font-family="Helvetica-Bold,Helvetica" font-weight="bold" font-size="34.0" fill="#FEFFFE" transform="matrix(1.00, 0.00, -0.00, -1.00, 342.8, 222.8)">t</text><text xml:space="preserve" font-family="Helvetica-Bold,Helvetica" font-weight="bold" font-size="34.0" fill="#FEFFFE" transform="matrix(1.00, 0.00, -0.00, -1.00, 354.1, 222.8)">o</text><text xml:space="preserve" font-family="Helvetica-Bold,Helvetica" font-weight="bold" font-size="34.0" fill="#FEFFFE" transform="matrix(1.00, 0.00, -0.00, -1.00, 374.8, 222.8)"> </text><text xml:space="preserve" font-family="Helvetica-Bold,Helvetica" font-weight="bold" font-size="34.0" fill="#FEFFFE" transform="matrix(1.00, 0.00, -0.00, -1.00, 384.3, 222.8)">s</text><text xml:space="preserve" font-family="Helvetica-Bold,Helvetica" font-weight="bold" font-size="34.0" fill="#FEFFFE" transform="matrix(1.00, 0.00, -0.00, -1.00, 403.2, 222.8)">t</text><text xml:space="preserve" font-family="Helvetica-Bold,Helvetica" font-weight="bold" font-size="34.0" fill="#FEFFFE" transform="matrix(1.00, 0.00, -0.00, -1.00, 414.5, 222.8)">a</text><text xml:space="preserve" font-family="Helvetica-Bold,Helvetica" font-weight="bold" font-size="34.0" fill="#FEFFFE" transform="matrix(1.00, 0.00, -0.00, -1.00, 433.4, 222.8)">r</text><text xml:space="preserve" font-family="Helvetica-Bold,Helvetica" font-weight="bold" font-size="34.0" fill="#FEFFFE" transform="matrix(1.00, 0.00, -0.00, -1.00, 446.7, 222.8)">t</text></g></g><text xml:space="preserve" font-family="HelveticaNeue,Helvetica Neue" font-size="44.0" fill="#000000" transform="matrix(1.00, 0.00, -0.00, -1.00, 45.0, 946.9)">I</text><text xml:space="preserve" font-family="HelveticaNeue,Helvetica Neue" font-size="44.0" fill="#000000" transform="matrix(1.00, 0.00, -0.00, -1.00, 56.4, 946.9)">n</text><text xml:space="preserve" font-family="HelveticaNeue,Helvetica Neue" font-size="44.0" fill="#000000" transform="matrix(1.00, 0.00, -0.00, -1.00, 80.9, 946.9)"> </text><text xml:space="preserve" font-family="HelveticaNeue,Helvetica Neue" font-size="44.0" fill="#000000" transform="matrix(1.00, 0.00, -0.00, -1.00, 93.1, 946.9)">t</text><text xml:space="preserve" font-family="HelveticaNeue,Helvetica Neue" font-size="44.0" fill="#000000" transform="matrix(1.00, 0.00, -0.00, -1.00, 107.0, 946.9)">h</text><text xml:space="preserve" font-family="HelveticaNeue,Helvetica Neue" font-size="44.0" fill="#000000" transform="matrix(1.00, 0.00, -0.00, -1.00, 131.4, 946.9)">e</text><text xml:space="preserve" font-family="HelveticaNeue,Helvetica Neue" font-size="44.0" fill="#000000" transform="matrix(1.00, 0.00, -0.00, -1.00, 155.0, 946.9)"> </text><text xml:space="preserve" font-family="HelveticaNeue,Helvetica Neue" font-size="44.0" fill="#000000" transform="matrix(1.00, 0.00, -0.00, -1.00, 167.3, 946.9)">n</text><text xml:space="preserve" font-family="HelveticaNeue,Helvetica Neue" font-size="44.0" fill="#000000" transform="matrix(1.00, 0.00, -0.00, -1.00, 191.7, 946.9)">e</text><text xml:space="preserve" font-family="HelveticaNeue,Helvetica Neue" font-size="44.0" fill="#000000" transform="matrix(1.00, 0.00, -0.00, -1.00, 215.4, 946.9)">x</text><text xml:space="preserve" font-family="HelveticaNeue,Helvetica Neue" font-size="44.0" fill="#000000" transform="matrix(1.00, 0.00, -0.00, -1.00, 238.2, 946.9)">t</text><text xml:space="preserve" font-family="HelveticaNeue,Helvetica Neue" font-size="44.0" fill="#000000" transform="matrix(1.00, 0.00, -0.00, -1.00, 252.0, 946.9)"> </text><text xml:space="preserve" font-family="HelveticaNeue,Helvetica Neue" font-size="44.0" fill="#000000" transform="matrix(1.00, 0.00, -0.00, -1.00, 264.3, 946.9)">s</text><text xml:space="preserve" font-family="HelveticaNeue,Helvetica Neue" font-size="44.0" fill="#000000" transform="matrix(1.00, 0.00, -0.00, -1.00, 286.3, 946.9)">c</text><text xml:space="preserve" font-family="HelveticaNeue,Helvetica Neue" font-size="44.0" fill="#000000" transform="matrix(1.00, 0.00, -0.00, -1.00, 309.9, 946.9)">r</text><text xml:space="preserve" font-family="HelveticaNeue,Helvetica Neue" font-size="44.0" fill="#000000" transform="matrix(1.00, 0.00, -0.00, -1.00, 323.7, 946.9)">e</text><text xml:space="preserve" font-family="HelveticaNeue,Helvetica Neue" font-size="44.0" fill="#000000" transform="matrix(1.00, 0.00, -0.00, -1.00, 347.4, 946.9)">e</text><text xml:space="preserve" font-family="HelveticaNeue,Helvetica Neue" font-size="44.0" fill="#000000" transform="matrix(1.00, 0.00, -0.00, -1.00, 371.0, 946.9)">n</text><text xml:space="preserve" font-family="HelveticaNeue,Helvetica Neue" font-size="44.0" fill="#000000" transform="matrix(1.00, 0.00, -0.00, -1.00, 395.5, 946.9)">,</text><text xml:space="preserve" font-family="HelveticaNeue,Helvetica Neue" font-size="44.0" fill="#000000" transform="matrix(1.00, 0.00, -0.00, -1.00, 407.7, 946.9)"> </text><text xml:space="preserve" font-family="HelveticaNeue,Helvetica Neue" font-size="44.0" fill="#000000" transform="matrix(1.00, 0.00, -0.00, -1.00, 419.9, 946.9)">a</text><text xml:space="preserve" font-family="HelveticaNeue,Helvetica Neue" font-size="44.0" fill="#000000" transform="matrix(1.00, 0.00, -0.00, -1.00, 443.6, 946.9)">d</text><text xml:space="preserve" font-family="HelveticaNeue,Helvetica Neue" font-size="44.0" fill="#000000" transform="matrix(1.00, 0.00, -0.00, -1.00, 469.6, 946.9)">d</text><text xml:space="preserve" font-family="HelveticaNeue,Helvetica Neue" font-size="44.0" fill="#000000" transform="matrix(1.00, 0.00, -0.00, -1.00, 495.7, 946.9)"> </text><text xml:space="preserve" font-family="HelveticaNeue,Helvetica Neue" font-size="44.0" fill="#000000" transform="matrix(1.00, 0.00, -0.00, -1.00, 508.0, 946.9)"> </text><text xml:space="preserve" font-family="HelveticaNeue,Helvetica Neue" font-size="44.0" fill="#000000" transform="matrix(1.00, 0.00, -0.00, -1.00, 520.2, 946.9)">a</text><text xml:space="preserve" font-family="HelveticaNeue,Helvetica Neue" font-size="44.0" fill="#000000" transform="matrix(1.00, 0.00, -0.00, -1.00, 543.8, 946.9)"> </text><text xml:space="preserve" font-family="HelveticaNeue-Bold,Helvetica Neue" font-weight="bold" font-size="44.0" fill="#000000" transform="matrix(1.00, 0.00, -0.00, -1.00, 45.0, 893.1)">$</text><text xml:space="preserve" font-family="HelveticaNeue-Bold,Helvetica Neue" font-weight="bold" font-size="44.0" fill="#000000" transform="matrix(1.00, 0.00, -0.00, -1.00, 69.5, 893.1)">1</text><text xml:space="preserve" font-family="HelveticaNeue-Bold,Helvetica Neue" font-weight="bold" font-size="44.0" fill="#000000" transform="matrix(1.00, 0.00, -0.00, -1.00, 93.9, 893.1)">0</text><text xml:space="preserve" font-family="HelveticaNeue,Helvetica Neue" font-size="44.0" fill="#000000" transform="matrix(1.00, 0.00, -0.00, -1.00, 118.4, 893.1)"> </text><text xml:space="preserve" font-family="HelveticaNeue,Helvetica Neue" font-size="44.0" fill="#000000" transform="matrix(1.00, 0.00, -0.00, -1.00, 130.6, 893.1)">b</text><text xml:space="preserve" font-family="HelveticaNeue,Helvetica Neue" font-size="44.0" fill="#000000" transform="matrix(1.00, 0.00, -0.00, -1.00, 156.7, 893.1)">e</text><text xml:space="preserve" font-family="HelveticaNeue,Helvetica Neue" font-size="44.0" fill="#000000" transform="matrix(1.00, 0.00, -0.00, -1.00, 180.3, 893.1)">t</text><text xml:space="preserve" font-family="HelveticaNeue,Helvetica Neue" font-size="44.0" fill="#000000" transform="matrix(1.00, 0.00, -0.00, -1.00, 194.2, 893.1)"> </text><text xml:space="preserve" font-family="HelveticaNeue,Helvetica Neue" font-size="44.0" fill="#000000" transform="matrix(1.00, 0.00, -0.00, -1.00, 206.4, 893.1)">t</text><text xml:space="preserve" font-family="HelveticaNeue,Helvetica Neue" font-size="44.0" fill="#000000" transform="matrix(1.00, 0.00, -0.00, -1.00, 220.3, 893.1)">o</text><text xml:space="preserve" font-family="HelveticaNeue,Helvetica Neue" font-size="44.0" fill="#000000" transform="matrix(1.00, 0.00, -0.00, -1.00, 245.6, 893.1)"> </text><text xml:space="preserve" font-family="HelveticaNeue,Helvetica Neue" font-size="44.0" fill="#000000" transform="matrix(1.00, 0.00, -0.00, -1.00, 257.8, 893.1)">t</text><text xml:space="preserve" font-family="HelveticaNeue,Helvetica Neue" font-size="44.0" fill="#000000" transform="matrix(1.00, 0.00, -0.00, -1.00, 271.6, 893.1)">h</text><text xml:space="preserve" font-family="HelveticaNeue,Helvetica Neue" font-size="44.0" fill="#000000" transform="matrix(1.00, 0.00, -0.00, -1.00, 296.1, 893.1)">e</text><text xml:space="preserve" font-family="HelveticaNeue,Helvetica Neue" font-size="44.0" fill="#000000" transform="matrix(1.00, 0.00, -0.00, -1.00, 319.7, 893.1)"> </text><text xml:space="preserve" font-family="HelveticaNeue,Helvetica Neue" font-size="44.0" fill="#000000" transform="matrix(1.00, 0.00, -0.00, -1.00, 332.0, 893.1)">B</text><text xml:space="preserve" font-family="HelveticaNeue,Helvetica Neue" font-size="44.0" fill="#000000" transform="matrix(1.00, 0.00, -0.00, -1.00, 362.1, 893.1)">e</text><text xml:space="preserve" font-family="HelveticaNeue,Helvetica Neue" font-size="44.0" fill="#000000" transform="matrix(1.00, 0.00, -0.00, -1.00, 385.7, 893.1)">t</text><text xml:space="preserve" font-family="HelveticaNeue,Helvetica Neue" font-size="44.0" fill="#000000" transform="matrix(1.00, 0.00, -0.00, -1.00, 399.6, 893.1)"> </text><text xml:space="preserve" font-family="HelveticaNeue,Helvetica Neue" font-size="44.0" fill="#000000" transform="matrix(1.00, 0.00, -0.00, -1.00, 411.8, 893.1)">b</text><text xml:space="preserve" font-family="HelveticaNeue,Helvetica Neue" font-size="44.0" fill="#000000" transform="matrix(1.00, 0.00, -0.00, -1.00, 437.9, 893.1)">u</text><text xml:space="preserve" font-family="HelveticaNeue,Helvetica Neue" font-size="44.0" fill="#000000" transform="matrix(1.00, 0.00, -0.00, -1.00, 462.4, 893.1)">i</text><text xml:space="preserve" font-family="HelveticaNeue,Helvetica Neue" font-size="44.0" fill="#000000" transform="matrix(1.00, 0.00, -0.00, -1.00, 472.2, 893.1)">l</text><text xml:space="preserve" font-family="HelveticaNeue,Helvetica Neue" font-size="44.0" fill="#000000" transform="matrix(1.00, 0.00, -0.00, -1.00, 481.9, 893.1)">d</text><text xml:space="preserve" font-family="HelveticaNeue,Helvetica Neue" font-size="44.0" fill="#000000" transform="matrix(1.00, 0.00, -0.00, -1.00, 508.0, 893.1)">e</text><text xml:space="preserve" font-family="HelveticaNeue,Helvetica Neue" font-size="44.0" fill="#000000" transform="matrix(1.00, 0.00, -0.00, -1.00, 531.6, 893.1)">r</text><text xml:space="preserve" font-family="HelveticaNeue,Helvetica Neue" font-size="44.0" fill="#000000" transform="matrix(1.00, 0.00, -0.00, -1.00, 546.3, 893.1)"> </text><text xml:space="preserve" font-family="HelveticaNeue,Helvetica Neue" font-size="44.0" fill="#000000" transform="matrix(1.00, 0.00, -0.00, -1.00, 45.0, 839.1)">o</text><text xml:space="preserve" font-family="HelveticaNeue,Helvetica Neue" font-size="44.0" fill="#000000" transform="matrix(1.00, 0.00, -0.00, -1.00, 70.3, 839.1)">n</text><text xml:space="preserve" font-family="HelveticaNeue,Helvetica Neue" font-size="44.0" fill="#000000" transform="matrix(1.00, 0.00, -0.00, -1.00, 94.7, 839.1)"> </text><text xml:space="preserve" font-family="HelveticaNeue-Bold,Helvetica Neue" font-weight="bold" font-size="44.0" fill="#000000" transform="matrix(1.00, 0.00, -0.00, -1.00, 107.0, 839.1)">E</text><text xml:space="preserve" font-family="HelveticaNeue-Bold,Helvetica Neue" font-weight="bold" font-size="44.0" fill="#000000" transform="matrix(1.00, 0.00, -0.00, -1.00, 135.5, 839.1)">n</text><text xml:space="preserve" font-family="HelveticaNeue-Bold,Helvetica Neue" font-weight="bold" font-size="44.0" fill="#000000" transform="matrix(1.00, 0.00, -0.00, -1.00, 161.6, 839.1)">g</text><text xml:space="preserve" font-family="HelveticaNeue-Bold,Helvetica Neue" font-weight="bold" font-size="44.0" fill="#000000" transform="matrix(1.00, 0.00, -0.00, -1.00, 188.4, 839.1)">l</text><text xml:space="preserve" font-family="HelveticaNeue-Bold,Helvetica Neue" font-weight="bold" font-size="44.0" fill="#000000" transform="matrix(1.00, 0.00, -0.00, -1.00, 199.8, 839.1)">a</text><text xml:space="preserve" font-family="HelveticaNeue-Bold,Helvetica Neue" font-weight="bold" font-size="44.0" fill="#000000" transform="matrix(1.00, 0.00, -0.00, -1.00, 225.0, 839.1)">n</text><text xml:space="preserve" font-family="HelveticaNeue-Bold,Helvetica Neue" font-weight="bold" font-size="44.0" fill="#000000" transform="matrix(1.00, 0.00, -0.00, -1.00, 251.1, 839.1)">d</text><text xml:space="preserve" font-family="HelveticaNeue-Bold,Helvetica Neue" font-weight="bold" font-size="44.0" fill="#000000" transform="matrix(1.00, 0.00, -0.00, -1.00, 278.0, 839.1)"> </text><text xml:space="preserve" font-family="HelveticaNeue-Bold,Helvetica Neue" font-weight="bold" font-size="44.0" fill="#000000" transform="matrix(1.00, 0.00, -0.00, -1.00, 290.3, 839.1)">t</text><text xml:space="preserve" font-family="HelveticaNeue-Bold,Helvetica Neue" font-weight="bold" font-size="44.0" fill="#000000" transform="matrix(1.00, 0.00, -0.00, -1.00, 305.7, 839.1)">o</text><text xml:space="preserve" font-family="HelveticaNeue-Bold,Helvetica Neue" font-weight="bold" font-size="44.0" fill="#000000" transform="matrix(1.00, 0.00, -0.00, -1.00, 332.6, 839.1)"> </text><text xml:space="preserve" font-family="HelveticaNeue-Bold,Helvetica Neue" font-weight="bold" font-size="44.0" fill="#000000" transform="matrix(1.00, 0.00, -0.00, -1.00, 344.9, 839.1)">w</text><text xml:space="preserve" font-family="HelveticaNeue-Bold,Helvetica Neue" font-weight="bold" font-size="44.0" fill="#000000" transform="matrix(1.00, 0.00, -0.00, -1.00, 380.7, 839.1)">i</text><text xml:space="preserve" font-family="HelveticaNeue-Bold,Helvetica Neue" font-weight="bold" font-size="44.0" fill="#000000" transform="matrix(1.00, 0.00, -0.00, -1.00, 392.0, 839.1)">n</text><text xml:space="preserve" font-family="HelveticaNeue,Helvetica Neue" font-size="44.0" fill="#000000" transform="matrix(1.00, 0.00, -0.00, -1.00, 418.1, 839.1)"> </text><text xml:space="preserve" font-family="HelveticaNeue,Helvetica Neue" font-size="44.0" fill="#000000" transform="matrix(1.00, 0.00, -0.00, -1.00, 430.4, 839.1)">t</text><text xml:space="preserve" font-family="HelveticaNeue,Helvetica Neue" font-size="44.0" fill="#000000" transform="matrix(1.00, 0.00, -0.00, -1.00, 444.2, 839.1)">h</text><text xml:space="preserve" font-family="HelveticaNeue,Helvetica Neue" font-size="44.0" fill="#000000" transform="matrix(1.00, 0.00, -0.00, -1.00, 468.7, 839.1)">e</text><text xml:space="preserve" font-family="HelveticaNeue,Helvetica Neue" font-size="44.0" fill="#000000" transform="matrix(1.00, 0.00, -0.00, -1.00, 492.3, 839.1)"> </text><text xml:space="preserve" font-family="HelveticaNeue-Bold,Helvetica Neue" font-weight="bold" font-size="44.0" fill="#000000" transform="matrix(1.00, 0.00, -0.00, -1.00, 45.0, 785.1)">C</text><text xml:space="preserve" font-family="HelveticaNeue-Bold,Helvetica Neue" font-weight="bold" font-size="44.0" fill="#000000" transform="matrix(1.00, 0.00, -0.00, -1.00, 77.6, 785.1)">o</text><text xml:space="preserve" font-family="HelveticaNeue-Bold,Helvetica Neue" font-weight="bold" font-size="44.0" fill="#000000" transform="matrix(1.00, 0.00, -0.00, -1.00, 104.5, 785.1)">s</text><text xml:space="preserve" font-family="HelveticaNeue-Bold,Helvetica Neue" font-weight="bold" font-size="44.0" fill="#000000" transform="matrix(1.00, 0.00, -0.00, -1.00, 128.1, 785.1)">t</text><text xml:space="preserve" font-family="HelveticaNeue-Bold,Helvetica Neue" font-weight="bold" font-size="44.0" fill="#000000" transform="matrix(1.00, 0.00, -0.00, -1.00, 143.6, 785.1)">a</text><text xml:space="preserve" font-family="HelveticaNeue-Bold,Helvetica Neue" font-weight="bold" font-size="44.0" fill="#000000" transform="matrix(1.00, 0.00, -0.00, -1.00, 168.9, 785.1)"> </text><text xml:space="preserve" font-family="HelveticaNeue-Bold,Helvetica Neue" font-weight="bold" font-size="44.0" fill="#000000" transform="matrix(1.00, 0.00, -0.00, -1.00, 181.1, 785.1)">R</text><text xml:space="preserve" font-family="HelveticaNeue-Bold,Helvetica Neue" font-weight="bold" font-size="44.0" fill="#000000" transform="matrix(1.00, 0.00, -0.00, -1.00, 212.9, 785.1)">i</text><text xml:space="preserve" font-family="HelveticaNeue-Bold,Helvetica Neue" font-weight="bold" font-size="44.0" fill="#000000" transform="matrix(1.00, 0.00, -0.00, -1.00, 224.2, 785.1)">c</text><text xml:space="preserve" font-family="HelveticaNeue-Bold,Helvetica Neue" font-weight="bold" font-size="44.0" fill="#000000" transform="matrix(1.00, 0.00, -0.00, -1.00, 249.5, 785.1)">a</text><text xml:space="preserve" font-family="HelveticaNeue-Bold,Helvetica Neue" font-weight="bold" font-size="44.0" fill="#000000" transform="matrix(1.00, 0.00, -0.00, -1.00, 274.7, 785.1)"> </text><text xml:space="preserve" font-family="HelveticaNeue-Bold,Helvetica Neue" font-weight="bold" font-size="44.0" fill="#000000" transform="matrix(1.00, 0.00, -0.00, -1.00, 287.0, 785.1)">V</text><text xml:space="preserve" font-family="HelveticaNeue-Bold,Helvetica Neue" font-weight="bold" font-size="44.0" fill="#000000" transform="matrix(1.00, 0.00, -0.00, -1.00, 314.7, 785.1)"> </text><text xml:space="preserve" font-family="HelveticaNeue-Bold,Helvetica Neue" font-weight="bold" font-size="44.0" fill="#000000" transform="matrix(1.00, 0.00, -0.00, -1.00, 326.9, 785.1)">E</text><text xml:space="preserve" font-family="HelveticaNeue-Bold,Helvetica Neue" font-weight="bold" font-size="44.0" fill="#000000" transform="matrix(1.00, 0.00, -0.00, -1.00, 355.4, 785.1)">n</text><text xml:space="preserve" font-family="HelveticaNeue-Bold,Helvetica Neue" font-weight="bold" font-size="44.0" fill="#000000" transform="matrix(1.00, 0.00, -0.00, -1.00, 381.5, 785.1)">g</text><text xml:space="preserve" font-family="HelveticaNeue-Bold,Helvetica Neue" font-weight="bold" font-size="44.0" fill="#000000" transform="matrix(1.00, 0.00, -0.00, -1.00, 408.4, 785.1)">l</text><text xml:space="preserve" font-family="HelveticaNeue-Bold,Helvetica Neue" font-weight="bold" font-size="44.0" fill="#000000" transform="matrix(1.00, 0.00, -0.00, -1.00, 419.7, 785.1)">a</text><text xml:space="preserve" font-family="HelveticaNeue-Bold,Helvetica Neue" font-weight="bold" font-size="44.0" fill="#000000" transform="matrix(1.00, 0.00, -0.00, -1.00, 445.0, 785.1)">n</text><text xml:space="preserve" font-family="HelveticaNeue-Bold,Helvetica Neue" font-weight="bold" font-size="44.0" fill="#000000" transform="matrix(1.00, 0.00, -0.00, -1.00, 471.1, 785.1)">d</text><text xml:space="preserve" font-family="HelveticaNeue,Helvetica Neue" font-size="44.0" fill="#000000" transform="matrix(1.00, 0.00, -0.00, -1.00, 498.0, 785.1)"> </text><text xml:space="preserve" font-family="HelveticaNeue,Helvetica Neue" font-size="44.0" fill="#000000" transform="matrix(1.00, 0.00, -0.00, -1.00, 45.0, 732.9)">W</text><text xml:space="preserve" font-family="HelveticaNeue,Helvetica Neue" font-size="44.0" fill="#000000" transform="matrix(1.00, 0.00, -0.00, -1.00, 83.2, 732.9)">o</text><text xml:space="preserve" font-family="HelveticaNeue,Helvetica Neue" font-size="44.0" fill="#000000" transform="matrix(1.00, 0.00, -0.00, -1.00, 108.5, 732.9)">r</text><text xml:space="preserve" font-family="HelveticaNeue,Helvetica Neue" font-size="44.0" fill="#000000" transform="matrix(1.00, 0.00, -0.00, -1.00, 123.1, 732.9)">l</text><text xml:space="preserve" font-family="HelveticaNeue,Helvetica Neue" font-size="44.0" fill="#000000" transform="matrix(1.00, 0.00, -0.00, -1.00, 132.9, 732.9)">d</text><text xml:space="preserve" font-family="HelveticaNeue,Helvetica Neue" font-size="44.0" fill="#000000" transform="matrix(1.00, 0.00, -0.00, -1.00, 159.0, 732.9)"> </text><text xml:space="preserve" font-family="HelveticaNeue,Helvetica Neue" font-size="44.0" fill="#000000" transform="matrix(1.00, 0.00, -0.00, -1.00, 171.2, 732.9)">C</text><text xml:space="preserve" font-family="HelveticaNeue,Helvetica Neue" font-size="44.0" fill="#000000" transform="matrix(1.00, 0.00, -0.00, -1.00, 203.0, 732.9)">u</text><text xml:space="preserve" font-family="HelveticaNeue,Helvetica Neue" font-size="44.0" fill="#000000" transform="matrix(1.00, 0.00, -0.00, -1.00, 227.5, 732.9)">p</text><text xml:space="preserve" font-family="HelveticaNeue,Helvetica Neue" font-size="44.0" fill="#000000" transform="matrix(1.00, 0.00, -0.00, -1.00, 253.6, 732.9)"> </text><text xml:space="preserve" font-family="HelveticaNeue,Helvetica Neue" font-size="44.0" fill="#000000" transform="matrix(1.00, 0.00, -0.00, -1.00, 265.8, 732.9)">m</text><text xml:space="preserve" font-family="HelveticaNeue,Helvetica Neue" font-size="44.0" fill="#000000" transform="matrix(1.00, 0.00, -0.00, -1.00, 303.3, 732.9)">a</text><text xml:space="preserve" font-family="HelveticaNeue,Helvetica Neue" font-size="44.0" fill="#000000" transform="matrix(1.00, 0.00, -0.00, -1.00, 327.0, 732.9)">t</text><text xml:space="preserve" font-family="HelveticaNeue,Helvetica Neue" font-size="44.0" fill="#000000" transform="matrix(1.00, 0.00, -0.00, -1.00, 340.8, 732.9)">c</text><text xml:space="preserve" font-family="HelveticaNeue,Helvetica Neue" font-size="44.0" fill="#000000" transform="matrix(1.00, 0.00, -0.00, -1.00, 364.4, 732.9)">h</text><text xml:space="preserve" font-family="HelveticaNeue,Helvetica Neue" font-size="44.0" fill="#000000" transform="matrix(1.00, 0.00, -0.00, -1.00, 388.9, 732.9)">.</text><text xml:space="preserve" font-family="HelveticaNeue,Helvetica Neue" font-size="44.0" fill="#000000" transform="matrix(1.00, 0.00, -0.00, -1.00, 401.1, 732.9)">
</text><image xlink:href="../../C3973CD3-C593-4B6C-B28A-93820E7F420B/assets/774E3763EFA823074E43E4A6595BB7E5.png" width="543.00" height="247.00" transform="matrix(1.00, 0.00, -0.00, -1.00, 43.2, 358.1)"></image><path d="M 83.0 287.0 L 546.0 287.0 L 546.0 183.0 L 83.0 183.0 Z M 83.2 287.5 " fill="#51A7F9"></path><g><clipPath id="clip0x6080030a1440"><path d="M 77.2 183.3 L 551.6 183.3 L 551.6 287.5 L 77.2 287.5 Z M 77.2 183.3 "></path></clipPath><g clip-path="url(#clip0x6080030a1440)"><text xml:space="preserve" font-family="Helvetica-Bold,Helvetica" font-weight="bold" font-size="34.0" fill="#FEFFFE" transform="matrix(1.00, 0.00, -0.00, -1.00, 170.8, 222.8)">C</text><text xml:space="preserve" font-family="Helvetica-Bold,Helvetica" font-weight="bold" font-size="34.0" fill="#FEFFFE" transform="matrix(1.00, 0.00, -0.00, -1.00, 195.3, 222.8)">l</text><text xml:space="preserve" font-family="Helvetica-Bold,Helvetica" font-weight="bold" font-size="34.0" fill="#FEFFFE" transform="matrix(1.00, 0.00, -0.00, -1.00, 204.8, 222.8)">i</text><text xml:space="preserve" font-family="Helvetica-Bold,Helvetica" font-weight="bold" font-size="34.0" fill="#FEFFFE" transform="matrix(1.00, 0.00, -0.00, -1.00, 214.2, 222.8)">c</text><text xml:space="preserve" font-family="Helvetica-Bold,Helvetica" font-weight="bold" font-size="34.0" fill="#FEFFFE" transform="matrix(1.00, 0.00, -0.00, -1.00, 233.1, 222.8)">k</text><text xml:space="preserve" font-family="Helvetica-Bold,Helvetica" font-weight="bold" font-size="34.0" fill="#FEFFFE" transform="matrix(1.00, 0.00, -0.00, -1.00, 252.0, 222.8)"> </text><text xml:space="preserve" font-family="Helvetica-Bold,Helvetica" font-weight="bold" font-size="34.0" fill="#FEFFFE" transform="matrix(1.00, 0.00, -0.00, -1.00, 261.5, 222.8)">h</text><text xml:space="preserve" font-family="Helvetica-Bold,Helvetica" font-weight="bold" font-size="34.0" fill="#FEFFFE" transform="matrix(1.00, 0.00, -0.00, -1.00, 282.2, 222.8)">e</text><text xml:space="preserve" font-family="Helvetica-Bold,Helvetica" font-weight="bold" font-size="34.0" fill="#FEFFFE" transform="matrix(1.00, 0.00, -0.00, -1.00, 301.2, 222.8)">r</text><text xml:space="preserve" font-family="Helvetica-Bold,Helvetica" font-weight="bold" font-size="34.0" fill="#FEFFFE" transform="matrix(1.00, 0.00, -0.00, -1.00, 314.4, 222.8)">e</text><text xml:space="preserve" font-family="Helvetica-Bold,Helvetica" font-weight="bold" font-size="34.0" fill="#FEFFFE" transform="matrix(1.00, 0.00, -0.00, -1.00, 333.3, 222.8)"> </text><text xml:space="preserve" font-family="Helvetica-Bold,Helvetica" font-weight="bold" font-size="34.0" fill="#FEFFFE" transform="matrix(1.00, 0.00, -0.00, -1.00, 342.8, 222.8)">t</text><text xml:space="preserve" font-family="Helvetica-Bold,Helvetica" font-weight="bold" font-size="34.0" fill="#FEFFFE" transform="matrix(1.00, 0.00, -0.00, -1.00, 354.1, 222.8)">o</text><text xml:space="preserve" font-family="Helvetica-Bold,Helvetica" font-weight="bold" font-size="34.0" fill="#FEFFFE" transform="matrix(1.00, 0.00, -0.00, -1.00, 374.8, 222.8)"> </text><text xml:space="preserve" font-family="Helvetica-Bold,Helvetica" font-weight="bold" font-size="34.0" fill="#FEFFFE" transform="matrix(1.00, 0.00, -0.00, -1.00, 384.3, 222.8)">s</text><text xml:space="preserve" font-family="Helvetica-Bold,Helvetica" font-weight="bold" font-size="34.0" fill="#FEFFFE" transform="matrix(1.00, 0.00, -0.00, -1.00, 403.2, 222.8)">t</text><text xml:space="preserve" font-family="Helvetica-Bold,Helvetica" font-weight="bold" font-size="34.0" fill="#FEFFFE" transform="matrix(1.00, 0.00, -0.00, -1.00, 414.5, 222.8)">a</text><text xml:space="preserve" font-family="Helvetica-Bold,Helvetica" font-weight="bold" font-size="34.0" fill="#FEFFFE" transform="matrix(1.00, 0.00, -0.00, -1.00, 433.4, 222.8)">r</text><text xml:space="preserve" font-family="Helvetica-Bold,Helvetica" font-weight="bold" font-size="34.0" fill="#FEFFFE" transform="matrix(1.00, 0.00, -0.00, -1.00, 446.7, 222.8)">t</text></g></g></g></svg>