<?xml version="1.0" encoding="UTF-8" standalone="no"?><svg xmlns="http://www.w3.org/2000/svg" xmlns:xlink="http://www.w3.org/1999/xlink" clip-rule="evenodd" stroke-miterlimit="10" viewBox="0 0 640 1136"><desc>SVG generated by Keynote</desc><defs></defs><g transform="matrix(1.00, 0.00, -0.00, -1.00, 0.0, 1136.0)"><path d="M 0.0 1136.0 L 640.0 1136.0 L 640.0 0.0 L 0.0 0.0 Z M 0.0 1136.0 " fill="#FEFFFF"></path><g><clipPath id="clip0x6100024ab100"><path d="M 0.0 -31.0 L 20.0 -31.0 L 20.0 995.0 L 0.0 995.0 Z M 0.0 -31.0 "></path></clipPath><g clip-path="url(#clip0x6100024ab100)"><path d="M 0.0 995.0 L 20.0 995.0 L 20.0 -31.0 L 0.0 -31.0 Z M 0.0 995.0 " fill="#248F52"></path></g></g><g><clipPath id="clip0x6100020bede0"><path d="M 0.0 35.0 L 640.0 35.0 L 640.0 1137.0 L 0.0 1137.0 Z M 0.0 35.0 "></path></clipPath><g clip-path="url(#clip0x6100020bede0)"><path d="M 0.0 1061.0 L 20.0 1061.0 L 20.0 35.0 L 0.0 35.0 Z M 0.0 1061.0 " fill="#248F52"></path><path d="M 19.5 639.5 L 29.5 639.5 C 32.3 639.5 34.5 637.3 34.5 634.5 L 34.5 560.0 C 34.5 557.2 32.3 555.0 29.5 555.0 L 19.5 555.0 C 16.7 555.0 14.5 557.2 14.5 560.0 L 14.5 634.5 C 14.5 637.3 16.7 639.5 19.5 639.5 Z M 19.5 639.5 " fill="#248F52"></path><path d="M 28.0 617.8 C 30.0 615.8 30.0 612.7 28.0 610.7 C 26.1 608.8 22.9 608.8 21.0 610.7 C 19.0 612.7 19.0 615.8 21.0 617.8 C 22.9 619.7 26.1 619.7 28.0 617.8 " fill="#FEFFFF"></path><path d="M 28.0 583.8 C 30.0 581.8 30.0 578.7 28.0 576.7 C 26.1 574.8 22.9 574.8 21.0 576.7 C 19.0 578.7 19.0 581.8 21.0 583.8 C 22.9 585.7 26.1 585.7 28.0 583.8 " fill="#FEFFFF"></path><path d="M 28.0 600.8 C 30.0 598.8 30.0 595.7 28.0 593.7 C 26.1 591.8 22.9 591.8 21.0 593.7 C 19.0 595.7 19.0 598.8 21.0 600.8 C 22.9 602.7 26.1 602.7 28.0 600.8 " fill="#FEFFFF"></path><path d="M 0.0 1137.0 L 640.0 1137.0 L 640.0 1057.0 L 0.0 1057.0 Z M 0.0 1137.0 " fill="#248F52"></path><path d="M 20.0 1119.0 L 65.0 1119.0 L 65.0 1111.0 L 20.0 1111.0 Z M 20.0 1119.0 " fill="#FEFFFF"></path><path d="M 20.0 1101.0 L 65.0 1101.0 L 65.0 1093.0 L 20.0 1093.0 Z M 20.0 1101.0 " fill="#FEFFFF"></path><path d="M 20.0 1083.0 L 65.0 1083.0 L 65.0 1075.0 L 20.0 1075.0 Z M 20.0 1083.0 " fill="#FEFFFF"></path></g></g><g><clipPath id="clip0x610001aab1c0"><path d="M 291.8 1129.2 L 356.2 1129.2 L 356.2 1064.8 L 291.8 1064.8 Z M 291.8 1129.2 "></path></clipPath><g clip-path="url(#clip0x610001aab1c0)"><g><clipPath id="clip0x6100020b25a0"><path d="M 291.8 1064.8 L 356.2 1064.8 L 356.2 1129.2 L 291.8 1129.2 Z M 291.8 1064.8 "></path></clipPath><g clip-path="url(#clip0x6100020b25a0)"><g><g><clipPath id="clip0x610001ea4380"><path d="M 291.8 1064.8 L 356.2 1064.8 L 356.2 1129.2 L 291.8 1129.2 Z M 291.8 1064.8 "></path></clipPath><g clip-path="url(#clip0x610001ea4380)"><g><g><clipPath id="clip0x6100024aac20"><path d="M 291.8 1129.2 L 356.2 1129.2 L 356.2 1064.8 L 291.8 1064.8 Z M 291.8 1129.2 "></path></clipPath><g clip-path="url(#clip0x6100024aac20)"><g><clipPath id="clip0x6100020ad1a0"><path d="M 291.8 1064.8 L 356.2 1064.8 L 356.2 1129.2 L 291.8 1129.2 Z M 291.8 1064.8 "></path></clipPath><g clip-path="url(#clip0x6100020ad1a0)"><path d="M 356.2 1086.2 C 356.2 1083.9 354.3 1081.5 352.0 1080.9 L 349.6 1080.3 L 291.8 1064.8 L 291.8 1103.6 C 291.8 1108.2 295.5 1112.9 300.1 1114.2 L 302.5 1114.8 L 356.2 1129.2 L 356.2 1086.2 " fill="#FFFEFE"></path></g></g></g></g><g><clipPath id="clip0x6100020b9b00"><path d="M 291.8 1064.8 L 356.2 1064.8 L 356.2 1129.2 L 291.8 1129.2 Z M 291.8 1064.8 "></path></clipPath><g clip-path="url(#clip0x6100020b9b00)"><path d="M 345.0 1091.4 C 345.0 1090.1 344.3 1089.6 342.3 1089.6 L 339.4 1089.6 L 339.4 1094.6 L 343.1 1094.6 C 344.4 1094.6 345.0 1094.0 345.0 1092.9 L 345.0 1091.4 Z M 339.4 1103.2 L 342.4 1103.2 C 344.1 1103.2 344.3 1102.5 344.3 1101.9 L 344.3 1099.7 C 344.3 1098.9 343.6 1098.4 342.4 1098.4 L 339.4 1098.4 L 339.4 1103.2 Z M 347.4 1096.9 C 348.6 1097.7 349.1 1098.7 349.1 1100.1 L 349.1 1102.2 C 349.1 1105.5 347.1 1107.1 342.9 1107.1 L 334.4 1107.1 L 334.4 1085.7 L 343.6 1085.7 C 347.6 1085.7 349.9 1087.7 349.9 1091.0 L 349.9 1093.0 C 349.9 1094.7 348.9 1096.2 347.4 1096.9 " fill="#0F7C3F"></path><path d="M 313.6 1102.3 C 314.2 1102.4 314.7 1102.9 314.7 1103.5 L 314.7 1103.7 L 314.7 1107.1 L 300.6 1107.1 C 299.3 1107.1 298.2 1106.0 298.2 1104.7 L 298.2 1102.3 L 303.8 1102.3 L 303.8 1085.7 L 306.7 1085.7 C 308.0 1085.7 309.1 1086.8 309.1 1088.1 L 309.1 1102.3 L 313.6 1102.3 " fill="#0F7C3F"></path><path d="M 320.8 1094.0 L 323.0 1101.8 L 325.1 1094.0 L 320.8 1094.0 Z M 327.3 1104.0 C 326.8 1105.8 325.0 1107.1 323.0 1107.1 L 319.6 1107.1 L 313.1 1085.7 L 317.2 1085.7 C 317.2 1085.7 317.3 1085.7 317.4 1085.7 C 317.6 1085.7 317.8 1085.7 317.8 1085.7 C 318.3 1085.7 318.7 1086.1 318.9 1086.5 L 319.0 1086.7 L 319.8 1089.8 L 326.2 1089.8 L 327.4 1085.7 L 332.9 1085.7 L 327.3 1103.9 L 327.3 1104.0 " fill="#0F7C3F"></path></g></g></g></g></g></g></g></g></g></g><g><clipPath id="clip0x6100020a10e0"><path d="M 0.0 35.0 L 640.0 35.0 L 640.0 1137.0 L 0.0 1137.0 Z M 0.0 35.0 "></path></clipPath><g clip-path="url(#clip0x6100020a10e0)"><text xml:space="preserve" font-family="HelveticaNeue-Bold,Helvetica Neue" font-weight="bold" font-size="16.0" fill="#FFFFFF" transform="matrix(1.00, 0.00, -0.00, -1.00, 579.2, 1095.5)">L</text><text xml:space="preserve" font-family="HelveticaNeue-Bold,Helvetica Neue" font-weight="bold" font-size="16.0" fill="#FFFFFF" transform="matrix(1.00, 0.00, -0.00, -1.00, 588.7, 1095.5)">o</text><text xml:space="preserve" font-family="HelveticaNeue-Bold,Helvetica Neue" font-weight="bold" font-size="16.0" fill="#FFFFFF" transform="matrix(1.00, 0.00, -0.00, -1.00, 598.4, 1095.5)">g</text><text xml:space="preserve" font-family="HelveticaNeue-Bold,Helvetica Neue" font-weight="bold" font-size="16.0" fill="#FFFFFF" transform="matrix(1.00, 0.00, -0.00, -1.00, 608.2, 1095.5)">i</text><text xml:space="preserve" font-family="HelveticaNeue-Bold,Helvetica Neue" font-weight="bold" font-size="16.0" fill="#FFFFFF" transform="matrix(1.00, 0.00, -0.00, -1.00, 612.3, 1095.5)">n</text></g></g><path d="M 0.0 1057.0 L 640.0 1057.0 L 640.0 0.0 L 0.0 0.0 Z M 0.3 1057.3 " fill="#FEFFFE"></path><g><clipPath id="clip0x6100020af600"><path d="M 608.7 32.0 L 642.7 32.0 L 642.7 1058.0 L 608.7 1058.0 Z M 608.7 32.0 "></path></clipPath><g clip-path="url(#clip0x6100020af600)"><path d="M 643.3 32.0 L 623.3 32.0 L 623.3 1058.0 L 643.3 1058.0 Z M 643.3 32.0 " fill="#248F52"></path><path d="M 623.7 524.5 L 613.7 524.5 C 611.0 524.5 608.7 526.7 608.7 529.5 L 608.7 604.0 C 608.7 606.8 611.0 609.0 613.7 609.0 L 623.7 609.0 C 626.5 609.0 628.7 606.8 628.7 604.0 L 628.7 529.5 C 628.7 526.7 626.5 524.5 623.7 524.5 Z M 623.7 524.5 " fill="#248F52"></path><path d="M 615.2 546.2 C 613.3 548.2 613.3 551.3 615.2 553.3 C 617.2 555.2 620.3 555.2 622.3 553.3 C 624.2 551.3 624.2 548.2 622.3 546.2 C 620.3 544.3 617.2 544.3 615.2 546.2 " fill="#FEFFFF"></path><path d="M 615.2 580.2 C 613.3 582.2 613.3 585.3 615.2 587.3 C 617.2 589.2 620.3 589.2 622.3 587.3 C 624.2 585.3 624.2 582.2 622.3 580.2 C 620.3 578.3 617.2 578.3 615.2 580.2 " fill="#FEFFFF"></path><path d="M 615.2 563.2 C 613.3 565.2 613.3 568.3 615.2 570.3 C 617.2 572.2 620.3 572.2 622.3 570.3 C 624.2 568.3 624.2 565.2 622.3 563.2 C 620.3 561.3 617.2 561.3 615.2 563.2 " fill="#FEFFFF"></path></g></g><g><clipPath id="clip0x6100024b0f20"><path d="M 623.0 -865.0 L 643.0 -865.0 L 643.0 161.0 L 623.0 161.0 Z M 623.0 -865.0 "></path></clipPath><g clip-path="url(#clip0x6100024b0f20)"><path d="M 643.0 -865.0 L 623.0 -865.0 L 623.0 161.0 L 643.0 161.0 Z M 643.0 -865.0 " fill="#248F52"></path></g></g><image xlink:href="../../75EC2266-EE52-4C38-BD1F-65A998798F93/assets/0D03BA7C0FF03343EDBE121B5D9EA380.png" width="1168.00" height="1924.00" transform="matrix(0.55, 0.00, -0.00, -0.55, 0.0, 1057.1)"></image><g><clipPath id="clip0x6080022b9200"><path d="M 605.8 32.5 L 639.8 32.5 L 639.8 1058.5 L 605.8 1058.5 Z M 605.8 32.5 "></path></clipPath><g clip-path="url(#clip0x6080022b9200)"><path d="M 620.2 1058.5 L 640.2 1058.5 L 640.2 32.5 L 620.2 32.5 Z M 620.2 1058.5 " fill="#248F52"></path><path d="M 610.8 637.0 L 620.8 637.0 C 623.5 637.0 625.8 634.8 625.8 632.0 L 625.8 557.5 C 625.8 554.7 623.5 552.5 620.8 552.5 L 610.8 552.5 C 608.0 552.5 605.8 554.7 605.8 557.5 L 605.8 632.0 C 605.8 634.8 608.0 637.0 610.8 637.0 Z M 610.8 637.0 " fill="#248F52"></path><path d="M 619.3 615.3 C 621.2 613.3 621.2 610.2 619.3 608.2 C 617.3 606.3 614.2 606.3 612.2 608.2 C 610.3 610.2 610.3 613.3 612.2 615.3 C 614.2 617.2 617.3 617.2 619.3 615.3 " fill="#FEFFFF"></path><path d="M 619.3 581.3 C 621.2 579.3 621.2 576.2 619.3 574.2 C 617.3 572.3 614.2 572.3 612.2 574.2 C 610.3 576.2 610.3 579.3 612.2 581.3 C 614.2 583.2 617.3 583.2 619.3 581.3 " fill="#FEFFFF"></path><path d="M 619.3 598.3 C 621.2 596.3 621.2 593.2 619.3 591.2 C 617.3 589.3 614.2 589.3 612.2 591.2 C 610.3 593.2 610.3 596.3 612.2 598.3 C 614.2 600.2 617.3 600.2 619.3 598.3 " fill="#FEFFFF"></path></g></g><g><clipPath id="clip0x608001ebc680"><path d="M 620.0 97.0 L 640.0 97.0 L 640.0 -3.0 L 620.0 -3.0 Z M 620.0 97.5 "></path></clipPath><g clip-path="url(#clip0x608001ebc680)"><g><clipPath id="clip0x6080022bbc00"><path d="M 619.0 -3.5 L 641.0 -3.5 L 641.0 98.5 L 619.0 98.5 Z M 619.0 -3.5 "></path></clipPath><g clip-path="url(#clip0x6080022bbc00)"><image xlink:href="../../75E8A6CA-4E90-4B94-B809-34D2467C6537/assets/16FAF09D8FE0F6AB4BB4DFFF2C8A6356.png" width="600.00" height="600.00" transform="matrix(0.50, 0.00, -0.00, -0.50, 620.0, 97.0)"></image></g></g></g></g><g><clipPath id="clip0x610001eb8660"><path d="M 587.0 564.0 L 645.0 564.0 L 645.0 622.0 L 587.0 622.0 Z M 587.0 564.0 "></path></clipPath><g clip-path="url(#clip0x610001eb8660)"><image xlink:href="../../75EC2266-EE52-4C38-BD1F-65A998798F93/assets/91DBD71358BAC7E49F281CAE82EA4070.png" width="58.00" height="58.00" transform="matrix(1.00, 0.00, -0.00, 1.00, 587.0, 564.0)"></image><path d="M 630.1 608.1 C 638.0 600.3 638.0 587.7 630.1 579.9 C 622.3 572.0 609.7 572.0 601.9 579.9 C 594.0 587.7 594.0 600.3 601.9 608.1 C 609.7 616.0 622.3 616.0 630.1 608.1 " fill="#FCCB2F"></path><path d="M 2931.1 7113.9 C 2939.0 7121.7 2939.0 7134.4 2931.1 7142.2 C 2923.3 7150.0 2910.7 7150.0 2902.9 7142.2 C 2895.0 7134.4 2895.0 7121.7 2902.9 7113.9 C 2910.7 7106.1 2923.3 7106.1 2931.1 7113.9 " fill="none" stroke="#FEFFFF" stroke-width="3.00" stroke-linecap="round" stroke-linejoin="round" transform="matrix(1.00, 0.00, 0.00, -1.00, -2301.0, 7722.0)"></path><text xml:space="preserve" font-family="Helvetica-Bold,Helvetica" font-weight="bold" font-size="19.2" fill="#000000" transform="matrix(1.00, 0.00, -0.00, -1.00, 610.7, 586.5)">1</text></g></g><path d="M 12.0 696.0 L 446.0 696.0 L 446.0 651.0 L 12.0 651.0 Z M 12.0 695.9 " fill="#FEFFFE" fill-opacity="0.01"></path><path d="M 618.0 1057.0 L 638.0 1057.0 L 638.0 -1.0 L 618.0 -1.0 Z M 618.0 1057.1 " fill="#FEFFFE" fill-opacity="0.02"></path><path d="M 584.0 660.0 L 619.0 660.0 L 619.0 526.0 L 584.0 526.0 Z M 584.2 660.3 " fill="#FEFFFE" fill-opacity="0.02"></path><g><clipPath id="clip0x610001ebe420"><path d="M 601.3 550.5 L 358.7 550.5 L 358.7 633.5 L 601.3 633.5 Z M 601.3 550.5 "></path></clipPath><g clip-path="url(#clip0x610001ebe420)"><image xlink:href="../../4EB100AA-B672-44C8-A7BB-9172B7FAC22F/assets/14721EE78F9D5235385E675FD68ACB91.png" width="241.00" height="81.00" transform="matrix(-1.00, 0.00, 0.00, 1.00, 600.3, 551.5)" opacity="0.50"></image><path d="M 574.3 554.0 C 577.1 553.5 579.0 555.8 579.0 558.5 L 579.0 577.0 L 599.3 587.0 L 579.0 597.0 L 579.0 627.5 C 579.0 630.2 577.1 632.0 574.3 632.0 L 365.7 632.0 C 363.0 632.0 361.0 630.2 361.0 627.5 L 361.0 558.5 C 361.0 555.8 363.0 554.0 365.7 554.0 L 574.3 554.0 Z M 574.3 553.5 " fill="#F5D327"></path></g></g><g><clipPath id="clip0x600001ea24c0"><path d="M 374.1 556.2 L 578.0 556.2 L 578.0 623.8 L 374.1 623.8 Z M 374.1 556.2 "></path></clipPath><g clip-path="url(#clip0x600001ea24c0)"><text xml:space="preserve" font-family="Helvetica-Bold,Helvetica" font-weight="bold" font-size="23.0" fill="#000000" transform="matrix(1.00, 0.00, -0.00, -1.00, 379.8, 595.3)">S</text><text xml:space="preserve" font-family="Helvetica-Bold,Helvetica" font-weight="bold" font-size="23.0" fill="#000000" transform="matrix(1.00, 0.00, -0.00, -1.00, 395.2, 595.3)">e</text><text xml:space="preserve" font-family="Helvetica-Bold,Helvetica" font-weight="bold" font-size="23.0" fill="#000000" transform="matrix(1.00, 0.00, -0.00, -1.00, 408.0, 595.3)">l</text><text xml:space="preserve" font-family="Helvetica-Bold,Helvetica" font-weight="bold" font-size="23.0" fill="#000000" transform="matrix(1.00, 0.00, -0.00, -1.00, 414.3, 595.3)">e</text><text xml:space="preserve" font-family="Helvetica-Bold,Helvetica" font-weight="bold" font-size="23.0" fill="#000000" transform="matrix(1.00, 0.00, -0.00, -1.00, 427.1, 595.3)">c</text><text xml:space="preserve" font-family="Helvetica-Bold,Helvetica" font-weight="bold" font-size="23.0" fill="#000000" transform="matrix(1.00, 0.00, -0.00, -1.00, 439.9, 595.3)">t</text><text xml:space="preserve" font-family="Helvetica-Bold,Helvetica" font-weight="bold" font-size="23.0" fill="#000000" transform="matrix(1.00, 0.00, -0.00, -1.00, 447.6, 595.3)">i</text><text xml:space="preserve" font-family="Helvetica-Bold,Helvetica" font-weight="bold" font-size="23.0" fill="#000000" transform="matrix(1.00, 0.00, -0.00, -1.00, 454.0, 595.3)">o</text><text xml:space="preserve" font-family="Helvetica-Bold,Helvetica" font-weight="bold" font-size="23.0" fill="#000000" transform="matrix(1.00, 0.00, -0.00, -1.00, 468.0, 595.3)">n</text><text xml:space="preserve" font-family="Helvetica-Bold,Helvetica" font-weight="bold" font-size="23.0" fill="#000000" transform="matrix(1.00, 0.00, -0.00, -1.00, 482.1, 595.3)"> </text><text xml:space="preserve" font-family="Helvetica-Bold,Helvetica" font-weight="bold" font-size="23.0" fill="#000000" transform="matrix(1.00, 0.00, -0.00, -1.00, 488.5, 595.3)">a</text><text xml:space="preserve" font-family="Helvetica-Bold,Helvetica" font-weight="bold" font-size="23.0" fill="#000000" transform="matrix(1.00, 0.00, -0.00, -1.00, 501.2, 595.3)">d</text><text xml:space="preserve" font-family="Helvetica-Bold,Helvetica" font-weight="bold" font-size="23.0" fill="#000000" transform="matrix(1.00, 0.00, -0.00, -1.00, 515.3, 595.3)">d</text><text xml:space="preserve" font-family="Helvetica-Bold,Helvetica" font-weight="bold" font-size="23.0" fill="#000000" transform="matrix(1.00, 0.00, -0.00, -1.00, 529.3, 595.3)">e</text><text xml:space="preserve" font-family="Helvetica-Bold,Helvetica" font-weight="bold" font-size="23.0" fill="#000000" transform="matrix(1.00, 0.00, -0.00, -1.00, 542.1, 595.3)">d</text><text xml:space="preserve" font-family="Helvetica-Bold,Helvetica" font-weight="bold" font-size="23.0" fill="#000000" transform="matrix(1.00, 0.00, -0.00, -1.00, 379.8, 567.3)">T</text><text xml:space="preserve" font-family="Helvetica-Bold,Helvetica" font-weight="bold" font-size="23.0" fill="#000000" transform="matrix(1.00, 0.00, -0.00, -1.00, 392.2, 567.3)">A</text><text xml:space="preserve" font-family="Helvetica-Bold,Helvetica" font-weight="bold" font-size="23.0" fill="#000000" transform="matrix(1.00, 0.00, -0.00, -1.00, 408.8, 567.3)">P</text><text xml:space="preserve" font-family="Helvetica-Bold,Helvetica" font-weight="bold" font-size="23.0" fill="#000000" transform="matrix(1.00, 0.00, -0.00, -1.00, 423.7, 567.3)"> </text><text xml:space="preserve" font-family="Helvetica-Bold,Helvetica" font-weight="bold" font-size="23.0" fill="#000000" transform="matrix(1.00, 0.00, -0.00, -1.00, 430.1, 567.3)">t</text><text xml:space="preserve" font-family="Helvetica-Bold,Helvetica" font-weight="bold" font-size="23.0" fill="#000000" transform="matrix(1.00, 0.00, -0.00, -1.00, 437.8, 567.3)">o</text><text xml:space="preserve" font-family="Helvetica-Bold,Helvetica" font-weight="bold" font-size="23.0" fill="#000000" transform="matrix(1.00, 0.00, -0.00, -1.00, 451.8, 567.3)"> </text><text xml:space="preserve" font-family="Helvetica-Bold,Helvetica" font-weight="bold" font-size="23.0" fill="#000000" transform="matrix(1.00, 0.00, -0.00, -1.00, 458.2, 567.3)">o</text><text xml:space="preserve" font-family="Helvetica-Bold,Helvetica" font-weight="bold" font-size="23.0" fill="#000000" transform="matrix(1.00, 0.00, -0.00, -1.00, 472.2, 567.3)">p</text><text xml:space="preserve" font-family="Helvetica-Bold,Helvetica" font-weight="bold" font-size="23.0" fill="#000000" transform="matrix(1.00, 0.00, -0.00, -1.00, 486.3, 567.3)">e</text><text xml:space="preserve" font-family="Helvetica-Bold,Helvetica" font-weight="bold" font-size="23.0" fill="#000000" transform="matrix(1.00, 0.00, -0.00, -1.00, 499.1, 567.3)">n</text></g></g></g></svg>