<?xml version="1.0" encoding="UTF-8" standalone="no"?><svg xmlns="http://www.w3.org/2000/svg" xmlns:xlink="http://www.w3.org/1999/xlink" clip-rule="evenodd" stroke-miterlimit="10" viewBox="0 0 1200 720"><desc>SVG generated by Keynote</desc><defs></defs><g transform="matrix(1.00, 0.00, -0.00, -1.00, 0.0, 720.0)"><path d="M 0.0 720.0 L 1200.0 720.0 L 1200.0 0.0 L 0.0 0.0 Z M 0.0 720.0 " fill="#FEFFFF"></path><image xlink:href="3D960954F0BD8DF452B8B9C87BE57B82.png" width="1268.00" height="1073.00" transform="matrix(0.96, 0.00, -0.00, -0.96, 1.2, 774.3)"></image><path d="M 6.0 503.0 L 994.0 503.0 L 994.0 451.0 L 6.0 451.0 Z M 6.0 503.5 " fill="#FEFFFE"></path><path d="M -17.0 538.0 L 994.0 538.0 L 994.0 437.0 L -17.0 437.0 Z M -17.2 538.0 " fill="#FEFFFE"></path><path d="M 914.0 503.0 L 983.0 503.0 L 983.0 451.0 L 914.0 451.0 Z M 914.0 503.0 " fill="#DCDDE0"></path><text xml:space="preserve" font-family="Helvetica-Bold,Helvetica" font-weight="bold" font-size="18.0" fill="#52575F" transform="matrix(1.00, 0.00, -0.00, -1.00, 925.3, 470.2)">1</text><text xml:space="preserve" font-family="Helvetica-Bold,Helvetica" font-weight="bold" font-size="18.0" fill="#52575F" transform="matrix(1.00, 0.00, -0.00, -1.00, 935.3, 470.2)">0</text><text xml:space="preserve" font-family="Helvetica-Bold,Helvetica" font-weight="bold" font-size="18.0" fill="#52575F" transform="matrix(1.00, 0.00, -0.00, -1.00, 945.3, 470.2)">.</text><text xml:space="preserve" font-family="Helvetica-Bold,Helvetica" font-weight="bold" font-size="18.0" fill="#52575F" transform="matrix(1.00, 0.00, -0.00, -1.00, 950.3, 470.2)">2</text><text xml:space="preserve" font-family="Helvetica-Bold,Helvetica" font-weight="bold" font-size="18.0" fill="#52575F" transform="matrix(1.00, 0.00, -0.00, -1.00, 960.3, 470.2)">5</text><path d="M 847.0 503.0 L 983.0 503.0 L 983.0 451.0 L 847.0 451.0 Z M 847.0 503.0 " fill="#DCDDE0"></path><g><clipPath id="clip0x6000030b7ee0"><path d="M 844.8 451.2 L 984.9 451.2 L 984.9 503.0 L 844.8 503.0 Z M 844.8 451.2 "></path></clipPath><g clip-path="url(#clip0x6000030b7ee0)"><text xml:space="preserve" font-family="Helvetica-Bold,Helvetica" font-weight="bold" font-size="18.0" fill="#52575F" transform="matrix(1.00, 0.00, -0.00, -1.00, 892.3, 469.8)">1</text><text xml:space="preserve" font-family="Helvetica-Bold,Helvetica" font-weight="bold" font-size="18.0" fill="#52575F" transform="matrix(1.00, 0.00, -0.00, -1.00, 902.4, 469.8)">2</text><text xml:space="preserve" font-family="Helvetica-Bold,Helvetica" font-weight="bold" font-size="18.0" fill="#52575F" transform="matrix(1.00, 0.00, -0.00, -1.00, 912.4, 469.8)">.</text><text xml:space="preserve" font-family="Helvetica-Bold,Helvetica" font-weight="bold" font-size="18.0" fill="#52575F" transform="matrix(1.00, 0.00, -0.00, -1.00, 917.4, 469.8)">5</text><text xml:space="preserve" font-family="Helvetica-Bold,Helvetica" font-weight="bold" font-size="18.0" fill="#52575F" transform="matrix(1.00, 0.00, -0.00, -1.00, 927.4, 469.8)">6</text></g></g><path d="M 9.0 503.0 L 334.0 503.0 L 334.0 451.0 L 9.0 451.0 Z M 9.0 503.0 " fill="#EFEFEF"></path><g><clipPath id="clip0x6000032a2340"><path d="M 7.6 451.2 L 335.5 451.2 L 335.5 503.0 L 7.6 503.0 Z M 7.6 451.2 "></path></clipPath><g clip-path="url(#clip0x6000032a2340)"><text xml:space="preserve" font-family="Helvetica-Bold,Helvetica" font-weight="bold" font-size="15.0" fill="#000000" transform="matrix(1.00, 0.00, -0.00, -1.00, 11.4, 471.1)"> </text><text xml:space="preserve" font-family="Helvetica-Bold,Helvetica" font-weight="bold" font-size="15.0" fill="#000000" transform="matrix(1.00, 0.00, -0.00, -1.00, 15.5, 471.1)"> </text><text xml:space="preserve" font-family="Helvetica-Bold,Helvetica" font-weight="bold" font-size="15.0" fill="#000000" transform="matrix(1.00, 0.00, -0.00, -1.00, 19.7, 471.1)"> </text><text xml:space="preserve" font-family="Helvetica-Bold,Helvetica" font-weight="bold" font-size="15.0" fill="#000000" transform="matrix(1.00, 0.00, -0.00, -1.00, 23.3, 471.1)">A</text><text xml:space="preserve" font-family="Helvetica-Bold,Helvetica" font-weight="bold" font-size="15.0" fill="#000000" transform="matrix(1.00, 0.00, -0.00, -1.00, 34.2, 471.1)">F</text><text xml:space="preserve" font-family="Helvetica-Bold,Helvetica" font-weight="bold" font-size="15.0" fill="#000000" transform="matrix(1.00, 0.00, -0.00, -1.00, 43.3, 471.1)">L</text><text xml:space="preserve" font-family="Helvetica-Bold,Helvetica" font-weight="bold" font-size="15.0" fill="#000000" transform="matrix(1.00, 0.00, -0.00, -1.00, 52.2, 471.1)"> </text><text xml:space="preserve" font-family="Helvetica-Bold,Helvetica" font-weight="bold" font-size="15.0" fill="#000000" transform="matrix(1.00, 0.00, -0.00, -1.00, 56.4, 471.1)"> </text><text xml:space="preserve" font-family="Helvetica-Bold,Helvetica" font-weight="bold" font-size="15.0" fill="#000000" transform="matrix(1.00, 0.00, -0.00, -1.00, 60.5, 471.1)">H</text><text xml:space="preserve" font-family="Helvetica-Bold,Helvetica" font-weight="bold" font-size="15.0" fill="#000000" transform="matrix(1.00, 0.00, -0.00, -1.00, 71.4, 471.1)">e</text><text xml:space="preserve" font-family="Helvetica-Bold,Helvetica" font-weight="bold" font-size="15.0" fill="#000000" transform="matrix(1.00, 0.00, -0.00, -1.00, 79.7, 471.1)">a</text><text xml:space="preserve" font-family="Helvetica-Bold,Helvetica" font-weight="bold" font-size="15.0" fill="#000000" transform="matrix(1.00, 0.00, -0.00, -1.00, 88.1, 471.1)">d</text><text xml:space="preserve" font-family="Helvetica-Bold,Helvetica" font-weight="bold" font-size="15.0" fill="#000000" transform="matrix(1.00, 0.00, -0.00, -1.00, 97.2, 471.1)"> </text><text xml:space="preserve" font-family="Helvetica-Bold,Helvetica" font-weight="bold" font-size="15.0" fill="#000000" transform="matrix(1.00, 0.00, -0.00, -1.00, 101.4, 471.1)">T</text><text xml:space="preserve" font-family="Helvetica-Bold,Helvetica" font-weight="bold" font-size="15.0" fill="#000000" transform="matrix(1.00, 0.00, -0.00, -1.00, 109.4, 471.1)">o</text><text xml:space="preserve" font-family="Helvetica-Bold,Helvetica" font-weight="bold" font-size="15.0" fill="#000000" transform="matrix(1.00, 0.00, -0.00, -1.00, 118.6, 471.1)"> </text><text xml:space="preserve" font-family="Helvetica-Bold,Helvetica" font-weight="bold" font-size="15.0" fill="#000000" transform="matrix(1.00, 0.00, -0.00, -1.00, 122.8, 471.1)">H</text><text xml:space="preserve" font-family="Helvetica-Bold,Helvetica" font-weight="bold" font-size="15.0" fill="#000000" transform="matrix(1.00, 0.00, -0.00, -1.00, 133.6, 471.1)">e</text><text xml:space="preserve" font-family="Helvetica-Bold,Helvetica" font-weight="bold" font-size="15.0" fill="#000000" transform="matrix(1.00, 0.00, -0.00, -1.00, 142.0, 471.1)">a</text><text xml:space="preserve" font-family="Helvetica-Bold,Helvetica" font-weight="bold" font-size="15.0" fill="#000000" transform="matrix(1.00, 0.00, -0.00, -1.00, 150.3, 471.1)">d</text><text xml:space="preserve" font-family="Helvetica-Bold,Helvetica" font-weight="bold" font-size="15.0" fill="#000000" transform="matrix(1.00, 0.00, -0.00, -1.00, 159.5, 471.1)"> </text><text xml:space="preserve" font-family="Helvetica-Bold,Helvetica" font-weight="bold" font-size="15.0" fill="#000000" transform="matrix(1.00, 0.00, -0.00, -1.00, 163.6, 471.1)">F</text><text xml:space="preserve" font-family="Helvetica-Bold,Helvetica" font-weight="bold" font-size="15.0" fill="#000000" transform="matrix(1.00, 0.00, -0.00, -1.00, 172.8, 471.1)">a</text><text xml:space="preserve" font-family="Helvetica-Bold,Helvetica" font-weight="bold" font-size="15.0" fill="#000000" transform="matrix(1.00, 0.00, -0.00, -1.00, 181.1, 471.1)">v</text><text xml:space="preserve" font-family="Helvetica-Bold,Helvetica" font-weight="bold" font-size="15.0" fill="#000000" transform="matrix(1.00, 0.00, -0.00, -1.00, 189.5, 471.1)">o</text><text xml:space="preserve" font-family="Helvetica-Bold,Helvetica" font-weight="bold" font-size="15.0" fill="#000000" transform="matrix(1.00, 0.00, -0.00, -1.00, 198.6, 471.1)">u</text><text xml:space="preserve" font-family="Helvetica-Bold,Helvetica" font-weight="bold" font-size="15.0" fill="#000000" transform="matrix(1.00, 0.00, -0.00, -1.00, 207.8, 471.1)">r</text><text xml:space="preserve" font-family="Helvetica-Bold,Helvetica" font-weight="bold" font-size="15.0" fill="#000000" transform="matrix(1.00, 0.00, -0.00, -1.00, 213.6, 471.1)">i</text><text xml:space="preserve" font-family="Helvetica-Bold,Helvetica" font-weight="bold" font-size="15.0" fill="#000000" transform="matrix(1.00, 0.00, -0.00, -1.00, 217.8, 471.1)">t</text><text xml:space="preserve" font-family="Helvetica-Bold,Helvetica" font-weight="bold" font-size="15.0" fill="#000000" transform="matrix(1.00, 0.00, -0.00, -1.00, 222.8, 471.1)">e</text><text xml:space="preserve" font-family="Helvetica-Bold,Helvetica" font-weight="bold" font-size="15.0" fill="#000000" transform="matrix(1.00, 0.00, -0.00, -1.00, 231.1, 471.1)">s</text></g></g><path d="M 527.5 502.5 L 981.5 502.5 L 981.5 451.5 L 527.5 451.5 Z M 527.0 503.0 " fill="#EFEFEF"></path><path d="M 0.5 0.5 L 454.5 0.5 L 454.5 51.5 L 0.5 51.5 Z M 0.0 0.0 " fill="none" stroke="#218DC3" stroke-width="1.00" transform="matrix(1.00, 0.00, 0.00, -1.00, 527.0, 503.0)"></path><g><clipPath id="clip0x600002cb47c0"><path d="M 526.6 452.2 L 982.0 452.2 L 982.0 502.0 L 526.6 502.0 Z M 526.6 452.2 "></path></clipPath><g clip-path="url(#clip0x600002cb47c0)"><text xml:space="preserve" font-family="Helvetica-Bold,Helvetica" font-weight="bold" font-size="15.0" fill="#000000" transform="matrix(1.00, 0.00, -0.00, -1.00, 530.3, 471.1)"> </text><text xml:space="preserve" font-family="Helvetica-Bold,Helvetica" font-weight="bold" font-size="15.0" fill="#000000" transform="matrix(1.00, 0.00, -0.00, -1.00, 534.5, 471.1)"> </text><text xml:space="preserve" font-family="Helvetica-Bold,Helvetica" font-weight="bold" font-size="15.0" fill="#000000" transform="matrix(1.00, 0.00, -0.00, -1.00, 538.7, 471.1)"> </text><text xml:space="preserve" font-family="Helvetica-Bold,Helvetica" font-weight="bold" font-size="15.0" fill="#000000" transform="matrix(1.00, 0.00, -0.00, -1.00, 542.3, 471.1)">A</text><text xml:space="preserve" font-family="Helvetica-Bold,Helvetica" font-weight="bold" font-size="15.0" fill="#000000" transform="matrix(1.00, 0.00, -0.00, -1.00, 553.1, 471.1)">F</text><text xml:space="preserve" font-family="Helvetica-Bold,Helvetica" font-weight="bold" font-size="15.0" fill="#000000" transform="matrix(1.00, 0.00, -0.00, -1.00, 562.3, 471.1)">L</text><text xml:space="preserve" font-family="Helvetica-Bold,Helvetica" font-weight="bold" font-size="15.0" fill="#000000" transform="matrix(1.00, 0.00, -0.00, -1.00, 571.2, 471.1)"> </text><text xml:space="preserve" font-family="Helvetica-Bold,Helvetica" font-weight="bold" font-size="15.0" fill="#000000" transform="matrix(1.00, 0.00, -0.00, -1.00, 575.3, 471.1)"> </text><text xml:space="preserve" font-family="Helvetica-Bold,Helvetica" font-weight="bold" font-size="15.0" fill="#000000" transform="matrix(1.00, 0.00, -0.00, -1.00, 579.5, 471.1)">L</text><text xml:space="preserve" font-family="Helvetica-Bold,Helvetica" font-weight="bold" font-size="15.0" fill="#000000" transform="matrix(1.00, 0.00, -0.00, -1.00, 588.6, 471.1)">i</text><text xml:space="preserve" font-family="Helvetica-Bold,Helvetica" font-weight="bold" font-size="15.0" fill="#000000" transform="matrix(1.00, 0.00, -0.00, -1.00, 592.8, 471.1)">n</text><text xml:space="preserve" font-family="Helvetica-Bold,Helvetica" font-weight="bold" font-size="15.0" fill="#000000" transform="matrix(1.00, 0.00, -0.00, -1.00, 602.0, 471.1)">e</text><text xml:space="preserve" font-family="Helvetica-Bold,Helvetica" font-weight="bold" font-size="15.0" fill="#000000" transform="matrix(1.00, 0.00, -0.00, -1.00, 610.3, 471.1)"> </text><text xml:space="preserve" font-family="Helvetica-Bold,Helvetica" font-weight="bold" font-size="15.0" fill="#000000" transform="matrix(1.00, 0.00, -0.00, -1.00, 614.5, 471.1)">H</text><text xml:space="preserve" font-family="Helvetica-Bold,Helvetica" font-weight="bold" font-size="15.0" fill="#000000" transform="matrix(1.00, 0.00, -0.00, -1.00, 625.3, 471.1)">o</text><text xml:space="preserve" font-family="Helvetica-Bold,Helvetica" font-weight="bold" font-size="15.0" fill="#000000" transform="matrix(1.00, 0.00, -0.00, -1.00, 634.5, 471.1)">m</text><text xml:space="preserve" font-family="Helvetica-Bold,Helvetica" font-weight="bold" font-size="15.0" fill="#000000" transform="matrix(1.00, 0.00, -0.00, -1.00, 647.8, 471.1)">e</text><text xml:space="preserve" font-family="Helvetica-Bold,Helvetica" font-weight="bold" font-size="15.0" fill="#000000" transform="matrix(1.00, 0.00, -0.00, -1.00, 656.1, 471.1)"> </text><text xml:space="preserve" font-family="Helvetica-Bold,Helvetica" font-weight="bold" font-size="15.0" fill="#000000" transform="matrix(1.00, 0.00, -0.00, -1.00, 660.3, 471.1)">T</text><text xml:space="preserve" font-family="Helvetica-Bold,Helvetica" font-weight="bold" font-size="15.0" fill="#000000" transform="matrix(1.00, 0.00, -0.00, -1.00, 668.4, 471.1)">e</text><text xml:space="preserve" font-family="Helvetica-Bold,Helvetica" font-weight="bold" font-size="15.0" fill="#000000" transform="matrix(1.00, 0.00, -0.00, -1.00, 676.7, 471.1)">a</text><text xml:space="preserve" font-family="Helvetica-Bold,Helvetica" font-weight="bold" font-size="15.0" fill="#000000" transform="matrix(1.00, 0.00, -0.00, -1.00, 685.0, 471.1)">m</text><text xml:space="preserve" font-family="Helvetica-Bold,Helvetica" font-weight="bold" font-size="15.0" fill="#000000" transform="matrix(1.00, 0.00, -0.00, -1.00, 698.4, 471.1)">s</text><text xml:space="preserve" font-family="Helvetica-Bold,Helvetica" font-weight="bold" font-size="15.0" fill="#000000" transform="matrix(1.00, 0.00, -0.00, -1.00, 706.7, 471.1)"> </text><text xml:space="preserve" font-family="Helvetica-Bold,Helvetica" font-weight="bold" font-size="15.0" fill="#000000" transform="matrix(1.00, 0.00, -0.00, -1.00, 710.9, 471.1)"> </text><text xml:space="preserve" font-family="Helvetica-Bold,Helvetica" font-weight="bold" font-size="15.0" fill="#000000" transform="matrix(1.00, 0.00, -0.00, -1.00, 715.0, 471.1)"> </text><text xml:space="preserve" font-family="Helvetica-Light,Helvetica" font-size="15.0" fill="#000000" transform="matrix(1.00, 0.00, -0.00, -1.00, 719.3, 471.1)">|</text><text xml:space="preserve" font-family="Helvetica-Bold,Helvetica" font-weight="bold" font-size="15.0" fill="#000000" transform="matrix(1.00, 0.00, -0.00, -1.00, 722.6, 471.1)"> </text><text xml:space="preserve" font-family="Helvetica-Bold,Helvetica" font-weight="bold" font-size="15.0" fill="#000000" transform="matrix(1.00, 0.00, -0.00, -1.00, 726.8, 471.1)"> </text><text xml:space="preserve" font-family="Helvetica-Light,Helvetica" font-size="15.0" fill="#000000" transform="matrix(1.00, 0.00, -0.00, -1.00, 731.0, 471.1)">C</text><text xml:space="preserve" font-family="Helvetica-Light,Helvetica" font-size="15.0" fill="#000000" transform="matrix(1.00, 0.00, -0.00, -1.00, 741.8, 471.1)">o</text><text xml:space="preserve" font-family="Helvetica-Light,Helvetica" font-size="15.0" fill="#000000" transform="matrix(1.00, 0.00, -0.00, -1.00, 750.1, 471.1)">m</text><text xml:space="preserve" font-family="Helvetica-Light,Helvetica" font-size="15.0" fill="#000000" transform="matrix(1.00, 0.00, -0.00, -1.00, 762.6, 471.1)">b</text><text xml:space="preserve" font-family="Helvetica-Light,Helvetica" font-size="15.0" fill="#000000" transform="matrix(1.00, 0.00, -0.00, -1.00, 771.8, 471.1)">i</text><text xml:space="preserve" font-family="Helvetica-Light,Helvetica" font-size="15.0" fill="#000000" transform="matrix(1.00, 0.00, -0.00, -1.00, 775.1, 471.1)">n</text><text xml:space="preserve" font-family="Helvetica-Light,Helvetica" font-size="15.0" fill="#000000" transform="matrix(1.00, 0.00, -0.00, -1.00, 783.5, 471.1)">e</text><text xml:space="preserve" font-family="Helvetica-Light,Helvetica" font-size="15.0" fill="#000000" transform="matrix(1.00, 0.00, -0.00, -1.00, 791.8, 471.1)">d</text><text xml:space="preserve" font-family="Helvetica-Light,Helvetica" font-size="15.0" fill="#000000" transform="matrix(1.00, 0.00, -0.00, -1.00, 801.0, 471.1)"> </text><text xml:space="preserve" font-family="Helvetica-Light,Helvetica" font-size="15.0" fill="#000000" transform="matrix(1.00, 0.00, -0.00, -1.00, 805.1, 471.1)">P</text><text xml:space="preserve" font-family="Helvetica-Light,Helvetica" font-size="15.0" fill="#000000" transform="matrix(1.00, 0.00, -0.00, -1.00, 814.3, 471.1)">r</text><text xml:space="preserve" font-family="Helvetica-Light,Helvetica" font-size="15.0" fill="#000000" transform="matrix(1.00, 0.00, -0.00, -1.00, 819.3, 471.1)">i</text><text xml:space="preserve" font-family="Helvetica-Light,Helvetica" font-size="15.0" fill="#000000" transform="matrix(1.00, 0.00, -0.00, -1.00, 822.6, 471.1)">c</text><text xml:space="preserve" font-family="Helvetica-Light,Helvetica" font-size="15.0" fill="#000000" transform="matrix(1.00, 0.00, -0.00, -1.00, 831.0, 471.1)">e</text><text xml:space="preserve" font-family="Helvetica-Bold,Helvetica" font-weight="bold" font-size="15.0" fill="#000000" transform="matrix(1.00, 0.00, -0.00, -1.00, 839.3, 471.1)"> </text><text xml:space="preserve" font-family="Helvetica-Bold,Helvetica" font-weight="bold" font-size="15.0" fill="#000000" transform="matrix(1.00, 0.00, -0.00, -1.00, 843.5, 471.1)">1</text><text xml:space="preserve" font-family="Helvetica-Bold,Helvetica" font-weight="bold" font-size="15.0" fill="#000000" transform="matrix(1.00, 0.00, -0.00, -1.00, 851.8, 471.1)">0</text><text xml:space="preserve" font-family="Helvetica-Bold,Helvetica" font-weight="bold" font-size="15.0" fill="#000000" transform="matrix(1.00, 0.00, -0.00, -1.00, 860.1, 471.1)">.</text><text xml:space="preserve" font-family="Helvetica-Bold,Helvetica" font-weight="bold" font-size="15.0" fill="#000000" transform="matrix(1.00, 0.00, -0.00, -1.00, 864.3, 471.1)">2</text><text xml:space="preserve" font-family="Helvetica-Bold,Helvetica" font-weight="bold" font-size="15.0" fill="#000000" transform="matrix(1.00, 0.00, -0.00, -1.00, 872.7, 471.1)">5</text></g></g><text xml:space="preserve" font-family="Helvetica-Bold,Helvetica" font-weight="bold" font-size="18.0" fill="#000000" transform="matrix(1.00, 0.00, -0.00, -1.00, 7.8, 514.4)">Q</text><text xml:space="preserve" font-family="Helvetica-Bold,Helvetica" font-weight="bold" font-size="18.0" fill="#000000" transform="matrix(1.00, 0.00, -0.00, -1.00, 21.8, 514.4)">u</text><text xml:space="preserve" font-family="Helvetica-Bold,Helvetica" font-weight="bold" font-size="18.0" fill="#000000" transform="matrix(1.00, 0.00, -0.00, -1.00, 32.8, 514.4)">i</text><text xml:space="preserve" font-family="Helvetica-Bold,Helvetica" font-weight="bold" font-size="18.0" fill="#000000" transform="matrix(1.00, 0.00, -0.00, -1.00, 37.8, 514.4)">c</text><text xml:space="preserve" font-family="Helvetica-Bold,Helvetica" font-weight="bold" font-size="18.0" fill="#000000" transform="matrix(1.00, 0.00, -0.00, -1.00, 47.8, 514.4)">k</text><text xml:space="preserve" font-family="Helvetica-Bold,Helvetica" font-weight="bold" font-size="18.0" fill="#000000" transform="matrix(1.00, 0.00, -0.00, -1.00, 57.8, 514.4)"> </text><text xml:space="preserve" font-family="Helvetica-Bold,Helvetica" font-weight="bold" font-size="18.0" fill="#000000" transform="matrix(1.00, 0.00, -0.00, -1.00, 62.8, 514.4)">M</text><text xml:space="preserve" font-family="Helvetica-Bold,Helvetica" font-weight="bold" font-size="18.0" fill="#000000" transform="matrix(1.00, 0.00, -0.00, -1.00, 77.8, 514.4)">u</text><text xml:space="preserve" font-family="Helvetica-Bold,Helvetica" font-weight="bold" font-size="18.0" fill="#000000" transform="matrix(1.00, 0.00, -0.00, -1.00, 88.8, 514.4)">l</text><text xml:space="preserve" font-family="Helvetica-Bold,Helvetica" font-weight="bold" font-size="18.0" fill="#000000" transform="matrix(1.00, 0.00, -0.00, -1.00, 93.8, 514.4)">t</text><text xml:space="preserve" font-family="Helvetica-Bold,Helvetica" font-weight="bold" font-size="18.0" fill="#000000" transform="matrix(1.00, 0.00, -0.00, -1.00, 99.8, 514.4)">i</text><text xml:space="preserve" font-family="Helvetica-Bold,Helvetica" font-weight="bold" font-size="18.0" fill="#000000" transform="matrix(1.00, 0.00, -0.00, -1.00, 104.8, 514.4)">s</text><path d="M 7.5 502.5 L 461.5 502.5 L 461.5 451.5 L 7.5 451.5 Z M 7.0 503.0 " fill="#EFEFEF"></path><path d="M 0.5 0.5 L 454.5 0.5 L 454.5 51.5 L 0.5 51.5 Z M 0.0 0.0 " fill="none" stroke="#218DC3" stroke-width="1.00" transform="matrix(1.00, 0.00, 0.00, -1.00, 7.0, 503.0)"></path><g><clipPath id="clip0x600001cb9740"><path d="M 6.6 452.2 L 462.0 452.2 L 462.0 502.0 L 6.6 502.0 Z M 6.6 452.2 "></path></clipPath><g clip-path="url(#clip0x600001cb9740)"><text xml:space="preserve" font-family="Helvetica-Bold,Helvetica" font-weight="bold" font-size="15.0" fill="#000000" transform="matrix(1.00, 0.00, -0.00, -1.00, 10.3, 471.1)"> </text><text xml:space="preserve" font-family="Helvetica-Bold,Helvetica" font-weight="bold" font-size="15.0" fill="#000000" transform="matrix(1.00, 0.00, -0.00, -1.00, 14.5, 471.1)"> </text><text xml:space="preserve" font-family="Helvetica-Bold,Helvetica" font-weight="bold" font-size="15.0" fill="#000000" transform="matrix(1.00, 0.00, -0.00, -1.00, 18.7, 471.1)"> </text><text xml:space="preserve" font-family="Helvetica-Bold,Helvetica" font-weight="bold" font-size="15.0" fill="#000000" transform="matrix(1.00, 0.00, -0.00, -1.00, 22.3, 471.1)">A</text><text xml:space="preserve" font-family="Helvetica-Bold,Helvetica" font-weight="bold" font-size="15.0" fill="#000000" transform="matrix(1.00, 0.00, -0.00, -1.00, 33.1, 471.1)">F</text><text xml:space="preserve" font-family="Helvetica-Bold,Helvetica" font-weight="bold" font-size="15.0" fill="#000000" transform="matrix(1.00, 0.00, -0.00, -1.00, 42.3, 471.1)">L</text><text xml:space="preserve" font-family="Helvetica-Bold,Helvetica" font-weight="bold" font-size="15.0" fill="#000000" transform="matrix(1.00, 0.00, -0.00, -1.00, 51.2, 471.1)"> </text><text xml:space="preserve" font-family="Helvetica-Bold,Helvetica" font-weight="bold" font-size="15.0" fill="#000000" transform="matrix(1.00, 0.00, -0.00, -1.00, 55.3, 471.1)"> </text><text xml:space="preserve" font-family="Helvetica-Bold,Helvetica" font-weight="bold" font-size="15.0" fill="#000000" transform="matrix(1.00, 0.00, -0.00, -1.00, 59.5, 471.1)">H</text><text xml:space="preserve" font-family="Helvetica-Bold,Helvetica" font-weight="bold" font-size="15.0" fill="#000000" transform="matrix(1.00, 0.00, -0.00, -1.00, 70.3, 471.1)">e</text><text xml:space="preserve" font-family="Helvetica-Bold,Helvetica" font-weight="bold" font-size="15.0" fill="#000000" transform="matrix(1.00, 0.00, -0.00, -1.00, 78.7, 471.1)">a</text><text xml:space="preserve" font-family="Helvetica-Bold,Helvetica" font-weight="bold" font-size="15.0" fill="#000000" transform="matrix(1.00, 0.00, -0.00, -1.00, 87.0, 471.1)">d</text><text xml:space="preserve" font-family="Helvetica-Bold,Helvetica" font-weight="bold" font-size="15.0" fill="#000000" transform="matrix(1.00, 0.00, -0.00, -1.00, 96.2, 471.1)"> </text><text xml:space="preserve" font-family="Helvetica-Bold,Helvetica" font-weight="bold" font-size="15.0" fill="#000000" transform="matrix(1.00, 0.00, -0.00, -1.00, 100.4, 471.1)">T</text><text xml:space="preserve" font-family="Helvetica-Bold,Helvetica" font-weight="bold" font-size="15.0" fill="#000000" transform="matrix(1.00, 0.00, -0.00, -1.00, 108.4, 471.1)">o</text><text xml:space="preserve" font-family="Helvetica-Bold,Helvetica" font-weight="bold" font-size="15.0" fill="#000000" transform="matrix(1.00, 0.00, -0.00, -1.00, 117.6, 471.1)"> </text><text xml:space="preserve" font-family="Helvetica-Bold,Helvetica" font-weight="bold" font-size="15.0" fill="#000000" transform="matrix(1.00, 0.00, -0.00, -1.00, 121.7, 471.1)">H</text><text xml:space="preserve" font-family="Helvetica-Bold,Helvetica" font-weight="bold" font-size="15.0" fill="#000000" transform="matrix(1.00, 0.00, -0.00, -1.00, 132.6, 471.1)">e</text><text xml:space="preserve" font-family="Helvetica-Bold,Helvetica" font-weight="bold" font-size="15.0" fill="#000000" transform="matrix(1.00, 0.00, -0.00, -1.00, 140.9, 471.1)">a</text><text xml:space="preserve" font-family="Helvetica-Bold,Helvetica" font-weight="bold" font-size="15.0" fill="#000000" transform="matrix(1.00, 0.00, -0.00, -1.00, 149.3, 471.1)">d</text><text xml:space="preserve" font-family="Helvetica-Bold,Helvetica" font-weight="bold" font-size="15.0" fill="#000000" transform="matrix(1.00, 0.00, -0.00, -1.00, 158.4, 471.1)"> </text><text xml:space="preserve" font-family="Helvetica-Bold,Helvetica" font-weight="bold" font-size="15.0" fill="#000000" transform="matrix(1.00, 0.00, -0.00, -1.00, 162.6, 471.1)">F</text><text xml:space="preserve" font-family="Helvetica-Bold,Helvetica" font-weight="bold" font-size="15.0" fill="#000000" transform="matrix(1.00, 0.00, -0.00, -1.00, 171.7, 471.1)">a</text><text xml:space="preserve" font-family="Helvetica-Bold,Helvetica" font-weight="bold" font-size="15.0" fill="#000000" transform="matrix(1.00, 0.00, -0.00, -1.00, 180.1, 471.1)">v</text><text xml:space="preserve" font-family="Helvetica-Bold,Helvetica" font-weight="bold" font-size="15.0" fill="#000000" transform="matrix(1.00, 0.00, -0.00, -1.00, 188.4, 471.1)">o</text><text xml:space="preserve" font-family="Helvetica-Bold,Helvetica" font-weight="bold" font-size="15.0" fill="#000000" transform="matrix(1.00, 0.00, -0.00, -1.00, 197.6, 471.1)">u</text><text xml:space="preserve" font-family="Helvetica-Bold,Helvetica" font-weight="bold" font-size="15.0" fill="#000000" transform="matrix(1.00, 0.00, -0.00, -1.00, 206.8, 471.1)">r</text><text xml:space="preserve" font-family="Helvetica-Bold,Helvetica" font-weight="bold" font-size="15.0" fill="#000000" transform="matrix(1.00, 0.00, -0.00, -1.00, 212.6, 471.1)">i</text><text xml:space="preserve" font-family="Helvetica-Bold,Helvetica" font-weight="bold" font-size="15.0" fill="#000000" transform="matrix(1.00, 0.00, -0.00, -1.00, 216.8, 471.1)">t</text><text xml:space="preserve" font-family="Helvetica-Bold,Helvetica" font-weight="bold" font-size="15.0" fill="#000000" transform="matrix(1.00, 0.00, -0.00, -1.00, 221.8, 471.1)">e</text><text xml:space="preserve" font-family="Helvetica-Bold,Helvetica" font-weight="bold" font-size="15.0" fill="#000000" transform="matrix(1.00, 0.00, -0.00, -1.00, 230.1, 471.1)">s</text><text xml:space="preserve" font-family="Helvetica-Bold,Helvetica" font-weight="bold" font-size="15.0" fill="#000000" transform="matrix(1.00, 0.00, -0.00, -1.00, 238.4, 471.1)"> </text><text xml:space="preserve" font-family="Helvetica-Bold,Helvetica" font-weight="bold" font-size="15.0" fill="#000000" transform="matrix(1.00, 0.00, -0.00, -1.00, 242.6, 471.1)"> </text><text xml:space="preserve" font-family="Helvetica-Bold,Helvetica" font-weight="bold" font-size="15.0" fill="#000000" transform="matrix(1.00, 0.00, -0.00, -1.00, 246.8, 471.1)"> </text><text xml:space="preserve" font-family="Helvetica-Light,Helvetica" font-size="15.0" fill="#000000" transform="matrix(1.00, 0.00, -0.00, -1.00, 251.0, 471.1)">|</text><text xml:space="preserve" font-family="Helvetica-Bold,Helvetica" font-weight="bold" font-size="15.0" fill="#000000" transform="matrix(1.00, 0.00, -0.00, -1.00, 254.3, 471.1)"> </text><text xml:space="preserve" font-family="Helvetica-Bold,Helvetica" font-weight="bold" font-size="15.0" fill="#000000" transform="matrix(1.00, 0.00, -0.00, -1.00, 258.5, 471.1)"> </text><text xml:space="preserve" font-family="Helvetica-Light,Helvetica" font-size="15.0" fill="#000000" transform="matrix(1.00, 0.00, -0.00, -1.00, 262.6, 471.1)">C</text><text xml:space="preserve" font-family="Helvetica-Light,Helvetica" font-size="15.0" fill="#000000" transform="matrix(1.00, 0.00, -0.00, -1.00, 273.5, 471.1)">o</text><text xml:space="preserve" font-family="Helvetica-Light,Helvetica" font-size="15.0" fill="#000000" transform="matrix(1.00, 0.00, -0.00, -1.00, 281.8, 471.1)">m</text><text xml:space="preserve" font-family="Helvetica-Light,Helvetica" font-size="15.0" fill="#000000" transform="matrix(1.00, 0.00, -0.00, -1.00, 294.3, 471.1)">b</text><text xml:space="preserve" font-family="Helvetica-Light,Helvetica" font-size="15.0" fill="#000000" transform="matrix(1.00, 0.00, -0.00, -1.00, 303.5, 471.1)">i</text><text xml:space="preserve" font-family="Helvetica-Light,Helvetica" font-size="15.0" fill="#000000" transform="matrix(1.00, 0.00, -0.00, -1.00, 306.8, 471.1)">n</text><text xml:space="preserve" font-family="Helvetica-Light,Helvetica" font-size="15.0" fill="#000000" transform="matrix(1.00, 0.00, -0.00, -1.00, 315.1, 471.1)">e</text><text xml:space="preserve" font-family="Helvetica-Light,Helvetica" font-size="15.0" fill="#000000" transform="matrix(1.00, 0.00, -0.00, -1.00, 323.5, 471.1)">d</text><text xml:space="preserve" font-family="Helvetica-Light,Helvetica" font-size="15.0" fill="#000000" transform="matrix(1.00, 0.00, -0.00, -1.00, 332.6, 471.1)"> </text><text xml:space="preserve" font-family="Helvetica-Light,Helvetica" font-size="15.0" fill="#000000" transform="matrix(1.00, 0.00, -0.00, -1.00, 336.8, 471.1)">P</text><text xml:space="preserve" font-family="Helvetica-Light,Helvetica" font-size="15.0" fill="#000000" transform="matrix(1.00, 0.00, -0.00, -1.00, 346.0, 471.1)">r</text><text xml:space="preserve" font-family="Helvetica-Light,Helvetica" font-size="15.0" fill="#000000" transform="matrix(1.00, 0.00, -0.00, -1.00, 351.0, 471.1)">i</text><text xml:space="preserve" font-family="Helvetica-Light,Helvetica" font-size="15.0" fill="#000000" transform="matrix(1.00, 0.00, -0.00, -1.00, 354.3, 471.1)">c</text><text xml:space="preserve" font-family="Helvetica-Light,Helvetica" font-size="15.0" fill="#000000" transform="matrix(1.00, 0.00, -0.00, -1.00, 362.6, 471.1)">e</text><text xml:space="preserve" font-family="Helvetica-Bold,Helvetica" font-weight="bold" font-size="15.0" fill="#000000" transform="matrix(1.00, 0.00, -0.00, -1.00, 371.0, 471.1)"> </text><text xml:space="preserve" font-family="Helvetica-Bold,Helvetica" font-weight="bold" font-size="15.0" fill="#000000" transform="matrix(1.00, 0.00, -0.00, -1.00, 375.1, 471.1)">1</text><text xml:space="preserve" font-family="Helvetica-Bold,Helvetica" font-weight="bold" font-size="15.0" fill="#000000" transform="matrix(1.00, 0.00, -0.00, -1.00, 383.5, 471.1)">2</text><text xml:space="preserve" font-family="Helvetica-Bold,Helvetica" font-weight="bold" font-size="15.0" fill="#000000" transform="matrix(1.00, 0.00, -0.00, -1.00, 391.8, 471.1)">.</text><text xml:space="preserve" font-family="Helvetica-Bold,Helvetica" font-weight="bold" font-size="15.0" fill="#000000" transform="matrix(1.00, 0.00, -0.00, -1.00, 396.0, 471.1)">5</text><text xml:space="preserve" font-family="Helvetica-Bold,Helvetica" font-weight="bold" font-size="15.0" fill="#000000" transform="matrix(1.00, 0.00, -0.00, -1.00, 404.4, 471.1)">6</text></g></g><path d="M 998.5 538.5 L 1204.5 538.5 L 1204.5 8.5 L 998.5 8.5 Z M 998.4 538.5 " fill="#FEFFFE"></path><path d="M 0.1 -0.0 L 206.1 -0.0 L 206.1 530.0 L 0.1 530.0 Z M 0.0 0.0 " fill="none" stroke="#FEFFFE" stroke-width="1.00" transform="matrix(1.00, 0.00, 0.00, -1.00, 998.4, 538.5)"></path><g><clipPath id="clip0x6000032a7a40"><path d="M 998.0 9.2 L 1205.0 9.2 L 1205.0 537.5 L 998.0 537.5 Z M 998.0 9.2 "></path></clipPath><g clip-path="url(#clip0x6000032a7a40)"><text xml:space="preserve" font-family="Helvetica-Bold,Helvetica" font-weight="bold" font-size="15.0" fill="#FEFFFE" transform="matrix(1.00, 0.00, -0.00, -1.00, 1086.9, 267.6)">1</text><text xml:space="preserve" font-family="Helvetica-Bold,Helvetica" font-weight="bold" font-size="15.0" fill="#FEFFFE" transform="matrix(1.00, 0.00, -0.00, -1.00, 1095.3, 267.6)">.</text><text xml:space="preserve" font-family="Helvetica-Bold,Helvetica" font-weight="bold" font-size="15.0" fill="#FEFFFE" transform="matrix(1.00, 0.00, -0.00, -1.00, 1099.4, 267.6)">5</text><text xml:space="preserve" font-family="Helvetica-Bold,Helvetica" font-weight="bold" font-size="15.0" fill="#FEFFFE" transform="matrix(1.00, 0.00, -0.00, -1.00, 1107.8, 267.6)">8</text></g></g><path d="M 1013.5 511.5 L 1190.5 511.5 L 1190.5 463.5 L 1013.5 463.5 Z M 1013.0 511.5 " fill="#52575F"></path><path d="M 0.5 0.0 L 177.5 0.0 L 177.5 48.0 L 0.5 48.0 Z M 0.0 0.0 " fill="none" stroke="#A6AAA8" stroke-width="1.00" transform="matrix(1.00, 0.00, 0.00, -1.00, 1013.0, 511.5)"></path><g><clipPath id="clip0x6000032a5b20"><path d="M 1012.6 464.8 L 1190.4 464.8 L 1190.4 510.5 L 1012.6 510.5 Z M 1012.6 464.8 "></path></clipPath><g clip-path="url(#clip0x6000032a5b20)"><text xml:space="preserve" font-family="Helvetica-Bold,Helvetica" font-weight="bold" font-size="15.0" fill="#FEFFFE" transform="matrix(1.00, 0.00, -0.00, -1.00, 1049.0, 481.7)">M</text><text xml:space="preserve" font-family="Helvetica-Bold,Helvetica" font-weight="bold" font-size="15.0" fill="#FEFFFE" transform="matrix(1.00, 0.00, -0.00, -1.00, 1061.5, 481.7)">y</text><text xml:space="preserve" font-family="Helvetica-Bold,Helvetica" font-weight="bold" font-size="15.0" fill="#FEFFFE" transform="matrix(1.00, 0.00, -0.00, -1.00, 1069.8, 481.7)"> </text><text xml:space="preserve" font-family="Helvetica-Bold,Helvetica" font-weight="bold" font-size="15.0" fill="#FEFFFE" transform="matrix(1.00, 0.00, -0.00, -1.00, 1074.0, 481.7)">B</text><text xml:space="preserve" font-family="Helvetica-Bold,Helvetica" font-weight="bold" font-size="15.0" fill="#FEFFFE" transform="matrix(1.00, 0.00, -0.00, -1.00, 1084.8, 481.7)">e</text><text xml:space="preserve" font-family="Helvetica-Bold,Helvetica" font-weight="bold" font-size="15.0" fill="#FEFFFE" transform="matrix(1.00, 0.00, -0.00, -1.00, 1093.2, 481.7)">t</text><text xml:space="preserve" font-family="Helvetica-Bold,Helvetica" font-weight="bold" font-size="15.0" fill="#FEFFFE" transform="matrix(1.00, 0.00, -0.00, -1.00, 1098.2, 481.7)"> </text><text xml:space="preserve" font-family="Helvetica-Bold,Helvetica" font-weight="bold" font-size="15.0" fill="#FEFFFE" transform="matrix(1.00, 0.00, -0.00, -1.00, 1102.3, 481.7)">B</text><text xml:space="preserve" font-family="Helvetica-Bold,Helvetica" font-weight="bold" font-size="15.0" fill="#FEFFFE" transform="matrix(1.00, 0.00, -0.00, -1.00, 1113.2, 481.7)">u</text><text xml:space="preserve" font-family="Helvetica-Bold,Helvetica" font-weight="bold" font-size="15.0" fill="#FEFFFE" transform="matrix(1.00, 0.00, -0.00, -1.00, 1122.3, 481.7)">i</text><text xml:space="preserve" font-family="Helvetica-Bold,Helvetica" font-weight="bold" font-size="15.0" fill="#FEFFFE" transform="matrix(1.00, 0.00, -0.00, -1.00, 1126.5, 481.7)">l</text><text xml:space="preserve" font-family="Helvetica-Bold,Helvetica" font-weight="bold" font-size="15.0" fill="#FEFFFE" transform="matrix(1.00, 0.00, -0.00, -1.00, 1130.7, 481.7)">d</text><text xml:space="preserve" font-family="Helvetica-Bold,Helvetica" font-weight="bold" font-size="15.0" fill="#FEFFFE" transform="matrix(1.00, 0.00, -0.00, -1.00, 1139.8, 481.7)">e</text><text xml:space="preserve" font-family="Helvetica-Bold,Helvetica" font-weight="bold" font-size="15.0" fill="#FEFFFE" transform="matrix(1.00, 0.00, -0.00, -1.00, 1148.2, 481.7)">r</text></g></g></g></svg>