<?xml version="1.0" encoding="UTF-8" standalone="no"?><svg xmlns="http://www.w3.org/2000/svg" xmlns:xlink="http://www.w3.org/1999/xlink" clip-rule="evenodd" stroke-miterlimit="10" viewBox="0 0 1200 720"><desc>SVG generated by Keynote</desc><defs></defs><g transform="matrix(1.00, 0.00, -0.00, -1.00, 0.0, 720.0)"><path d="M 0.0 720.0 L 1200.0 720.0 L 1200.0 0.0 L 0.0 0.0 Z M 0.0 720.0 " fill="#FEFFFF"></path><image xlink:href="../../15D62224-CCE9-436C-9322-CA4CDAFA7864/assets/3D960954F0BD8DF452B8B9C87BE57B82.png" width="1268.00" height="1073.00" transform="matrix(0.96, 0.00, -0.00, -0.96, 1.2, 774.3)"></image><path d="M 6.0 503.0 L 994.0 503.0 L 994.0 451.0 L 6.0 451.0 Z M 6.0 503.5 " fill="#FEFFFE"></path><path d="M -17.0 538.0 L 994.0 538.0 L 994.0 437.0 L -17.0 437.0 Z M -17.2 538.0 " fill="#FEFFFE"></path><path d="M 914.0 503.0 L 983.0 503.0 L 983.0 451.0 L 914.0 451.0 Z M 914.0 503.0 " fill="#DCDDE0"></path><text xml:space="preserve" font-family="Helvetica-Bold,Helvetica" font-weight="bold" font-size="18.0" fill="#52575F" transform="matrix(1.00, 0.00, -0.00, -1.00, 925.3, 470.2)">1</text><text xml:space="preserve" font-family="Helvetica-Bold,Helvetica" font-weight="bold" font-size="18.0" fill="#52575F" transform="matrix(1.00, 0.00, -0.00, -1.00, 935.3, 470.2)">0</text><text xml:space="preserve" font-family="Helvetica-Bold,Helvetica" font-weight="bold" font-size="18.0" fill="#52575F" transform="matrix(1.00, 0.00, -0.00, -1.00, 945.3, 470.2)">.</text><text xml:space="preserve" font-family="Helvetica-Bold,Helvetica" font-weight="bold" font-size="18.0" fill="#52575F" transform="matrix(1.00, 0.00, -0.00, -1.00, 950.3, 470.2)">2</text><text xml:space="preserve" font-family="Helvetica-Bold,Helvetica" font-weight="bold" font-size="18.0" fill="#52575F" transform="matrix(1.00, 0.00, -0.00, -1.00, 960.3, 470.2)">5</text><path d="M 847.0 503.0 L 983.0 503.0 L 983.0 451.0 L 847.0 451.0 Z M 847.0 503.0 " fill="#DCDDE0"></path><g><clipPath id="clip0x608002aa82e0"><path d="M 844.8 451.2 L 984.9 451.2 L 984.9 503.0 L 844.8 503.0 Z M 844.8 451.2 "></path></clipPath><g clip-path="url(#clip0x608002aa82e0)"><text xml:space="preserve" font-family="Helvetica-Bold,Helvetica" font-weight="bold" font-size="18.0" fill="#52575F" transform="matrix(1.00, 0.00, -0.00, -1.00, 892.3, 469.8)">1</text><text xml:space="preserve" font-family="Helvetica-Bold,Helvetica" font-weight="bold" font-size="18.0" fill="#52575F" transform="matrix(1.00, 0.00, -0.00, -1.00, 902.4, 469.8)">2</text><text xml:space="preserve" font-family="Helvetica-Bold,Helvetica" font-weight="bold" font-size="18.0" fill="#52575F" transform="matrix(1.00, 0.00, -0.00, -1.00, 912.4, 469.8)">.</text><text xml:space="preserve" font-family="Helvetica-Bold,Helvetica" font-weight="bold" font-size="18.0" fill="#52575F" transform="matrix(1.00, 0.00, -0.00, -1.00, 917.4, 469.8)">5</text><text xml:space="preserve" font-family="Helvetica-Bold,Helvetica" font-weight="bold" font-size="18.0" fill="#52575F" transform="matrix(1.00, 0.00, -0.00, -1.00, 927.4, 469.8)">6</text></g></g><path d="M 9.0 503.0 L 334.0 503.0 L 334.0 451.0 L 9.0 451.0 Z M 9.0 503.0 " fill="#EFEFEF"></path><g><clipPath id="clip0x608002ab9b60"><path d="M 7.6 451.2 L 335.5 451.2 L 335.5 503.0 L 7.6 503.0 Z M 7.6 451.2 "></path></clipPath><g clip-path="url(#clip0x608002ab9b60)"><text xml:space="preserve" font-family="Helvetica-Bold,Helvetica" font-weight="bold" font-size="15.0" fill="#000000" transform="matrix(1.00, 0.00, -0.00, -1.00, 11.4, 471.1)"> </text><text xml:space="preserve" font-family="Helvetica-Bold,Helvetica" font-weight="bold" font-size="15.0" fill="#000000" transform="matrix(1.00, 0.00, -0.00, -1.00, 15.5, 471.1)"> </text><text xml:space="preserve" font-family="Helvetica-Bold,Helvetica" font-weight="bold" font-size="15.0" fill="#000000" transform="matrix(1.00, 0.00, -0.00, -1.00, 19.7, 471.1)"> </text><text xml:space="preserve" font-family="Helvetica-Bold,Helvetica" font-weight="bold" font-size="15.0" fill="#000000" transform="matrix(1.00, 0.00, -0.00, -1.00, 23.3, 471.1)">A</text><text xml:space="preserve" font-family="Helvetica-Bold,Helvetica" font-weight="bold" font-size="15.0" fill="#000000" transform="matrix(1.00, 0.00, -0.00, -1.00, 34.2, 471.1)">F</text><text xml:space="preserve" font-family="Helvetica-Bold,Helvetica" font-weight="bold" font-size="15.0" fill="#000000" transform="matrix(1.00, 0.00, -0.00, -1.00, 43.3, 471.1)">L</text><text xml:space="preserve" font-family="Helvetica-Bold,Helvetica" font-weight="bold" font-size="15.0" fill="#000000" transform="matrix(1.00, 0.00, -0.00, -1.00, 52.2, 471.1)"> </text><text xml:space="preserve" font-family="Helvetica-Bold,Helvetica" font-weight="bold" font-size="15.0" fill="#000000" transform="matrix(1.00, 0.00, -0.00, -1.00, 56.4, 471.1)"> </text><text xml:space="preserve" font-family="Helvetica-Bold,Helvetica" font-weight="bold" font-size="15.0" fill="#000000" transform="matrix(1.00, 0.00, -0.00, -1.00, 60.5, 471.1)">H</text><text xml:space="preserve" font-family="Helvetica-Bold,Helvetica" font-weight="bold" font-size="15.0" fill="#000000" transform="matrix(1.00, 0.00, -0.00, -1.00, 71.4, 471.1)">e</text><text xml:space="preserve" font-family="Helvetica-Bold,Helvetica" font-weight="bold" font-size="15.0" fill="#000000" transform="matrix(1.00, 0.00, -0.00, -1.00, 79.7, 471.1)">a</text><text xml:space="preserve" font-family="Helvetica-Bold,Helvetica" font-weight="bold" font-size="15.0" fill="#000000" transform="matrix(1.00, 0.00, -0.00, -1.00, 88.1, 471.1)">d</text><text xml:space="preserve" font-family="Helvetica-Bold,Helvetica" font-weight="bold" font-size="15.0" fill="#000000" transform="matrix(1.00, 0.00, -0.00, -1.00, 97.2, 471.1)"> </text><text xml:space="preserve" font-family="Helvetica-Bold,Helvetica" font-weight="bold" font-size="15.0" fill="#000000" transform="matrix(1.00, 0.00, -0.00, -1.00, 101.4, 471.1)">T</text><text xml:space="preserve" font-family="Helvetica-Bold,Helvetica" font-weight="bold" font-size="15.0" fill="#000000" transform="matrix(1.00, 0.00, -0.00, -1.00, 109.4, 471.1)">o</text><text xml:space="preserve" font-family="Helvetica-Bold,Helvetica" font-weight="bold" font-size="15.0" fill="#000000" transform="matrix(1.00, 0.00, -0.00, -1.00, 118.6, 471.1)"> </text><text xml:space="preserve" font-family="Helvetica-Bold,Helvetica" font-weight="bold" font-size="15.0" fill="#000000" transform="matrix(1.00, 0.00, -0.00, -1.00, 122.8, 471.1)">H</text><text xml:space="preserve" font-family="Helvetica-Bold,Helvetica" font-weight="bold" font-size="15.0" fill="#000000" transform="matrix(1.00, 0.00, -0.00, -1.00, 133.6, 471.1)">e</text><text xml:space="preserve" font-family="Helvetica-Bold,Helvetica" font-weight="bold" font-size="15.0" fill="#000000" transform="matrix(1.00, 0.00, -0.00, -1.00, 142.0, 471.1)">a</text><text xml:space="preserve" font-family="Helvetica-Bold,Helvetica" font-weight="bold" font-size="15.0" fill="#000000" transform="matrix(1.00, 0.00, -0.00, -1.00, 150.3, 471.1)">d</text><text xml:space="preserve" font-family="Helvetica-Bold,Helvetica" font-weight="bold" font-size="15.0" fill="#000000" transform="matrix(1.00, 0.00, -0.00, -1.00, 159.5, 471.1)"> </text><text xml:space="preserve" font-family="Helvetica-Bold,Helvetica" font-weight="bold" font-size="15.0" fill="#000000" transform="matrix(1.00, 0.00, -0.00, -1.00, 163.6, 471.1)">F</text><text xml:space="preserve" font-family="Helvetica-Bold,Helvetica" font-weight="bold" font-size="15.0" fill="#000000" transform="matrix(1.00, 0.00, -0.00, -1.00, 172.8, 471.1)">a</text><text xml:space="preserve" font-family="Helvetica-Bold,Helvetica" font-weight="bold" font-size="15.0" fill="#000000" transform="matrix(1.00, 0.00, -0.00, -1.00, 181.1, 471.1)">v</text><text xml:space="preserve" font-family="Helvetica-Bold,Helvetica" font-weight="bold" font-size="15.0" fill="#000000" transform="matrix(1.00, 0.00, -0.00, -1.00, 189.5, 471.1)">o</text><text xml:space="preserve" font-family="Helvetica-Bold,Helvetica" font-weight="bold" font-size="15.0" fill="#000000" transform="matrix(1.00, 0.00, -0.00, -1.00, 198.6, 471.1)">u</text><text xml:space="preserve" font-family="Helvetica-Bold,Helvetica" font-weight="bold" font-size="15.0" fill="#000000" transform="matrix(1.00, 0.00, -0.00, -1.00, 207.8, 471.1)">r</text><text xml:space="preserve" font-family="Helvetica-Bold,Helvetica" font-weight="bold" font-size="15.0" fill="#000000" transform="matrix(1.00, 0.00, -0.00, -1.00, 213.6, 471.1)">i</text><text xml:space="preserve" font-family="Helvetica-Bold,Helvetica" font-weight="bold" font-size="15.0" fill="#000000" transform="matrix(1.00, 0.00, -0.00, -1.00, 217.8, 471.1)">t</text><text xml:space="preserve" font-family="Helvetica-Bold,Helvetica" font-weight="bold" font-size="15.0" fill="#000000" transform="matrix(1.00, 0.00, -0.00, -1.00, 222.8, 471.1)">e</text><text xml:space="preserve" font-family="Helvetica-Bold,Helvetica" font-weight="bold" font-size="15.0" fill="#000000" transform="matrix(1.00, 0.00, -0.00, -1.00, 231.1, 471.1)">s</text></g></g><path d="M 527.5 502.5 L 981.5 502.5 L 981.5 451.5 L 527.5 451.5 Z M 527.0 503.0 " fill="#EFEFEF"></path><path d="M 0.5 0.5 L 454.5 0.5 L 454.5 51.5 L 0.5 51.5 Z M 0.0 0.0 " fill="none" stroke="#218DC3" stroke-width="1.00" transform="matrix(1.00, 0.00, 0.00, -1.00, 527.0, 503.0)"></path><g><clipPath id="clip0x608002aa3660"><path d="M 526.6 452.2 L 982.0 452.2 L 982.0 502.0 L 526.6 502.0 Z M 526.6 452.2 "></path></clipPath><g clip-path="url(#clip0x608002aa3660)"><text xml:space="preserve" font-family="Helvetica-Bold,Helvetica" font-weight="bold" font-size="15.0" fill="#000000" transform="matrix(1.00, 0.00, -0.00, -1.00, 530.3, 471.1)"> </text><text xml:space="preserve" font-family="Helvetica-Bold,Helvetica" font-weight="bold" font-size="15.0" fill="#000000" transform="matrix(1.00, 0.00, -0.00, -1.00, 534.5, 471.1)"> </text><text xml:space="preserve" font-family="Helvetica-Bold,Helvetica" font-weight="bold" font-size="15.0" fill="#000000" transform="matrix(1.00, 0.00, -0.00, -1.00, 538.7, 471.1)"> </text><text xml:space="preserve" font-family="Helvetica-Bold,Helvetica" font-weight="bold" font-size="15.0" fill="#000000" transform="matrix(1.00, 0.00, -0.00, -1.00, 542.8, 471.1)">P</text><text xml:space="preserve" font-family="Helvetica-Bold,Helvetica" font-weight="bold" font-size="15.0" fill="#000000" transform="matrix(1.00, 0.00, -0.00, -1.00, 552.8, 471.1)">i</text><text xml:space="preserve" font-family="Helvetica-Bold,Helvetica" font-weight="bold" font-size="15.0" fill="#000000" transform="matrix(1.00, 0.00, -0.00, -1.00, 557.0, 471.1)">c</text><text xml:space="preserve" font-family="Helvetica-Bold,Helvetica" font-weight="bold" font-size="15.0" fill="#000000" transform="matrix(1.00, 0.00, -0.00, -1.00, 565.4, 471.1)">k</text><text xml:space="preserve" font-family="Helvetica-Bold,Helvetica" font-weight="bold" font-size="15.0" fill="#000000" transform="matrix(1.00, 0.00, -0.00, -1.00, 573.7, 471.1)"> </text><text xml:space="preserve" font-family="Helvetica-Bold,Helvetica" font-weight="bold" font-size="15.0" fill="#000000" transform="matrix(1.00, 0.00, -0.00, -1.00, 577.3, 471.1)">A</text><text xml:space="preserve" font-family="Helvetica-Bold,Helvetica" font-weight="bold" font-size="15.0" fill="#000000" transform="matrix(1.00, 0.00, -0.00, -1.00, 588.1, 471.1)">F</text><text xml:space="preserve" font-family="Helvetica-Bold,Helvetica" font-weight="bold" font-size="15.0" fill="#000000" transform="matrix(1.00, 0.00, -0.00, -1.00, 597.3, 471.1)">L</text><text xml:space="preserve" font-family="Helvetica-Bold,Helvetica" font-weight="bold" font-size="15.0" fill="#000000" transform="matrix(1.00, 0.00, -0.00, -1.00, 606.2, 471.1)"> </text><text xml:space="preserve" font-family="Helvetica-Bold,Helvetica" font-weight="bold" font-size="15.0" fill="#000000" transform="matrix(1.00, 0.00, -0.00, -1.00, 610.4, 471.1)"> </text><text xml:space="preserve" font-family="Helvetica-Bold,Helvetica" font-weight="bold" font-size="15.0" fill="#000000" transform="matrix(1.00, 0.00, -0.00, -1.00, 614.5, 471.1)">L</text><text xml:space="preserve" font-family="Helvetica-Bold,Helvetica" font-weight="bold" font-size="15.0" fill="#000000" transform="matrix(1.00, 0.00, -0.00, -1.00, 623.7, 471.1)">i</text><text xml:space="preserve" font-family="Helvetica-Bold,Helvetica" font-weight="bold" font-size="15.0" fill="#000000" transform="matrix(1.00, 0.00, -0.00, -1.00, 627.9, 471.1)">n</text><text xml:space="preserve" font-family="Helvetica-Bold,Helvetica" font-weight="bold" font-size="15.0" fill="#000000" transform="matrix(1.00, 0.00, -0.00, -1.00, 637.0, 471.1)">e</text><text xml:space="preserve" font-family="Helvetica-Bold,Helvetica" font-weight="bold" font-size="15.0" fill="#000000" transform="matrix(1.00, 0.00, -0.00, -1.00, 645.4, 471.1)"> </text><text xml:space="preserve" font-family="Helvetica-Bold,Helvetica" font-weight="bold" font-size="15.0" fill="#000000" transform="matrix(1.00, 0.00, -0.00, -1.00, 649.5, 471.1)">H</text><text xml:space="preserve" font-family="Helvetica-Bold,Helvetica" font-weight="bold" font-size="15.0" fill="#000000" transform="matrix(1.00, 0.00, -0.00, -1.00, 660.4, 471.1)">o</text><text xml:space="preserve" font-family="Helvetica-Bold,Helvetica" font-weight="bold" font-size="15.0" fill="#000000" transform="matrix(1.00, 0.00, -0.00, -1.00, 669.5, 471.1)">m</text><text xml:space="preserve" font-family="Helvetica-Bold,Helvetica" font-weight="bold" font-size="15.0" fill="#000000" transform="matrix(1.00, 0.00, -0.00, -1.00, 682.9, 471.1)">e</text><text xml:space="preserve" font-family="Helvetica-Bold,Helvetica" font-weight="bold" font-size="15.0" fill="#000000" transform="matrix(1.00, 0.00, -0.00, -1.00, 691.2, 471.1)"> </text><text xml:space="preserve" font-family="Helvetica-Bold,Helvetica" font-weight="bold" font-size="15.0" fill="#000000" transform="matrix(1.00, 0.00, -0.00, -1.00, 695.4, 471.1)">T</text><text xml:space="preserve" font-family="Helvetica-Bold,Helvetica" font-weight="bold" font-size="15.0" fill="#000000" transform="matrix(1.00, 0.00, -0.00, -1.00, 703.4, 471.1)">e</text><text xml:space="preserve" font-family="Helvetica-Bold,Helvetica" font-weight="bold" font-size="15.0" fill="#000000" transform="matrix(1.00, 0.00, -0.00, -1.00, 711.8, 471.1)">a</text><text xml:space="preserve" font-family="Helvetica-Bold,Helvetica" font-weight="bold" font-size="15.0" fill="#000000" transform="matrix(1.00, 0.00, -0.00, -1.00, 720.1, 471.1)">m</text><text xml:space="preserve" font-family="Helvetica-Bold,Helvetica" font-weight="bold" font-size="15.0" fill="#000000" transform="matrix(1.00, 0.00, -0.00, -1.00, 733.5, 471.1)">s</text><text xml:space="preserve" font-family="Helvetica-Bold,Helvetica" font-weight="bold" font-size="15.0" fill="#000000" transform="matrix(1.00, 0.00, -0.00, -1.00, 741.8, 471.1)"> </text><text xml:space="preserve" font-family="Helvetica-Bold,Helvetica" font-weight="bold" font-size="15.0" fill="#000000" transform="matrix(1.00, 0.00, -0.00, -1.00, 746.0, 471.1)"> </text><text xml:space="preserve" font-family="Helvetica-Bold,Helvetica" font-weight="bold" font-size="15.0" fill="#000000" transform="matrix(1.00, 0.00, -0.00, -1.00, 750.1, 471.1)"> </text><text xml:space="preserve" font-family="Helvetica-Light,Helvetica" font-size="15.0" fill="#000000" transform="matrix(1.00, 0.00, -0.00, -1.00, 754.3, 471.1)">|</text><text xml:space="preserve" font-family="Helvetica-Bold,Helvetica" font-weight="bold" font-size="15.0" fill="#000000" transform="matrix(1.00, 0.00, -0.00, -1.00, 757.6, 471.1)"> </text><text xml:space="preserve" font-family="Helvetica-Bold,Helvetica" font-weight="bold" font-size="15.0" fill="#000000" transform="matrix(1.00, 0.00, -0.00, -1.00, 761.8, 471.1)"> </text><text xml:space="preserve" font-family="Helvetica-Light,Helvetica" font-size="15.0" fill="#000000" transform="matrix(1.00, 0.00, -0.00, -1.00, 766.0, 471.1)">C</text><text xml:space="preserve" font-family="Helvetica-Light,Helvetica" font-size="15.0" fill="#000000" transform="matrix(1.00, 0.00, -0.00, -1.00, 776.8, 471.1)">o</text><text xml:space="preserve" font-family="Helvetica-Light,Helvetica" font-size="15.0" fill="#000000" transform="matrix(1.00, 0.00, -0.00, -1.00, 785.2, 471.1)">m</text><text xml:space="preserve" font-family="Helvetica-Light,Helvetica" font-size="15.0" fill="#000000" transform="matrix(1.00, 0.00, -0.00, -1.00, 797.6, 471.1)">b</text><text xml:space="preserve" font-family="Helvetica-Light,Helvetica" font-size="15.0" fill="#000000" transform="matrix(1.00, 0.00, -0.00, -1.00, 806.8, 471.1)">i</text><text xml:space="preserve" font-family="Helvetica-Light,Helvetica" font-size="15.0" fill="#000000" transform="matrix(1.00, 0.00, -0.00, -1.00, 810.1, 471.1)">n</text><text xml:space="preserve" font-family="Helvetica-Light,Helvetica" font-size="15.0" fill="#000000" transform="matrix(1.00, 0.00, -0.00, -1.00, 818.5, 471.1)">e</text><text xml:space="preserve" font-family="Helvetica-Light,Helvetica" font-size="15.0" fill="#000000" transform="matrix(1.00, 0.00, -0.00, -1.00, 826.8, 471.1)">d</text><text xml:space="preserve" font-family="Helvetica-Light,Helvetica" font-size="15.0" fill="#000000" transform="matrix(1.00, 0.00, -0.00, -1.00, 836.0, 471.1)"> </text><text xml:space="preserve" font-family="Helvetica-Light,Helvetica" font-size="15.0" fill="#000000" transform="matrix(1.00, 0.00, -0.00, -1.00, 840.2, 471.1)">P</text><text xml:space="preserve" font-family="Helvetica-Light,Helvetica" font-size="15.0" fill="#000000" transform="matrix(1.00, 0.00, -0.00, -1.00, 849.3, 471.1)">r</text><text xml:space="preserve" font-family="Helvetica-Light,Helvetica" font-size="15.0" fill="#000000" transform="matrix(1.00, 0.00, -0.00, -1.00, 854.3, 471.1)">i</text><text xml:space="preserve" font-family="Helvetica-Light,Helvetica" font-size="15.0" fill="#000000" transform="matrix(1.00, 0.00, -0.00, -1.00, 857.6, 471.1)">c</text><text xml:space="preserve" font-family="Helvetica-Light,Helvetica" font-size="15.0" fill="#000000" transform="matrix(1.00, 0.00, -0.00, -1.00, 866.0, 471.1)">e</text><text xml:space="preserve" font-family="Helvetica-Bold,Helvetica" font-weight="bold" font-size="15.0" fill="#000000" transform="matrix(1.00, 0.00, -0.00, -1.00, 874.3, 471.1)"> </text><text xml:space="preserve" font-family="Helvetica-Bold,Helvetica" font-weight="bold" font-size="15.0" fill="#000000" transform="matrix(1.00, 0.00, -0.00, -1.00, 878.5, 471.1)">1</text><text xml:space="preserve" font-family="Helvetica-Bold,Helvetica" font-weight="bold" font-size="15.0" fill="#000000" transform="matrix(1.00, 0.00, -0.00, -1.00, 886.8, 471.1)">0</text><text xml:space="preserve" font-family="Helvetica-Bold,Helvetica" font-weight="bold" font-size="15.0" fill="#000000" transform="matrix(1.00, 0.00, -0.00, -1.00, 895.2, 471.1)">.</text><text xml:space="preserve" font-family="Helvetica-Bold,Helvetica" font-weight="bold" font-size="15.0" fill="#000000" transform="matrix(1.00, 0.00, -0.00, -1.00, 899.3, 471.1)">2</text><text xml:space="preserve" font-family="Helvetica-Bold,Helvetica" font-weight="bold" font-size="15.0" fill="#000000" transform="matrix(1.00, 0.00, -0.00, -1.00, 907.7, 471.1)">5</text></g></g><text xml:space="preserve" font-family="Helvetica-Bold,Helvetica" font-weight="bold" font-size="18.0" fill="#000000" transform="matrix(1.00, 0.00, -0.00, -1.00, 5.8, 514.4)">Q</text><text xml:space="preserve" font-family="Helvetica-Bold,Helvetica" font-weight="bold" font-size="18.0" fill="#000000" transform="matrix(1.00, 0.00, -0.00, -1.00, 19.8, 514.4)">u</text><text xml:space="preserve" font-family="Helvetica-Bold,Helvetica" font-weight="bold" font-size="18.0" fill="#000000" transform="matrix(1.00, 0.00, -0.00, -1.00, 30.8, 514.4)">i</text><text xml:space="preserve" font-family="Helvetica-Bold,Helvetica" font-weight="bold" font-size="18.0" fill="#000000" transform="matrix(1.00, 0.00, -0.00, -1.00, 35.8, 514.4)">c</text><text xml:space="preserve" font-family="Helvetica-Bold,Helvetica" font-weight="bold" font-size="18.0" fill="#000000" transform="matrix(1.00, 0.00, -0.00, -1.00, 45.8, 514.4)">k</text><text xml:space="preserve" font-family="Helvetica-Bold,Helvetica" font-weight="bold" font-size="18.0" fill="#000000" transform="matrix(1.00, 0.00, -0.00, -1.00, 55.8, 514.4)"> </text><text xml:space="preserve" font-family="Helvetica-Bold,Helvetica" font-weight="bold" font-size="18.0" fill="#000000" transform="matrix(1.00, 0.00, -0.00, -1.00, 60.8, 514.4)">M</text><text xml:space="preserve" font-family="Helvetica-Bold,Helvetica" font-weight="bold" font-size="18.0" fill="#000000" transform="matrix(1.00, 0.00, -0.00, -1.00, 75.8, 514.4)">u</text><text xml:space="preserve" font-family="Helvetica-Bold,Helvetica" font-weight="bold" font-size="18.0" fill="#000000" transform="matrix(1.00, 0.00, -0.00, -1.00, 86.8, 514.4)">l</text><text xml:space="preserve" font-family="Helvetica-Bold,Helvetica" font-weight="bold" font-size="18.0" fill="#000000" transform="matrix(1.00, 0.00, -0.00, -1.00, 91.8, 514.4)">t</text><text xml:space="preserve" font-family="Helvetica-Bold,Helvetica" font-weight="bold" font-size="18.0" fill="#000000" transform="matrix(1.00, 0.00, -0.00, -1.00, 97.8, 514.4)">i</text><text xml:space="preserve" font-family="Helvetica-Bold,Helvetica" font-weight="bold" font-size="18.0" fill="#000000" transform="matrix(1.00, 0.00, -0.00, -1.00, 102.8, 514.4)">e</text><text xml:space="preserve" font-family="Helvetica-Bold,Helvetica" font-weight="bold" font-size="18.0" fill="#000000" transform="matrix(1.00, 0.00, -0.00, -1.00, 112.8, 514.4)">s</text><path d="M 7.5 502.5 L 461.5 502.5 L 461.5 451.5 L 7.5 451.5 Z M 7.0 503.0 " fill="#EFEFEF"></path><path d="M 0.5 0.5 L 454.5 0.5 L 454.5 51.5 L 0.5 51.5 Z M 0.0 0.0 " fill="none" stroke="#218DC3" stroke-width="1.00" transform="matrix(1.00, 0.00, 0.00, -1.00, 7.0, 503.0)"></path><g><clipPath id="clip0x608002aac3c0"><path d="M 6.6 452.2 L 462.0 452.2 L 462.0 502.0 L 6.6 502.0 Z M 6.6 452.2 "></path></clipPath><g clip-path="url(#clip0x608002aac3c0)"><text xml:space="preserve" font-family="Helvetica-Bold,Helvetica" font-weight="bold" font-size="15.0" fill="#000000" transform="matrix(1.00, 0.00, -0.00, -1.00, 10.3, 471.1)"> </text><text xml:space="preserve" font-family="Helvetica-Bold,Helvetica" font-weight="bold" font-size="15.0" fill="#000000" transform="matrix(1.00, 0.00, -0.00, -1.00, 14.5, 471.1)"> </text><text xml:space="preserve" font-family="Helvetica-Bold,Helvetica" font-weight="bold" font-size="15.0" fill="#000000" transform="matrix(1.00, 0.00, -0.00, -1.00, 18.7, 471.1)"> </text><text xml:space="preserve" font-family="Helvetica-Bold,Helvetica" font-weight="bold" font-size="15.0" fill="#000000" transform="matrix(1.00, 0.00, -0.00, -1.00, 22.8, 471.1)">P</text><text xml:space="preserve" font-family="Helvetica-Bold,Helvetica" font-weight="bold" font-size="15.0" fill="#000000" transform="matrix(1.00, 0.00, -0.00, -1.00, 32.8, 471.1)">i</text><text xml:space="preserve" font-family="Helvetica-Bold,Helvetica" font-weight="bold" font-size="15.0" fill="#000000" transform="matrix(1.00, 0.00, -0.00, -1.00, 37.0, 471.1)">c</text><text xml:space="preserve" font-family="Helvetica-Bold,Helvetica" font-weight="bold" font-size="15.0" fill="#000000" transform="matrix(1.00, 0.00, -0.00, -1.00, 45.4, 471.1)">k</text><text xml:space="preserve" font-family="Helvetica-Bold,Helvetica" font-weight="bold" font-size="15.0" fill="#000000" transform="matrix(1.00, 0.00, -0.00, -1.00, 53.7, 471.1)"> </text><text xml:space="preserve" font-family="Helvetica-Bold,Helvetica" font-weight="bold" font-size="15.0" fill="#000000" transform="matrix(1.00, 0.00, -0.00, -1.00, 57.3, 471.1)">A</text><text xml:space="preserve" font-family="Helvetica-Bold,Helvetica" font-weight="bold" font-size="15.0" fill="#000000" transform="matrix(1.00, 0.00, -0.00, -1.00, 68.1, 471.1)">F</text><text xml:space="preserve" font-family="Helvetica-Bold,Helvetica" font-weight="bold" font-size="15.0" fill="#000000" transform="matrix(1.00, 0.00, -0.00, -1.00, 77.3, 471.1)">L</text><text xml:space="preserve" font-family="Helvetica-Bold,Helvetica" font-weight="bold" font-size="15.0" fill="#000000" transform="matrix(1.00, 0.00, -0.00, -1.00, 86.2, 471.1)"> </text><text xml:space="preserve" font-family="Helvetica-Bold,Helvetica" font-weight="bold" font-size="15.0" fill="#000000" transform="matrix(1.00, 0.00, -0.00, -1.00, 90.4, 471.1)"> </text><text xml:space="preserve" font-family="Helvetica-Bold,Helvetica" font-weight="bold" font-size="15.0" fill="#000000" transform="matrix(1.00, 0.00, -0.00, -1.00, 94.5, 471.1)">H</text><text xml:space="preserve" font-family="Helvetica-Bold,Helvetica" font-weight="bold" font-size="15.0" fill="#000000" transform="matrix(1.00, 0.00, -0.00, -1.00, 105.4, 471.1)">e</text><text xml:space="preserve" font-family="Helvetica-Bold,Helvetica" font-weight="bold" font-size="15.0" fill="#000000" transform="matrix(1.00, 0.00, -0.00, -1.00, 113.7, 471.1)">a</text><text xml:space="preserve" font-family="Helvetica-Bold,Helvetica" font-weight="bold" font-size="15.0" fill="#000000" transform="matrix(1.00, 0.00, -0.00, -1.00, 122.1, 471.1)">d</text><text xml:space="preserve" font-family="Helvetica-Bold,Helvetica" font-weight="bold" font-size="15.0" fill="#000000" transform="matrix(1.00, 0.00, -0.00, -1.00, 131.2, 471.1)"> </text><text xml:space="preserve" font-family="Helvetica-Bold,Helvetica" font-weight="bold" font-size="15.0" fill="#000000" transform="matrix(1.00, 0.00, -0.00, -1.00, 135.4, 471.1)">T</text><text xml:space="preserve" font-family="Helvetica-Bold,Helvetica" font-weight="bold" font-size="15.0" fill="#000000" transform="matrix(1.00, 0.00, -0.00, -1.00, 143.4, 471.1)">o</text><text xml:space="preserve" font-family="Helvetica-Bold,Helvetica" font-weight="bold" font-size="15.0" fill="#000000" transform="matrix(1.00, 0.00, -0.00, -1.00, 152.6, 471.1)"> </text><text xml:space="preserve" font-family="Helvetica-Bold,Helvetica" font-weight="bold" font-size="15.0" fill="#000000" transform="matrix(1.00, 0.00, -0.00, -1.00, 156.8, 471.1)">H</text><text xml:space="preserve" font-family="Helvetica-Bold,Helvetica" font-weight="bold" font-size="15.0" fill="#000000" transform="matrix(1.00, 0.00, -0.00, -1.00, 167.6, 471.1)">e</text><text xml:space="preserve" font-family="Helvetica-Bold,Helvetica" font-weight="bold" font-size="15.0" fill="#000000" transform="matrix(1.00, 0.00, -0.00, -1.00, 175.9, 471.1)">a</text><text xml:space="preserve" font-family="Helvetica-Bold,Helvetica" font-weight="bold" font-size="15.0" fill="#000000" transform="matrix(1.00, 0.00, -0.00, -1.00, 184.3, 471.1)">d</text><text xml:space="preserve" font-family="Helvetica-Bold,Helvetica" font-weight="bold" font-size="15.0" fill="#000000" transform="matrix(1.00, 0.00, -0.00, -1.00, 193.4, 471.1)"> </text><text xml:space="preserve" font-family="Helvetica-Bold,Helvetica" font-weight="bold" font-size="15.0" fill="#000000" transform="matrix(1.00, 0.00, -0.00, -1.00, 197.6, 471.1)">F</text><text xml:space="preserve" font-family="Helvetica-Bold,Helvetica" font-weight="bold" font-size="15.0" fill="#000000" transform="matrix(1.00, 0.00, -0.00, -1.00, 206.8, 471.1)">a</text><text xml:space="preserve" font-family="Helvetica-Bold,Helvetica" font-weight="bold" font-size="15.0" fill="#000000" transform="matrix(1.00, 0.00, -0.00, -1.00, 215.1, 471.1)">v</text><text xml:space="preserve" font-family="Helvetica-Bold,Helvetica" font-weight="bold" font-size="15.0" fill="#000000" transform="matrix(1.00, 0.00, -0.00, -1.00, 223.5, 471.1)">o</text><text xml:space="preserve" font-family="Helvetica-Bold,Helvetica" font-weight="bold" font-size="15.0" fill="#000000" transform="matrix(1.00, 0.00, -0.00, -1.00, 232.6, 471.1)">u</text><text xml:space="preserve" font-family="Helvetica-Bold,Helvetica" font-weight="bold" font-size="15.0" fill="#000000" transform="matrix(1.00, 0.00, -0.00, -1.00, 241.8, 471.1)">r</text><text xml:space="preserve" font-family="Helvetica-Bold,Helvetica" font-weight="bold" font-size="15.0" fill="#000000" transform="matrix(1.00, 0.00, -0.00, -1.00, 247.6, 471.1)">i</text><text xml:space="preserve" font-family="Helvetica-Bold,Helvetica" font-weight="bold" font-size="15.0" fill="#000000" transform="matrix(1.00, 0.00, -0.00, -1.00, 251.8, 471.1)">t</text><text xml:space="preserve" font-family="Helvetica-Bold,Helvetica" font-weight="bold" font-size="15.0" fill="#000000" transform="matrix(1.00, 0.00, -0.00, -1.00, 256.8, 471.1)">e</text><text xml:space="preserve" font-family="Helvetica-Bold,Helvetica" font-weight="bold" font-size="15.0" fill="#000000" transform="matrix(1.00, 0.00, -0.00, -1.00, 265.1, 471.1)">s</text><text xml:space="preserve" font-family="Helvetica-Bold,Helvetica" font-weight="bold" font-size="15.0" fill="#000000" transform="matrix(1.00, 0.00, -0.00, -1.00, 273.5, 471.1)"> </text><text xml:space="preserve" font-family="Helvetica-Bold,Helvetica" font-weight="bold" font-size="15.0" fill="#000000" transform="matrix(1.00, 0.00, -0.00, -1.00, 277.6, 471.1)"> </text><text xml:space="preserve" font-family="Helvetica-Bold,Helvetica" font-weight="bold" font-size="15.0" fill="#000000" transform="matrix(1.00, 0.00, -0.00, -1.00, 281.8, 471.1)"> </text><text xml:space="preserve" font-family="Helvetica-Light,Helvetica" font-size="15.0" fill="#000000" transform="matrix(1.00, 0.00, -0.00, -1.00, 286.0, 471.1)">|</text><text xml:space="preserve" font-family="Helvetica-Bold,Helvetica" font-weight="bold" font-size="15.0" fill="#000000" transform="matrix(1.00, 0.00, -0.00, -1.00, 289.3, 471.1)"> </text><text xml:space="preserve" font-family="Helvetica-Bold,Helvetica" font-weight="bold" font-size="15.0" fill="#000000" transform="matrix(1.00, 0.00, -0.00, -1.00, 293.5, 471.1)"> </text><text xml:space="preserve" font-family="Helvetica-Light,Helvetica" font-size="15.0" fill="#000000" transform="matrix(1.00, 0.00, -0.00, -1.00, 297.7, 471.1)">C</text><text xml:space="preserve" font-family="Helvetica-Light,Helvetica" font-size="15.0" fill="#000000" transform="matrix(1.00, 0.00, -0.00, -1.00, 308.5, 471.1)">o</text><text xml:space="preserve" font-family="Helvetica-Light,Helvetica" font-size="15.0" fill="#000000" transform="matrix(1.00, 0.00, -0.00, -1.00, 316.8, 471.1)">m</text><text xml:space="preserve" font-family="Helvetica-Light,Helvetica" font-size="15.0" fill="#000000" transform="matrix(1.00, 0.00, -0.00, -1.00, 329.3, 471.1)">b</text><text xml:space="preserve" font-family="Helvetica-Light,Helvetica" font-size="15.0" fill="#000000" transform="matrix(1.00, 0.00, -0.00, -1.00, 338.5, 471.1)">i</text><text xml:space="preserve" font-family="Helvetica-Light,Helvetica" font-size="15.0" fill="#000000" transform="matrix(1.00, 0.00, -0.00, -1.00, 341.8, 471.1)">n</text><text xml:space="preserve" font-family="Helvetica-Light,Helvetica" font-size="15.0" fill="#000000" transform="matrix(1.00, 0.00, -0.00, -1.00, 350.2, 471.1)">e</text><text xml:space="preserve" font-family="Helvetica-Light,Helvetica" font-size="15.0" fill="#000000" transform="matrix(1.00, 0.00, -0.00, -1.00, 358.5, 471.1)">d</text><text xml:space="preserve" font-family="Helvetica-Light,Helvetica" font-size="15.0" fill="#000000" transform="matrix(1.00, 0.00, -0.00, -1.00, 367.7, 471.1)"> </text><text xml:space="preserve" font-family="Helvetica-Light,Helvetica" font-size="15.0" fill="#000000" transform="matrix(1.00, 0.00, -0.00, -1.00, 371.8, 471.1)">P</text><text xml:space="preserve" font-family="Helvetica-Light,Helvetica" font-size="15.0" fill="#000000" transform="matrix(1.00, 0.00, -0.00, -1.00, 381.0, 471.1)">r</text><text xml:space="preserve" font-family="Helvetica-Light,Helvetica" font-size="15.0" fill="#000000" transform="matrix(1.00, 0.00, -0.00, -1.00, 386.0, 471.1)">i</text><text xml:space="preserve" font-family="Helvetica-Light,Helvetica" font-size="15.0" fill="#000000" transform="matrix(1.00, 0.00, -0.00, -1.00, 389.3, 471.1)">c</text><text xml:space="preserve" font-family="Helvetica-Light,Helvetica" font-size="15.0" fill="#000000" transform="matrix(1.00, 0.00, -0.00, -1.00, 397.7, 471.1)">e</text><text xml:space="preserve" font-family="Helvetica-Bold,Helvetica" font-weight="bold" font-size="15.0" fill="#000000" transform="matrix(1.00, 0.00, -0.00, -1.00, 406.0, 471.1)"> </text><text xml:space="preserve" font-family="Helvetica-Bold,Helvetica" font-weight="bold" font-size="15.0" fill="#000000" transform="matrix(1.00, 0.00, -0.00, -1.00, 410.2, 471.1)">1</text><text xml:space="preserve" font-family="Helvetica-Bold,Helvetica" font-weight="bold" font-size="15.0" fill="#000000" transform="matrix(1.00, 0.00, -0.00, -1.00, 418.5, 471.1)">2</text><text xml:space="preserve" font-family="Helvetica-Bold,Helvetica" font-weight="bold" font-size="15.0" fill="#000000" transform="matrix(1.00, 0.00, -0.00, -1.00, 426.9, 471.1)">.</text><text xml:space="preserve" font-family="Helvetica-Bold,Helvetica" font-weight="bold" font-size="15.0" fill="#000000" transform="matrix(1.00, 0.00, -0.00, -1.00, 431.0, 471.1)">5</text><text xml:space="preserve" font-family="Helvetica-Bold,Helvetica" font-weight="bold" font-size="15.0" fill="#000000" transform="matrix(1.00, 0.00, -0.00, -1.00, 439.4, 471.1)">6</text></g></g></g></svg>