<?xml version="1.0" encoding="UTF-8" standalone="no"?><svg xmlns="http://www.w3.org/2000/svg" xmlns:xlink="http://www.w3.org/1999/xlink" clip-rule="evenodd" stroke-miterlimit="10" viewBox="0 0 640 1136"><desc>SVG generated by Keynote</desc><defs></defs><g transform="matrix(1.00, 0.00, -0.00, -1.00, 0.0, 1136.0)"><path d="M 0.0 1136.0 L 640.0 1136.0 L 640.0 0.0 L 0.0 0.0 Z M 0.0 1136.0 " fill="#FEFFFF"></path><g><clipPath id="clip0x6000038a6540"><path d="M 0.0 1056.0 L 640.0 1056.0 L 640.0 1136.0 L 0.0 1136.0 Z M 0.0 1056.0 "></path></clipPath><g clip-path="url(#clip0x6000038a6540)"><path d="M 0.0 1136.0 L 640.0 1136.0 L 640.0 1056.0 L 0.0 1056.0 Z M 0.0 1136.0 " fill="#248F52"></path><path d="M 20.0 1118.0 L 65.0 1118.0 L 65.0 1110.0 L 20.0 1110.0 Z M 20.0 1118.0 " fill="#FEFFFF"></path><path d="M 20.0 1100.0 L 65.0 1100.0 L 65.0 1092.0 L 20.0 1092.0 Z M 20.0 1100.0 " fill="#FEFFFF"></path><path d="M 20.0 1082.0 L 65.0 1082.0 L 65.0 1074.0 L 20.0 1074.0 Z M 20.0 1082.0 " fill="#FEFFFF"></path></g></g><g><clipPath id="clip0x6000038a6a20"><path d="M 291.8 1128.2 L 356.2 1128.2 L 356.2 1063.8 L 291.8 1063.8 Z M 291.8 1128.2 "></path></clipPath><g clip-path="url(#clip0x6000038a6a20)"><g><clipPath id="clip0x6000038a6ba0"><path d="M 291.8 1063.8 L 356.2 1063.8 L 356.2 1128.2 L 291.8 1128.2 Z M 291.8 1063.8 "></path></clipPath><g clip-path="url(#clip0x6000038a6ba0)"><g><g><clipPath id="clip0x6000038a6d80"><path d="M 291.8 1063.8 L 356.2 1063.8 L 356.2 1128.2 L 291.8 1128.2 Z M 291.8 1063.8 "></path></clipPath><g clip-path="url(#clip0x6000038a6d80)"><g><g><clipPath id="clip0x6000038a6f60"><path d="M 291.8 1128.2 L 356.2 1128.2 L 356.2 1063.8 L 291.8 1063.8 Z M 291.8 1128.2 "></path></clipPath><g clip-path="url(#clip0x6000038a6f60)"><g><clipPath id="clip0x6000038a70e0"><path d="M 291.8 1063.8 L 356.2 1063.8 L 356.2 1128.2 L 291.8 1128.2 Z M 291.8 1063.8 "></path></clipPath><g clip-path="url(#clip0x6000038a70e0)"><path d="M 356.2 1085.2 C 356.2 1082.9 354.3 1080.5 352.0 1079.9 L 349.6 1079.3 L 291.8 1063.8 L 291.8 1102.6 C 291.8 1107.2 295.5 1111.9 300.1 1113.2 L 302.5 1113.8 L 356.2 1128.2 L 356.2 1085.2 " fill="#FFFEFE"></path></g></g></g></g><g><clipPath id="clip0x6000038a72c0"><path d="M 291.8 1063.8 L 356.2 1063.8 L 356.2 1128.2 L 291.8 1128.2 Z M 291.8 1063.8 "></path></clipPath><g clip-path="url(#clip0x6000038a72c0)"><path d="M 345.0 1090.4 C 345.0 1089.1 344.3 1088.6 342.3 1088.6 L 339.4 1088.6 L 339.4 1093.6 L 343.1 1093.6 C 344.4 1093.6 345.0 1093.0 345.0 1091.9 L 345.0 1090.4 Z M 339.4 1102.2 L 342.4 1102.2 C 344.1 1102.2 344.3 1101.5 344.3 1100.9 L 344.3 1098.7 C 344.3 1097.9 343.6 1097.4 342.4 1097.4 L 339.4 1097.4 L 339.4 1102.2 Z M 347.4 1095.9 C 348.6 1096.7 349.1 1097.7 349.1 1099.1 L 349.1 1101.2 C 349.1 1104.5 347.1 1106.1 342.9 1106.1 L 334.4 1106.1 L 334.4 1084.7 L 343.6 1084.7 C 347.6 1084.7 349.9 1086.7 349.9 1090.0 L 349.9 1092.0 C 349.9 1093.7 348.9 1095.2 347.4 1095.9 " fill="#0F7C3F"></path><path d="M 313.6 1101.3 C 314.2 1101.4 314.7 1101.9 314.7 1102.5 L 314.7 1102.7 L 314.7 1106.1 L 300.6 1106.1 C 299.3 1106.1 298.2 1105.0 298.2 1103.7 L 298.2 1101.3 L 303.8 1101.3 L 303.8 1084.7 L 306.7 1084.7 C 308.0 1084.7 309.1 1085.8 309.1 1087.1 L 309.1 1101.3 L 313.6 1101.3 " fill="#0F7C3F"></path><path d="M 320.8 1093.0 L 323.0 1100.8 L 325.1 1093.0 L 320.8 1093.0 Z M 327.3 1103.0 C 326.8 1104.8 325.0 1106.1 323.0 1106.1 L 319.6 1106.1 L 313.1 1084.7 L 317.2 1084.7 C 317.2 1084.7 317.3 1084.7 317.4 1084.7 C 317.6 1084.7 317.8 1084.7 317.8 1084.7 C 318.3 1084.7 318.7 1085.1 318.9 1085.5 L 319.0 1085.7 L 319.8 1088.8 L 326.2 1088.8 L 327.4 1084.7 L 332.9 1084.7 L 327.3 1102.9 L 327.3 1103.0 " fill="#0F7C3F"></path></g></g></g></g></g></g></g></g></g></g><image xlink:href="../../C3973CD3-C593-4B6C-B28A-93820E7F420B/assets/345A239FFB65B77B4811BBA30D076337.png" width="642.00" height="1061.00" transform="matrix(1.00, 0.00, -0.00, -1.00, -1.0, 1055.2)" opacity="0.50"></image><path d="M 0.0 1055.0 L 640.0 1055.0 L 640.0 -4.0 L 0.0 -4.0 Z M 0.0 1055.2 " fill="#D3FCB7" fill-opacity="0.92"></path><text xml:space="preserve" font-family="Helvetica-Light,Helvetica" font-size="43.0" fill="#000000" transform="matrix(1.00, 0.00, -0.00, -1.00, 45.0, 954.6)">I</text><text xml:space="preserve" font-family="Helvetica-Light,Helvetica" font-size="43.0" fill="#000000" transform="matrix(1.00, 0.00, -0.00, -1.00, 57.0, 954.6)">n</text><text xml:space="preserve" font-family="Helvetica-Light,Helvetica" font-size="43.0" fill="#000000" transform="matrix(1.00, 0.00, -0.00, -1.00, 80.9, 954.6)"> </text><text xml:space="preserve" font-family="Helvetica-Light,Helvetica" font-size="43.0" fill="#000000" transform="matrix(1.00, 0.00, -0.00, -1.00, 92.8, 954.6)">t</text><text xml:space="preserve" font-family="Helvetica-Light,Helvetica" font-size="43.0" fill="#000000" transform="matrix(1.00, 0.00, -0.00, -1.00, 104.8, 954.6)">h</text><text xml:space="preserve" font-family="Helvetica-Light,Helvetica" font-size="43.0" fill="#000000" transform="matrix(1.00, 0.00, -0.00, -1.00, 128.7, 954.6)">e</text><text xml:space="preserve" font-family="Helvetica-Light,Helvetica" font-size="43.0" fill="#000000" transform="matrix(1.00, 0.00, -0.00, -1.00, 152.6, 954.6)"> </text><text xml:space="preserve" font-family="Helvetica-Light,Helvetica" font-size="43.0" fill="#000000" transform="matrix(1.00, 0.00, -0.00, -1.00, 164.5, 954.6)">n</text><text xml:space="preserve" font-family="Helvetica-Light,Helvetica" font-size="43.0" fill="#000000" transform="matrix(1.00, 0.00, -0.00, -1.00, 188.4, 954.6)">e</text><text xml:space="preserve" font-family="Helvetica-Light,Helvetica" font-size="43.0" fill="#000000" transform="matrix(1.00, 0.00, -0.00, -1.00, 212.4, 954.6)">x</text><text xml:space="preserve" font-family="Helvetica-Light,Helvetica" font-size="43.0" fill="#000000" transform="matrix(1.00, 0.00, -0.00, -1.00, 233.9, 954.6)">t</text><text xml:space="preserve" font-family="Helvetica-Light,Helvetica" font-size="43.0" fill="#000000" transform="matrix(1.00, 0.00, -0.00, -1.00, 245.8, 954.6)"> </text><text xml:space="preserve" font-family="Helvetica-Light,Helvetica" font-size="43.0" fill="#000000" transform="matrix(1.00, 0.00, -0.00, -1.00, 257.8, 954.6)">s</text><text xml:space="preserve" font-family="Helvetica-Light,Helvetica" font-size="43.0" fill="#000000" transform="matrix(1.00, 0.00, -0.00, -1.00, 279.3, 954.6)">c</text><text xml:space="preserve" font-family="Helvetica-Light,Helvetica" font-size="43.0" fill="#000000" transform="matrix(1.00, 0.00, -0.00, -1.00, 303.2, 954.6)">r</text><text xml:space="preserve" font-family="Helvetica-Light,Helvetica" font-size="43.0" fill="#000000" transform="matrix(1.00, 0.00, -0.00, -1.00, 316.7, 954.6)">e</text><text xml:space="preserve" font-family="Helvetica-Light,Helvetica" font-size="43.0" fill="#000000" transform="matrix(1.00, 0.00, -0.00, -1.00, 340.6, 954.6)">e</text><text xml:space="preserve" font-family="Helvetica-Light,Helvetica" font-size="43.0" fill="#000000" transform="matrix(1.00, 0.00, -0.00, -1.00, 364.5, 954.6)">n</text><text xml:space="preserve" font-family="Helvetica-Light,Helvetica" font-size="43.0" fill="#000000" transform="matrix(1.00, 0.00, -0.00, -1.00, 388.4, 954.6)">,</text><text xml:space="preserve" font-family="Helvetica-Light,Helvetica" font-size="43.0" fill="#000000" transform="matrix(1.00, 0.00, -0.00, -1.00, 400.4, 954.6)"> </text><text xml:space="preserve" font-family="Helvetica-Light,Helvetica" font-size="43.0" fill="#000000" transform="matrix(1.00, 0.00, -0.00, -1.00, 412.4, 954.6)">a</text><text xml:space="preserve" font-family="Helvetica-Light,Helvetica" font-size="43.0" fill="#000000" transform="matrix(1.00, 0.00, -0.00, -1.00, 436.3, 954.6)">d</text><text xml:space="preserve" font-family="Helvetica-Light,Helvetica" font-size="43.0" fill="#000000" transform="matrix(1.00, 0.00, -0.00, -1.00, 462.5, 954.6)">d</text><text xml:space="preserve" font-family="Helvetica-Light,Helvetica" font-size="43.0" fill="#000000" transform="matrix(1.00, 0.00, -0.00, -1.00, 488.8, 954.6)"> </text><text xml:space="preserve" font-family="Helvetica-Light,Helvetica" font-size="43.0" fill="#000000" transform="matrix(1.00, 0.00, -0.00, -1.00, 500.8, 954.6)">a</text><text xml:space="preserve" font-family="Helvetica-Light,Helvetica" font-size="43.0" fill="#000000" transform="matrix(1.00, 0.00, -0.00, -1.00, 524.7, 954.6)"> </text><text xml:space="preserve" font-family="Helvetica-Bold,Helvetica" font-weight="bold" font-size="43.0" fill="#000000" transform="matrix(1.00, 0.00, -0.00, -1.00, 45.0, 902.6)">$</text><text xml:space="preserve" font-family="Helvetica-Bold,Helvetica" font-weight="bold" font-size="43.0" fill="#000000" transform="matrix(1.00, 0.00, -0.00, -1.00, 68.9, 902.6)">1</text><text xml:space="preserve" font-family="Helvetica-Bold,Helvetica" font-weight="bold" font-size="43.0" fill="#000000" transform="matrix(1.00, 0.00, -0.00, -1.00, 92.8, 902.6)">0</text><text xml:space="preserve" font-family="Helvetica-Light,Helvetica" font-size="43.0" fill="#000000" transform="matrix(1.00, 0.00, -0.00, -1.00, 116.7, 902.6)"> </text><text xml:space="preserve" font-family="Helvetica-Light,Helvetica" font-size="43.0" fill="#000000" transform="matrix(1.00, 0.00, -0.00, -1.00, 128.7, 902.6)">b</text><text xml:space="preserve" font-family="Helvetica-Light,Helvetica" font-size="43.0" fill="#000000" transform="matrix(1.00, 0.00, -0.00, -1.00, 155.0, 902.6)">e</text><text xml:space="preserve" font-family="Helvetica-Light,Helvetica" font-size="43.0" fill="#000000" transform="matrix(1.00, 0.00, -0.00, -1.00, 178.9, 902.6)">t</text><text xml:space="preserve" font-family="Helvetica-Light,Helvetica" font-size="43.0" fill="#000000" transform="matrix(1.00, 0.00, -0.00, -1.00, 190.8, 902.6)"> </text><text xml:space="preserve" font-family="Helvetica-Light,Helvetica" font-size="43.0" fill="#000000" transform="matrix(1.00, 0.00, -0.00, -1.00, 202.8, 902.6)">t</text><text xml:space="preserve" font-family="Helvetica-Light,Helvetica" font-size="43.0" fill="#000000" transform="matrix(1.00, 0.00, -0.00, -1.00, 214.7, 902.6)">o</text><text xml:space="preserve" font-family="Helvetica-Light,Helvetica" font-size="43.0" fill="#000000" transform="matrix(1.00, 0.00, -0.00, -1.00, 238.7, 902.6)"> </text><text xml:space="preserve" font-family="Helvetica-Light,Helvetica" font-size="43.0" fill="#000000" transform="matrix(1.00, 0.00, -0.00, -1.00, 250.6, 902.6)">t</text><text xml:space="preserve" font-family="Helvetica-Light,Helvetica" font-size="43.0" fill="#000000" transform="matrix(1.00, 0.00, -0.00, -1.00, 262.6, 902.6)">h</text><text xml:space="preserve" font-family="Helvetica-Light,Helvetica" font-size="43.0" fill="#000000" transform="matrix(1.00, 0.00, -0.00, -1.00, 286.5, 902.6)">e</text><text xml:space="preserve" font-family="Helvetica-Light,Helvetica" font-size="43.0" fill="#000000" transform="matrix(1.00, 0.00, -0.00, -1.00, 310.4, 902.6)"> </text><text xml:space="preserve" font-family="Helvetica-Light,Helvetica" font-size="43.0" fill="#000000" transform="matrix(1.00, 0.00, -0.00, -1.00, 322.3, 902.6)">B</text><text xml:space="preserve" font-family="Helvetica-Light,Helvetica" font-size="43.0" fill="#000000" transform="matrix(1.00, 0.00, -0.00, -1.00, 351.0, 902.6)">e</text><text xml:space="preserve" font-family="Helvetica-Light,Helvetica" font-size="43.0" fill="#000000" transform="matrix(1.00, 0.00, -0.00, -1.00, 374.9, 902.6)">t</text><text xml:space="preserve" font-family="Helvetica-Light,Helvetica" font-size="43.0" fill="#000000" transform="matrix(1.00, 0.00, -0.00, -1.00, 386.9, 902.6)"> </text><text xml:space="preserve" font-family="Helvetica-Light,Helvetica" font-size="43.0" fill="#000000" transform="matrix(1.00, 0.00, -0.00, -1.00, 398.8, 902.6)">b</text><text xml:space="preserve" font-family="Helvetica-Light,Helvetica" font-size="43.0" fill="#000000" transform="matrix(1.00, 0.00, -0.00, -1.00, 425.1, 902.6)">u</text><text xml:space="preserve" font-family="Helvetica-Light,Helvetica" font-size="43.0" fill="#000000" transform="matrix(1.00, 0.00, -0.00, -1.00, 449.0, 902.6)">i</text><text xml:space="preserve" font-family="Helvetica-Light,Helvetica" font-size="43.0" fill="#000000" transform="matrix(1.00, 0.00, -0.00, -1.00, 458.6, 902.6)">l</text><text xml:space="preserve" font-family="Helvetica-Light,Helvetica" font-size="43.0" fill="#000000" transform="matrix(1.00, 0.00, -0.00, -1.00, 468.1, 902.6)">d</text><text xml:space="preserve" font-family="Helvetica-Light,Helvetica" font-size="43.0" fill="#000000" transform="matrix(1.00, 0.00, -0.00, -1.00, 494.4, 902.6)">e</text><text xml:space="preserve" font-family="Helvetica-Light,Helvetica" font-size="43.0" fill="#000000" transform="matrix(1.00, 0.00, -0.00, -1.00, 518.3, 902.6)">r</text><text xml:space="preserve" font-family="Helvetica-Light,Helvetica" font-size="43.0" fill="#000000" transform="matrix(1.00, 0.00, -0.00, -1.00, 532.6, 902.6)"> </text><text xml:space="preserve" font-family="Helvetica-Light,Helvetica" font-size="43.0" fill="#000000" transform="matrix(1.00, 0.00, -0.00, -1.00, 544.6, 902.6)">o</text><text xml:space="preserve" font-family="Helvetica-Light,Helvetica" font-size="43.0" fill="#000000" transform="matrix(1.00, 0.00, -0.00, -1.00, 568.5, 902.6)">n</text><text xml:space="preserve" font-family="Helvetica-Light,Helvetica" font-size="43.0" fill="#000000" transform="matrix(1.00, 0.00, -0.00, -1.00, 592.4, 902.6)"> </text><text xml:space="preserve" font-family="Helvetica-Bold,Helvetica" font-weight="bold" font-size="43.0" fill="#000000" transform="matrix(1.00, 0.00, -0.00, -1.00, 45.0, 850.6)">C</text><text xml:space="preserve" font-family="Helvetica-Bold,Helvetica" font-weight="bold" font-size="43.0" fill="#000000" transform="matrix(1.00, 0.00, -0.00, -1.00, 76.1, 850.6)">o</text><text xml:space="preserve" font-family="Helvetica-Bold,Helvetica" font-weight="bold" font-size="43.0" fill="#000000" transform="matrix(1.00, 0.00, -0.00, -1.00, 102.3, 850.6)">s</text><text xml:space="preserve" font-family="Helvetica-Bold,Helvetica" font-weight="bold" font-size="43.0" fill="#000000" transform="matrix(1.00, 0.00, -0.00, -1.00, 126.2, 850.6)">t</text><text xml:space="preserve" font-family="Helvetica-Bold,Helvetica" font-weight="bold" font-size="43.0" fill="#000000" transform="matrix(1.00, 0.00, -0.00, -1.00, 140.6, 850.6)">a</text><text xml:space="preserve" font-family="Helvetica-Bold,Helvetica" font-weight="bold" font-size="43.0" fill="#000000" transform="matrix(1.00, 0.00, -0.00, -1.00, 164.5, 850.6)"> </text><text xml:space="preserve" font-family="Helvetica-Bold,Helvetica" font-weight="bold" font-size="43.0" fill="#000000" transform="matrix(1.00, 0.00, -0.00, -1.00, 176.4, 850.6)">R</text><text xml:space="preserve" font-family="Helvetica-Bold,Helvetica" font-weight="bold" font-size="43.0" fill="#000000" transform="matrix(1.00, 0.00, -0.00, -1.00, 207.5, 850.6)">i</text><text xml:space="preserve" font-family="Helvetica-Bold,Helvetica" font-weight="bold" font-size="43.0" fill="#000000" transform="matrix(1.00, 0.00, -0.00, -1.00, 219.4, 850.6)">c</text><text xml:space="preserve" font-family="Helvetica-Bold,Helvetica" font-weight="bold" font-size="43.0" fill="#000000" transform="matrix(1.00, 0.00, -0.00, -1.00, 243.3, 850.6)">a</text><text xml:space="preserve" font-family="Helvetica-Light,Helvetica" font-size="43.0" fill="#000000" transform="matrix(1.00, 0.00, -0.00, -1.00, 267.2, 850.6)"> </text><text xml:space="preserve" font-family="Helvetica-Light,Helvetica" font-size="43.0" fill="#000000" transform="matrix(1.00, 0.00, -0.00, -1.00, 279.2, 850.6)">t</text><text xml:space="preserve" font-family="Helvetica-Light,Helvetica" font-size="43.0" fill="#000000" transform="matrix(1.00, 0.00, -0.00, -1.00, 291.2, 850.6)">o</text><text xml:space="preserve" font-family="Helvetica-Light,Helvetica" font-size="43.0" fill="#000000" transform="matrix(1.00, 0.00, -0.00, -1.00, 315.1, 850.6)"> </text><text xml:space="preserve" font-family="Helvetica-Bold,Helvetica" font-weight="bold" font-size="43.0" fill="#000000" transform="matrix(1.00, 0.00, -0.00, -1.00, 327.0, 850.6)">w</text><text xml:space="preserve" font-family="Helvetica-Bold,Helvetica" font-weight="bold" font-size="43.0" fill="#000000" transform="matrix(1.00, 0.00, -0.00, -1.00, 360.5, 850.6)">i</text><text xml:space="preserve" font-family="Helvetica-Bold,Helvetica" font-weight="bold" font-size="43.0" fill="#000000" transform="matrix(1.00, 0.00, -0.00, -1.00, 372.4, 850.6)">n</text><text xml:space="preserve" font-family="Helvetica-Light,Helvetica" font-size="43.0" fill="#000000" transform="matrix(1.00, 0.00, -0.00, -1.00, 398.7, 850.6)"> </text><text xml:space="preserve" font-family="Helvetica-Light,Helvetica" font-size="43.0" fill="#000000" transform="matrix(1.00, 0.00, -0.00, -1.00, 410.6, 850.6)">t</text><text xml:space="preserve" font-family="Helvetica-Light,Helvetica" font-size="43.0" fill="#000000" transform="matrix(1.00, 0.00, -0.00, -1.00, 422.6, 850.6)">h</text><text xml:space="preserve" font-family="Helvetica-Light,Helvetica" font-size="43.0" fill="#000000" transform="matrix(1.00, 0.00, -0.00, -1.00, 446.5, 850.6)">e</text><text xml:space="preserve" font-family="Helvetica-Light,Helvetica" font-size="43.0" fill="#000000" transform="matrix(1.00, 0.00, -0.00, -1.00, 470.4, 850.6)"> </text><text xml:space="preserve" font-family="Helvetica-Bold,Helvetica" font-weight="bold" font-size="43.0" fill="#000000" transform="matrix(1.00, 0.00, -0.00, -1.00, 45.0, 798.6)">C</text><text xml:space="preserve" font-family="Helvetica-Bold,Helvetica" font-weight="bold" font-size="43.0" fill="#000000" transform="matrix(1.00, 0.00, -0.00, -1.00, 76.1, 798.6)">o</text><text xml:space="preserve" font-family="Helvetica-Bold,Helvetica" font-weight="bold" font-size="43.0" fill="#000000" transform="matrix(1.00, 0.00, -0.00, -1.00, 102.3, 798.6)">s</text><text xml:space="preserve" font-family="Helvetica-Bold,Helvetica" font-weight="bold" font-size="43.0" fill="#000000" transform="matrix(1.00, 0.00, -0.00, -1.00, 126.2, 798.6)">t</text><text xml:space="preserve" font-family="Helvetica-Bold,Helvetica" font-weight="bold" font-size="43.0" fill="#000000" transform="matrix(1.00, 0.00, -0.00, -1.00, 140.6, 798.6)">a</text><text xml:space="preserve" font-family="Helvetica-Bold,Helvetica" font-weight="bold" font-size="43.0" fill="#000000" transform="matrix(1.00, 0.00, -0.00, -1.00, 164.5, 798.6)"> </text><text xml:space="preserve" font-family="Helvetica-Bold,Helvetica" font-weight="bold" font-size="43.0" fill="#000000" transform="matrix(1.00, 0.00, -0.00, -1.00, 176.4, 798.6)">R</text><text xml:space="preserve" font-family="Helvetica-Bold,Helvetica" font-weight="bold" font-size="43.0" fill="#000000" transform="matrix(1.00, 0.00, -0.00, -1.00, 207.5, 798.6)">i</text><text xml:space="preserve" font-family="Helvetica-Bold,Helvetica" font-weight="bold" font-size="43.0" fill="#000000" transform="matrix(1.00, 0.00, -0.00, -1.00, 219.4, 798.6)">c</text><text xml:space="preserve" font-family="Helvetica-Bold,Helvetica" font-weight="bold" font-size="43.0" fill="#000000" transform="matrix(1.00, 0.00, -0.00, -1.00, 243.3, 798.6)">a</text><text xml:space="preserve" font-family="Helvetica-Bold,Helvetica" font-weight="bold" font-size="43.0" fill="#000000" transform="matrix(1.00, 0.00, -0.00, -1.00, 267.3, 798.6)"> </text><text xml:space="preserve" font-family="Helvetica-Bold,Helvetica" font-weight="bold" font-size="43.0" fill="#000000" transform="matrix(1.00, 0.00, -0.00, -1.00, 279.2, 798.6)">V</text><text xml:space="preserve" font-family="Helvetica-Bold,Helvetica" font-weight="bold" font-size="43.0" fill="#000000" transform="matrix(1.00, 0.00, -0.00, -1.00, 307.9, 798.6)"> </text><text xml:space="preserve" font-family="Helvetica-Bold,Helvetica" font-weight="bold" font-size="43.0" fill="#000000" transform="matrix(1.00, 0.00, -0.00, -1.00, 319.8, 798.6)">E</text><text xml:space="preserve" font-family="Helvetica-Bold,Helvetica" font-weight="bold" font-size="43.0" fill="#000000" transform="matrix(1.00, 0.00, -0.00, -1.00, 348.5, 798.6)">n</text><text xml:space="preserve" font-family="Helvetica-Bold,Helvetica" font-weight="bold" font-size="43.0" fill="#000000" transform="matrix(1.00, 0.00, -0.00, -1.00, 374.8, 798.6)">g</text><text xml:space="preserve" font-family="Helvetica-Bold,Helvetica" font-weight="bold" font-size="43.0" fill="#000000" transform="matrix(1.00, 0.00, -0.00, -1.00, 401.0, 798.6)">l</text><text xml:space="preserve" font-family="Helvetica-Bold,Helvetica" font-weight="bold" font-size="43.0" fill="#000000" transform="matrix(1.00, 0.00, -0.00, -1.00, 413.0, 798.6)">a</text><text xml:space="preserve" font-family="Helvetica-Bold,Helvetica" font-weight="bold" font-size="43.0" fill="#000000" transform="matrix(1.00, 0.00, -0.00, -1.00, 436.9, 798.6)">n</text><text xml:space="preserve" font-family="Helvetica-Bold,Helvetica" font-weight="bold" font-size="43.0" fill="#000000" transform="matrix(1.00, 0.00, -0.00, -1.00, 463.1, 798.6)">d</text><text xml:space="preserve" font-family="Helvetica-Light,Helvetica" font-size="43.0" fill="#000000" transform="matrix(1.00, 0.00, -0.00, -1.00, 489.4, 798.6)"> </text><text xml:space="preserve" font-family="Helvetica-Light,Helvetica" font-size="43.0" fill="#000000" transform="matrix(1.00, 0.00, -0.00, -1.00, 45.0, 746.6)">w</text><text xml:space="preserve" font-family="Helvetica-Light,Helvetica" font-size="43.0" fill="#000000" transform="matrix(1.00, 0.00, -0.00, -1.00, 76.0, 746.6)">o</text><text xml:space="preserve" font-family="Helvetica-Light,Helvetica" font-size="43.0" fill="#000000" transform="matrix(1.00, 0.00, -0.00, -1.00, 100.0, 746.6)">r</text><text xml:space="preserve" font-family="Helvetica-Light,Helvetica" font-size="43.0" fill="#000000" transform="matrix(1.00, 0.00, -0.00, -1.00, 114.3, 746.6)">l</text><text xml:space="preserve" font-family="Helvetica-Light,Helvetica" font-size="43.0" fill="#000000" transform="matrix(1.00, 0.00, -0.00, -1.00, 123.8, 746.6)">d</text><text xml:space="preserve" font-family="Helvetica-Light,Helvetica" font-size="43.0" fill="#000000" transform="matrix(1.00, 0.00, -0.00, -1.00, 150.1, 746.6)"> </text><text xml:space="preserve" font-family="Helvetica-Light,Helvetica" font-size="43.0" fill="#000000" transform="matrix(1.00, 0.00, -0.00, -1.00, 162.0, 746.6)">c</text><text xml:space="preserve" font-family="Helvetica-Light,Helvetica" font-size="43.0" fill="#000000" transform="matrix(1.00, 0.00, -0.00, -1.00, 186.0, 746.6)">u</text><text xml:space="preserve" font-family="Helvetica-Light,Helvetica" font-size="43.0" fill="#000000" transform="matrix(1.00, 0.00, -0.00, -1.00, 209.9, 746.6)">p</text><text xml:space="preserve" font-family="Helvetica-Light,Helvetica" font-size="43.0" fill="#000000" transform="matrix(1.00, 0.00, -0.00, -1.00, 236.1, 746.6)"> </text><text xml:space="preserve" font-family="Helvetica-Light,Helvetica" font-size="43.0" fill="#000000" transform="matrix(1.00, 0.00, -0.00, -1.00, 248.1, 746.6)">m</text><text xml:space="preserve" font-family="Helvetica-Light,Helvetica" font-size="43.0" fill="#000000" transform="matrix(1.00, 0.00, -0.00, -1.00, 283.9, 746.6)">a</text><text xml:space="preserve" font-family="Helvetica-Light,Helvetica" font-size="43.0" fill="#000000" transform="matrix(1.00, 0.00, -0.00, -1.00, 307.8, 746.6)">t</text><text xml:space="preserve" font-family="Helvetica-Light,Helvetica" font-size="43.0" fill="#000000" transform="matrix(1.00, 0.00, -0.00, -1.00, 319.8, 746.6)">c</text><text xml:space="preserve" font-family="Helvetica-Light,Helvetica" font-size="43.0" fill="#000000" transform="matrix(1.00, 0.00, -0.00, -1.00, 343.7, 746.6)">h</text><text xml:space="preserve" font-family="Helvetica-Light,Helvetica" font-size="43.0" fill="#000000" transform="matrix(1.00, 0.00, -0.00, -1.00, 367.6, 746.6)">.</text><image xlink:href="../../C3973CD3-C593-4B6C-B28A-93820E7F420B/assets/774E3763EFA823074E43E4A6595BB7E5.png" width="543.00" height="247.00" transform="matrix(1.00, 0.00, -0.00, -1.00, 43.2, 358.1)"></image><path d="M 83.0 287.0 L 546.0 287.0 L 546.0 183.0 L 83.0 183.0 Z M 83.2 287.5 " fill="#51A7F9"></path><g><clipPath id="clip0x6080036a40e0"><path d="M 77.2 183.3 L 551.6 183.3 L 551.6 287.5 L 77.2 287.5 Z M 77.2 183.3 "></path></clipPath><g clip-path="url(#clip0x6080036a40e0)"><text xml:space="preserve" font-family="Helvetica-Bold,Helvetica" font-weight="bold" font-size="34.0" fill="#FEFFFE" transform="matrix(1.00, 0.00, -0.00, -1.00, 170.8, 222.8)">C</text><text xml:space="preserve" font-family="Helvetica-Bold,Helvetica" font-weight="bold" font-size="34.0" fill="#FEFFFE" transform="matrix(1.00, 0.00, -0.00, -1.00, 195.3, 222.8)">l</text><text xml:space="preserve" font-family="Helvetica-Bold,Helvetica" font-weight="bold" font-size="34.0" fill="#FEFFFE" transform="matrix(1.00, 0.00, -0.00, -1.00, 204.8, 222.8)">i</text><text xml:space="preserve" font-family="Helvetica-Bold,Helvetica" font-weight="bold" font-size="34.0" fill="#FEFFFE" transform="matrix(1.00, 0.00, -0.00, -1.00, 214.2, 222.8)">c</text><text xml:space="preserve" font-family="Helvetica-Bold,Helvetica" font-weight="bold" font-size="34.0" fill="#FEFFFE" transform="matrix(1.00, 0.00, -0.00, -1.00, 233.1, 222.8)">k</text><text xml:space="preserve" font-family="Helvetica-Bold,Helvetica" font-weight="bold" font-size="34.0" fill="#FEFFFE" transform="matrix(1.00, 0.00, -0.00, -1.00, 252.0, 222.8)"> </text><text xml:space="preserve" font-family="Helvetica-Bold,Helvetica" font-weight="bold" font-size="34.0" fill="#FEFFFE" transform="matrix(1.00, 0.00, -0.00, -1.00, 261.5, 222.8)">h</text><text xml:space="preserve" font-family="Helvetica-Bold,Helvetica" font-weight="bold" font-size="34.0" fill="#FEFFFE" transform="matrix(1.00, 0.00, -0.00, -1.00, 282.2, 222.8)">e</text><text xml:space="preserve" font-family="Helvetica-Bold,Helvetica" font-weight="bold" font-size="34.0" fill="#FEFFFE" transform="matrix(1.00, 0.00, -0.00, -1.00, 301.2, 222.8)">r</text><text xml:space="preserve" font-family="Helvetica-Bold,Helvetica" font-weight="bold" font-size="34.0" fill="#FEFFFE" transform="matrix(1.00, 0.00, -0.00, -1.00, 314.4, 222.8)">e</text><text xml:space="preserve" font-family="Helvetica-Bold,Helvetica" font-weight="bold" font-size="34.0" fill="#FEFFFE" transform="matrix(1.00, 0.00, -0.00, -1.00, 333.3, 222.8)"> </text><text xml:space="preserve" font-family="Helvetica-Bold,Helvetica" font-weight="bold" font-size="34.0" fill="#FEFFFE" transform="matrix(1.00, 0.00, -0.00, -1.00, 342.8, 222.8)">t</text><text xml:space="preserve" font-family="Helvetica-Bold,Helvetica" font-weight="bold" font-size="34.0" fill="#FEFFFE" transform="matrix(1.00, 0.00, -0.00, -1.00, 354.1, 222.8)">o</text><text xml:space="preserve" font-family="Helvetica-Bold,Helvetica" font-weight="bold" font-size="34.0" fill="#FEFFFE" transform="matrix(1.00, 0.00, -0.00, -1.00, 374.8, 222.8)"> </text><text xml:space="preserve" font-family="Helvetica-Bold,Helvetica" font-weight="bold" font-size="34.0" fill="#FEFFFE" transform="matrix(1.00, 0.00, -0.00, -1.00, 384.3, 222.8)">s</text><text xml:space="preserve" font-family="Helvetica-Bold,Helvetica" font-weight="bold" font-size="34.0" fill="#FEFFFE" transform="matrix(1.00, 0.00, -0.00, -1.00, 403.2, 222.8)">t</text><text xml:space="preserve" font-family="Helvetica-Bold,Helvetica" font-weight="bold" font-size="34.0" fill="#FEFFFE" transform="matrix(1.00, 0.00, -0.00, -1.00, 414.5, 222.8)">a</text><text xml:space="preserve" font-family="Helvetica-Bold,Helvetica" font-weight="bold" font-size="34.0" fill="#FEFFFE" transform="matrix(1.00, 0.00, -0.00, -1.00, 433.4, 222.8)">r</text><text xml:space="preserve" font-family="Helvetica-Bold,Helvetica" font-weight="bold" font-size="34.0" fill="#FEFFFE" transform="matrix(1.00, 0.00, -0.00, -1.00, 446.7, 222.8)">t</text></g></g></g></svg>