<?xml version="1.0" encoding="UTF-8" standalone="no"?><svg xmlns="http://www.w3.org/2000/svg" xmlns:xlink="http://www.w3.org/1999/xlink" clip-rule="evenodd" stroke-miterlimit="10" viewBox="0 0 640 1136"><desc>SVG generated by Keynote</desc><defs></defs><g transform="matrix(1.00, 0.00, -0.00, -1.00, 0.0, 1136.0)"><path d="M 0.0 1136.0 L 640.0 1136.0 L 640.0 0.0 L 0.0 0.0 Z M 0.0 1136.0 " fill="#FEFFFF"></path><g><clipPath id="clip0x6180040b4220"><path d="M 0.0 1056.0 L 640.0 1056.0 L 640.0 1136.0 L 0.0 1136.0 Z M 0.0 1056.0 "></path></clipPath><g clip-path="url(#clip0x6180040b4220)"><path d="M 0.0 1136.0 L 640.0 1136.0 L 640.0 1056.0 L 0.0 1056.0 Z M 0.0 1136.0 " fill="#248F52"></path><path d="M 20.0 1118.0 L 65.0 1118.0 L 65.0 1110.0 L 20.0 1110.0 Z M 20.0 1118.0 " fill="#FEFFFF"></path><path d="M 20.0 1100.0 L 65.0 1100.0 L 65.0 1092.0 L 20.0 1092.0 Z M 20.0 1100.0 " fill="#FEFFFF"></path><path d="M 20.0 1082.0 L 65.0 1082.0 L 65.0 1074.0 L 20.0 1074.0 Z M 20.0 1082.0 " fill="#FEFFFF"></path></g></g><g><clipPath id="clip0x6180040b4640"><path d="M 291.8 1128.2 L 356.2 1128.2 L 356.2 1063.8 L 291.8 1063.8 Z M 291.8 1128.2 "></path></clipPath><g clip-path="url(#clip0x6180040b4640)"><g><clipPath id="clip0x6180040b47c0"><path d="M 291.8 1063.8 L 356.2 1063.8 L 356.2 1128.2 L 291.8 1128.2 Z M 291.8 1063.8 "></path></clipPath><g clip-path="url(#clip0x6180040b47c0)"><g><g><clipPath id="clip0x6180040b48e0"><path d="M 291.8 1063.8 L 356.2 1063.8 L 356.2 1128.2 L 291.8 1128.2 Z M 291.8 1063.8 "></path></clipPath><g clip-path="url(#clip0x6180040b48e0)"><g><g><clipPath id="clip0x6180040b4b20"><path d="M 291.8 1128.2 L 356.2 1128.2 L 356.2 1063.8 L 291.8 1063.8 Z M 291.8 1128.2 "></path></clipPath><g clip-path="url(#clip0x6180040b4b20)"><g><clipPath id="clip0x6180040b4ca0"><path d="M 291.8 1063.8 L 356.2 1063.8 L 356.2 1128.2 L 291.8 1128.2 Z M 291.8 1063.8 "></path></clipPath><g clip-path="url(#clip0x6180040b4ca0)"><path d="M 356.2 1085.2 C 356.2 1082.9 354.3 1080.5 352.0 1079.9 L 349.6 1079.3 L 291.8 1063.8 L 291.8 1102.6 C 291.8 1107.2 295.5 1111.9 300.1 1113.2 L 302.5 1113.8 L 356.2 1128.2 L 356.2 1085.2 " fill="#FFFEFE"></path></g></g></g></g><g><clipPath id="clip0x6180040b4e80"><path d="M 291.8 1063.8 L 356.2 1063.8 L 356.2 1128.2 L 291.8 1128.2 Z M 291.8 1063.8 "></path></clipPath><g clip-path="url(#clip0x6180040b4e80)"><path d="M 345.0 1090.4 C 345.0 1089.1 344.3 1088.6 342.3 1088.6 L 339.4 1088.6 L 339.4 1093.6 L 343.1 1093.6 C 344.4 1093.6 345.0 1093.0 345.0 1091.9 L 345.0 1090.4 Z M 339.4 1102.2 L 342.4 1102.2 C 344.1 1102.2 344.3 1101.5 344.3 1100.9 L 344.3 1098.7 C 344.3 1097.9 343.6 1097.4 342.4 1097.4 L 339.4 1097.4 L 339.4 1102.2 Z M 347.4 1095.9 C 348.6 1096.7 349.1 1097.7 349.1 1099.1 L 349.1 1101.2 C 349.1 1104.5 347.1 1106.1 342.9 1106.1 L 334.4 1106.1 L 334.4 1084.7 L 343.6 1084.7 C 347.6 1084.7 349.9 1086.7 349.9 1090.0 L 349.9 1092.0 C 349.9 1093.7 348.9 1095.2 347.4 1095.9 " fill="#0F7C3F"></path><path d="M 313.6 1101.3 C 314.2 1101.4 314.7 1101.9 314.7 1102.5 L 314.7 1102.7 L 314.7 1106.1 L 300.6 1106.1 C 299.3 1106.1 298.2 1105.0 298.2 1103.7 L 298.2 1101.3 L 303.8 1101.3 L 303.8 1084.7 L 306.7 1084.7 C 308.0 1084.7 309.1 1085.8 309.1 1087.1 L 309.1 1101.3 L 313.6 1101.3 " fill="#0F7C3F"></path><path d="M 320.8 1093.0 L 323.0 1100.8 L 325.1 1093.0 L 320.8 1093.0 Z M 327.3 1103.0 C 326.8 1104.8 325.0 1106.1 323.0 1106.1 L 319.6 1106.1 L 313.1 1084.7 L 317.2 1084.7 C 317.2 1084.7 317.3 1084.7 317.4 1084.7 C 317.6 1084.7 317.8 1084.7 317.8 1084.7 C 318.3 1084.7 318.7 1085.1 318.9 1085.5 L 319.0 1085.7 L 319.8 1088.8 L 326.2 1088.8 L 327.4 1084.7 L 332.9 1084.7 L 327.3 1102.9 L 327.3 1103.0 " fill="#0F7C3F"></path></g></g></g></g></g></g></g></g></g></g><image xlink:href="../../C3973CD3-C593-4B6C-B28A-93820E7F420B/assets/345A239FFB65B77B4811BBA30D076337.png" width="642.00" height="1061.00" transform="matrix(1.00, 0.00, -0.00, -1.00, -1.0, 1055.2)" opacity="0.50"></image><path d="M 0.0 1055.0 L 640.0 1055.0 L 640.0 -4.0 L 0.0 -4.0 Z M 0.0 1055.2 " fill="#D3FCB7" fill-opacity="0.92"></path><text xml:space="preserve" font-family="Helvetica-Light,Helvetica" font-size="39.0" fill="#000000" transform="matrix(1.00, 0.00, -0.00, -1.00, 46.7, 958.0)">I</text><text xml:space="preserve" font-family="Helvetica-Light,Helvetica" font-size="39.0" fill="#000000" transform="matrix(1.00, 0.00, -0.00, -1.00, 57.5, 958.0)">n</text><text xml:space="preserve" font-family="Helvetica-Light,Helvetica" font-size="39.0" fill="#000000" transform="matrix(1.00, 0.00, -0.00, -1.00, 79.2, 958.0)"> </text><text xml:space="preserve" font-family="Helvetica-Light,Helvetica" font-size="39.0" fill="#000000" transform="matrix(1.00, 0.00, -0.00, -1.00, 90.0, 958.0)">t</text><text xml:space="preserve" font-family="Helvetica-Light,Helvetica" font-size="39.0" fill="#000000" transform="matrix(1.00, 0.00, -0.00, -1.00, 100.9, 958.0)">h</text><text xml:space="preserve" font-family="Helvetica-Light,Helvetica" font-size="39.0" fill="#000000" transform="matrix(1.00, 0.00, -0.00, -1.00, 122.6, 958.0)">e</text><text xml:space="preserve" font-family="Helvetica-Light,Helvetica" font-size="39.0" fill="#000000" transform="matrix(1.00, 0.00, -0.00, -1.00, 144.3, 958.0)"> </text><text xml:space="preserve" font-family="Helvetica-Light,Helvetica" font-size="39.0" fill="#000000" transform="matrix(1.00, 0.00, -0.00, -1.00, 155.1, 958.0)">n</text><text xml:space="preserve" font-family="Helvetica-Light,Helvetica" font-size="39.0" fill="#000000" transform="matrix(1.00, 0.00, -0.00, -1.00, 176.8, 958.0)">e</text><text xml:space="preserve" font-family="Helvetica-Light,Helvetica" font-size="39.0" fill="#000000" transform="matrix(1.00, 0.00, -0.00, -1.00, 198.5, 958.0)">x</text><text xml:space="preserve" font-family="Helvetica-Light,Helvetica" font-size="39.0" fill="#000000" transform="matrix(1.00, 0.00, -0.00, -1.00, 218.0, 958.0)">t</text><text xml:space="preserve" font-family="Helvetica-Light,Helvetica" font-size="39.0" fill="#000000" transform="matrix(1.00, 0.00, -0.00, -1.00, 228.8, 958.0)"> </text><text xml:space="preserve" font-family="Helvetica-Light,Helvetica" font-size="39.0" fill="#000000" transform="matrix(1.00, 0.00, -0.00, -1.00, 239.7, 958.0)">s</text><text xml:space="preserve" font-family="Helvetica-Light,Helvetica" font-size="39.0" fill="#000000" transform="matrix(1.00, 0.00, -0.00, -1.00, 259.2, 958.0)">c</text><text xml:space="preserve" font-family="Helvetica-Light,Helvetica" font-size="39.0" fill="#000000" transform="matrix(1.00, 0.00, -0.00, -1.00, 280.8, 958.0)">r</text><text xml:space="preserve" font-family="Helvetica-Light,Helvetica" font-size="39.0" fill="#000000" transform="matrix(1.00, 0.00, -0.00, -1.00, 293.1, 958.0)">e</text><text xml:space="preserve" font-family="Helvetica-Light,Helvetica" font-size="39.0" fill="#000000" transform="matrix(1.00, 0.00, -0.00, -1.00, 314.8, 958.0)">e</text><text xml:space="preserve" font-family="Helvetica-Light,Helvetica" font-size="39.0" fill="#000000" transform="matrix(1.00, 0.00, -0.00, -1.00, 336.5, 958.0)">n</text><text xml:space="preserve" font-family="Helvetica-Light,Helvetica" font-size="39.0" fill="#000000" transform="matrix(1.00, 0.00, -0.00, -1.00, 358.2, 958.0)">,</text><text xml:space="preserve" font-family="Helvetica-Light,Helvetica" font-size="39.0" fill="#000000" transform="matrix(1.00, 0.00, -0.00, -1.00, 369.0, 958.0)"> </text><text xml:space="preserve" font-family="Helvetica-Light,Helvetica" font-size="39.0" fill="#000000" transform="matrix(1.00, 0.00, -0.00, -1.00, 379.9, 958.0)">p</text><text xml:space="preserve" font-family="Helvetica-Light,Helvetica" font-size="39.0" fill="#000000" transform="matrix(1.00, 0.00, -0.00, -1.00, 403.7, 958.0)">l</text><text xml:space="preserve" font-family="Helvetica-Light,Helvetica" font-size="39.0" fill="#000000" transform="matrix(1.00, 0.00, -0.00, -1.00, 412.3, 958.0)">a</text><text xml:space="preserve" font-family="Helvetica-Light,Helvetica" font-size="39.0" fill="#000000" transform="matrix(1.00, 0.00, -0.00, -1.00, 434.0, 958.0)">c</text><text xml:space="preserve" font-family="Helvetica-Light,Helvetica" font-size="39.0" fill="#000000" transform="matrix(1.00, 0.00, -0.00, -1.00, 455.7, 958.0)">e</text><text xml:space="preserve" font-family="Helvetica-Light,Helvetica" font-size="39.0" fill="#000000" transform="matrix(1.00, 0.00, -0.00, -1.00, 477.4, 958.0)"> </text><text xml:space="preserve" font-family="Helvetica-Light,Helvetica" font-size="39.0" fill="#000000" transform="matrix(1.00, 0.00, -0.00, -1.00, 488.2, 958.0)">a</text><text xml:space="preserve" font-family="Helvetica-Light,Helvetica" font-size="39.0" fill="#000000" transform="matrix(1.00, 0.00, -0.00, -1.00, 509.9, 958.0)"> </text><text xml:space="preserve" font-family="Helvetica-Bold,Helvetica" font-weight="bold" font-size="39.0" fill="#000000" transform="matrix(1.00, 0.00, -0.00, -1.00, 46.7, 911.0)">$</text><text xml:space="preserve" font-family="Helvetica-Bold,Helvetica" font-weight="bold" font-size="39.0" fill="#000000" transform="matrix(1.00, 0.00, -0.00, -1.00, 68.4, 911.0)">1</text><text xml:space="preserve" font-family="Helvetica-Bold,Helvetica" font-weight="bold" font-size="39.0" fill="#000000" transform="matrix(1.00, 0.00, -0.00, -1.00, 90.1, 911.0)">0</text><text xml:space="preserve" font-family="Helvetica-Light,Helvetica" font-size="39.0" fill="#000000" transform="matrix(1.00, 0.00, -0.00, -1.00, 111.7, 911.0)"> </text><text xml:space="preserve" font-family="Helvetica-Bold,Helvetica" font-weight="bold" font-size="39.0" fill="#000000" transform="matrix(1.00, 0.00, -0.00, -1.00, 122.6, 911.0)">H</text><text xml:space="preserve" font-family="Helvetica-Bold,Helvetica" font-weight="bold" font-size="39.0" fill="#000000" transform="matrix(1.00, 0.00, -0.00, -1.00, 150.8, 911.0)">e</text><text xml:space="preserve" font-family="Helvetica-Bold,Helvetica" font-weight="bold" font-size="39.0" fill="#000000" transform="matrix(1.00, 0.00, -0.00, -1.00, 172.5, 911.0)">a</text><text xml:space="preserve" font-family="Helvetica-Bold,Helvetica" font-weight="bold" font-size="39.0" fill="#000000" transform="matrix(1.00, 0.00, -0.00, -1.00, 194.2, 911.0)">d</text><text xml:space="preserve" font-family="Helvetica-Bold,Helvetica" font-weight="bold" font-size="39.0" fill="#000000" transform="matrix(1.00, 0.00, -0.00, -1.00, 218.0, 911.0)">-</text><text xml:space="preserve" font-family="Helvetica-Bold,Helvetica" font-weight="bold" font-size="39.0" fill="#000000" transform="matrix(1.00, 0.00, -0.00, -1.00, 231.0, 911.0)">t</text><text xml:space="preserve" font-family="Helvetica-Bold,Helvetica" font-weight="bold" font-size="39.0" fill="#000000" transform="matrix(1.00, 0.00, -0.00, -1.00, 243.9, 911.0)">o</text><text xml:space="preserve" font-family="Helvetica-Bold,Helvetica" font-weight="bold" font-size="39.0" fill="#000000" transform="matrix(1.00, 0.00, -0.00, -1.00, 267.8, 911.0)">-</text><text xml:space="preserve" font-family="Helvetica-Bold,Helvetica" font-weight="bold" font-size="39.0" fill="#000000" transform="matrix(1.00, 0.00, -0.00, -1.00, 280.8, 911.0)">h</text><text xml:space="preserve" font-family="Helvetica-Bold,Helvetica" font-weight="bold" font-size="39.0" fill="#000000" transform="matrix(1.00, 0.00, -0.00, -1.00, 304.6, 911.0)">e</text><text xml:space="preserve" font-family="Helvetica-Bold,Helvetica" font-weight="bold" font-size="39.0" fill="#000000" transform="matrix(1.00, 0.00, -0.00, -1.00, 326.3, 911.0)">a</text><text xml:space="preserve" font-family="Helvetica-Bold,Helvetica" font-weight="bold" font-size="39.0" fill="#000000" transform="matrix(1.00, 0.00, -0.00, -1.00, 348.0, 911.0)">d</text><text xml:space="preserve" font-family="Helvetica-Light,Helvetica" font-size="39.0" fill="#000000" transform="matrix(1.00, 0.00, -0.00, -1.00, 371.8, 911.0)"> </text><text xml:space="preserve" font-family="Helvetica-Light,Helvetica" font-size="39.0" fill="#000000" transform="matrix(1.00, 0.00, -0.00, -1.00, 382.6, 911.0)">b</text><text xml:space="preserve" font-family="Helvetica-Light,Helvetica" font-size="39.0" fill="#000000" transform="matrix(1.00, 0.00, -0.00, -1.00, 406.4, 911.0)">e</text><text xml:space="preserve" font-family="Helvetica-Light,Helvetica" font-size="39.0" fill="#000000" transform="matrix(1.00, 0.00, -0.00, -1.00, 428.1, 911.0)">t</text><text xml:space="preserve" font-family="Helvetica-Light,Helvetica" font-size="39.0" fill="#000000" transform="matrix(1.00, 0.00, -0.00, -1.00, 439.0, 911.0)"> </text><text xml:space="preserve" font-family="Helvetica-Light,Helvetica" font-size="39.0" fill="#000000" transform="matrix(1.00, 0.00, -0.00, -1.00, 449.8, 911.0)">o</text><text xml:space="preserve" font-family="Helvetica-Light,Helvetica" font-size="39.0" fill="#000000" transform="matrix(1.00, 0.00, -0.00, -1.00, 471.5, 911.0)">n</text><text xml:space="preserve" font-family="Helvetica-Light,Helvetica" font-size="39.0" fill="#000000" transform="matrix(1.00, 0.00, -0.00, -1.00, 493.2, 911.0)"> </text><text xml:space="preserve" font-family="Helvetica-Bold,Helvetica" font-weight="bold" font-size="39.0" fill="#000000" transform="matrix(1.00, 0.00, -0.00, -1.00, 46.7, 864.0)">S</text><text xml:space="preserve" font-family="Helvetica-Bold,Helvetica" font-weight="bold" font-size="39.0" fill="#000000" transform="matrix(1.00, 0.00, -0.00, -1.00, 72.7, 864.0)">y</text><text xml:space="preserve" font-family="Helvetica-Bold,Helvetica" font-weight="bold" font-size="39.0" fill="#000000" transform="matrix(1.00, 0.00, -0.00, -1.00, 94.4, 864.0)">d</text><text xml:space="preserve" font-family="Helvetica-Bold,Helvetica" font-weight="bold" font-size="39.0" fill="#000000" transform="matrix(1.00, 0.00, -0.00, -1.00, 118.2, 864.0)">n</text><text xml:space="preserve" font-family="Helvetica-Bold,Helvetica" font-weight="bold" font-size="39.0" fill="#000000" transform="matrix(1.00, 0.00, -0.00, -1.00, 142.0, 864.0)">e</text><text xml:space="preserve" font-family="Helvetica-Bold,Helvetica" font-weight="bold" font-size="39.0" fill="#000000" transform="matrix(1.00, 0.00, -0.00, -1.00, 163.7, 864.0)">y</text><text xml:space="preserve" font-family="Helvetica-Light,Helvetica" font-size="39.0" fill="#000000" transform="matrix(1.00, 0.00, -0.00, -1.00, 185.4, 864.0)"> </text><text xml:space="preserve" font-family="Helvetica-Light,Helvetica" font-size="39.0" fill="#000000" transform="matrix(1.00, 0.00, -0.00, -1.00, 196.2, 864.0)">t</text><text xml:space="preserve" font-family="Helvetica-Light,Helvetica" font-size="39.0" fill="#000000" transform="matrix(1.00, 0.00, -0.00, -1.00, 207.1, 864.0)">o</text><text xml:space="preserve" font-family="Helvetica-Light,Helvetica" font-size="39.0" fill="#000000" transform="matrix(1.00, 0.00, -0.00, -1.00, 228.8, 864.0)"> </text><text xml:space="preserve" font-family="Helvetica-Light,Helvetica" font-size="39.0" fill="#000000" transform="matrix(1.00, 0.00, -0.00, -1.00, 239.6, 864.0)">w</text><text xml:space="preserve" font-family="Helvetica-Light,Helvetica" font-size="39.0" fill="#000000" transform="matrix(1.00, 0.00, -0.00, -1.00, 267.8, 864.0)">i</text><text xml:space="preserve" font-family="Helvetica-Light,Helvetica" font-size="39.0" fill="#000000" transform="matrix(1.00, 0.00, -0.00, -1.00, 276.4, 864.0)">n</text><text xml:space="preserve" font-family="Helvetica-Light,Helvetica" font-size="39.0" fill="#000000" transform="matrix(1.00, 0.00, -0.00, -1.00, 298.1, 864.0)"> </text><text xml:space="preserve" font-family="Helvetica-Light,Helvetica" font-size="39.0" fill="#000000" transform="matrix(1.00, 0.00, -0.00, -1.00, 309.0, 864.0)">t</text><text xml:space="preserve" font-family="Helvetica-Light,Helvetica" font-size="39.0" fill="#000000" transform="matrix(1.00, 0.00, -0.00, -1.00, 319.8, 864.0)">h</text><text xml:space="preserve" font-family="Helvetica-Light,Helvetica" font-size="39.0" fill="#000000" transform="matrix(1.00, 0.00, -0.00, -1.00, 341.5, 864.0)">e</text><text xml:space="preserve" font-family="Helvetica-Light,Helvetica" font-size="39.0" fill="#000000" transform="matrix(1.00, 0.00, -0.00, -1.00, 363.2, 864.0)"> </text><text xml:space="preserve" font-family="Helvetica-Bold,Helvetica" font-weight="bold" font-size="39.0" fill="#000000" transform="matrix(1.00, 0.00, -0.00, -1.00, 374.0, 864.0)">R</text><text xml:space="preserve" font-family="Helvetica-Bold,Helvetica" font-weight="bold" font-size="39.0" fill="#000000" transform="matrix(1.00, 0.00, -0.00, -1.00, 402.2, 864.0)">i</text><text xml:space="preserve" font-family="Helvetica-Bold,Helvetica" font-weight="bold" font-size="39.0" fill="#000000" transform="matrix(1.00, 0.00, -0.00, -1.00, 413.0, 864.0)">c</text><text xml:space="preserve" font-family="Helvetica-Bold,Helvetica" font-weight="bold" font-size="39.0" fill="#000000" transform="matrix(1.00, 0.00, -0.00, -1.00, 434.7, 864.0)">h</text><text xml:space="preserve" font-family="Helvetica-Bold,Helvetica" font-weight="bold" font-size="39.0" fill="#000000" transform="matrix(1.00, 0.00, -0.00, -1.00, 458.6, 864.0)">m</text><text xml:space="preserve" font-family="Helvetica-Bold,Helvetica" font-weight="bold" font-size="39.0" fill="#000000" transform="matrix(1.00, 0.00, -0.00, -1.00, 493.2, 864.0)">o</text><text xml:space="preserve" font-family="Helvetica-Bold,Helvetica" font-weight="bold" font-size="39.0" fill="#000000" transform="matrix(1.00, 0.00, -0.00, -1.00, 517.1, 864.0)">n</text><text xml:space="preserve" font-family="Helvetica-Bold,Helvetica" font-weight="bold" font-size="39.0" fill="#000000" transform="matrix(1.00, 0.00, -0.00, -1.00, 540.9, 864.0)">d</text><text xml:space="preserve" font-family="Helvetica-Bold,Helvetica" font-weight="bold" font-size="39.0" fill="#000000" transform="matrix(1.00, 0.00, -0.00, -1.00, 564.7, 864.0)"> </text><text xml:space="preserve" font-family="Helvetica-Bold,Helvetica" font-weight="bold" font-size="39.0" fill="#000000" transform="matrix(1.00, 0.00, -0.00, -1.00, 46.7, 817.0)">V</text><text xml:space="preserve" font-family="Helvetica-Bold,Helvetica" font-weight="bold" font-size="39.0" fill="#000000" transform="matrix(1.00, 0.00, -0.00, -1.00, 72.7, 817.0)"> </text><text xml:space="preserve" font-family="Helvetica-Bold,Helvetica" font-weight="bold" font-size="39.0" fill="#000000" transform="matrix(1.00, 0.00, -0.00, -1.00, 83.5, 817.0)">S</text><text xml:space="preserve" font-family="Helvetica-Bold,Helvetica" font-weight="bold" font-size="39.0" fill="#000000" transform="matrix(1.00, 0.00, -0.00, -1.00, 109.5, 817.0)">y</text><text xml:space="preserve" font-family="Helvetica-Bold,Helvetica" font-weight="bold" font-size="39.0" fill="#000000" transform="matrix(1.00, 0.00, -0.00, -1.00, 131.2, 817.0)">d</text><text xml:space="preserve" font-family="Helvetica-Bold,Helvetica" font-weight="bold" font-size="39.0" fill="#000000" transform="matrix(1.00, 0.00, -0.00, -1.00, 155.0, 817.0)">n</text><text xml:space="preserve" font-family="Helvetica-Bold,Helvetica" font-weight="bold" font-size="39.0" fill="#000000" transform="matrix(1.00, 0.00, -0.00, -1.00, 178.9, 817.0)">e</text><text xml:space="preserve" font-family="Helvetica-Bold,Helvetica" font-weight="bold" font-size="39.0" fill="#000000" transform="matrix(1.00, 0.00, -0.00, -1.00, 200.6, 817.0)">y</text><text xml:space="preserve" font-family="Helvetica-Bold,Helvetica" font-weight="bold" font-size="39.0" fill="#000000" transform="matrix(1.00, 0.00, -0.00, -1.00, 222.3, 817.0)"> </text><text xml:space="preserve" font-family="Helvetica-Light,Helvetica" font-size="39.0" fill="#000000" transform="matrix(1.00, 0.00, -0.00, -1.00, 233.1, 817.0)">A</text><text xml:space="preserve" font-family="Helvetica-Light,Helvetica" font-size="39.0" fill="#000000" transform="matrix(1.00, 0.00, -0.00, -1.00, 259.1, 817.0)">F</text><text xml:space="preserve" font-family="Helvetica-Light,Helvetica" font-size="39.0" fill="#000000" transform="matrix(1.00, 0.00, -0.00, -1.00, 280.8, 817.0)">L</text><text xml:space="preserve" font-family="Helvetica-Light,Helvetica" font-size="39.0" fill="#000000" transform="matrix(1.00, 0.00, -0.00, -1.00, 302.5, 817.0)"> </text><text xml:space="preserve" font-family="Helvetica-Light,Helvetica" font-size="39.0" fill="#000000" transform="matrix(1.00, 0.00, -0.00, -1.00, 313.3, 817.0)">m</text><text xml:space="preserve" font-family="Helvetica-Light,Helvetica" font-size="39.0" fill="#000000" transform="matrix(1.00, 0.00, -0.00, -1.00, 345.8, 817.0)">a</text><text xml:space="preserve" font-family="Helvetica-Light,Helvetica" font-size="39.0" fill="#000000" transform="matrix(1.00, 0.00, -0.00, -1.00, 367.5, 817.0)">t</text><text xml:space="preserve" font-family="Helvetica-Light,Helvetica" font-size="39.0" fill="#000000" transform="matrix(1.00, 0.00, -0.00, -1.00, 378.3, 817.0)">c</text><text xml:space="preserve" font-family="Helvetica-Light,Helvetica" font-size="39.0" fill="#000000" transform="matrix(1.00, 0.00, -0.00, -1.00, 400.0, 817.0)">h</text><text xml:space="preserve" font-family="Helvetica-Light,Helvetica" font-size="39.0" fill="#000000" transform="matrix(1.00, 0.00, -0.00, -1.00, 421.7, 817.0)">.</text><text xml:space="preserve" font-family="Helvetica-Light,Helvetica" font-size="39.0" fill="#000000" transform="matrix(1.00, 0.00, -0.00, -1.00, 432.5, 817.0)"> </text><text xml:space="preserve" font-family="Helvetica-Light,Helvetica" font-size="39.0" fill="#000000" transform="matrix(1.00, 0.00, -0.00, -1.00, 443.4, 817.0)">A</text><text xml:space="preserve" font-family="Helvetica-Light,Helvetica" font-size="39.0" fill="#000000" transform="matrix(1.00, 0.00, -0.00, -1.00, 469.4, 817.0)">l</text><text xml:space="preserve" font-family="Helvetica-Light,Helvetica" font-size="39.0" fill="#000000" transform="matrix(1.00, 0.00, -0.00, -1.00, 478.0, 817.0)">s</text><text xml:space="preserve" font-family="Helvetica-Light,Helvetica" font-size="39.0" fill="#000000" transform="matrix(1.00, 0.00, -0.00, -1.00, 497.5, 817.0)">o</text><text xml:space="preserve" font-family="Helvetica-Light,Helvetica" font-size="39.0" fill="#000000" transform="matrix(1.00, 0.00, -0.00, -1.00, 519.2, 817.0)"> </text><text xml:space="preserve" font-family="Helvetica-Light,Helvetica" font-size="39.0" fill="#000000" transform="matrix(1.00, 0.00, -0.00, -1.00, 46.7, 770.0)">i</text><text xml:space="preserve" font-family="Helvetica-Light,Helvetica" font-size="39.0" fill="#000000" transform="matrix(1.00, 0.00, -0.00, -1.00, 55.3, 770.0)">n</text><text xml:space="preserve" font-family="Helvetica-Light,Helvetica" font-size="39.0" fill="#000000" transform="matrix(1.00, 0.00, -0.00, -1.00, 77.0, 770.0)">c</text><text xml:space="preserve" font-family="Helvetica-Light,Helvetica" font-size="39.0" fill="#000000" transform="matrix(1.00, 0.00, -0.00, -1.00, 98.7, 770.0)">l</text><text xml:space="preserve" font-family="Helvetica-Light,Helvetica" font-size="39.0" fill="#000000" transform="matrix(1.00, 0.00, -0.00, -1.00, 107.4, 770.0)">u</text><text xml:space="preserve" font-family="Helvetica-Light,Helvetica" font-size="39.0" fill="#000000" transform="matrix(1.00, 0.00, -0.00, -1.00, 129.0, 770.0)">d</text><text xml:space="preserve" font-family="Helvetica-Light,Helvetica" font-size="39.0" fill="#000000" transform="matrix(1.00, 0.00, -0.00, -1.00, 152.9, 770.0)">e</text><text xml:space="preserve" font-family="Helvetica-Light,Helvetica" font-size="39.0" fill="#000000" transform="matrix(1.00, 0.00, -0.00, -1.00, 174.6, 770.0)"> </text><text xml:space="preserve" font-family="Helvetica-Light,Helvetica" font-size="39.0" fill="#000000" transform="matrix(1.00, 0.00, -0.00, -1.00, 185.4, 770.0)">t</text><text xml:space="preserve" font-family="Helvetica-Light,Helvetica" font-size="39.0" fill="#000000" transform="matrix(1.00, 0.00, -0.00, -1.00, 196.2, 770.0)">h</text><text xml:space="preserve" font-family="Helvetica-Light,Helvetica" font-size="39.0" fill="#000000" transform="matrix(1.00, 0.00, -0.00, -1.00, 217.9, 770.0)">i</text><text xml:space="preserve" font-family="Helvetica-Light,Helvetica" font-size="39.0" fill="#000000" transform="matrix(1.00, 0.00, -0.00, -1.00, 226.6, 770.0)">s</text><text xml:space="preserve" font-family="Helvetica-Light,Helvetica" font-size="39.0" fill="#000000" transform="matrix(1.00, 0.00, -0.00, -1.00, 246.1, 770.0)"> </text><text xml:space="preserve" font-family="Helvetica-Light,Helvetica" font-size="39.0" fill="#000000" transform="matrix(1.00, 0.00, -0.00, -1.00, 256.9, 770.0)">g</text><text xml:space="preserve" font-family="Helvetica-Light,Helvetica" font-size="39.0" fill="#000000" transform="matrix(1.00, 0.00, -0.00, -1.00, 280.8, 770.0)">a</text><text xml:space="preserve" font-family="Helvetica-Light,Helvetica" font-size="39.0" fill="#000000" transform="matrix(1.00, 0.00, -0.00, -1.00, 302.4, 770.0)">m</text><text xml:space="preserve" font-family="Helvetica-Light,Helvetica" font-size="39.0" fill="#000000" transform="matrix(1.00, 0.00, -0.00, -1.00, 334.9, 770.0)">e</text><text xml:space="preserve" font-family="Helvetica-Light,Helvetica" font-size="39.0" fill="#000000" transform="matrix(1.00, 0.00, -0.00, -1.00, 356.6, 770.0)"> </text><text xml:space="preserve" font-family="Helvetica-Light,Helvetica" font-size="39.0" fill="#000000" transform="matrix(1.00, 0.00, -0.00, -1.00, 367.5, 770.0)">i</text><text xml:space="preserve" font-family="Helvetica-Light,Helvetica" font-size="39.0" fill="#000000" transform="matrix(1.00, 0.00, -0.00, -1.00, 376.1, 770.0)">n</text><text xml:space="preserve" font-family="Helvetica-Light,Helvetica" font-size="39.0" fill="#000000" transform="matrix(1.00, 0.00, -0.00, -1.00, 397.8, 770.0)"> </text><text xml:space="preserve" font-family="Helvetica-Light,Helvetica" font-size="39.0" fill="#000000" transform="matrix(1.00, 0.00, -0.00, -1.00, 408.6, 770.0)">a</text><text xml:space="preserve" font-family="Helvetica-Light,Helvetica" font-size="39.0" fill="#000000" transform="matrix(1.00, 0.00, -0.00, -1.00, 430.3, 770.0)"> </text><text xml:space="preserve" font-family="Helvetica-Bold,Helvetica" font-weight="bold" font-size="39.0" fill="#000000" transform="matrix(1.00, 0.00, -0.00, -1.00, 441.2, 770.0)">$</text><text xml:space="preserve" font-family="Helvetica-Bold,Helvetica" font-weight="bold" font-size="39.0" fill="#000000" transform="matrix(1.00, 0.00, -0.00, -1.00, 462.9, 770.0)">1</text><text xml:space="preserve" font-family="Helvetica-Bold,Helvetica" font-weight="bold" font-size="39.0" fill="#000000" transform="matrix(1.00, 0.00, -0.00, -1.00, 484.6, 770.0)">0</text><text xml:space="preserve" font-family="Helvetica-Light,Helvetica" font-size="39.0" fill="#000000" transform="matrix(1.00, 0.00, -0.00, -1.00, 506.2, 770.0)"> </text><text xml:space="preserve" font-family="Helvetica-Bold,Helvetica" font-weight="bold" font-size="39.0" fill="#000000" transform="matrix(1.00, 0.00, -0.00, -1.00, 517.1, 770.0)">A</text><text xml:space="preserve" font-family="Helvetica-Bold,Helvetica" font-weight="bold" font-size="39.0" fill="#000000" transform="matrix(1.00, 0.00, -0.00, -1.00, 545.2, 770.0)">l</text><text xml:space="preserve" font-family="Helvetica-Bold,Helvetica" font-weight="bold" font-size="39.0" fill="#000000" transform="matrix(1.00, 0.00, -0.00, -1.00, 556.1, 770.0)">l</text><text xml:space="preserve" font-family="Helvetica-Bold,Helvetica" font-weight="bold" font-size="39.0" fill="#000000" transform="matrix(1.00, 0.00, -0.00, -1.00, 566.9, 770.0)"> </text><text xml:space="preserve" font-family="Helvetica-Bold,Helvetica" font-weight="bold" font-size="39.0" fill="#000000" transform="matrix(1.00, 0.00, -0.00, -1.00, 46.7, 723.0)">U</text><text xml:space="preserve" font-family="Helvetica-Bold,Helvetica" font-weight="bold" font-size="39.0" fill="#000000" transform="matrix(1.00, 0.00, -0.00, -1.00, 74.9, 723.0)">p</text><text xml:space="preserve" font-family="Helvetica-Bold,Helvetica" font-weight="bold" font-size="39.0" fill="#000000" transform="matrix(1.00, 0.00, -0.00, -1.00, 98.7, 723.0)"> </text><text xml:space="preserve" font-family="Helvetica-Bold,Helvetica" font-weight="bold" font-size="39.0" fill="#000000" transform="matrix(1.00, 0.00, -0.00, -1.00, 109.5, 723.0)">M</text><text xml:space="preserve" font-family="Helvetica-Bold,Helvetica" font-weight="bold" font-size="39.0" fill="#000000" transform="matrix(1.00, 0.00, -0.00, -1.00, 142.0, 723.0)">u</text><text xml:space="preserve" font-family="Helvetica-Bold,Helvetica" font-weight="bold" font-size="39.0" fill="#000000" transform="matrix(1.00, 0.00, -0.00, -1.00, 165.8, 723.0)">l</text><text xml:space="preserve" font-family="Helvetica-Bold,Helvetica" font-weight="bold" font-size="39.0" fill="#000000" transform="matrix(1.00, 0.00, -0.00, -1.00, 176.6, 723.0)">t</text><text xml:space="preserve" font-family="Helvetica-Bold,Helvetica" font-weight="bold" font-size="39.0" fill="#000000" transform="matrix(1.00, 0.00, -0.00, -1.00, 189.6, 723.0)">i</text><text xml:space="preserve" font-family="Helvetica-Light,Helvetica" font-size="39.0" fill="#000000" transform="matrix(1.00, 0.00, -0.00, -1.00, 200.5, 723.0)">.</text><image xlink:href="../../C3973CD3-C593-4B6C-B28A-93820E7F420B/assets/774E3763EFA823074E43E4A6595BB7E5.png" width="543.00" height="247.00" transform="matrix(1.00, 0.00, -0.00, -1.00, 43.2, 358.1)"></image><path d="M 83.0 287.0 L 546.0 287.0 L 546.0 183.0 L 83.0 183.0 Z M 83.2 287.5 " fill="#51A7F9"></path><g><clipPath id="clip0x6000046b60e0"><path d="M 77.2 183.3 L 551.6 183.3 L 551.6 287.5 L 77.2 287.5 Z M 77.2 183.3 "></path></clipPath><g clip-path="url(#clip0x6000046b60e0)"><text xml:space="preserve" font-family="Helvetica-Bold,Helvetica" font-weight="bold" font-size="34.0" fill="#FEFFFE" transform="matrix(1.00, 0.00, -0.00, -1.00, 170.8, 222.8)">C</text><text xml:space="preserve" font-family="Helvetica-Bold,Helvetica" font-weight="bold" font-size="34.0" fill="#FEFFFE" transform="matrix(1.00, 0.00, -0.00, -1.00, 195.3, 222.8)">l</text><text xml:space="preserve" font-family="Helvetica-Bold,Helvetica" font-weight="bold" font-size="34.0" fill="#FEFFFE" transform="matrix(1.00, 0.00, -0.00, -1.00, 204.8, 222.8)">i</text><text xml:space="preserve" font-family="Helvetica-Bold,Helvetica" font-weight="bold" font-size="34.0" fill="#FEFFFE" transform="matrix(1.00, 0.00, -0.00, -1.00, 214.2, 222.8)">c</text><text xml:space="preserve" font-family="Helvetica-Bold,Helvetica" font-weight="bold" font-size="34.0" fill="#FEFFFE" transform="matrix(1.00, 0.00, -0.00, -1.00, 233.1, 222.8)">k</text><text xml:space="preserve" font-family="Helvetica-Bold,Helvetica" font-weight="bold" font-size="34.0" fill="#FEFFFE" transform="matrix(1.00, 0.00, -0.00, -1.00, 252.0, 222.8)"> </text><text xml:space="preserve" font-family="Helvetica-Bold,Helvetica" font-weight="bold" font-size="34.0" fill="#FEFFFE" transform="matrix(1.00, 0.00, -0.00, -1.00, 261.5, 222.8)">h</text><text xml:space="preserve" font-family="Helvetica-Bold,Helvetica" font-weight="bold" font-size="34.0" fill="#FEFFFE" transform="matrix(1.00, 0.00, -0.00, -1.00, 282.2, 222.8)">e</text><text xml:space="preserve" font-family="Helvetica-Bold,Helvetica" font-weight="bold" font-size="34.0" fill="#FEFFFE" transform="matrix(1.00, 0.00, -0.00, -1.00, 301.2, 222.8)">r</text><text xml:space="preserve" font-family="Helvetica-Bold,Helvetica" font-weight="bold" font-size="34.0" fill="#FEFFFE" transform="matrix(1.00, 0.00, -0.00, -1.00, 314.4, 222.8)">e</text><text xml:space="preserve" font-family="Helvetica-Bold,Helvetica" font-weight="bold" font-size="34.0" fill="#FEFFFE" transform="matrix(1.00, 0.00, -0.00, -1.00, 333.3, 222.8)"> </text><text xml:space="preserve" font-family="Helvetica-Bold,Helvetica" font-weight="bold" font-size="34.0" fill="#FEFFFE" transform="matrix(1.00, 0.00, -0.00, -1.00, 342.8, 222.8)">t</text><text xml:space="preserve" font-family="Helvetica-Bold,Helvetica" font-weight="bold" font-size="34.0" fill="#FEFFFE" transform="matrix(1.00, 0.00, -0.00, -1.00, 354.1, 222.8)">o</text><text xml:space="preserve" font-family="Helvetica-Bold,Helvetica" font-weight="bold" font-size="34.0" fill="#FEFFFE" transform="matrix(1.00, 0.00, -0.00, -1.00, 374.8, 222.8)"> </text><text xml:space="preserve" font-family="Helvetica-Bold,Helvetica" font-weight="bold" font-size="34.0" fill="#FEFFFE" transform="matrix(1.00, 0.00, -0.00, -1.00, 384.3, 222.8)">s</text><text xml:space="preserve" font-family="Helvetica-Bold,Helvetica" font-weight="bold" font-size="34.0" fill="#FEFFFE" transform="matrix(1.00, 0.00, -0.00, -1.00, 403.2, 222.8)">t</text><text xml:space="preserve" font-family="Helvetica-Bold,Helvetica" font-weight="bold" font-size="34.0" fill="#FEFFFE" transform="matrix(1.00, 0.00, -0.00, -1.00, 414.5, 222.8)">a</text><text xml:space="preserve" font-family="Helvetica-Bold,Helvetica" font-weight="bold" font-size="34.0" fill="#FEFFFE" transform="matrix(1.00, 0.00, -0.00, -1.00, 433.4, 222.8)">r</text><text xml:space="preserve" font-family="Helvetica-Bold,Helvetica" font-weight="bold" font-size="34.0" fill="#FEFFFE" transform="matrix(1.00, 0.00, -0.00, -1.00, 446.7, 222.8)">t</text></g></g></g></svg>