<?xml version="1.0" encoding="UTF-8" standalone="no"?><svg xmlns="http://www.w3.org/2000/svg" xmlns:xlink="http://www.w3.org/1999/xlink" clip-rule="evenodd" stroke-miterlimit="10" viewBox="0 0 640 1136"><desc>SVG generated by Keynote</desc><defs></defs><g transform="matrix(1.00, 0.00, -0.00, -1.00, 0.0, 1136.0)"><path d="M 0.0 1136.0 L 640.0 1136.0 L 640.0 0.0 L 0.0 0.0 Z M 0.0 1136.0 " fill="#FEFFFF"></path><g><clipPath id="clip0x6180034be0c0"><path d="M 0.0 1056.0 L 640.0 1056.0 L 640.0 1136.0 L 0.0 1136.0 Z M 0.0 1056.0 "></path></clipPath><g clip-path="url(#clip0x6180034be0c0)"><path d="M 0.0 1136.0 L 640.0 1136.0 L 640.0 1056.0 L 0.0 1056.0 Z M 0.0 1136.0 " fill="#248F52"></path><path d="M 20.0 1118.0 L 65.0 1118.0 L 65.0 1110.0 L 20.0 1110.0 Z M 20.0 1118.0 " fill="#FEFFFF"></path><path d="M 20.0 1100.0 L 65.0 1100.0 L 65.0 1092.0 L 20.0 1092.0 Z M 20.0 1100.0 " fill="#FEFFFF"></path><path d="M 20.0 1082.0 L 65.0 1082.0 L 65.0 1074.0 L 20.0 1074.0 Z M 20.0 1082.0 " fill="#FEFFFF"></path></g></g><g><clipPath id="clip0x6180034be6c0"><path d="M 291.8 1128.2 L 356.2 1128.2 L 356.2 1063.8 L 291.8 1063.8 Z M 291.8 1128.2 "></path></clipPath><g clip-path="url(#clip0x6180034be6c0)"><g><clipPath id="clip0x6180034be8a0"><path d="M 291.8 1063.8 L 356.2 1063.8 L 356.2 1128.2 L 291.8 1128.2 Z M 291.8 1063.8 "></path></clipPath><g clip-path="url(#clip0x6180034be8a0)"><g><g><clipPath id="clip0x6180034bea20"><path d="M 291.8 1063.8 L 356.2 1063.8 L 356.2 1128.2 L 291.8 1128.2 Z M 291.8 1063.8 "></path></clipPath><g clip-path="url(#clip0x6180034bea20)"><g><g><clipPath id="clip0x6180034bec00"><path d="M 291.8 1128.2 L 356.2 1128.2 L 356.2 1063.8 L 291.8 1063.8 Z M 291.8 1128.2 "></path></clipPath><g clip-path="url(#clip0x6180034bec00)"><g><clipPath id="clip0x6180034bed80"><path d="M 291.8 1063.8 L 356.2 1063.8 L 356.2 1128.2 L 291.8 1128.2 Z M 291.8 1063.8 "></path></clipPath><g clip-path="url(#clip0x6180034bed80)"><path d="M 356.2 1085.2 C 356.2 1082.9 354.3 1080.5 352.0 1079.9 L 349.6 1079.3 L 291.8 1063.8 L 291.8 1102.6 C 291.8 1107.2 295.5 1111.9 300.1 1113.2 L 302.5 1113.8 L 356.2 1128.2 L 356.2 1085.2 " fill="#FFFEFE"></path></g></g></g></g><g><clipPath id="clip0x6180034bef60"><path d="M 291.8 1063.8 L 356.2 1063.8 L 356.2 1128.2 L 291.8 1128.2 Z M 291.8 1063.8 "></path></clipPath><g clip-path="url(#clip0x6180034bef60)"><path d="M 345.0 1090.4 C 345.0 1089.1 344.3 1088.6 342.3 1088.6 L 339.4 1088.6 L 339.4 1093.6 L 343.1 1093.6 C 344.4 1093.6 345.0 1093.0 345.0 1091.9 L 345.0 1090.4 Z M 339.4 1102.2 L 342.4 1102.2 C 344.1 1102.2 344.3 1101.5 344.3 1100.9 L 344.3 1098.7 C 344.3 1097.9 343.6 1097.4 342.4 1097.4 L 339.4 1097.4 L 339.4 1102.2 Z M 347.4 1095.9 C 348.6 1096.7 349.1 1097.7 349.1 1099.1 L 349.1 1101.2 C 349.1 1104.5 347.1 1106.1 342.9 1106.1 L 334.4 1106.1 L 334.4 1084.7 L 343.6 1084.7 C 347.6 1084.7 349.9 1086.7 349.9 1090.0 L 349.9 1092.0 C 349.9 1093.7 348.9 1095.2 347.4 1095.9 " fill="#0F7C3F"></path><path d="M 313.6 1101.3 C 314.2 1101.4 314.7 1101.9 314.7 1102.5 L 314.7 1102.7 L 314.7 1106.1 L 300.6 1106.1 C 299.3 1106.1 298.2 1105.0 298.2 1103.7 L 298.2 1101.3 L 303.8 1101.3 L 303.8 1084.7 L 306.7 1084.7 C 308.0 1084.7 309.1 1085.8 309.1 1087.1 L 309.1 1101.3 L 313.6 1101.3 " fill="#0F7C3F"></path><path d="M 320.8 1093.0 L 323.0 1100.8 L 325.1 1093.0 L 320.8 1093.0 Z M 327.3 1103.0 C 326.8 1104.8 325.0 1106.1 323.0 1106.1 L 319.6 1106.1 L 313.1 1084.7 L 317.2 1084.7 C 317.2 1084.7 317.3 1084.7 317.4 1084.7 C 317.6 1084.7 317.8 1084.7 317.8 1084.7 C 318.3 1084.7 318.7 1085.1 318.9 1085.5 L 319.0 1085.7 L 319.8 1088.8 L 326.2 1088.8 L 327.4 1084.7 L 332.9 1084.7 L 327.3 1102.9 L 327.3 1103.0 " fill="#0F7C3F"></path></g></g></g></g></g></g></g></g></g></g><image xlink:href="../../C3973CD3-C593-4B6C-B28A-93820E7F420B/assets/345A239FFB65B77B4811BBA30D076337.png" width="642.00" height="1061.00" transform="matrix(1.00, 0.00, -0.00, -1.00, -1.0, 1055.2)" opacity="0.50"></image><path d="M 0.0 1055.0 L 640.0 1055.0 L 640.0 -4.0 L 0.0 -4.0 Z M 0.0 1055.2 " fill="#D3FCB7" fill-opacity="0.92"></path><text xml:space="preserve" font-family="Helvetica-Light,Helvetica" font-size="37.0" fill="#000000" transform="matrix(1.00, 0.00, -0.00, -1.00, 47.0, 940.6)">I</text><text xml:space="preserve" font-family="Helvetica-Light,Helvetica" font-size="37.0" fill="#000000" transform="matrix(1.00, 0.00, -0.00, -1.00, 57.3, 940.6)">n</text><text xml:space="preserve" font-family="Helvetica-Light,Helvetica" font-size="37.0" fill="#000000" transform="matrix(1.00, 0.00, -0.00, -1.00, 77.9, 940.6)"> </text><text xml:space="preserve" font-family="Helvetica-Light,Helvetica" font-size="37.0" fill="#000000" transform="matrix(1.00, 0.00, -0.00, -1.00, 88.1, 940.6)">t</text><text xml:space="preserve" font-family="Helvetica-Light,Helvetica" font-size="37.0" fill="#000000" transform="matrix(1.00, 0.00, -0.00, -1.00, 98.4, 940.6)">h</text><text xml:space="preserve" font-family="Helvetica-Light,Helvetica" font-size="37.0" fill="#000000" transform="matrix(1.00, 0.00, -0.00, -1.00, 119.0, 940.6)">e</text><text xml:space="preserve" font-family="Helvetica-Light,Helvetica" font-size="37.0" fill="#000000" transform="matrix(1.00, 0.00, -0.00, -1.00, 139.6, 940.6)"> </text><text xml:space="preserve" font-family="Helvetica-Light,Helvetica" font-size="37.0" fill="#000000" transform="matrix(1.00, 0.00, -0.00, -1.00, 149.9, 940.6)">n</text><text xml:space="preserve" font-family="Helvetica-Light,Helvetica" font-size="37.0" fill="#000000" transform="matrix(1.00, 0.00, -0.00, -1.00, 170.4, 940.6)">e</text><text xml:space="preserve" font-family="Helvetica-Light,Helvetica" font-size="37.0" fill="#000000" transform="matrix(1.00, 0.00, -0.00, -1.00, 191.0, 940.6)">x</text><text xml:space="preserve" font-family="Helvetica-Light,Helvetica" font-size="37.0" fill="#000000" transform="matrix(1.00, 0.00, -0.00, -1.00, 209.5, 940.6)">t</text><text xml:space="preserve" font-family="Helvetica-Light,Helvetica" font-size="37.0" fill="#000000" transform="matrix(1.00, 0.00, -0.00, -1.00, 219.8, 940.6)"> </text><text xml:space="preserve" font-family="Helvetica-Light,Helvetica" font-size="37.0" fill="#000000" transform="matrix(1.00, 0.00, -0.00, -1.00, 230.1, 940.6)">s</text><text xml:space="preserve" font-family="Helvetica-Light,Helvetica" font-size="37.0" fill="#000000" transform="matrix(1.00, 0.00, -0.00, -1.00, 248.6, 940.6)">c</text><text xml:space="preserve" font-family="Helvetica-Light,Helvetica" font-size="37.0" fill="#000000" transform="matrix(1.00, 0.00, -0.00, -1.00, 269.1, 940.6)">r</text><text xml:space="preserve" font-family="Helvetica-Light,Helvetica" font-size="37.0" fill="#000000" transform="matrix(1.00, 0.00, -0.00, -1.00, 280.8, 940.6)">e</text><text xml:space="preserve" font-family="Helvetica-Light,Helvetica" font-size="37.0" fill="#000000" transform="matrix(1.00, 0.00, -0.00, -1.00, 301.4, 940.6)">e</text><text xml:space="preserve" font-family="Helvetica-Light,Helvetica" font-size="37.0" fill="#000000" transform="matrix(1.00, 0.00, -0.00, -1.00, 321.9, 940.6)">n</text><text xml:space="preserve" font-family="Helvetica-Light,Helvetica" font-size="37.0" fill="#000000" transform="matrix(1.00, 0.00, -0.00, -1.00, 342.5, 940.6)">,</text><text xml:space="preserve" font-family="Helvetica-Light,Helvetica" font-size="37.0" fill="#000000" transform="matrix(1.00, 0.00, -0.00, -1.00, 352.8, 940.6)"> </text><text xml:space="preserve" font-family="Helvetica-Light,Helvetica" font-size="37.0" fill="#000000" transform="matrix(1.00, 0.00, -0.00, -1.00, 363.1, 940.6)">l</text><text xml:space="preserve" font-family="Helvetica-Light,Helvetica" font-size="37.0" fill="#000000" transform="matrix(1.00, 0.00, -0.00, -1.00, 371.3, 940.6)">o</text><text xml:space="preserve" font-family="Helvetica-Light,Helvetica" font-size="37.0" fill="#000000" transform="matrix(1.00, 0.00, -0.00, -1.00, 391.9, 940.6)">o</text><text xml:space="preserve" font-family="Helvetica-Light,Helvetica" font-size="37.0" fill="#000000" transform="matrix(1.00, 0.00, -0.00, -1.00, 412.4, 940.6)">k</text><text xml:space="preserve" font-family="Helvetica-Light,Helvetica" font-size="37.0" fill="#000000" transform="matrix(1.00, 0.00, -0.00, -1.00, 430.9, 940.6)"> </text><text xml:space="preserve" font-family="Helvetica-Light,Helvetica" font-size="37.0" fill="#000000" transform="matrix(1.00, 0.00, -0.00, -1.00, 441.2, 940.6)">t</text><text xml:space="preserve" font-family="Helvetica-Light,Helvetica" font-size="37.0" fill="#000000" transform="matrix(1.00, 0.00, -0.00, -1.00, 451.5, 940.6)">o</text><text xml:space="preserve" font-family="Helvetica-Light,Helvetica" font-size="37.0" fill="#000000" transform="matrix(1.00, 0.00, -0.00, -1.00, 472.1, 940.6)"> </text><text xml:space="preserve" font-family="Helvetica-Light,Helvetica" font-size="37.0" fill="#000000" transform="matrix(1.00, 0.00, -0.00, -1.00, 482.4, 940.6)">p</text><text xml:space="preserve" font-family="Helvetica-Light,Helvetica" font-size="37.0" fill="#000000" transform="matrix(1.00, 0.00, -0.00, -1.00, 505.0, 940.6)">l</text><text xml:space="preserve" font-family="Helvetica-Light,Helvetica" font-size="37.0" fill="#000000" transform="matrix(1.00, 0.00, -0.00, -1.00, 513.2, 940.6)">a</text><text xml:space="preserve" font-family="Helvetica-Light,Helvetica" font-size="37.0" fill="#000000" transform="matrix(1.00, 0.00, -0.00, -1.00, 533.8, 940.6)">c</text><text xml:space="preserve" font-family="Helvetica-Light,Helvetica" font-size="37.0" fill="#000000" transform="matrix(1.00, 0.00, -0.00, -1.00, 554.3, 940.6)">e</text><text xml:space="preserve" font-family="Helvetica-Light,Helvetica" font-size="37.0" fill="#000000" transform="matrix(1.00, 0.00, -0.00, -1.00, 574.9, 940.6)"> </text><text xml:space="preserve" font-family="Helvetica-Light,Helvetica" font-size="37.0" fill="#000000" transform="matrix(1.00, 0.00, -0.00, -1.00, 47.0, 896.6)">a</text><text xml:space="preserve" font-family="Helvetica-Light,Helvetica" font-size="37.0" fill="#000000" transform="matrix(1.00, 0.00, -0.00, -1.00, 67.6, 896.6)">n</text><text xml:space="preserve" font-family="Helvetica-Light,Helvetica" font-size="37.0" fill="#000000" transform="matrix(1.00, 0.00, -0.00, -1.00, 88.1, 896.6)"> </text><text xml:space="preserve" font-family="Helvetica-Bold,Helvetica" font-weight="bold" font-size="37.0" fill="#000000" transform="matrix(1.00, 0.00, -0.00, -1.00, 98.4, 896.6)">A</text><text xml:space="preserve" font-family="Helvetica-Bold,Helvetica" font-weight="bold" font-size="37.0" fill="#000000" transform="matrix(1.00, 0.00, -0.00, -1.00, 125.2, 896.6)">l</text><text xml:space="preserve" font-family="Helvetica-Bold,Helvetica" font-weight="bold" font-size="37.0" fill="#000000" transform="matrix(1.00, 0.00, -0.00, -1.00, 135.4, 896.6)">l</text><text xml:space="preserve" font-family="Helvetica-Bold,Helvetica" font-weight="bold" font-size="37.0" fill="#000000" transform="matrix(1.00, 0.00, -0.00, -1.00, 145.7, 896.6)"> </text><text xml:space="preserve" font-family="Helvetica-Bold,Helvetica" font-weight="bold" font-size="37.0" fill="#000000" transform="matrix(1.00, 0.00, -0.00, -1.00, 156.0, 896.6)">U</text><text xml:space="preserve" font-family="Helvetica-Bold,Helvetica" font-weight="bold" font-size="37.0" fill="#000000" transform="matrix(1.00, 0.00, -0.00, -1.00, 182.7, 896.6)">p</text><text xml:space="preserve" font-family="Helvetica-Bold,Helvetica" font-weight="bold" font-size="37.0" fill="#000000" transform="matrix(1.00, 0.00, -0.00, -1.00, 205.3, 896.6)"> </text><text xml:space="preserve" font-family="Helvetica-Bold,Helvetica" font-weight="bold" font-size="37.0" fill="#000000" transform="matrix(1.00, 0.00, -0.00, -1.00, 215.6, 896.6)">M</text><text xml:space="preserve" font-family="Helvetica-Bold,Helvetica" font-weight="bold" font-size="37.0" fill="#000000" transform="matrix(1.00, 0.00, -0.00, -1.00, 246.4, 896.6)">u</text><text xml:space="preserve" font-family="Helvetica-Bold,Helvetica" font-weight="bold" font-size="37.0" fill="#000000" transform="matrix(1.00, 0.00, -0.00, -1.00, 269.0, 896.6)">l</text><text xml:space="preserve" font-family="Helvetica-Bold,Helvetica" font-weight="bold" font-size="37.0" fill="#000000" transform="matrix(1.00, 0.00, -0.00, -1.00, 279.3, 896.6)">t</text><text xml:space="preserve" font-family="Helvetica-Bold,Helvetica" font-weight="bold" font-size="37.0" fill="#000000" transform="matrix(1.00, 0.00, -0.00, -1.00, 291.6, 896.6)">i</text><text xml:space="preserve" font-family="Helvetica-Light,Helvetica" font-size="37.0" fill="#000000" transform="matrix(1.00, 0.00, -0.00, -1.00, 301.9, 896.6)"> </text><text xml:space="preserve" font-family="Helvetica-Light,Helvetica" font-size="37.0" fill="#000000" transform="matrix(1.00, 0.00, -0.00, -1.00, 312.2, 896.6)">b</text><text xml:space="preserve" font-family="Helvetica-Light,Helvetica" font-size="37.0" fill="#000000" transform="matrix(1.00, 0.00, -0.00, -1.00, 334.8, 896.6)">e</text><text xml:space="preserve" font-family="Helvetica-Light,Helvetica" font-size="37.0" fill="#000000" transform="matrix(1.00, 0.00, -0.00, -1.00, 355.4, 896.6)">t</text><text xml:space="preserve" font-family="Helvetica-Light,Helvetica" font-size="37.0" fill="#000000" transform="matrix(1.00, 0.00, -0.00, -1.00, 365.6, 896.6)"> </text><text xml:space="preserve" font-family="Helvetica-Light,Helvetica" font-size="37.0" fill="#000000" transform="matrix(1.00, 0.00, -0.00, -1.00, 375.9, 896.6)">–</text><text xml:space="preserve" font-family="Helvetica-Light,Helvetica" font-size="37.0" fill="#000000" transform="matrix(1.00, 0.00, -0.00, -1.00, 394.4, 896.6)"> </text><text xml:space="preserve" font-family="Helvetica-Light,Helvetica" font-size="37.0" fill="#000000" transform="matrix(1.00, 0.00, -0.00, -1.00, 404.7, 896.6)">l</text><text xml:space="preserve" font-family="Helvetica-Light,Helvetica" font-size="37.0" fill="#000000" transform="matrix(1.00, 0.00, -0.00, -1.00, 412.9, 896.6)">o</text><text xml:space="preserve" font-family="Helvetica-Light,Helvetica" font-size="37.0" fill="#000000" transform="matrix(1.00, 0.00, -0.00, -1.00, 433.5, 896.6)">c</text><text xml:space="preserve" font-family="Helvetica-Light,Helvetica" font-size="37.0" fill="#000000" transform="matrix(1.00, 0.00, -0.00, -1.00, 454.1, 896.6)">a</text><text xml:space="preserve" font-family="Helvetica-Light,Helvetica" font-size="37.0" fill="#000000" transform="matrix(1.00, 0.00, -0.00, -1.00, 474.6, 896.6)">t</text><text xml:space="preserve" font-family="Helvetica-Light,Helvetica" font-size="37.0" fill="#000000" transform="matrix(1.00, 0.00, -0.00, -1.00, 484.9, 896.6)">e</text><text xml:space="preserve" font-family="Helvetica-Light,Helvetica" font-size="37.0" fill="#000000" transform="matrix(1.00, 0.00, -0.00, -1.00, 505.5, 896.6)"> </text><text xml:space="preserve" font-family="Helvetica-Light,Helvetica" font-size="37.0" fill="#000000" transform="matrix(1.00, 0.00, -0.00, -1.00, 515.8, 896.6)">t</text><text xml:space="preserve" font-family="Helvetica-Light,Helvetica" font-size="37.0" fill="#000000" transform="matrix(1.00, 0.00, -0.00, -1.00, 526.1, 896.6)">h</text><text xml:space="preserve" font-family="Helvetica-Light,Helvetica" font-size="37.0" fill="#000000" transform="matrix(1.00, 0.00, -0.00, -1.00, 546.6, 896.6)">e</text><text xml:space="preserve" font-family="Helvetica-Light,Helvetica" font-size="37.0" fill="#000000" transform="matrix(1.00, 0.00, -0.00, -1.00, 567.2, 896.6)"> </text><text xml:space="preserve" font-family="Helvetica-Light,Helvetica" font-size="37.0" fill="#000000" transform="matrix(1.00, 0.00, -0.00, -1.00, 47.0, 852.6)">M</text><text xml:space="preserve" font-family="Helvetica-Light,Helvetica" font-size="37.0" fill="#000000" transform="matrix(1.00, 0.00, -0.00, -1.00, 77.8, 852.6)">u</text><text xml:space="preserve" font-family="Helvetica-Light,Helvetica" font-size="37.0" fill="#000000" transform="matrix(1.00, 0.00, -0.00, -1.00, 98.4, 852.6)">l</text><text xml:space="preserve" font-family="Helvetica-Light,Helvetica" font-size="37.0" fill="#000000" transform="matrix(1.00, 0.00, -0.00, -1.00, 106.6, 852.6)">t</text><text xml:space="preserve" font-family="Helvetica-Light,Helvetica" font-size="37.0" fill="#000000" transform="matrix(1.00, 0.00, -0.00, -1.00, 116.9, 852.6)">i</text><text xml:space="preserve" font-family="Helvetica-Light,Helvetica" font-size="37.0" fill="#000000" transform="matrix(1.00, 0.00, -0.00, -1.00, 125.1, 852.6)"> </text><text xml:space="preserve" font-family="Helvetica-Light,Helvetica" font-size="37.0" fill="#000000" transform="matrix(1.00, 0.00, -0.00, -1.00, 135.4, 852.6)">a</text><text xml:space="preserve" font-family="Helvetica-Light,Helvetica" font-size="37.0" fill="#000000" transform="matrix(1.00, 0.00, -0.00, -1.00, 156.0, 852.6)">n</text><text xml:space="preserve" font-family="Helvetica-Light,Helvetica" font-size="37.0" fill="#000000" transform="matrix(1.00, 0.00, -0.00, -1.00, 176.5, 852.6)">d</text><text xml:space="preserve" font-family="Helvetica-Light,Helvetica" font-size="37.0" fill="#000000" transform="matrix(1.00, 0.00, -0.00, -1.00, 199.1, 852.6)"> </text><text xml:space="preserve" font-family="Helvetica-Light,Helvetica" font-size="37.0" fill="#000000" transform="matrix(1.00, 0.00, -0.00, -1.00, 209.4, 852.6)">l</text><text xml:space="preserve" font-family="Helvetica-Light,Helvetica" font-size="37.0" fill="#000000" transform="matrix(1.00, 0.00, -0.00, -1.00, 217.6, 852.6)">o</text><text xml:space="preserve" font-family="Helvetica-Light,Helvetica" font-size="37.0" fill="#000000" transform="matrix(1.00, 0.00, -0.00, -1.00, 238.2, 852.6)">o</text><text xml:space="preserve" font-family="Helvetica-Light,Helvetica" font-size="37.0" fill="#000000" transform="matrix(1.00, 0.00, -0.00, -1.00, 258.8, 852.6)">k</text><text xml:space="preserve" font-family="Helvetica-Light,Helvetica" font-size="37.0" fill="#000000" transform="matrix(1.00, 0.00, -0.00, -1.00, 277.3, 852.6)"> </text><text xml:space="preserve" font-family="Helvetica-Light,Helvetica" font-size="37.0" fill="#000000" transform="matrix(1.00, 0.00, -0.00, -1.00, 287.6, 852.6)">t</text><text xml:space="preserve" font-family="Helvetica-Light,Helvetica" font-size="37.0" fill="#000000" transform="matrix(1.00, 0.00, -0.00, -1.00, 297.9, 852.6)">o</text><text xml:space="preserve" font-family="Helvetica-Light,Helvetica" font-size="37.0" fill="#000000" transform="matrix(1.00, 0.00, -0.00, -1.00, 318.4, 852.6)"> </text><text xml:space="preserve" font-family="Helvetica-Light,Helvetica" font-size="37.0" fill="#000000" transform="matrix(1.00, 0.00, -0.00, -1.00, 328.7, 852.6)">s</text><text xml:space="preserve" font-family="Helvetica-Light,Helvetica" font-size="37.0" fill="#000000" transform="matrix(1.00, 0.00, -0.00, -1.00, 347.2, 852.6)">e</text><text xml:space="preserve" font-family="Helvetica-Light,Helvetica" font-size="37.0" fill="#000000" transform="matrix(1.00, 0.00, -0.00, -1.00, 367.8, 852.6)">e</text><text xml:space="preserve" font-family="Helvetica-Light,Helvetica" font-size="37.0" fill="#000000" transform="matrix(1.00, 0.00, -0.00, -1.00, 388.4, 852.6)"> </text><text xml:space="preserve" font-family="Helvetica-Bold,Helvetica" font-weight="bold" font-size="37.0" fill="#000000" transform="matrix(1.00, 0.00, -0.00, -1.00, 398.6, 852.6)">h</text><text xml:space="preserve" font-family="Helvetica-Bold,Helvetica" font-weight="bold" font-size="37.0" fill="#000000" transform="matrix(1.00, 0.00, -0.00, -1.00, 421.2, 852.6)">o</text><text xml:space="preserve" font-family="Helvetica-Bold,Helvetica" font-weight="bold" font-size="37.0" fill="#000000" transform="matrix(1.00, 0.00, -0.00, -1.00, 443.8, 852.6)">w</text><text xml:space="preserve" font-family="Helvetica-Bold,Helvetica" font-weight="bold" font-size="37.0" fill="#000000" transform="matrix(1.00, 0.00, -0.00, -1.00, 472.6, 852.6)"> </text><text xml:space="preserve" font-family="Helvetica-Bold,Helvetica" font-weight="bold" font-size="37.0" fill="#000000" transform="matrix(1.00, 0.00, -0.00, -1.00, 482.9, 852.6)">m</text><text xml:space="preserve" font-family="Helvetica-Bold,Helvetica" font-weight="bold" font-size="37.0" fill="#000000" transform="matrix(1.00, 0.00, -0.00, -1.00, 515.8, 852.6)">a</text><text xml:space="preserve" font-family="Helvetica-Bold,Helvetica" font-weight="bold" font-size="37.0" fill="#000000" transform="matrix(1.00, 0.00, -0.00, -1.00, 536.3, 852.6)">n</text><text xml:space="preserve" font-family="Helvetica-Bold,Helvetica" font-weight="bold" font-size="37.0" fill="#000000" transform="matrix(1.00, 0.00, -0.00, -1.00, 558.9, 852.6)">y</text><text xml:space="preserve" font-family="Helvetica-Bold,Helvetica" font-weight="bold" font-size="37.0" fill="#000000" transform="matrix(1.00, 0.00, -0.00, -1.00, 579.5, 852.6)"> </text><text xml:space="preserve" font-family="Helvetica-Bold,Helvetica" font-weight="bold" font-size="37.0" fill="#000000" transform="matrix(1.00, 0.00, -0.00, -1.00, 47.0, 808.6)">l</text><text xml:space="preserve" font-family="Helvetica-Bold,Helvetica" font-weight="bold" font-size="37.0" fill="#000000" transform="matrix(1.00, 0.00, -0.00, -1.00, 57.3, 808.6)">e</text><text xml:space="preserve" font-family="Helvetica-Bold,Helvetica" font-weight="bold" font-size="37.0" fill="#000000" transform="matrix(1.00, 0.00, -0.00, -1.00, 77.8, 808.6)">g</text><text xml:space="preserve" font-family="Helvetica-Bold,Helvetica" font-weight="bold" font-size="37.0" fill="#000000" transform="matrix(1.00, 0.00, -0.00, -1.00, 100.4, 808.6)">s</text><text xml:space="preserve" font-family="Helvetica-Light,Helvetica" font-size="37.0" fill="#000000" transform="matrix(1.00, 0.00, -0.00, -1.00, 121.0, 808.6)"> </text><text xml:space="preserve" font-family="Helvetica-Light,Helvetica" font-size="37.0" fill="#000000" transform="matrix(1.00, 0.00, -0.00, -1.00, 131.3, 808.6)">a</text><text xml:space="preserve" font-family="Helvetica-Light,Helvetica" font-size="37.0" fill="#000000" transform="matrix(1.00, 0.00, -0.00, -1.00, 151.9, 808.6)">r</text><text xml:space="preserve" font-family="Helvetica-Light,Helvetica" font-size="37.0" fill="#000000" transform="matrix(1.00, 0.00, -0.00, -1.00, 163.6, 808.6)">e</text><text xml:space="preserve" font-family="Helvetica-Light,Helvetica" font-size="37.0" fill="#000000" transform="matrix(1.00, 0.00, -0.00, -1.00, 184.1, 808.6)"> </text><text xml:space="preserve" font-family="Helvetica-Light,Helvetica" font-size="37.0" fill="#000000" transform="matrix(1.00, 0.00, -0.00, -1.00, 194.4, 808.6)">c</text><text xml:space="preserve" font-family="Helvetica-Light,Helvetica" font-size="37.0" fill="#000000" transform="matrix(1.00, 0.00, -0.00, -1.00, 215.0, 808.6)">u</text><text xml:space="preserve" font-family="Helvetica-Light,Helvetica" font-size="37.0" fill="#000000" transform="matrix(1.00, 0.00, -0.00, -1.00, 235.6, 808.6)">r</text><text xml:space="preserve" font-family="Helvetica-Light,Helvetica" font-size="37.0" fill="#000000" transform="matrix(1.00, 0.00, -0.00, -1.00, 247.9, 808.6)">r</text><text xml:space="preserve" font-family="Helvetica-Light,Helvetica" font-size="37.0" fill="#000000" transform="matrix(1.00, 0.00, -0.00, -1.00, 259.5, 808.6)">e</text><text xml:space="preserve" font-family="Helvetica-Light,Helvetica" font-size="37.0" fill="#000000" transform="matrix(1.00, 0.00, -0.00, -1.00, 280.1, 808.6)">n</text><text xml:space="preserve" font-family="Helvetica-Light,Helvetica" font-size="37.0" fill="#000000" transform="matrix(1.00, 0.00, -0.00, -1.00, 300.7, 808.6)">t</text><text xml:space="preserve" font-family="Helvetica-Light,Helvetica" font-size="37.0" fill="#000000" transform="matrix(1.00, 0.00, -0.00, -1.00, 311.0, 808.6)">l</text><text xml:space="preserve" font-family="Helvetica-Light,Helvetica" font-size="37.0" fill="#000000" transform="matrix(1.00, 0.00, -0.00, -1.00, 319.2, 808.6)">y</text><text xml:space="preserve" font-family="Helvetica-Light,Helvetica" font-size="37.0" fill="#000000" transform="matrix(1.00, 0.00, -0.00, -1.00, 337.7, 808.6)"> </text><text xml:space="preserve" font-family="Helvetica-Light,Helvetica" font-size="37.0" fill="#000000" transform="matrix(1.00, 0.00, -0.00, -1.00, 348.0, 808.6)">i</text><text xml:space="preserve" font-family="Helvetica-Light,Helvetica" font-size="37.0" fill="#000000" transform="matrix(1.00, 0.00, -0.00, -1.00, 356.2, 808.6)">n</text><text xml:space="preserve" font-family="Helvetica-Light,Helvetica" font-size="37.0" fill="#000000" transform="matrix(1.00, 0.00, -0.00, -1.00, 376.7, 808.6)"> </text><text xml:space="preserve" font-family="Helvetica-Light,Helvetica" font-size="37.0" fill="#000000" transform="matrix(1.00, 0.00, -0.00, -1.00, 387.0, 808.6)">t</text><text xml:space="preserve" font-family="Helvetica-Light,Helvetica" font-size="37.0" fill="#000000" transform="matrix(1.00, 0.00, -0.00, -1.00, 397.3, 808.6)">h</text><text xml:space="preserve" font-family="Helvetica-Light,Helvetica" font-size="37.0" fill="#000000" transform="matrix(1.00, 0.00, -0.00, -1.00, 417.9, 808.6)">i</text><text xml:space="preserve" font-family="Helvetica-Light,Helvetica" font-size="37.0" fill="#000000" transform="matrix(1.00, 0.00, -0.00, -1.00, 426.1, 808.6)">s</text><text xml:space="preserve" font-family="Helvetica-Light,Helvetica" font-size="37.0" fill="#000000" transform="matrix(1.00, 0.00, -0.00, -1.00, 444.6, 808.6)"> </text><text xml:space="preserve" font-family="Helvetica-Light,Helvetica" font-size="37.0" fill="#000000" transform="matrix(1.00, 0.00, -0.00, -1.00, 454.9, 808.6)">b</text><text xml:space="preserve" font-family="Helvetica-Light,Helvetica" font-size="37.0" fill="#000000" transform="matrix(1.00, 0.00, -0.00, -1.00, 477.5, 808.6)">e</text><text xml:space="preserve" font-family="Helvetica-Light,Helvetica" font-size="37.0" fill="#000000" transform="matrix(1.00, 0.00, -0.00, -1.00, 498.1, 808.6)">t</text><text xml:space="preserve" font-family="Helvetica-Light,Helvetica" font-size="37.0" fill="#000000" transform="matrix(1.00, 0.00, -0.00, -1.00, 508.4, 808.6)"> </text><text xml:space="preserve" font-family="Helvetica-Light,Helvetica" font-size="37.0" fill="#000000" transform="matrix(1.00, 0.00, -0.00, -1.00, 518.6, 808.6)">-</text><text xml:space="preserve" font-family="Helvetica-Light,Helvetica" font-size="37.0" fill="#000000" transform="matrix(1.00, 0.00, -0.00, -1.00, 531.0, 808.6)"> </text><text xml:space="preserve" font-family="Helvetica-Light,Helvetica" font-size="37.0" fill="#000000" transform="matrix(1.00, 0.00, -0.00, -1.00, 47.0, 764.6)">t</text><text xml:space="preserve" font-family="Helvetica-Light,Helvetica" font-size="37.0" fill="#000000" transform="matrix(1.00, 0.00, -0.00, -1.00, 57.3, 764.6)">h</text><text xml:space="preserve" font-family="Helvetica-Light,Helvetica" font-size="37.0" fill="#000000" transform="matrix(1.00, 0.00, -0.00, -1.00, 77.9, 764.6)">e</text><text xml:space="preserve" font-family="Helvetica-Light,Helvetica" font-size="37.0" fill="#000000" transform="matrix(1.00, 0.00, -0.00, -1.00, 98.4, 764.6)">n</text><text xml:space="preserve" font-family="Helvetica-Light,Helvetica" font-size="37.0" fill="#000000" transform="matrix(1.00, 0.00, -0.00, -1.00, 119.0, 764.6)"> </text><text xml:space="preserve" font-family="Helvetica-Light,Helvetica" font-size="37.0" fill="#000000" transform="matrix(1.00, 0.00, -0.00, -1.00, 129.3, 764.6)">t</text><text xml:space="preserve" font-family="Helvetica-Light,Helvetica" font-size="37.0" fill="#000000" transform="matrix(1.00, 0.00, -0.00, -1.00, 139.6, 764.6)">r</text><text xml:space="preserve" font-family="Helvetica-Light,Helvetica" font-size="37.0" fill="#000000" transform="matrix(1.00, 0.00, -0.00, -1.00, 152.6, 764.6)">y</text><text xml:space="preserve" font-family="Helvetica-Light,Helvetica" font-size="37.0" fill="#000000" transform="matrix(1.00, 0.00, -0.00, -1.00, 171.1, 764.6)"> </text><text xml:space="preserve" font-family="Helvetica-Light,Helvetica" font-size="37.0" fill="#000000" transform="matrix(1.00, 0.00, -0.00, -1.00, 181.3, 764.6)">t</text><text xml:space="preserve" font-family="Helvetica-Light,Helvetica" font-size="37.0" fill="#000000" transform="matrix(1.00, 0.00, -0.00, -1.00, 191.6, 764.6)">o</text><text xml:space="preserve" font-family="Helvetica-Light,Helvetica" font-size="37.0" fill="#000000" transform="matrix(1.00, 0.00, -0.00, -1.00, 212.2, 764.6)"> </text><text xml:space="preserve" font-family="Helvetica-Bold,Helvetica" font-weight="bold" font-size="37.0" fill="#000000" transform="matrix(1.00, 0.00, -0.00, -1.00, 222.5, 764.6)">a</text><text xml:space="preserve" font-family="Helvetica-Bold,Helvetica" font-weight="bold" font-size="37.0" fill="#000000" transform="matrix(1.00, 0.00, -0.00, -1.00, 243.1, 764.6)">d</text><text xml:space="preserve" font-family="Helvetica-Bold,Helvetica" font-weight="bold" font-size="37.0" fill="#000000" transform="matrix(1.00, 0.00, -0.00, -1.00, 265.7, 764.6)">d</text><text xml:space="preserve" font-family="Helvetica-Bold,Helvetica" font-weight="bold" font-size="37.0" fill="#000000" transform="matrix(1.00, 0.00, -0.00, -1.00, 288.3, 764.6)"> </text><text xml:space="preserve" font-family="Helvetica-Bold,Helvetica" font-weight="bold" font-size="37.0" fill="#000000" transform="matrix(1.00, 0.00, -0.00, -1.00, 298.5, 764.6)">C</text><text xml:space="preserve" font-family="Helvetica-Bold,Helvetica" font-weight="bold" font-size="37.0" fill="#000000" transform="matrix(1.00, 0.00, -0.00, -1.00, 325.3, 764.6)">o</text><text xml:space="preserve" font-family="Helvetica-Bold,Helvetica" font-weight="bold" font-size="37.0" fill="#000000" transform="matrix(1.00, 0.00, -0.00, -1.00, 347.9, 764.6)">s</text><text xml:space="preserve" font-family="Helvetica-Bold,Helvetica" font-weight="bold" font-size="37.0" fill="#000000" transform="matrix(1.00, 0.00, -0.00, -1.00, 368.4, 764.6)">t</text><text xml:space="preserve" font-family="Helvetica-Bold,Helvetica" font-weight="bold" font-size="37.0" fill="#000000" transform="matrix(1.00, 0.00, -0.00, -1.00, 380.8, 764.6)">a</text><text xml:space="preserve" font-family="Helvetica-Bold,Helvetica" font-weight="bold" font-size="37.0" fill="#000000" transform="matrix(1.00, 0.00, -0.00, -1.00, 401.3, 764.6)"> </text><text xml:space="preserve" font-family="Helvetica-Bold,Helvetica" font-weight="bold" font-size="37.0" fill="#000000" transform="matrix(1.00, 0.00, -0.00, -1.00, 411.6, 764.6)">R</text><text xml:space="preserve" font-family="Helvetica-Bold,Helvetica" font-weight="bold" font-size="37.0" fill="#000000" transform="matrix(1.00, 0.00, -0.00, -1.00, 438.3, 764.6)">i</text><text xml:space="preserve" font-family="Helvetica-Bold,Helvetica" font-weight="bold" font-size="37.0" fill="#000000" transform="matrix(1.00, 0.00, -0.00, -1.00, 448.6, 764.6)">c</text><text xml:space="preserve" font-family="Helvetica-Bold,Helvetica" font-weight="bold" font-size="37.0" fill="#000000" transform="matrix(1.00, 0.00, -0.00, -1.00, 469.2, 764.6)">a</text><text xml:space="preserve" font-family="Helvetica-Bold,Helvetica" font-weight="bold" font-size="37.0" fill="#000000" transform="matrix(1.00, 0.00, -0.00, -1.00, 489.8, 764.6)"> </text><text xml:space="preserve" font-family="Helvetica-Bold,Helvetica" font-weight="bold" font-size="37.0" fill="#000000" transform="matrix(1.00, 0.00, -0.00, -1.00, 500.1, 764.6)">t</text><text xml:space="preserve" font-family="Helvetica-Bold,Helvetica" font-weight="bold" font-size="37.0" fill="#000000" transform="matrix(1.00, 0.00, -0.00, -1.00, 512.4, 764.6)">o</text><text xml:space="preserve" font-family="Helvetica-Bold,Helvetica" font-weight="bold" font-size="37.0" fill="#000000" transform="matrix(1.00, 0.00, -0.00, -1.00, 535.0, 764.6)"> </text><text xml:space="preserve" font-family="Helvetica-Bold,Helvetica" font-weight="bold" font-size="37.0" fill="#000000" transform="matrix(1.00, 0.00, -0.00, -1.00, 47.0, 720.6)">t</text><text xml:space="preserve" font-family="Helvetica-Bold,Helvetica" font-weight="bold" font-size="37.0" fill="#000000" transform="matrix(1.00, 0.00, -0.00, -1.00, 59.3, 720.6)">h</text><text xml:space="preserve" font-family="Helvetica-Bold,Helvetica" font-weight="bold" font-size="37.0" fill="#000000" transform="matrix(1.00, 0.00, -0.00, -1.00, 81.9, 720.6)">e</text><text xml:space="preserve" font-family="Helvetica-Bold,Helvetica" font-weight="bold" font-size="37.0" fill="#000000" transform="matrix(1.00, 0.00, -0.00, -1.00, 102.5, 720.6)"> </text><text xml:space="preserve" font-family="Helvetica-Bold,Helvetica" font-weight="bold" font-size="37.0" fill="#000000" transform="matrix(1.00, 0.00, -0.00, -1.00, 112.8, 720.6)">M</text><text xml:space="preserve" font-family="Helvetica-Bold,Helvetica" font-weight="bold" font-size="37.0" fill="#000000" transform="matrix(1.00, 0.00, -0.00, -1.00, 143.6, 720.6)">u</text><text xml:space="preserve" font-family="Helvetica-Bold,Helvetica" font-weight="bold" font-size="37.0" fill="#000000" transform="matrix(1.00, 0.00, -0.00, -1.00, 166.2, 720.6)">l</text><text xml:space="preserve" font-family="Helvetica-Bold,Helvetica" font-weight="bold" font-size="37.0" fill="#000000" transform="matrix(1.00, 0.00, -0.00, -1.00, 176.5, 720.6)">t</text><text xml:space="preserve" font-family="Helvetica-Bold,Helvetica" font-weight="bold" font-size="37.0" fill="#000000" transform="matrix(1.00, 0.00, -0.00, -1.00, 188.8, 720.6)">i</text><text xml:space="preserve" font-family="Helvetica-Light,Helvetica" font-size="37.0" fill="#000000" transform="matrix(1.00, 0.00, -0.00, -1.00, 199.1, 720.6)"> </text><text xml:space="preserve" font-family="Helvetica-Light,Helvetica" font-size="37.0" fill="#000000" transform="matrix(1.00, 0.00, -0.00, -1.00, 209.4, 720.6)">b</text><text xml:space="preserve" font-family="Helvetica-Light,Helvetica" font-size="37.0" fill="#000000" transform="matrix(1.00, 0.00, -0.00, -1.00, 232.0, 720.6)">e</text><text xml:space="preserve" font-family="Helvetica-Light,Helvetica" font-size="37.0" fill="#000000" transform="matrix(1.00, 0.00, -0.00, -1.00, 252.5, 720.6)">t</text><text xml:space="preserve" font-family="Helvetica-Light,Helvetica" font-size="37.0" fill="#000000" transform="matrix(1.00, 0.00, -0.00, -1.00, 262.8, 720.6)"> </text><text xml:space="preserve" font-family="Helvetica-Light,Helvetica" font-size="37.0" fill="#000000" transform="matrix(1.00, 0.00, -0.00, -1.00, 273.1, 720.6)">a</text><text xml:space="preserve" font-family="Helvetica-Light,Helvetica" font-size="37.0" fill="#000000" transform="matrix(1.00, 0.00, -0.00, -1.00, 293.7, 720.6)">n</text><text xml:space="preserve" font-family="Helvetica-Light,Helvetica" font-size="37.0" fill="#000000" transform="matrix(1.00, 0.00, -0.00, -1.00, 314.3, 720.6)">d</text><text xml:space="preserve" font-family="Helvetica-Light,Helvetica" font-size="37.0" fill="#000000" transform="matrix(1.00, 0.00, -0.00, -1.00, 336.9, 720.6)"> </text><text xml:space="preserve" font-family="Helvetica-Light,Helvetica" font-size="37.0" fill="#000000" transform="matrix(1.00, 0.00, -0.00, -1.00, 347.2, 720.6)">p</text><text xml:space="preserve" font-family="Helvetica-Light,Helvetica" font-size="37.0" fill="#000000" transform="matrix(1.00, 0.00, -0.00, -1.00, 369.8, 720.6)">l</text><text xml:space="preserve" font-family="Helvetica-Light,Helvetica" font-size="37.0" fill="#000000" transform="matrix(1.00, 0.00, -0.00, -1.00, 378.0, 720.6)">a</text><text xml:space="preserve" font-family="Helvetica-Light,Helvetica" font-size="37.0" fill="#000000" transform="matrix(1.00, 0.00, -0.00, -1.00, 398.6, 720.6)">c</text><text xml:space="preserve" font-family="Helvetica-Light,Helvetica" font-size="37.0" fill="#000000" transform="matrix(1.00, 0.00, -0.00, -1.00, 419.1, 720.6)">e</text><text xml:space="preserve" font-family="Helvetica-Light,Helvetica" font-size="37.0" fill="#000000" transform="matrix(1.00, 0.00, -0.00, -1.00, 439.7, 720.6)"> </text><text xml:space="preserve" font-family="Helvetica-Light,Helvetica" font-size="37.0" fill="#000000" transform="matrix(1.00, 0.00, -0.00, -1.00, 450.0, 720.6)">a</text><text xml:space="preserve" font-family="Helvetica-Light,Helvetica" font-size="37.0" fill="#000000" transform="matrix(1.00, 0.00, -0.00, -1.00, 470.6, 720.6)"> </text><text xml:space="preserve" font-family="Helvetica-Bold,Helvetica" font-weight="bold" font-size="37.0" fill="#000000" transform="matrix(1.00, 0.00, -0.00, -1.00, 480.8, 720.6)">$</text><text xml:space="preserve" font-family="Helvetica-Bold,Helvetica" font-weight="bold" font-size="37.0" fill="#000000" transform="matrix(1.00, 0.00, -0.00, -1.00, 501.4, 720.6)">1</text><text xml:space="preserve" font-family="Helvetica-Bold,Helvetica" font-weight="bold" font-size="37.0" fill="#000000" transform="matrix(1.00, 0.00, -0.00, -1.00, 522.0, 720.6)">0</text><text xml:space="preserve" font-family="Helvetica-Light,Helvetica" font-size="37.0" fill="#000000" transform="matrix(1.00, 0.00, -0.00, -1.00, 542.6, 720.6)"> </text><text xml:space="preserve" font-family="Helvetica-Light,Helvetica" font-size="37.0" fill="#000000" transform="matrix(1.00, 0.00, -0.00, -1.00, 47.0, 676.6)">M</text><text xml:space="preserve" font-family="Helvetica-Light,Helvetica" font-size="37.0" fill="#000000" transform="matrix(1.00, 0.00, -0.00, -1.00, 77.8, 676.6)">u</text><text xml:space="preserve" font-family="Helvetica-Light,Helvetica" font-size="37.0" fill="#000000" transform="matrix(1.00, 0.00, -0.00, -1.00, 98.4, 676.6)">l</text><text xml:space="preserve" font-family="Helvetica-Light,Helvetica" font-size="37.0" fill="#000000" transform="matrix(1.00, 0.00, -0.00, -1.00, 106.6, 676.6)">t</text><text xml:space="preserve" font-family="Helvetica-Light,Helvetica" font-size="37.0" fill="#000000" transform="matrix(1.00, 0.00, -0.00, -1.00, 116.9, 676.6)">i</text><text xml:space="preserve" font-family="Helvetica-Light,Helvetica" font-size="37.0" fill="#000000" transform="matrix(1.00, 0.00, -0.00, -1.00, 125.1, 676.6)">.</text><text xml:space="preserve" font-family="Helvetica-Light,Helvetica" font-size="37.0" fill="#000000" transform="matrix(1.00, 0.00, -0.00, -1.00, 135.4, 676.6)"> </text><image xlink:href="../../C3973CD3-C593-4B6C-B28A-93820E7F420B/assets/774E3763EFA823074E43E4A6595BB7E5.png" width="543.00" height="247.00" transform="matrix(1.00, 0.00, -0.00, -1.00, 43.2, 358.1)"></image><path d="M 83.0 287.0 L 546.0 287.0 L 546.0 183.0 L 83.0 183.0 Z M 83.2 287.5 " fill="#51A7F9"></path><g><clipPath id="clip0x6180036a3fc0"><path d="M 77.2 183.3 L 551.6 183.3 L 551.6 287.5 L 77.2 287.5 Z M 77.2 183.3 "></path></clipPath><g clip-path="url(#clip0x6180036a3fc0)"><text xml:space="preserve" font-family="Helvetica-Bold,Helvetica" font-weight="bold" font-size="34.0" fill="#FEFFFE" transform="matrix(1.00, 0.00, -0.00, -1.00, 170.8, 222.8)">C</text><text xml:space="preserve" font-family="Helvetica-Bold,Helvetica" font-weight="bold" font-size="34.0" fill="#FEFFFE" transform="matrix(1.00, 0.00, -0.00, -1.00, 195.3, 222.8)">l</text><text xml:space="preserve" font-family="Helvetica-Bold,Helvetica" font-weight="bold" font-size="34.0" fill="#FEFFFE" transform="matrix(1.00, 0.00, -0.00, -1.00, 204.8, 222.8)">i</text><text xml:space="preserve" font-family="Helvetica-Bold,Helvetica" font-weight="bold" font-size="34.0" fill="#FEFFFE" transform="matrix(1.00, 0.00, -0.00, -1.00, 214.2, 222.8)">c</text><text xml:space="preserve" font-family="Helvetica-Bold,Helvetica" font-weight="bold" font-size="34.0" fill="#FEFFFE" transform="matrix(1.00, 0.00, -0.00, -1.00, 233.1, 222.8)">k</text><text xml:space="preserve" font-family="Helvetica-Bold,Helvetica" font-weight="bold" font-size="34.0" fill="#FEFFFE" transform="matrix(1.00, 0.00, -0.00, -1.00, 252.0, 222.8)"> </text><text xml:space="preserve" font-family="Helvetica-Bold,Helvetica" font-weight="bold" font-size="34.0" fill="#FEFFFE" transform="matrix(1.00, 0.00, -0.00, -1.00, 261.5, 222.8)">h</text><text xml:space="preserve" font-family="Helvetica-Bold,Helvetica" font-weight="bold" font-size="34.0" fill="#FEFFFE" transform="matrix(1.00, 0.00, -0.00, -1.00, 282.2, 222.8)">e</text><text xml:space="preserve" font-family="Helvetica-Bold,Helvetica" font-weight="bold" font-size="34.0" fill="#FEFFFE" transform="matrix(1.00, 0.00, -0.00, -1.00, 301.2, 222.8)">r</text><text xml:space="preserve" font-family="Helvetica-Bold,Helvetica" font-weight="bold" font-size="34.0" fill="#FEFFFE" transform="matrix(1.00, 0.00, -0.00, -1.00, 314.4, 222.8)">e</text><text xml:space="preserve" font-family="Helvetica-Bold,Helvetica" font-weight="bold" font-size="34.0" fill="#FEFFFE" transform="matrix(1.00, 0.00, -0.00, -1.00, 333.3, 222.8)"> </text><text xml:space="preserve" font-family="Helvetica-Bold,Helvetica" font-weight="bold" font-size="34.0" fill="#FEFFFE" transform="matrix(1.00, 0.00, -0.00, -1.00, 342.8, 222.8)">t</text><text xml:space="preserve" font-family="Helvetica-Bold,Helvetica" font-weight="bold" font-size="34.0" fill="#FEFFFE" transform="matrix(1.00, 0.00, -0.00, -1.00, 354.1, 222.8)">o</text><text xml:space="preserve" font-family="Helvetica-Bold,Helvetica" font-weight="bold" font-size="34.0" fill="#FEFFFE" transform="matrix(1.00, 0.00, -0.00, -1.00, 374.8, 222.8)"> </text><text xml:space="preserve" font-family="Helvetica-Bold,Helvetica" font-weight="bold" font-size="34.0" fill="#FEFFFE" transform="matrix(1.00, 0.00, -0.00, -1.00, 384.3, 222.8)">s</text><text xml:space="preserve" font-family="Helvetica-Bold,Helvetica" font-weight="bold" font-size="34.0" fill="#FEFFFE" transform="matrix(1.00, 0.00, -0.00, -1.00, 403.2, 222.8)">t</text><text xml:space="preserve" font-family="Helvetica-Bold,Helvetica" font-weight="bold" font-size="34.0" fill="#FEFFFE" transform="matrix(1.00, 0.00, -0.00, -1.00, 414.5, 222.8)">a</text><text xml:space="preserve" font-family="Helvetica-Bold,Helvetica" font-weight="bold" font-size="34.0" fill="#FEFFFE" transform="matrix(1.00, 0.00, -0.00, -1.00, 433.4, 222.8)">r</text><text xml:space="preserve" font-family="Helvetica-Bold,Helvetica" font-weight="bold" font-size="34.0" fill="#FEFFFE" transform="matrix(1.00, 0.00, -0.00, -1.00, 446.7, 222.8)">t</text></g></g></g></svg>