<?xml version="1.0" encoding="UTF-8" standalone="no"?><svg xmlns="http://www.w3.org/2000/svg" xmlns:xlink="http://www.w3.org/1999/xlink" clip-rule="evenodd" stroke-miterlimit="10" viewBox="0 0 640 1136"><desc>SVG generated by Keynote</desc><defs><pattern id="patternP1" patternUnits="userSpaceOnUse" width="600" height="600" viewBox="0 0 600 600"><image xlink:href="../../F406FC2A-1AC9-4683-A2EA-EC8BC4ECBEC3/assets/666B212E2B8D6EBEC305652CC897E4F6.png" width="600.00" height="600.00"></image></pattern></defs><g transform="matrix(1.00, 0.00, -0.00, -1.00, 0.0, 1136.0)"><path d="M 0.0 1136.0 L 640.0 1136.0 L 640.0 0.0 L 0.0 0.0 Z M 0.0 1136.0 " fill="#FEFFFF"></path><g><clipPath id="clip0x6080018a0c60"><path d="M 0.0 -31.0 L 20.0 -31.0 L 20.0 995.0 L 0.0 995.0 Z M 0.0 -31.0 "></path></clipPath><g clip-path="url(#clip0x6080018a0c60)"><path d="M 0.0 995.0 L 20.0 995.0 L 20.0 -31.0 L 0.0 -31.0 Z M 0.0 995.0 " fill="#248F52"></path></g></g><g><clipPath id="clip0x6080018ac060"><path d="M 0.0 35.0 L 640.0 35.0 L 640.0 1137.0 L 0.0 1137.0 Z M 0.0 35.0 "></path></clipPath><g clip-path="url(#clip0x6080018ac060)"><path d="M 0.0 1061.0 L 20.0 1061.0 L 20.0 35.0 L 0.0 35.0 Z M 0.0 1061.0 " fill="#248F52"></path><path d="M 19.5 639.5 L 29.5 639.5 C 32.3 639.5 34.5 637.3 34.5 634.5 L 34.5 560.0 C 34.5 557.2 32.3 555.0 29.5 555.0 L 19.5 555.0 C 16.7 555.0 14.5 557.2 14.5 560.0 L 14.5 634.5 C 14.5 637.3 16.7 639.5 19.5 639.5 Z M 19.5 639.5 " fill="#248F52"></path><path d="M 28.0 617.8 C 30.0 615.8 30.0 612.7 28.0 610.7 C 26.1 608.8 22.9 608.8 21.0 610.7 C 19.0 612.7 19.0 615.8 21.0 617.8 C 22.9 619.7 26.1 619.7 28.0 617.8 " fill="#FEFFFF"></path><path d="M 28.0 583.8 C 30.0 581.8 30.0 578.7 28.0 576.7 C 26.1 574.8 22.9 574.8 21.0 576.7 C 19.0 578.7 19.0 581.8 21.0 583.8 C 22.9 585.7 26.1 585.7 28.0 583.8 " fill="#FEFFFF"></path><path d="M 28.0 600.8 C 30.0 598.8 30.0 595.7 28.0 593.7 C 26.1 591.8 22.9 591.8 21.0 593.7 C 19.0 595.7 19.0 598.8 21.0 600.8 C 22.9 602.7 26.1 602.7 28.0 600.8 " fill="#FEFFFF"></path><path d="M 0.0 1137.0 L 640.0 1137.0 L 640.0 1057.0 L 0.0 1057.0 Z M 0.0 1137.0 " fill="#248F52"></path><path d="M 20.0 1119.0 L 65.0 1119.0 L 65.0 1111.0 L 20.0 1111.0 Z M 20.0 1119.0 " fill="#FEFFFF"></path><path d="M 20.0 1101.0 L 65.0 1101.0 L 65.0 1093.0 L 20.0 1093.0 Z M 20.0 1101.0 " fill="#FEFFFF"></path><path d="M 20.0 1083.0 L 65.0 1083.0 L 65.0 1075.0 L 20.0 1075.0 Z M 20.0 1083.0 " fill="#FEFFFF"></path></g></g><g><clipPath id="clip0x608001ca7620"><path d="M 291.8 1129.2 L 356.2 1129.2 L 356.2 1064.8 L 291.8 1064.8 Z M 291.8 1129.2 "></path></clipPath><g clip-path="url(#clip0x608001ca7620)"><g><clipPath id="clip0x608001ca7380"><path d="M 291.8 1064.8 L 356.2 1064.8 L 356.2 1129.2 L 291.8 1129.2 Z M 291.8 1064.8 "></path></clipPath><g clip-path="url(#clip0x608001ca7380)"><g><g><clipPath id="clip0x608001ca7080"><path d="M 291.8 1064.8 L 356.2 1064.8 L 356.2 1129.2 L 291.8 1129.2 Z M 291.8 1064.8 "></path></clipPath><g clip-path="url(#clip0x608001ca7080)"><g><g><clipPath id="clip0x608001ca6ba0"><path d="M 291.8 1129.2 L 356.2 1129.2 L 356.2 1064.8 L 291.8 1064.8 Z M 291.8 1129.2 "></path></clipPath><g clip-path="url(#clip0x608001ca6ba0)"><g><clipPath id="clip0x608001ca5f40"><path d="M 291.8 1064.8 L 356.2 1064.8 L 356.2 1129.2 L 291.8 1129.2 Z M 291.8 1064.8 "></path></clipPath><g clip-path="url(#clip0x608001ca5f40)"><path d="M 356.2 1086.2 C 356.2 1083.9 354.3 1081.5 352.0 1080.9 L 349.6 1080.3 L 291.8 1064.8 L 291.8 1103.6 C 291.8 1108.2 295.5 1112.9 300.1 1114.2 L 302.5 1114.8 L 356.2 1129.2 L 356.2 1086.2 " fill="#FFFEFE"></path></g></g></g></g><g><clipPath id="clip0x608001ca6900"><path d="M 291.8 1064.8 L 356.2 1064.8 L 356.2 1129.2 L 291.8 1129.2 Z M 291.8 1064.8 "></path></clipPath><g clip-path="url(#clip0x608001ca6900)"><path d="M 345.0 1091.4 C 345.0 1090.1 344.3 1089.6 342.3 1089.6 L 339.4 1089.6 L 339.4 1094.6 L 343.1 1094.6 C 344.4 1094.6 345.0 1094.0 345.0 1092.9 L 345.0 1091.4 Z M 339.4 1103.2 L 342.4 1103.2 C 344.1 1103.2 344.3 1102.5 344.3 1101.9 L 344.3 1099.7 C 344.3 1098.9 343.6 1098.4 342.4 1098.4 L 339.4 1098.4 L 339.4 1103.2 Z M 347.4 1096.9 C 348.6 1097.7 349.1 1098.7 349.1 1100.1 L 349.1 1102.2 C 349.1 1105.5 347.1 1107.1 342.9 1107.1 L 334.4 1107.1 L 334.4 1085.7 L 343.6 1085.7 C 347.6 1085.7 349.9 1087.7 349.9 1091.0 L 349.9 1093.0 C 349.9 1094.7 348.9 1096.2 347.4 1096.9 " fill="#0F7C3F"></path><path d="M 313.6 1102.3 C 314.2 1102.4 314.7 1102.9 314.7 1103.5 L 314.7 1103.7 L 314.7 1107.1 L 300.6 1107.1 C 299.3 1107.1 298.2 1106.0 298.2 1104.7 L 298.2 1102.3 L 303.8 1102.3 L 303.8 1085.7 L 306.7 1085.7 C 308.0 1085.7 309.1 1086.8 309.1 1088.1 L 309.1 1102.3 L 313.6 1102.3 " fill="#0F7C3F"></path><path d="M 320.8 1094.0 L 323.0 1101.8 L 325.1 1094.0 L 320.8 1094.0 Z M 327.3 1104.0 C 326.8 1105.8 325.0 1107.1 323.0 1107.1 L 319.6 1107.1 L 313.1 1085.7 L 317.2 1085.7 C 317.2 1085.7 317.3 1085.7 317.4 1085.7 C 317.6 1085.7 317.8 1085.7 317.8 1085.7 C 318.3 1085.7 318.7 1086.1 318.9 1086.5 L 319.0 1086.7 L 319.8 1089.8 L 326.2 1089.8 L 327.4 1085.7 L 332.9 1085.7 L 327.3 1103.9 L 327.3 1104.0 " fill="#0F7C3F"></path></g></g></g></g></g></g></g></g></g></g><g><clipPath id="clip0x608001ca6660"><path d="M 0.0 35.0 L 640.0 35.0 L 640.0 1137.0 L 0.0 1137.0 Z M 0.0 35.0 "></path></clipPath><g clip-path="url(#clip0x608001ca6660)"><text xml:space="preserve" font-family="HelveticaNeue-Bold,Helvetica Neue" font-weight="bold" font-size="16.0" fill="#FFFFFF" transform="matrix(1.00, 0.00, -0.00, -1.00, 579.2, 1095.5)">L</text><text xml:space="preserve" font-family="HelveticaNeue-Bold,Helvetica Neue" font-weight="bold" font-size="16.0" fill="#FFFFFF" transform="matrix(1.00, 0.00, -0.00, -1.00, 588.7, 1095.5)">o</text><text xml:space="preserve" font-family="HelveticaNeue-Bold,Helvetica Neue" font-weight="bold" font-size="16.0" fill="#FFFFFF" transform="matrix(1.00, 0.00, -0.00, -1.00, 598.4, 1095.5)">g</text><text xml:space="preserve" font-family="HelveticaNeue-Bold,Helvetica Neue" font-weight="bold" font-size="16.0" fill="#FFFFFF" transform="matrix(1.00, 0.00, -0.00, -1.00, 608.2, 1095.5)">i</text><text xml:space="preserve" font-family="HelveticaNeue-Bold,Helvetica Neue" font-weight="bold" font-size="16.0" fill="#FFFFFF" transform="matrix(1.00, 0.00, -0.00, -1.00, 612.3, 1095.5)">n</text></g></g><path d="M 0.0 1057.0 L 640.0 1057.0 L 640.0 0.0 L 0.0 0.0 Z M 0.3 1057.3 " fill="#FEFFFE"></path><g><clipPath id="clip0x608001ca5c40"><path d="M 608.7 32.0 L 642.7 32.0 L 642.7 1058.0 L 608.7 1058.0 Z M 608.7 32.0 "></path></clipPath><g clip-path="url(#clip0x608001ca5c40)"><path d="M 643.3 32.0 L 623.3 32.0 L 623.3 1058.0 L 643.3 1058.0 Z M 643.3 32.0 " fill="#248F52"></path><path d="M 623.7 524.5 L 613.7 524.5 C 611.0 524.5 608.7 526.7 608.7 529.5 L 608.7 604.0 C 608.7 606.8 611.0 609.0 613.7 609.0 L 623.7 609.0 C 626.5 609.0 628.7 606.8 628.7 604.0 L 628.7 529.5 C 628.7 526.7 626.5 524.5 623.7 524.5 Z M 623.7 524.5 " fill="#248F52"></path><path d="M 615.2 546.2 C 613.3 548.2 613.3 551.3 615.2 553.3 C 617.2 555.2 620.3 555.2 622.3 553.3 C 624.2 551.3 624.2 548.2 622.3 546.2 C 620.3 544.3 617.2 544.3 615.2 546.2 " fill="#FEFFFF"></path><path d="M 615.2 580.2 C 613.3 582.2 613.3 585.3 615.2 587.3 C 617.2 589.2 620.3 589.2 622.3 587.3 C 624.2 585.3 624.2 582.2 622.3 580.2 C 620.3 578.3 617.2 578.3 615.2 580.2 " fill="#FEFFFF"></path><path d="M 615.2 563.2 C 613.3 565.2 613.3 568.3 615.2 570.3 C 617.2 572.2 620.3 572.2 622.3 570.3 C 624.2 568.3 624.2 565.2 622.3 563.2 C 620.3 561.3 617.2 561.3 615.2 563.2 " fill="#FEFFFF"></path></g></g><g><clipPath id="clip0x608001ca48c0"><path d="M 623.0 -865.0 L 643.0 -865.0 L 643.0 161.0 L 623.0 161.0 Z M 623.0 -865.0 "></path></clipPath><g clip-path="url(#clip0x608001ca48c0)"><path d="M 643.0 -865.0 L 623.0 -865.0 L 623.0 161.0 L 643.0 161.0 Z M 643.0 -865.0 " fill="#248F52"></path></g></g><image xlink:href="../../68183ACD-66C9-4234-8543-82B4979C9ACD/assets/6248D3A2CF9D829AE75F53274956CEFF.png" width="1346.00" height="2198.00" transform="matrix(0.48, 0.00, -0.00, -0.48, -8.0, 1057.6)"></image><g><clipPath id="clip0x6180012add40"><path d="M 605.8 39.5 L 639.8 39.5 L 639.8 1065.5 L 605.8 1065.5 Z M 605.8 39.5 "></path></clipPath><g clip-path="url(#clip0x6180012add40)"><path d="M 620.2 1065.5 L 640.2 1065.5 L 640.2 39.5 L 620.2 39.5 Z M 620.2 1065.5 " fill="#248F52"></path><path d="M 610.8 644.0 L 620.8 644.0 C 623.5 644.0 625.8 641.8 625.8 639.0 L 625.8 564.5 C 625.8 561.7 623.5 559.5 620.8 559.5 L 610.8 559.5 C 608.0 559.5 605.8 561.7 605.8 564.5 L 605.8 639.0 C 605.8 641.8 608.0 644.0 610.8 644.0 Z M 610.8 644.0 " fill="#248F52"></path><path d="M 619.3 622.3 C 621.2 620.3 621.2 617.2 619.3 615.2 C 617.3 613.3 614.2 613.3 612.2 615.2 C 610.3 617.2 610.3 620.3 612.2 622.3 C 614.2 624.2 617.3 624.2 619.3 622.3 " fill="#FEFFFF"></path><path d="M 619.3 588.3 C 621.2 586.3 621.2 583.2 619.3 581.2 C 617.3 579.3 614.2 579.3 612.2 581.2 C 610.3 583.2 610.3 586.3 612.2 588.3 C 614.2 590.2 617.3 590.2 619.3 588.3 " fill="#FEFFFF"></path><path d="M 619.3 605.3 C 621.2 603.3 621.2 600.2 619.3 598.2 C 617.3 596.3 614.2 596.3 612.2 598.2 C 610.3 600.2 610.3 603.3 612.2 605.3 C 614.2 607.2 617.3 607.2 619.3 605.3 " fill="#FEFFFF"></path></g></g><g><clipPath id="clip0x6180014b45e0"><path d="M 620.0 121.0 L 640.0 121.0 L 640.0 -9.0 L 620.0 -9.0 Z M 620.0 120.5 "></path></clipPath><g clip-path="url(#clip0x6180014b45e0)"><g><clipPath id="clip0x6180012bc4a0"><path d="M 619.0 -9.6 L 641.0 -9.6 L 641.0 121.5 L 619.0 121.5 Z M 619.0 -9.6 "></path></clipPath><g clip-path="url(#clip0x6180012bc4a0)"><image xlink:href="../../A2F00972-81E0-4C88-8BBE-BB18EECAFB21/assets/16FAF09D8FE0F6AB4BB4DFFF2C8A6356.png" width="600.00" height="600.00" transform="matrix(0.50, 0.00, -0.00, -0.50, 620.0, 121.0)"></image></g></g></g></g><g><clipPath id="clip0x6000022a86a0"><path d="M 558.7 61.0 L 592.7 61.0 L 592.7 1087.0 L 558.7 1087.0 Z M 558.7 61.0 "></path></clipPath><g clip-path="url(#clip0x6000022a86a0)"><path d="M 593.3 61.0 L 573.3 61.0 L 573.3 1087.0 L 593.3 1087.0 Z M 593.3 61.0 " fill="#248F52"></path><path d="M 573.7 553.5 L 563.7 553.5 C 561.0 553.5 558.7 555.7 558.7 558.5 L 558.7 633.0 C 558.7 635.8 561.0 638.0 563.7 638.0 L 573.7 638.0 C 576.5 638.0 578.7 635.8 578.7 633.0 L 578.7 558.5 C 578.7 555.7 576.5 553.5 573.7 553.5 Z M 573.7 553.5 " fill="#248F52"></path><path d="M 565.2 575.2 C 563.3 577.2 563.3 580.3 565.2 582.3 C 567.2 584.2 570.3 584.2 572.3 582.3 C 574.2 580.3 574.2 577.2 572.3 575.2 C 570.3 573.3 567.2 573.3 565.2 575.2 " fill="#FEFFFF"></path><path d="M 565.2 609.2 C 563.3 611.2 563.3 614.3 565.2 616.3 C 567.2 618.2 570.3 618.2 572.3 616.3 C 574.2 614.3 574.2 611.2 572.3 609.2 C 570.3 607.3 567.2 607.3 565.2 609.2 " fill="#FEFFFF"></path><path d="M 565.2 592.2 C 563.3 594.2 563.3 597.3 565.2 599.3 C 567.2 601.2 570.3 601.2 572.3 599.3 C 574.2 597.3 574.2 594.2 572.3 592.2 C 570.3 590.3 567.2 590.3 565.2 592.2 " fill="#FEFFFF"></path></g></g><g><clipPath id="clip0x6000020b5fc0"><path d="M 573.0 -836.0 L 593.0 -836.0 L 593.0 190.0 L 573.0 190.0 Z M 573.0 -836.0 "></path></clipPath><g clip-path="url(#clip0x6000020b5fc0)"><path d="M 593.0 -836.0 L 573.0 -836.0 L 573.0 190.0 L 593.0 190.0 Z M 593.0 -836.0 " fill="#248F52"></path></g></g><g><clipPath id="clip0x6000018beb40"><path d="M 593.0 1058.0 L 642.0 1058.0 L 642.0 0.0 L 593.0 0.0 Z M 592.9 1057.7 "></path></clipPath><g clip-path="url(#clip0x6000018beb40)"><path d="M 593.0 0.0 L 640.0 0.0 L 640.0 1058.0 L 593.0 1058.0 Z M 593.0 0.0 " fill="url(#patternP1)"></path></g></g><g><clipPath id="clip0x6180014b1100"><path d="M 542.0 566.0 L 600.0 566.0 L 600.0 624.0 L 542.0 624.0 Z M 542.0 566.0 "></path></clipPath><g clip-path="url(#clip0x6180014b1100)"><image xlink:href="../../A2F00972-81E0-4C88-8BBE-BB18EECAFB21/assets/91DBD71358BAC7E49F281CAE82EA4070.png" width="58.00" height="58.00" transform="matrix(1.00, 0.00, -0.00, 1.00, 542.0, 566.0)"></image><path d="M 585.1 610.1 C 593.0 602.3 593.0 589.7 585.1 581.9 C 577.3 574.0 564.7 574.0 556.9 581.9 C 549.0 589.7 549.0 602.3 556.9 610.1 C 564.7 618.0 577.3 618.0 585.1 610.1 " fill="#FCCB2F"></path><path d="M 3800.1 11688.9 C 3808.0 11696.7 3808.0 11709.3 3800.1 11717.1 C 3792.3 11725.0 3779.7 11725.0 3771.9 11717.1 C 3764.0 11709.3 3764.0 11696.7 3771.9 11688.9 C 3779.7 11681.1 3792.3 11681.1 3800.1 11688.9 " fill="none" stroke="#FEFFFF" stroke-width="3.00" stroke-linecap="round" stroke-linejoin="round" transform="matrix(1.00, 0.00, 0.00, -1.00, -3215.0, 12299.0)"></path><text xml:space="preserve" font-family="Helvetica-Bold,Helvetica" font-weight="bold" font-size="19.2" fill="#000000" transform="matrix(1.00, 0.00, -0.00, -1.00, 565.7, 588.5)">4</text></g></g></g></svg>