<?xml version="1.0" encoding="UTF-8" standalone="no"?><svg xmlns="http://www.w3.org/2000/svg" xmlns:xlink="http://www.w3.org/1999/xlink" clip-rule="evenodd" stroke-miterlimit="10" viewBox="0 0 640 1136"><desc>SVG generated by Keynote</desc><defs></defs><g transform="matrix(1.00, 0.00, -0.00, -1.00, 0.0, 1136.0)"><path d="M 0.0 1136.0 L 640.0 1136.0 L 640.0 0.0 L 0.0 0.0 Z M 0.0 1136.0 " fill="#FEFFFF"></path><g><clipPath id="clip0x6180020a0d80"><path d="M 0.0 1056.0 L 640.0 1056.0 L 640.0 1136.0 L 0.0 1136.0 Z M 0.0 1056.0 "></path></clipPath><g clip-path="url(#clip0x6180020a0d80)"><path d="M 0.0 1136.0 L 640.0 1136.0 L 640.0 1056.0 L 0.0 1056.0 Z M 0.0 1136.0 " fill="#248F52"></path><path d="M 20.0 1118.0 L 65.0 1118.0 L 65.0 1110.0 L 20.0 1110.0 Z M 20.0 1118.0 " fill="#FEFFFF"></path><path d="M 20.0 1100.0 L 65.0 1100.0 L 65.0 1092.0 L 20.0 1092.0 Z M 20.0 1100.0 " fill="#FEFFFF"></path><path d="M 20.0 1082.0 L 65.0 1082.0 L 65.0 1074.0 L 20.0 1074.0 Z M 20.0 1082.0 " fill="#FEFFFF"></path></g></g><g><clipPath id="clip0x6180020a0840"><path d="M 291.8 1128.2 L 356.2 1128.2 L 356.2 1063.8 L 291.8 1063.8 Z M 291.8 1128.2 "></path></clipPath><g clip-path="url(#clip0x6180020a0840)"><g><clipPath id="clip0x6180020a06c0"><path d="M 291.8 1063.8 L 356.2 1063.8 L 356.2 1128.2 L 291.8 1128.2 Z M 291.8 1063.8 "></path></clipPath><g clip-path="url(#clip0x6180020a06c0)"><g><g><clipPath id="clip0x6180020a04e0"><path d="M 291.8 1063.8 L 356.2 1063.8 L 356.2 1128.2 L 291.8 1128.2 Z M 291.8 1063.8 "></path></clipPath><g clip-path="url(#clip0x6180020a04e0)"><g><g><clipPath id="clip0x6180020a0300"><path d="M 291.8 1128.2 L 356.2 1128.2 L 356.2 1063.8 L 291.8 1063.8 Z M 291.8 1128.2 "></path></clipPath><g clip-path="url(#clip0x6180020a0300)"><g><clipPath id="clip0x6180020a0180"><path d="M 291.8 1063.8 L 356.2 1063.8 L 356.2 1128.2 L 291.8 1128.2 Z M 291.8 1063.8 "></path></clipPath><g clip-path="url(#clip0x6180020a0180)"><path d="M 356.2 1085.2 C 356.2 1082.9 354.3 1080.5 352.0 1079.9 L 349.6 1079.3 L 291.8 1063.8 L 291.8 1102.6 C 291.8 1107.2 295.5 1111.9 300.1 1113.2 L 302.5 1113.8 L 356.2 1128.2 L 356.2 1085.2 " fill="#FFFEFE"></path></g></g></g></g><g><clipPath id="clip0x618001ebff80"><path d="M 291.8 1063.8 L 356.2 1063.8 L 356.2 1128.2 L 291.8 1128.2 Z M 291.8 1063.8 "></path></clipPath><g clip-path="url(#clip0x618001ebff80)"><path d="M 345.0 1090.4 C 345.0 1089.1 344.3 1088.6 342.3 1088.6 L 339.4 1088.6 L 339.4 1093.6 L 343.1 1093.6 C 344.4 1093.6 345.0 1093.0 345.0 1091.9 L 345.0 1090.4 Z M 339.4 1102.2 L 342.4 1102.2 C 344.1 1102.2 344.3 1101.5 344.3 1100.9 L 344.3 1098.7 C 344.3 1097.9 343.6 1097.4 342.4 1097.4 L 339.4 1097.4 L 339.4 1102.2 Z M 347.4 1095.9 C 348.6 1096.7 349.1 1097.7 349.1 1099.1 L 349.1 1101.2 C 349.1 1104.5 347.1 1106.1 342.9 1106.1 L 334.4 1106.1 L 334.4 1084.7 L 343.6 1084.7 C 347.6 1084.7 349.9 1086.7 349.9 1090.0 L 349.9 1092.0 C 349.9 1093.7 348.9 1095.2 347.4 1095.9 " fill="#0F7C3F"></path><path d="M 313.6 1101.3 C 314.2 1101.4 314.7 1101.9 314.7 1102.5 L 314.7 1102.7 L 314.7 1106.1 L 300.6 1106.1 C 299.3 1106.1 298.2 1105.0 298.2 1103.7 L 298.2 1101.3 L 303.8 1101.3 L 303.8 1084.7 L 306.7 1084.7 C 308.0 1084.7 309.1 1085.8 309.1 1087.1 L 309.1 1101.3 L 313.6 1101.3 " fill="#0F7C3F"></path><path d="M 320.8 1093.0 L 323.0 1100.8 L 325.1 1093.0 L 320.8 1093.0 Z M 327.3 1103.0 C 326.8 1104.8 325.0 1106.1 323.0 1106.1 L 319.6 1106.1 L 313.1 1084.7 L 317.2 1084.7 C 317.2 1084.7 317.3 1084.7 317.4 1084.7 C 317.6 1084.7 317.8 1084.7 317.8 1084.7 C 318.3 1084.7 318.7 1085.1 318.9 1085.5 L 319.0 1085.7 L 319.8 1088.8 L 326.2 1088.8 L 327.4 1084.7 L 332.9 1084.7 L 327.3 1102.9 L 327.3 1103.0 " fill="#0F7C3F"></path></g></g></g></g></g></g></g></g></g></g><image xlink:href="../../C79EBE11-954B-4B94-8ED4-63D3C67F7876/assets/DC9511BD2F5F6972084DE6E857ADA9CE.png" width="642.00" height="1061.00" transform="matrix(1.00, 0.00, -0.00, -1.00, -1.0, 1055.2)" opacity="0.50"></image><path d="M 0.0 1055.0 L 640.0 1055.0 L 640.0 -4.0 L 0.0 -4.0 Z M 0.0 1055.2 " fill="#2B8E54"></path><text xml:space="preserve" font-family="Helvetica-Light,Helvetica" font-size="52.0" fill="#FEFFFE" transform="matrix(1.00, 0.00, -0.00, -1.00, 192.8, 641.0)">T</text><text xml:space="preserve" font-family="Helvetica-Light,Helvetica" font-size="52.0" fill="#FEFFFE" transform="matrix(1.00, 0.00, -0.00, -1.00, 221.7, 641.0)">h</text><text xml:space="preserve" font-family="Helvetica-Light,Helvetica" font-size="52.0" fill="#FEFFFE" transform="matrix(1.00, 0.00, -0.00, -1.00, 250.6, 641.0)">a</text><text xml:space="preserve" font-family="Helvetica-Light,Helvetica" font-size="52.0" fill="#FEFFFE" transform="matrix(1.00, 0.00, -0.00, -1.00, 279.5, 641.0)">n</text><text xml:space="preserve" font-family="Helvetica-Light,Helvetica" font-size="52.0" fill="#FEFFFE" transform="matrix(1.00, 0.00, -0.00, -1.00, 308.5, 641.0)">k</text><text xml:space="preserve" font-family="Helvetica-Light,Helvetica" font-size="52.0" fill="#FEFFFE" transform="matrix(1.00, 0.00, -0.00, -1.00, 334.5, 641.0)"> </text><text xml:space="preserve" font-family="Helvetica-Light,Helvetica" font-size="52.0" fill="#FEFFFE" transform="matrix(1.00, 0.00, -0.00, -1.00, 348.9, 641.0)">y</text><text xml:space="preserve" font-family="Helvetica-Light,Helvetica" font-size="52.0" fill="#FEFFFE" transform="matrix(1.00, 0.00, -0.00, -1.00, 374.9, 641.0)">o</text><text xml:space="preserve" font-family="Helvetica-Light,Helvetica" font-size="52.0" fill="#FEFFFE" transform="matrix(1.00, 0.00, -0.00, -1.00, 403.8, 641.0)">u</text><text xml:space="preserve" font-family="Helvetica-Light,Helvetica" font-size="52.0" fill="#FEFFFE" transform="matrix(1.00, 0.00, -0.00, -1.00, 432.7, 641.0)">.</text><image xlink:href="../../C79EBE11-954B-4B94-8ED4-63D3C67F7876/assets/7CE64AC6FC84D18384278F5316C6A6EA.png" width="543.00" height="247.00" transform="matrix(1.00, 0.00, -0.00, -1.00, 48.8, 334.6)"></image><path d="M 89.0 264.0 L 551.0 264.0 L 551.0 160.0 L 89.0 160.0 Z M 88.8 264.0 " fill="#51A7F9"></path><g><clipPath id="clip0x6080024b43a0"><path d="M 82.8 159.8 L 557.2 159.8 L 557.2 264.0 L 82.8 264.0 Z M 82.8 159.8 "></path></clipPath><g clip-path="url(#clip0x6080024b43a0)"><text xml:space="preserve" font-family="Helvetica-Bold,Helvetica" font-weight="bold" font-size="34.0" fill="#FEFFFE" transform="matrix(1.00, 0.00, -0.00, -1.00, 283.2, 199.3)">N</text><text xml:space="preserve" font-family="Helvetica-Bold,Helvetica" font-weight="bold" font-size="34.0" fill="#FEFFFE" transform="matrix(1.00, 0.00, -0.00, -1.00, 307.7, 199.3)">e</text><text xml:space="preserve" font-family="Helvetica-Bold,Helvetica" font-weight="bold" font-size="34.0" fill="#FEFFFE" transform="matrix(1.00, 0.00, -0.00, -1.00, 326.6, 199.3)">x</text><text xml:space="preserve" font-family="Helvetica-Bold,Helvetica" font-weight="bold" font-size="34.0" fill="#FEFFFE" transform="matrix(1.00, 0.00, -0.00, -1.00, 345.5, 199.3)">t</text></g></g></g></svg>